<svg contentScriptType="text/ecmascript" xmlns:xlink="http://www.w3.org/1999/xlink" zoomAndPan="magnify" contentStyleType="text/css" preserveAspectRatio="xMidYMid meet" xmlns="http://www.w3.org/2000/svg" version="1.0"><g id="DSS_TACK_C_State_Selected"><g id="_C1166B_SYMBOLS_DSS_C1166B_DSS_TACK_C_HIGHLIGHT_2_SELECTED_SVG" transform="translate(-100.0 -100.0)scale(1.0 1.0)"><rect x="44.0" fill="red" width="112.0" height="42.0" y="79.0" opacity="0"/><g id="DSS/C1166B_DSS_TACK_C_Highlight_2_Selected" transform="matrix(1.000000, 0, 0, 1.000000, 100.000000, 100.000000)">

  
  <polygon fill="#FFFFCF" class="AnPolygon" fill-rule="evenodd" points="-55,-20 -51,-20 -51,-4 -55,-4 "/>

  
  <polygon fill="#FFFFCF" class="AnPolygon" fill-rule="evenodd" points="-55,-20 -39,-20 -39,-16 -55,-16 "/>

  
  <polygon fill="#FFFFCF" class="AnPolygon" fill-rule="evenodd" points="55,-4 55,-20 52,-20 52,-4 "/>

  
  <polygon fill="#FFFFCF" class="AnPolygon" fill-rule="evenodd" points="-39,20 -55,20 -55,17 -39,17 "/>

  
  <polygon fill="#FFFFCF" class="AnPolygon" fill-rule="evenodd" points="55,20 40,20 40,17 55,17 "/>

  
  <polygon fill="#FFFFCF" class="AnPolygon" fill-rule="evenodd" points="-55,5 -51,5 -51,20 -55,20 "/>

  
  <polygon fill="#FFFFCF" class="AnPolygon" fill-rule="evenodd" points="40,-20 55,-20 55,-16 40,-16 "/>

  
  <polygon fill="#FFFFCF" class="AnPolygon" fill-rule="evenodd" points="52,5 55,5 55,20 52,20 "/>

</g><animate dur="1.0" attributeName="visibility" from="hidden" repeatCount="indefinite" to="visible"/></g></g></svg>