<svg contentScriptType="text/ecmascript" xmlns:xlink="http://www.w3.org/1999/xlink" zoomAndPan="magnify" contentStyleType="text/css" preserveAspectRatio="xMidYMid meet" xmlns="http://www.w3.org/2000/svg" version="1.0"><g id="DSS_TACK_F_State_Selected"><g id="_C1166B_SYMBOLS_DSS_C1166B_DSS_TACK_F_HIGHLIGHT_2_SELECTED_SVG" transform="translate(-100.0 -100.0)scale(1.0 1.0)"><rect x="14.0" fill="red" width="172.0" height="42.0" y="79.0" opacity="0"/><g id="DSS/C1166B_DSS_TACK_F_Highlight_2_Selected" transform="matrix(1.000000, 0, 0, 1.000000, 100.000000, 100.000000)">

  
  <polygon fill="#FFFFCF" class="AnPolygon" fill-rule="evenodd" points="-85,-20 -81,-20 -81,-4 -85,-4 "/>

  
  <polygon fill="#FFFFCF" class="AnPolygon" fill-rule="evenodd" points="-85,-20 -69,-20 -69,-16 -85,-16 "/>

  
  <polygon fill="#FFFFCF" class="AnPolygon" fill-rule="evenodd" points="85,-4 85,-20 82,-20 82,-4 "/>

  
  <polygon fill="#FFFFCF" class="AnPolygon" fill-rule="evenodd" points="-69,20 -85,20 -85,17 -69,17 "/>

  
  <polygon fill="#FFFFCF" class="AnPolygon" fill-rule="evenodd" points="85,20 70,20 70,17 85,17 "/>

  
  <polygon fill="#FFFFCF" class="AnPolygon" fill-rule="evenodd" points="-85,5 -81,5 -81,20 -85,20 "/>

  
  <polygon fill="#FFFFCF" class="AnPolygon" fill-rule="evenodd" points="70,-20 85,-20 85,-16 70,-16 "/>

  
  <polygon fill="#FFFFCF" class="AnPolygon" fill-rule="evenodd" points="82,5 85,5 85,20 82,20 "/>

</g><animate dur="1.0" attributeName="visibility" from="hidden" repeatCount="indefinite" to="visible"/></g></g></svg>