<svg contentScriptType="text/ecmascript" xmlns:xlink="http://www.w3.org/1999/xlink" zoomAndPan="magnify" contentStyleType="text/css" preserveAspectRatio="xMidYMid meet" xmlns="http://www.w3.org/2000/svg" version="1.0"><g id="ESC_ESCS_Higher_Run_from_L_Blink"><g id="_C1166B_SYMBOLS_ESC_C1166B_ESC_ESCS_HIGHER_2_RUN_FROM_LOWER_SVG" transform="translate(-100.0 -100.0)scale(1.0 1.0)"><rect x="50.0" fill="red" width="100.0" height="26.0" y="87.0" opacity="0"/><g id="ESC/C1166B_ESC_ESCS_Higher_2_Run_from_Lower" transform="matrix(1.000000, 0, 0, 1.000000, 100.000000, 100.000000)">

  
  <polygon fill="#218A21" class="AnPolygon" fill-rule="evenodd" points="48,11 -14,-11 -14,11 "/>

  
  <polyline fill="none" stroke-width="2px" class="AnPolyline" points="-49,-11 48,-11 48,11 -49,11 " stroke="#218A21"/>

  
  <line fill="none" x1="-44px" x2="-44px" y1="-11px" y2="11px" class="AnLine" stroke="#218A21" stroke-width="2px"/>

  
  <line fill="none" x1="-39px" x2="-39px" y1="-11px" y2="11px" class="AnLine" stroke="#218A21" stroke-width="2px"/>

  
  <line fill="none" x1="-34px" x2="-34px" y1="-11px" y2="11px" class="AnLine" stroke="#218A21" stroke-width="2px"/>

  
  <line fill="none" x1="-29px" x2="-29px" y1="-11px" y2="11px" class="AnLine" stroke="#218A21" stroke-width="2px"/>

  
  <line fill="none" x1="-24px" x2="-24px" y1="-11px" y2="11px" class="AnLine" stroke="#218A21" stroke-width="2px"/>

  
  <line fill="none" x1="-19px" x2="-19px" y1="-11px" y2="11px" class="AnLine" stroke="#218A21" stroke-width="2px"/>

  
  <line fill="none" x1="-14px" x2="-14px" y1="-11px" y2="11px" class="AnLine" stroke="#218A21" stroke-width="2px"/>

  
  <line fill="none" x1="39px" x2="-29px" y1="0px" y2="0px" class="AnLine" stroke="#000000" stroke-width="2px"/>

  
  <polygon fill="#000000" class="AnPolygon" fill-rule="evenodd" points="-27,6 -27,-6 -39,1 "/>

</g><animate dur="1.0" attributeName="visibility" from="hidden" repeatCount="indefinite" to="visible"/></g></g></svg>