<svg contentScriptType="text/ecmascript" xmlns:xlink="http://www.w3.org/1999/xlink" zoomAndPan="magnify" contentStyleType="text/css" preserveAspectRatio="xMidYMid meet" xmlns="http://www.w3.org/2000/svg" version="1.0"><g id="SERV_Symbol_Standby"><g id="_C1166B_SYMBOLS_COMP_C1166B_COM_SERV_2_STANDBY_SVG" transform="translate(-98.5 -99.5)scale(1.0 1.0)"><rect x="52.0" fill="red" width="96.0" height="152.0" y="24.0" opacity="0"/><g id="Comp/C1166B_COM_SERV_2_Standby" transform="matrix(1.000000, 0, 0, 1.000000, 100.000000, 100.000000)">

  
  <polygon fill="#989898" class="AnPolygon" fill-rule="evenodd" points="-35,-75 -35,43 -48,53 -48,75 47,75 47,53 35,43 35,-75 -35,-75 "/>

  
  <rect x="-35px" y="-75px" fill="#D6DADD" width="70px" fill-rule="evenodd" class="AnRectangle" height="90px"/>

  
  <line fill="none" x1="-35px" x2="35px" y1="-47px" y2="-47px" class="AnLine" stroke="#000000" stroke-width="1px"/>

  
  <line fill="none" x1="-35px" x2="35px" y1="-17px" y2="-17px" class="AnLine" stroke="#000000" stroke-width="1px"/>

  
  <line fill="none" x1="-35px" x2="35px" y1="15px" y2="15px" class="AnLine" stroke="#000000" stroke-width="1px"/>

  
  <line fill="none" x1="-35px" x2="-35px" y1="43px" y2="75px" class="AnLine" stroke="#000000" stroke-width="1px"/>

  
  <line fill="none" x1="-18px" x2="-18px" y1="15px" y2="75px" class="AnLine" stroke="#000000" stroke-width="1px"/>

  
  <line fill="none" x1="0px" x2="0px" y1="15px" y2="75px" class="AnLine" stroke="#000000" stroke-width="1px"/>

  
  <line fill="none" x1="17px" x2="17px" y1="15px" y2="75px" class="AnLine" stroke="#000000" stroke-width="1px"/>

  
  <line fill="none" x1="35px" x2="35px" y1="43px" y2="75px" class="AnLine" stroke="#000000" stroke-width="1px"/>

  
  <polyline fill="none" stroke-width="3px" class="AnPolyline" points="-35,-75 -35,43 -48,53 -48,75 47,75 47,53 35,43 35,-75 -35,-75 " stroke="#FFFFFF"/>

</g></g></g></svg>