<svg contentScriptType="text/ecmascript" xmlns:xlink="http://www.w3.org/1999/xlink" zoomAndPan="magnify" contentStyleType="text/css" preserveAspectRatio="xMidYMid meet" xmlns="http://www.w3.org/2000/svg" version="1.0"><g id="TTVF_L_Symbol_Exhaust"><g id="_C1166B_SYMBOLS_ECT_C1166B_ECT_TTVF_2_EXHAUST_LEFT_SVG" transform="translate(-100.0 -100.0)scale(1.0 1.0)"><rect x="17.0" fill="red" width="166.0" height="128.0" y="36.0" opacity="0"/><g id="ECT/C1166B_ECT_TTVF_2_Exhaust_Left" transform="matrix(1.000000, 0, 0, 1.000000, 100.000000, 100.000000)">

  
  <text x="0px" font-size="11" y="11px" transform="matrix(2.700000,0.000000,0.000000,2.700000,-69.800003,-64.019997)" text-decoration="none" fill="#000000" class="AnText" font-style="normal" font-weight="normal">In </text>

  
  <text x="0px" font-size="11" y="11px" transform="matrix(2.700000,0.000000,0.000000,2.700000,42.200001,-64.019997)" text-decoration="none" fill="#000000" class="AnText" font-style="normal" font-weight="normal">Ex </text>

  
  <line fill="none" x1="-31px" x2="-31px" y1="-39px" y2="40px" class="AnLine" stroke="#218A21" stroke-width="2px"/>

  
  <line fill="none" x1="30px" x2="30px" y1="-39px" y2="40px" class="AnLine" stroke="#218A21" stroke-width="2px"/>

  
  <line fill="none" x1="-31px" x2="30px" y1="-29px" y2="-29px" class="AnLine" stroke="#218A21" stroke-width="2px"/>

  
  <line fill="none" x1="-31px" x2="30px" y1="32px" y2="32px" class="AnLine" stroke="#218A21" stroke-width="2px"/>

  
  <polygon fill="#218A21" class="AnPolygon" fill-rule="evenodd" points="-21,-27 20,-27 -21,28 20,28 -21,-27 "/>

  
  <polygon fill="#218A21" class="AnPolygon" fill-rule="evenodd" points="33,-29 33,32 54,1 33,-29 "/>

  
  <polygon fill="#FF0000" class="AnPolygon" fill-rule="evenodd" points="-35,32 -35,-29 -56,1 -35,32 "/>

</g></g></g></svg>