<svg contentScriptType="text/ecmascript" width="8454.0" xmlns:xlink="http://www.w3.org/1999/xlink" zoomAndPan="magnify" contentStyleType="text/css" viewBox="0.0 0.0 8454.0 4315.0" height="4315.0" preserveAspectRatio="xMinYMin meet" xmlns="http://www.w3.org/2000/svg" version="1.1">

  
  <g class="AnLayer" id="Signalling_Track_Section">

    
    <g style="fill:#FF0000; " cmn_acla="C1166B_SIG_TACK_ActiveBackdrop" anclass="C1166B_SIG_TACK_ActiveBackdrop" class="C1166B_SIG_TACK_ActiveBackdrop ActiveBackdrop" id=":OCC:SIG:TACK0449_15" hv_id="OCC_OCCSIGTACK0449" anpath=":OCC:SIG:TACK0449">

      
      <g transform="matrix(1.000000, 0.000000, 0.000000, 1.000000, 0.000000, 0.000000)"><polygon class="AnPolygon" points="4673,2023 5013,2023 5013,2039 4673,2039 4673,2023 " fill-rule="evenodd"/>

    
    </g></g>

    
    <g style="fill:#FF0000; " cmn_acla="C1166B_SIG_TACK_ActiveBackdrop" anclass="C1166B_SIG_TACK_ActiveBackdrop" class="C1166B_SIG_TACK_ActiveBackdrop ActiveBackdrop" id=":OCC:SIG:TACK0443_16" hv_id="OCC_OCCSIGTACK0443" anpath=":OCC:SIG:TACK0443">

      
      <g transform="matrix(1.000000, 0.000000, 0.000000, 1.000000, 0.000000, 0.000000)"><polygon class="AnPolygon" points="5043,2023 5203,2023 5203,2039 5043,2039 5043,2023 " fill-rule="evenodd"/>

    
    </g></g>

    
    <g style="fill:#FF0000; " cmn_acla="C1166B_SIG_TACK_ActiveBackdrop" anclass="C1166B_SIG_TACK_ActiveBackdrop" class="C1166B_SIG_TACK_ActiveBackdrop ActiveBackdrop" id=":OCC:SIG:TACK0209_17" hv_id="OCC_OCCSIGTACK0209" anpath=":OCC:SIG:TACK0209">

      
      <g transform="matrix(1.000000, 0.000000, 0.000000, 1.000000, 0.000000, 0.000000)"><polygon class="AnPolygon" points="5228,2023 5458,2023 5458,2039 5228,2039 5228,2023 " fill-rule="evenodd"/>

    
    </g></g>

    
    <g style="fill:#FF0000; " cmn_acla="C1166B_SIG_TACK_ActiveBackdrop" anclass="C1166B_SIG_TACK_ActiveBackdrop" class="C1166B_SIG_TACK_ActiveBackdrop ActiveBackdrop" id=":OCC:SIG:TACK0210_18" hv_id="OCC_OCCSIGTACK0210" anpath=":OCC:SIG:TACK0210">

      
      <g transform="matrix(1.000000, 0.000000, 0.000000, 1.000000, 0.000000, 0.000000)"><polygon class="AnPolygon" points="5483,2023 5823,2023 5823,2039 5483,2039 5483,2023 " fill-rule="evenodd"/>

    
    </g></g>

    
    <g style="fill:#FF0000; " cmn_acla="C1166B_SIG_TACK_ActiveBackdrop" anclass="C1166B_SIG_TACK_ActiveBackdrop" class="C1166B_SIG_TACK_ActiveBackdrop ActiveBackdrop" id=":OCC:SIG:TACK0211_19" hv_id="OCC_OCCSIGTACK0211" anpath=":OCC:SIG:TACK0211">

      
      <g transform="matrix(1.000000, 0.000000, 0.000000, 1.000000, 0.000000, 0.000000)"><polygon class="AnPolygon" points="5848,2023 6188,2023 6188,2039 5848,2039 5848,2023 " fill-rule="evenodd"/>

    
    </g></g>

    
    <g style="fill:#FF0000; " cmn_acla="C1166B_SIG_TACK_ActiveBackdrop" anclass="C1166B_SIG_TACK_ActiveBackdrop" class="C1166B_SIG_TACK_ActiveBackdrop ActiveBackdrop" id=":OCC:SIG:TACK0212_20" hv_id="OCC_OCCSIGTACK0212" anpath=":OCC:SIG:TACK0212">

      
      <g transform="matrix(1.000000, 0.000000, 0.000000, 1.000000, 0.000000, 0.000000)"><polygon class="AnPolygon" points="6213,2023 6553,2023 6553,2039 6213,2039 6213,2023 " fill-rule="evenodd"/>

    
    </g></g>

    
    <g style="fill:#FF0000; " cmn_acla="C1166B_SIG_TACK_ActiveBackdrop" anclass="C1166B_SIG_TACK_ActiveBackdrop" class="C1166B_SIG_TACK_ActiveBackdrop ActiveBackdrop" id=":OCC:SIG:TACK0213_21" hv_id="OCC_OCCSIGTACK0213" anpath=":OCC:SIG:TACK0213">

      
      <g transform="matrix(1.000000, 0.000000, 0.000000, 1.000000, 0.000000, 0.000000)"><polygon class="AnPolygon" points="6578,2023 6918,2023 6918,2039 6578,2039 6578,2023 " fill-rule="evenodd"/>

    
    </g></g>

    
    <g style="fill:#FF0000; " cmn_acla="C1166B_SIG_TACK_ActiveBackdrop" anclass="C1166B_SIG_TACK_ActiveBackdrop" class="C1166B_SIG_TACK_ActiveBackdrop ActiveBackdrop" id=":OCC:SIG:TACK0214_22" hv_id="OCC_OCCSIGTACK0214" anpath=":OCC:SIG:TACK0214">

      
      <g transform="matrix(1.000000, 0.000000, 0.000000, 1.000000, 0.000000, 0.000000)"><polygon class="AnPolygon" points="6943,2023 7228,2023 7228,2039 6943,2039 6943,2023 " fill-rule="evenodd"/>

    
    </g></g>

    
    <g style="fill:#FF0000; " cmn_acla="C1166B_SIG_TACK_ActiveBackdrop" anclass="C1166B_SIG_TACK_ActiveBackdrop" class="C1166B_SIG_TACK_ActiveBackdrop ActiveBackdrop" id=":OCC:SIG:TACK0215_23" hv_id="OCC_OCCSIGTACK0215" anpath=":OCC:SIG:TACK0215">

      
      <g transform="matrix(1.000000, 0.000000, 0.000000, 1.000000, 0.000000, 0.000000)"><polygon class="AnPolygon" points="7253,2023 7493,2023 7493,2039 7253,2039 7253,2023 " fill-rule="evenodd"/>

    
    </g></g>

    
    <g style="fill:#FF0000; " cmn_acla="C1166B_SIG_TACK_ActiveBackdrop" anclass="C1166B_SIG_TACK_ActiveBackdrop" class="C1166B_SIG_TACK_ActiveBackdrop ActiveBackdrop" id=":OCC:SIG:TACK0216_24" hv_id="OCC_OCCSIGTACK0216" anpath=":OCC:SIG:TACK0216">

      
      <g transform="matrix(1.000000, 0.000000, 0.000000, 1.000000, 0.000000, 0.000000)"><polygon class="AnPolygon" points="7518,2083 7738,2083 7738,2099 7518,2099 7518,2083 " fill-rule="evenodd"/>

    
    </g></g>

    
    <g style="fill:#FF0000; " cmn_acla="C1166B_SIG_TACK_ActiveBackdrop" anclass="C1166B_SIG_TACK_ActiveBackdrop" class="C1166B_SIG_TACK_ActiveBackdrop ActiveBackdrop" id=":OCC:SIG:TACK0217_25" hv_id="OCC_OCCSIGTACK0217" anpath=":OCC:SIG:TACK0217">

      
      <g transform="matrix(1.000000, 0.000000, 0.000000, 1.000000, 0.000000, 0.000000)"><polygon class="AnPolygon" points="7763,2143 7978,2143 7978,2159 7763,2159 7763,2143 " fill-rule="evenodd"/>

    
    </g></g>

    
    <g style="fill:#FF0000; " cmn_acla="C1166B_SIG_TACK_ActiveBackdrop" anclass="C1166B_SIG_TACK_ActiveBackdrop" class="C1166B_SIG_TACK_ActiveBackdrop ActiveBackdrop" id=":OCC:SIG:TACK0218_26" hv_id="OCC_OCCSIGTACK0218" anpath=":OCC:SIG:TACK0218">

      
      <g transform="matrix(1.000000, 0.000000, 0.000000, 1.000000, 0.000000, 0.000000)"><polygon class="AnPolygon" points="8008,2143 8343,2143 8343,2159 8008,2159 8008,2143 " fill-rule="evenodd"/>

    
    </g></g>

    
    <g style="fill:#FF0000; " cmn_acla="C1166B_SIG_TACK_ActiveBackdrop" anclass="C1166B_SIG_TACK_ActiveBackdrop" class="C1166B_SIG_TACK_ActiveBackdrop ActiveBackdrop" id=":OCC:SIG:TACK0229_27" hv_id="OCC_OCCSIGTACK0229" anpath=":OCC:SIG:TACK0229">

      
      <g transform="matrix(1.000000, 0.000000, 0.000000, 1.000000, 0.000000, 0.000000)"><polygon class="AnPolygon" points="8008,2348 8343,2348 8343,2364 8008,2364 8008,2348 " fill-rule="evenodd"/>

    
    </g></g>

    
    <g style="fill:#FF0000; " cmn_acla="C1166B_SIG_TACK_ActiveBackdrop" anclass="C1166B_SIG_TACK_ActiveBackdrop" class="C1166B_SIG_TACK_ActiveBackdrop ActiveBackdrop" id=":OCC:SIG:TACK0228_28" hv_id="OCC_OCCSIGTACK0228" anpath=":OCC:SIG:TACK0228">

      
      <g transform="matrix(1.000000, 0.000000, 0.000000, 1.000000, 0.000000, 0.000000)"><polygon class="AnPolygon" points="7763,2348 7978,2348 7978,2364 7763,2364 7763,2348 " fill-rule="evenodd"/>

    
    </g></g>

    
    <g style="fill:#FF0000; " cmn_acla="C1166B_SIG_TACK_ActiveBackdrop" anclass="C1166B_SIG_TACK_ActiveBackdrop" class="C1166B_SIG_TACK_ActiveBackdrop ActiveBackdrop" id=":OCC:SIG:TACK0227_29" hv_id="OCC_OCCSIGTACK0227" anpath=":OCC:SIG:TACK0227">

      
      <g transform="matrix(1.000000, 0.000000, 0.000000, 1.000000, 0.000000, 0.000000)"><polygon class="AnPolygon" points="7518,2403 7738,2403 7738,2419 7518,2419 7518,2403 " fill-rule="evenodd"/>

    
    </g></g>

    
    <g style="fill:#FF0000; " cmn_acla="C1166B_SIG_TACK_ActiveBackdrop" anclass="C1166B_SIG_TACK_ActiveBackdrop" class="C1166B_SIG_TACK_ActiveBackdrop ActiveBackdrop" id=":OCC:SIG:TACK0226_30" hv_id="OCC_OCCSIGTACK0226" anpath=":OCC:SIG:TACK0226">

      
      <g transform="matrix(1.000000, 0.000000, 0.000000, 1.000000, 0.000000, 0.000000)"><polygon class="AnPolygon" points="7253,2458 7493,2458 7493,2474 7253,2474 7253,2458 " fill-rule="evenodd"/>

    
    </g></g>

    
    <g style="fill:#FF0000; " cmn_acla="C1166B_SIG_TACK_ActiveBackdrop" anclass="C1166B_SIG_TACK_ActiveBackdrop" class="C1166B_SIG_TACK_ActiveBackdrop ActiveBackdrop" id=":OCC:SIG:TACK0225_31" hv_id="OCC_OCCSIGTACK0225" anpath=":OCC:SIG:TACK0225">

      
      <g transform="matrix(1.000000, 0.000000, 0.000000, 1.000000, 0.000000, 0.000000)"><polygon class="AnPolygon" points="6943,2458 7228,2458 7228,2474 6943,2474 6943,2458 " fill-rule="evenodd"/>

    
    </g></g>

    
    <g style="fill:#FF0000; " cmn_acla="C1166B_SIG_TACK_ActiveBackdrop" anclass="C1166B_SIG_TACK_ActiveBackdrop" class="C1166B_SIG_TACK_ActiveBackdrop ActiveBackdrop" id=":OCC:SIG:TACK0224_32" hv_id="OCC_OCCSIGTACK0224" anpath=":OCC:SIG:TACK0224">

      
      <g transform="matrix(1.000000, 0.000000, 0.000000, 1.000000, 0.000000, 0.000000)"><polygon class="AnPolygon" points="6578,2458 6918,2458 6918,2474 6578,2474 6578,2458 " fill-rule="evenodd"/>

    
    </g></g>

    
    <g style="fill:#FF0000; " cmn_acla="C1166B_SIG_TACK_ActiveBackdrop" anclass="C1166B_SIG_TACK_ActiveBackdrop" class="C1166B_SIG_TACK_ActiveBackdrop ActiveBackdrop" id=":OCC:SIG:TACK0223_33" hv_id="OCC_OCCSIGTACK0223" anpath=":OCC:SIG:TACK0223">

      
      <g transform="matrix(1.000000, 0.000000, 0.000000, 1.000000, 0.000000, 0.000000)"><polygon class="AnPolygon" points="6213,2458 6553,2458 6553,2474 6213,2474 6213,2458 " fill-rule="evenodd"/>

    
    </g></g>

    
    <g style="fill:#FF0000; " cmn_acla="C1166B_SIG_TACK_ActiveBackdrop" anclass="C1166B_SIG_TACK_ActiveBackdrop" class="C1166B_SIG_TACK_ActiveBackdrop ActiveBackdrop" id=":OCC:SIG:TACK0222_34" hv_id="OCC_OCCSIGTACK0222" anpath=":OCC:SIG:TACK0222">

      
      <g transform="matrix(1.000000, 0.000000, 0.000000, 1.000000, 0.000000, 0.000000)"><polygon class="AnPolygon" points="5848,2458 6188,2458 6188,2474 5848,2474 5848,2458 " fill-rule="evenodd"/>

    
    </g></g>

    
    <g style="fill:#FF0000; " cmn_acla="C1166B_SIG_TACK_ActiveBackdrop" anclass="C1166B_SIG_TACK_ActiveBackdrop" class="C1166B_SIG_TACK_ActiveBackdrop ActiveBackdrop" id=":OCC:SIG:TACK0221_35" hv_id="OCC_OCCSIGTACK0221" anpath=":OCC:SIG:TACK0221">

      
      <g transform="matrix(1.000000, 0.000000, 0.000000, 1.000000, 0.000000, 0.000000)"><polygon class="AnPolygon" points="5483,2458 5823,2458 5823,2474 5483,2474 5483,2458 " fill-rule="evenodd"/>

    
    </g></g>

    
    <g style="fill:#FF0000; " cmn_acla="C1166B_SIG_TACK_ActiveBackdrop" anclass="C1166B_SIG_TACK_ActiveBackdrop" class="C1166B_SIG_TACK_ActiveBackdrop ActiveBackdrop" id=":OCC:SIG:TACK0220_36" hv_id="OCC_OCCSIGTACK0220" anpath=":OCC:SIG:TACK0220">

      
      <g transform="matrix(1.000000, 0.000000, 0.000000, 1.000000, 0.000000, 0.000000)"><polygon class="AnPolygon" points="5043,2458 5453,2458 5453,2474 5043,2474 5043,2458 " fill-rule="evenodd"/>

    
    </g></g>

    
    <g style="fill:#FF0000; " cmn_acla="C1166B_SIG_TACK_ActiveBackdrop" anclass="C1166B_SIG_TACK_ActiveBackdrop" class="C1166B_SIG_TACK_ActiveBackdrop ActiveBackdrop" id=":OCC:SIG:TACK0219_37" hv_id="OCC_OCCSIGTACK0219" anpath=":OCC:SIG:TACK0219">

      
      <g transform="matrix(1.000000, 0.000000, 0.000000, 1.000000, 0.000000, 0.000000)"><polygon class="AnPolygon" points="4738,2338 4958,2338 4958,2354 4738,2354 4738,2338 " fill-rule="evenodd"/>

    
    </g></g>

    
    <g style="fill:#FF0000; " cmn_acla="C1166B_SIG_TACK_ActiveBackdrop" anclass="C1166B_SIG_TACK_ActiveBackdrop" class="C1166B_SIG_TACK_ActiveBackdrop ActiveBackdrop" id=":OCC:SIG:TACK0454_38" hv_id="OCC_OCCSIGTACK0454" anpath=":OCC:SIG:TACK0454">

      
      <g transform="matrix(1.000000, 0.000000, 0.000000, 1.000000, 0.000000, 0.000000)"><polygon class="AnPolygon" points="4498,2338 4713,2338 4713,2354 4498,2354 4498,2338 " fill-rule="evenodd"/>

    
    </g></g>

  
  </g>

  
  </svg>