<?xml version='1.0' encoding='UTF-8'?>
<svg xmlns="http://www.w3.org/2000/svg" height="2443" preserveAspectRatio="xMinYMin meet" style="background-color:#D2D2D2;" version="1.1" viewBox="0 0 4786 2443" width="4786">

  
  <g class="AnLayer" id="AnDefaultLayer">

    
    <polyline class="AnPolyline" fill="none" points="1549,1420 2198,1420 2198,1609 1549,1609 1549,1420 " stroke="#000000" stroke-width="2px" />

    
    <polyline class="AnPolyline" fill="none" points="2512,1420 3161,1420 3161,1609 2512,1609 2512,1420 " stroke="#000000" stroke-width="2px" />

    
    <polyline class="AnPolyline" fill="none" points="1351,1422 1530,1422 1530,1602 1351,1602 1351,1422 " stroke="#000000" stroke-width="2px" />

    
    <polygon class="AnPolygon" fill="#000000" fill-rule="evenodd" points="1470,1422 1530,1422 1530,1602 1470,1602 1470,1422 " />

    
    <polygon class="AnPolygon" fill="#000000" fill-rule="evenodd" points="1383,1503 1383,1474 1384,1472 1400,1462 1439,1462 1442,1463 1466,1491 1466,1493 1467,1495 1466,1498 1465,1500 1462,1502 1460,1502 1458,1502 1456,1501 1454,1499 1434,1475 1420,1476 1420,1478 1445,1507 1446,1510 1446,1546 1449,1549 1481,1549 1484,1550 1486,1551 1488,1554 1488,1557 1487,1559 1486,1562 1482,1563 1481,1563 1436,1563 1433,1562 1431,1561 1430,1558 1430,1535 1429,1534 1428,1535 1414,1556 1414,1594 1413,1598 1411,1600 1409,1602 1406,1602 1402,1602 1400,1600 1398,1598 1398,1595 1398,1593 1398,1551 1398,1550 1418,1519 1418,1517 1399,1495 1399,1512 1398,1516 1394,1518 1358,1518 1355,1517 1353,1515 1351,1513 1350,1510 1351,1507 1353,1505 1356,1503 1383,1503 " />

    
    <circle class="AnCircle" cx="1383px" cy="1455px" fill="#000000" fill-rule="evenodd" r="12.00px" />

    
    <polyline class="AnPolyline" fill="none" points="3362,1422 3183,1422 3183,1602 3362,1602 3362,1422 " stroke="#000000" stroke-width="2px" />

    
    <polygon class="AnPolygon" fill="#000000" fill-rule="evenodd" points="3243,1422 3183,1422 3183,1602 3243,1602 3243,1422 " />

    
    <polygon class="AnPolygon" fill="#000000" fill-rule="evenodd" points="3330,1503 3330,1474 3329,1472 3313,1462 3274,1462 3271,1463 3247,1491 3247,1493 3246,1495 3247,1498 3248,1500 3251,1502 3253,1502 3255,1502 3257,1501 3259,1499 3279,1475 3293,1476 3293,1478 3268,1507 3267,1510 3267,1546 3264,1549 3232,1549 3229,1550 3227,1551 3225,1554 3225,1557 3226,1559 3227,1562 3231,1563 3232,1563 3277,1563 3280,1562 3282,1561 3283,1558 3283,1535 3284,1534 3285,1535 3299,1556 3299,1594 3300,1598 3302,1600 3304,1602 3307,1602 3311,1602 3313,1600 3315,1598 3315,1595 3315,1593 3315,1551 3315,1550 3295,1519 3295,1517 3314,1495 3314,1512 3315,1516 3319,1518 3355,1518 3358,1517 3360,1515 3362,1513 3363,1510 3362,1507 3360,1505 3357,1503 3330,1503 " />

    
    <circle class="AnCircle" cx="3330px" cy="1455px" fill="#000000" fill-rule="evenodd" r="12.00px" />

    
    <text class="AnText" fill="#000000" font-family="Arial" font-size="12" font-style="normal" font-weight="normal" text-decoration="none" transform="matrix(4.000010,0.000000,0.000000,4.000010,1496.160034,907.760010)" x="0px" y="12px">Train near TAW Portal</text>

    
    <text class="AnText" fill="#000000" font-family="Arial" font-size="12" font-style="normal" font-weight="normal" text-decoration="none" transform="matrix(4.000010,0.000000,0.000000,4.000010,1496.160034,965.359985)" x="0px" y="12px">Start two fans at KOT Portal</text>

    
    <text class="AnText" fill="#0000FF" font-family="Arial" font-size="12" font-style="normal" font-weight="normal" text-decoration="none" transform="matrix(4.000010,0.000000,0.000000,4.000010,1496.000000,770.159973)" x="0px" y="12px">MODE 5 -</text>

    
    <text class="AnText" fill="#0000FF" font-family="Arial" font-size="12" font-style="normal" font-weight="normal" text-decoration="none" transform="matrix(4.000010,0.000000,0.000000,4.000010,1496.160034,831.359985)" x="0px" y="12px">ENHANCED CONGESTION MODE</text>

    
    <text class="AnText" fill="#000000" font-family="Arial" font-size="12" font-style="normal" font-weight="normal" text-decoration="none" transform="matrix(4.000010,0.000000,0.000000,4.000010,2516.159912,907.760010)" x="0px" y="12px">Train near KOT Portal</text>

    
    <text class="AnText" fill="#000000" font-family="Arial" font-size="12" font-style="normal" font-weight="normal" text-decoration="none" transform="matrix(4.000010,0.000000,0.000000,4.000010,2516.159912,965.359985)" x="0px" y="12px">Start two fans at TAW Portal</text>

    
    <text class="AnText" fill="#0000FF" font-family="Arial" font-size="12" font-style="normal" font-weight="normal" text-decoration="none" transform="matrix(4.000010,0.000000,0.000000,4.000010,2516.000000,770.159973)" x="0px" y="12px">MODE 2 -</text>

    
    <text class="AnText" fill="#0000FF" font-family="Arial" font-size="12" font-style="normal" font-weight="normal" text-decoration="none" transform="matrix(4.000010,0.000000,0.000000,4.000010,2516.159912,831.359985)" x="0px" y="12px">ENHANCED CONGESTION MODE</text>

    
    <text class="AnText" fill="#000000" font-family="Arial" font-size="12" font-style="normal" font-weight="normal" text-decoration="none" transform="matrix(4.000010,0.000000,0.000000,4.000010,1496.160034,1205.760010)" x="0px" y="12px">Train near TAW Portal</text>

    
    <text class="AnText" fill="#000000" font-family="Arial" font-size="12" font-style="normal" font-weight="normal" text-decoration="none" transform="matrix(4.000010,0.000000,0.000000,4.000010,1496.160034,1263.359985)" x="0px" y="12px">Start one fan at KOT Portal</text>

    
    <text class="AnText" fill="#0000FF" font-family="Arial" font-size="12" font-style="normal" font-weight="normal" text-decoration="none" transform="matrix(4.000010,0.000000,0.000000,4.000010,1496.000000,1068.160034)" x="0px" y="12px">MODE 4 -</text>

    
    <text class="AnText" fill="#0000FF" font-family="Arial" font-size="12" font-style="normal" font-weight="normal" text-decoration="none" transform="matrix(4.000010,0.000000,0.000000,4.000010,1496.160034,1129.359985)" x="0px" y="12px">CONGESTION MODE</text>

    
    <text class="AnText" fill="#000000" font-family="Arial" font-size="12" font-style="normal" font-weight="normal" text-decoration="none" transform="matrix(4.000010,0.000000,0.000000,4.000010,2516.159912,1205.760010)" x="0px" y="12px">Train near KOT Portal</text>

    
    <text class="AnText" fill="#000000" font-family="Arial" font-size="12" font-style="normal" font-weight="normal" text-decoration="none" transform="matrix(4.000010,0.000000,0.000000,4.000010,2516.159912,1263.359985)" x="0px" y="12px">Start one fan at TAW Portal</text>

    
    <text class="AnText" fill="#0000FF" font-family="Arial" font-size="12" font-style="normal" font-weight="normal" text-decoration="none" transform="matrix(4.000010,0.000000,0.000000,4.000010,2516.000000,1068.160034)" x="0px" y="12px">MODE 1 -</text>

    
    <text class="AnText" fill="#0000FF" font-family="Arial" font-size="12" font-style="normal" font-weight="normal" text-decoration="none" transform="matrix(4.000010,0.000000,0.000000,4.000010,2516.159912,1129.359985)" x="0px" y="12px">CONGESTION MODE</text>

    
    <text class="AnText" fill="#0000FF" font-family="Arial" font-size="12" font-style="normal" font-weight="normal" text-decoration="none" transform="matrix(4.000010,0.000000,0.000000,4.000010,1119.199951,290.559998)" x="0px" y="12px">MODE</text>

    
    <text class="AnText" fill="#0000FF" font-family="Arial" font-size="12" font-style="normal" font-weight="normal" text-decoration="none" transform="matrix(4.000010,0.000000,0.000000,4.000010,1119.359985,351.760010)" x="0px" y="12px">CONTROL</text>

    
    <text class="AnText" fill="#000000" font-family="Arial" font-size="12" font-style="normal" font-weight="normal" text-decoration="none" transform="matrix(4.000010,0.000000,0.000000,4.000010,1118.959961,556.359985)" x="0px" y="12px">MODE-3</text>

    
    <text class="AnText" fill="#0000FF" font-family="Arial" font-size="12" font-style="normal" font-weight="normal" text-decoration="none" transform="matrix(4.000010,0.000000,0.000000,4.000010,3375.199951,290.559998)" x="0px" y="12px">MODE</text>

    
    <text class="AnText" fill="#0000FF" font-family="Arial" font-size="12" font-style="normal" font-weight="normal" text-decoration="none" transform="matrix(4.000010,0.000000,0.000000,4.000010,3375.360107,351.760010)" x="0px" y="12px">CONTROL</text>

    
    <text class="AnText" fill="#000000" font-family="Arial" font-size="12" font-style="normal" font-weight="normal" text-decoration="none" transform="matrix(4.000010,0.000000,0.000000,4.000010,3374.959961,556.359985)" x="0px" y="12px">MODE-6</text>

    
    <text class="AnText" fill="#000000" font-family="Arial" font-size="12" font-style="normal" font-weight="normal" text-decoration="none" transform="matrix(4.000010,0.000000,0.000000,4.000010,1496.160034,428.160004)" x="0px" y="12px">Up Track - Front Train Fire</text>

    
    <text class="AnText" fill="#000000" font-family="Arial" font-size="12" font-style="normal" font-weight="normal" text-decoration="none" transform="matrix(4.000010,0.000000,0.000000,4.000010,1496.160034,485.760010)" x="0px" y="12px">Down Track - Rear Train Fire</text>

    
    <text class="AnText" fill="#000000" font-family="Arial" font-size="12" font-style="normal" font-weight="normal" text-decoration="none" transform="matrix(4.000010,0.000000,0.000000,4.000010,1496.160034,545.760010)" x="0px" y="12px">Start two fans at KOT Portal</text>

    
    <text class="AnText" fill="#000000" font-family="Arial" font-size="12" font-style="normal" font-weight="normal" text-decoration="none" transform="matrix(4.000010,0.000000,0.000000,4.000010,1496.160034,608.159973)" x="0px" y="12px">Blowing towards TAW</text>

    
    <text class="AnText" fill="#000000" font-family="Arial" font-size="12" font-style="normal" font-weight="normal" text-decoration="none" transform="matrix(4.000010,0.000000,0.000000,4.000010,1496.160034,669.359985)" x="0px" y="12px">EVACUATION TOWARDS KOT</text>

    
    <text class="AnText" fill="#0000FF" font-family="Arial" font-size="12" font-style="normal" font-weight="normal" text-decoration="none" transform="matrix(4.000010,0.000000,0.000000,4.000010,1496.000000,290.559998)" x="0px" y="12px">MODE 3 -</text>

    
    <text class="AnText" fill="#0000FF" font-family="Arial" font-size="12" font-style="normal" font-weight="normal" text-decoration="none" transform="matrix(4.000010,0.000000,0.000000,4.000010,1496.160034,351.760010)" x="0px" y="12px">EMERGENCY MODE</text>

    
    <text class="AnText" fill="#000000" font-family="Arial" font-size="12" font-style="normal" font-weight="normal" text-decoration="none" transform="matrix(4.000010,0.000000,0.000000,4.000010,2516.159912,428.160004)" x="0px" y="12px">Up Track - Rear Train Fire</text>

    
    <text class="AnText" fill="#000000" font-family="Arial" font-size="12" font-style="normal" font-weight="normal" text-decoration="none" transform="matrix(4.000010,0.000000,0.000000,4.000010,2516.159912,485.760010)" x="0px" y="12px">Down Track - Front Train Fire</text>

    
    <text class="AnText" fill="#000000" font-family="Arial" font-size="12" font-style="normal" font-weight="normal" text-decoration="none" transform="matrix(4.000010,0.000000,0.000000,4.000010,2516.159912,545.760010)" x="0px" y="12px">Start two fans at TAW Portal</text>

    
    <text class="AnText" fill="#000000" font-family="Arial" font-size="12" font-style="normal" font-weight="normal" text-decoration="none" transform="matrix(4.000010,0.000000,0.000000,4.000010,2516.159912,608.159973)" x="0px" y="12px">Blowing towards KOT</text>

    
    <text class="AnText" fill="#000000" font-family="Arial" font-size="12" font-style="normal" font-weight="normal" text-decoration="none" transform="matrix(4.000010,0.000000,0.000000,4.000010,2516.159912,669.359985)" x="0px" y="12px">EVACUATION TOWARDS TAW</text>

    
    <text class="AnText" fill="#0000FF" font-family="Arial" font-size="12" font-style="normal" font-weight="normal" text-decoration="none" transform="matrix(4.000010,0.000000,0.000000,4.000010,2516.000000,290.559998)" x="0px" y="12px">MODE 6 -</text>

    
    <text class="AnText" fill="#0000FF" font-family="Arial" font-size="12" font-style="normal" font-weight="normal" text-decoration="none" transform="matrix(4.000010,0.000000,0.000000,4.000010,2516.159912,351.760010)" x="0px" y="12px">EMERGENCY MODE</text>

    
    <text class="AnText" fill="#000000" font-family="Arial" font-size="12" font-style="normal" font-weight="normal" text-decoration="none" transform="matrix(4.000010,0.000000,0.000000,4.000010,1118.959961,964.960022)" x="0px" y="12px">MODE-5</text>

    
    <text class="AnText" fill="#000000" font-family="Arial" font-size="12" font-style="normal" font-weight="normal" text-decoration="none" transform="matrix(4.000010,0.000000,0.000000,4.000010,3374.959961,964.960022)" x="0px" y="12px">MODE-2</text>

    
    <text class="AnText" fill="#000000" font-family="Arial" font-size="12" font-style="normal" font-weight="normal" text-decoration="none" transform="matrix(4.000010,0.000000,0.000000,4.000010,1118.959961,1262.959961)" x="0px" y="12px">MODE-4</text>

    
    <text class="AnText" fill="#000000" font-family="Arial" font-size="12" font-style="normal" font-weight="normal" text-decoration="none" transform="matrix(4.000010,0.000000,0.000000,4.000010,3374.959961,1262.959961)" x="0px" y="12px">MODE-1</text>

    
    <g>

      
      <polygon class="AnPolygon" fill="#A9A9A9" fill-rule="evenodd" points="298,223 757,223 757,1318 298,1318 298,223 " />

      
      <polygon class="AnPolygon" fill="#A9A9A9" fill-rule="evenodd" points="251,1093 305,1093 305,1178 251,1178 251,1093 " />

      
      <polygon class="AnPolygon" fill="#A9A9A9" fill-rule="evenodd" points="251,727 305,727 305,812 251,812 251,727 " />

      
      <polygon class="AnPolygon" fill="#A9A9A9" fill-rule="evenodd" points="251,363 305,363 305,447 251,447 251,363 " />

      
      <polygon class="AnPolygon" fill="#A9A9A9" fill-rule="evenodd" points="862,363 947,363 947,1577 862,1577 862,363 " />

      
      <polygon class="AnPolygon" fill="#A9A9A9" fill-rule="evenodd" points="746,363 863,363 863,447 746,447 746,363 " />

      
      <polygon class="AnPolygon" fill="#A9A9A9" fill-rule="evenodd" points="751,728 868,728 868,813 751,813 751,728 " />

      
      <polygon class="AnPolygon" fill="#A9A9A9" fill-rule="evenodd" points="753,1094 870,1094 870,1178 753,1178 753,1094 " />

      
      <polygon class="AnPolygon" fill="#A9A9A9" fill-rule="evenodd" points="941,1493 1147,1493 1147,1577 941,1577 941,1493 " />

      
      <polygon class="AnPolygon" fill="#A9A9A9" fill-rule="evenodd" points="1238,1688 3489,1688 3489,1902 1238,1902 1238,1688 " />

      
      <polygon class="AnPolygon" fill="#A9A9A9" fill-rule="evenodd" points="1121,1577 1259,1725 1326,1687 1147,1492 1121,1577 " />

      
      <polygon class="AnPolygon" fill="#A9A9A9" fill-rule="evenodd" points="3816,728 3901,728 3901,1577 3816,1577 3816,728 " />

      
      <polygon class="AnPolygon" fill="#A9A9A9" fill-rule="evenodd" points="3823,1495 3594,1495 3594,1579 3823,1579 3823,1495 " />

      
      <polygon class="AnPolygon" fill="#A9A9A9" fill-rule="evenodd" points="3620,1579 3482,1727 3415,1689 3594,1494 3620,1579 " />

      
      <polygon class="AnPolygon" fill="#A9A9A9" fill-rule="evenodd" points="4008,222 4468,222 4468,1317 4008,1317 4008,222 " />

      
      <polygon class="AnPolygon" fill="#A9A9A9" fill-rule="evenodd" points="3896,729 4013,729 4013,813 3896,813 3896,729 " />

      
      <polygon class="AnPolygon" fill="#A9A9A9" fill-rule="evenodd" points="4393,729 4510,729 4510,813 4393,813 4393,729 " />

    
    </g>

  
  </g>

  
  <g class="AnLayer" id="Background">

    
    <polyline class="AnPolyline" fill="none" points="1237,1903 3487,1903 " stroke="#000000" stroke-width="3px" />

    
    <line class="AnLine" fill="none" stroke="#000000" stroke-width="3px" x1="3417px" x2="1327px" y1="1688px" y2="1688px" />

    
    <line class="AnLine" fill="none" stroke="#000000" stroke-width="3px" x1="3487px" x2="3517px" y1="1903px" y2="1938px" />

    
    <line class="AnLine" fill="none" stroke="#000000" stroke-width="3px" x1="1237px" x2="1207px" y1="1903px" y2="1938px" />

    
    <polyline class="AnPolyline" fill="none" points="3417,1688 3597,1493 " stroke="#000000" stroke-width="3px" />

    
    <polyline class="AnPolyline" fill="none" points="3497,1713 3622,1578 " stroke="#000000" stroke-width="3px" />

    
    <polyline class="AnPolyline" fill="none" points="3817,1493 3597,1493 " stroke="#000000" stroke-width="3px" />

    
    <polyline class="AnPolyline" fill="none" points="3902,1578 3622,1578 " stroke="#000000" stroke-width="3px" />

    
    <polyline class="AnPolyline" fill="none" points="3817,728 4007,728 4007,223 4469,223 4469,728 4509,728 " stroke="#000000" stroke-width="3px" />

    
    <polyline class="AnPolyline" fill="none" points="3902,1578 3902,813 4007,813 4007,1318 4469,1318 4469,813 4509,813 " stroke="#000000" stroke-width="3px" />

    
    <polyline class="AnPolyline" fill="none" points="4007,588 4469,588 " stroke="#000000" stroke-width="3px" />

    
    <polyline class="AnPolyline" fill="none" points="4007,953 4469,953 " stroke="#000000" stroke-width="3px" />

    
    <polyline class="AnPolyline" fill="none" points="3817,728 3817,1493 " stroke="#000000" stroke-width="3px" />

    
    <polyline class="AnPolyline" fill="none" points="232,1628 727,1628 727,1888 232,1888 232,1628 " stroke="#000000" stroke-width="2px" />

    
    <polyline class="AnPolyline" fill="none" points="217,2129 1166,2129 1166,2328 217,2328 217,2129 " stroke="#000000" stroke-width="2px" />

    
    <line class="AnLine" fill="none" stroke="#287FB8" stroke-dasharray=" 9 15" stroke-dashoffset="0" stroke-width="3px" x1="1202px" x2="3532px" y1="1758px" y2="1758px" />

    
    <line class="AnLine" fill="none" stroke="#287FB8" stroke-dasharray=" 9 15" stroke-dashoffset="0" stroke-width="3px" x1="1202px" x2="3532px" y1="1828px" y2="1828px" />

    
    <polyline class="AnPolyline" fill="none" points="1327,1688 1147,1493 " stroke="#000000" stroke-width="3px" />

    
    <polyline class="AnPolyline" fill="none" points="1247,1713 1122,1578 " stroke="#000000" stroke-width="3px" />

    
    <polyline class="AnPolyline" fill="none" points="947,1493 1147,1493 " stroke="#000000" stroke-width="3px" />

    
    <polyline class="AnPolyline" fill="none" points="862,1578 1122,1578 " stroke="#000000" stroke-width="3px" />

    
    <line class="AnLine" fill="none" stroke="#000000" stroke-width="2px" x1="2397px" x2="2537px" y1="1723px" y2="1723px" />

    
    <polygon class="AnPolygon" fill="#000000" fill-rule="evenodd" points="2507,1738 2507,1708 2542,1723 2507,1738 " />

    
    <line class="AnLine" fill="none" stroke="#000000" stroke-width="2px" x1="2297px" x2="2147px" y1="1868px" y2="1868px" />

    
    <polygon class="AnPolygon" fill="#000000" fill-rule="evenodd" points="2182,1883 2182,1853 2142,1868 2182,1883 " />

    
    <polyline class="AnPolyline" fill="none" points="3559,2129 4508,2129 4508,2328 3559,2328 3559,2129 " stroke="#000000" stroke-width="2px" />

    
    <polyline class="AnPolyline" fill="none" points="251,363 298,363 298,223 757,223 757,363 947,363 947,1493 " stroke="#000000" stroke-width="3px" />

    
    <polyline class="AnPolyline" fill="none" points="251,1178 298,1178 298,1318 757,1318 757,1178 862,1178 862,1578 " stroke="#000000" stroke-width="3px" />

    
    <polyline class="AnPolyline" fill="none" points="251,447 298,447 298,728 251,728 " stroke="#000000" stroke-width="3px" />

    
    <polyline class="AnPolyline" fill="none" points="757,447 862,447 862,728 757,728 757,447 " stroke="#000000" stroke-width="3px" />

    
    <polyline class="AnPolyline" fill="none" points="757,813 862,813 862,1094 757,1094 757,813 " stroke="#000000" stroke-width="3px" />

    
    <polyline class="AnPolyline" fill="none" points="251,812 298,812 298,1093 251,1093 " stroke="#000000" stroke-width="3px" />

    
    <polyline class="AnPolyline" fill="none" points="298,588 757,588 " stroke="#000000" stroke-width="3px" />

    
    <polyline class="AnPolyline" fill="none" points="298,953 757,953 " stroke="#000000" stroke-width="3px" />

    
    <g class="ECT_Mode_Directiion Symbol" id="ECT_Mode_Directiion_1_1">

      
      <polyline class="AnPolyline" fill="none" points="3368,432 3368,463 " stroke="#000000" stroke-width="2px" />

      
      <polyline class="AnPolyline" fill="none" points="3368,432 3319,488 " stroke="#000000" stroke-width="2px" />

      
      <polyline class="AnPolyline" fill="none" points="3319,488 3368,546 " stroke="#000000" stroke-width="2px" />

      
      <polyline class="AnPolyline" fill="none" points="3368,515 3368,546 " stroke="#000000" stroke-width="2px" />

      
      <polyline class="AnPolyline" fill="none" points="3614,515 3614,463 " stroke="#000000" stroke-width="2px" />

      
      <polyline class="AnPolyline" fill="none" points="3614,463 3368,463 " stroke="#000000" stroke-width="2px" />

      
      <polyline class="AnPolyline" fill="none" points="3368,515 3614,515 " stroke="#000000" stroke-width="2px" />

    
    </g>

    
    <g class="ECT_Mode_Directiion Symbol" id="ECT_Mode_Directiion_3_2">

      
      <polyline class="AnPolyline" fill="none" points="1310,432 1310,463 " stroke="#000000" stroke-width="2px" />

      
      <polyline class="AnPolyline" fill="none" points="1310,432 1359,488 " stroke="#000000" stroke-width="2px" />

      
      <polyline class="AnPolyline" fill="none" points="1359,488 1310,546 " stroke="#000000" stroke-width="2px" />

      
      <polyline class="AnPolyline" fill="none" points="1310,515 1310,546 " stroke="#000000" stroke-width="2px" />

      
      <polyline class="AnPolyline" fill="none" points="1064,515 1064,463 " stroke="#000000" stroke-width="2px" />

      
      <polyline class="AnPolyline" fill="none" points="1064,463 1310,463 " stroke="#000000" stroke-width="2px" />

      
      <polyline class="AnPolyline" fill="none" points="1310,515 1064,515 " stroke="#000000" stroke-width="2px" />

    
    </g>

    
    <g class="ECT_Mode_Directiion Symbol" id="ECT_Mode_Directiion_2_3">

      
      <polyline class="AnPolyline" fill="none" points="1310,842 1310,873 " stroke="#000000" stroke-width="2px" />

      
      <polyline class="AnPolyline" fill="none" points="1310,842 1359,898 " stroke="#000000" stroke-width="2px" />

      
      <polyline class="AnPolyline" fill="none" points="1359,898 1310,956 " stroke="#000000" stroke-width="2px" />

      
      <polyline class="AnPolyline" fill="none" points="1310,925 1310,956 " stroke="#000000" stroke-width="2px" />

      
      <polyline class="AnPolyline" fill="none" points="1064,925 1064,873 " stroke="#000000" stroke-width="2px" />

      
      <polyline class="AnPolyline" fill="none" points="1064,873 1310,873 " stroke="#000000" stroke-width="2px" />

      
      <polyline class="AnPolyline" fill="none" points="1310,925 1064,925 " stroke="#000000" stroke-width="2px" />

    
    </g>

    
    <g class="ECT_Mode_Directiion Symbol" id="ECT_Mode_Directiion_4_4">

      
      <polyline class="AnPolyline" fill="none" points="1310,1138 1310,1169 " stroke="#000000" stroke-width="2px" />

      
      <polyline class="AnPolyline" fill="none" points="1310,1138 1359,1194 " stroke="#000000" stroke-width="2px" />

      
      <polyline class="AnPolyline" fill="none" points="1359,1194 1310,1252 " stroke="#000000" stroke-width="2px" />

      
      <polyline class="AnPolyline" fill="none" points="1310,1221 1310,1252 " stroke="#000000" stroke-width="2px" />

      
      <polyline class="AnPolyline" fill="none" points="1064,1221 1064,1169 " stroke="#000000" stroke-width="2px" />

      
      <polyline class="AnPolyline" fill="none" points="1064,1169 1310,1169 " stroke="#000000" stroke-width="2px" />

      
      <polyline class="AnPolyline" fill="none" points="1310,1221 1064,1221 " stroke="#000000" stroke-width="2px" />

    
    </g>

    
    <g class="ECT_Mode_Directiion Symbol" id="ECT_Mode_Directiion_5_5">

      
      <polyline class="AnPolyline" fill="none" points="3368,840 3368,871 " stroke="#000000" stroke-width="2px" />

      
      <polyline class="AnPolyline" fill="none" points="3368,840 3319,896 " stroke="#000000" stroke-width="2px" />

      
      <polyline class="AnPolyline" fill="none" points="3319,896 3368,954 " stroke="#000000" stroke-width="2px" />

      
      <polyline class="AnPolyline" fill="none" points="3368,923 3368,954 " stroke="#000000" stroke-width="2px" />

      
      <polyline class="AnPolyline" fill="none" points="3614,923 3614,871 " stroke="#000000" stroke-width="2px" />

      
      <polyline class="AnPolyline" fill="none" points="3614,871 3368,871 " stroke="#000000" stroke-width="2px" />

      
      <polyline class="AnPolyline" fill="none" points="3368,923 3614,923 " stroke="#000000" stroke-width="2px" />

    
    </g>

    
    <g class="ECT_Mode_Directiion Symbol" id="ECT_Mode_Directiion_6_6">

      
      <polyline class="AnPolyline" fill="none" points="3368,1138 3368,1169 " stroke="#000000" stroke-width="2px" />

      
      <polyline class="AnPolyline" fill="none" points="3368,1138 3319,1194 " stroke="#000000" stroke-width="2px" />

      
      <polyline class="AnPolyline" fill="none" points="3319,1194 3368,1252 " stroke="#000000" stroke-width="2px" />

      
      <polyline class="AnPolyline" fill="none" points="3368,1221 3368,1252 " stroke="#000000" stroke-width="2px" />

      
      <polyline class="AnPolyline" fill="none" points="3614,1221 3614,1169 " stroke="#000000" stroke-width="2px" />

      
      <polyline class="AnPolyline" fill="none" points="3614,1169 3368,1169 " stroke="#000000" stroke-width="2px" />

      
      <polyline class="AnPolyline" fill="none" points="3368,1221 3614,1221 " stroke="#000000" stroke-width="2px" />

    
    </g>

  
  </g>

  
  <g class="AnLayer" id="Equipement">

  
  </g>

  
  <g class="AnLayer" id="Equipement Text">

    
    <text class="AnText" fill="#FFFFFF" font-family="Arial" font-size="12" font-style="normal" font-weight="normal" text-decoration="none" transform="matrix(4.000000,0.000000,0.000000,4.000000,495.000000,270.000000)" x="0px" y="12px">MFD-00003</text>

    
    <text class="AnText" fill="#FFFFFF" font-family="Arial" font-size="12" font-style="normal" font-weight="normal" text-decoration="none" transform="matrix(4.000000,0.000000,0.000000,4.000000,312.000000,492.000000)" x="0px" y="12px">TVF-00003</text>

    
    <text class="AnText" fill="#FFFFFF" font-family="Arial" font-size="12" font-style="normal" font-weight="normal" text-decoration="none" transform="matrix(4.000000,0.000000,0.000000,4.000000,312.000000,856.000000)" x="0px" y="12px">TVF-00002</text>

    
    <text class="AnText" fill="#FFFFFF" font-family="Arial" font-size="12" font-style="normal" font-weight="normal" text-decoration="none" transform="matrix(4.000000,0.000000,0.000000,4.000000,312.000000,1221.000000)" x="0px" y="12px">TVF-00001</text>

    
    <text class="AnText" fill="#FFFFFF" font-family="Arial" font-size="12" font-style="normal" font-weight="normal" text-decoration="none" transform="matrix(4.000000,0.000000,0.000000,4.000000,4223.000000,492.000000)" x="0px" y="12px">TVF-00006</text>

    
    <text class="AnText" fill="#FFFFFF" font-family="Arial" font-size="12" font-style="normal" font-weight="normal" text-decoration="none" transform="matrix(4.000000,0.000000,0.000000,4.000000,4223.000000,854.000000)" x="0px" y="12px">TVF-00005</text>

    
    <text class="AnText" fill="#FFFFFF" font-family="Arial" font-size="12" font-style="normal" font-weight="normal" text-decoration="none" transform="matrix(4.000000,0.000000,0.000000,4.000000,4223.000000,1220.000000)" x="0px" y="12px">TVF-00004</text>

    
    <text class="AnText" fill="#000000" font-family="Arial" font-size="12" font-style="normal" font-weight="normal" text-decoration="none" transform="matrix(3.980490,0.000000,0.000000,4.000000,2142.000000,1698.000000)" x="0px" y="12px">UP TRACK</text>

    
    <text class="AnText" fill="#000000" font-family="Arial" font-size="12" font-style="normal" font-weight="normal" text-decoration="none" transform="matrix(4.000000,0.000000,0.000000,4.000000,2312.000000,1843.000000)" x="0px" y="12px">DOWN TRACK</text>

    
    <text class="AnText" fill="#000000" font-family="Arial" font-size="12" font-style="normal" font-weight="normal" text-decoration="none" transform="matrix(4.000000,0.000000,0.000000,4.000000,302.000000,1647.000000)" x="0px" y="12px">Dummy Control</text>

    
    <text class="AnText" fill="#0000FF" font-family="Arial" font-size="12" font-style="normal" font-weight="normal" text-decoration="none" transform="matrix(4.166670,0.000000,0.000000,4.166670,2087.840088,1960.500000)" x="0px" y="12px">BEACON HILL TUNNEL</text>

    
    <text class="AnText" fill="#000000" font-family="Arial" font-size="12" font-style="normal" font-weight="normal" text-decoration="none" transform="matrix(8.000000,0.000000,0.000000,8.000000,1759.000000,52.000000)" x="0px" y="12px">Beacon Hill Tunnel Ventilation</text>

    
    <text class="AnText" fill="#0000FF" font-family="Arial" font-size="12" font-style="normal" font-weight="normal" text-decoration="none" transform="matrix(4.166670,0.000000,0.000000,4.166670,4152.000000,1960.500000)" x="0px" y="12px">TAI WAI</text>

    
    <text class="AnText" fill="#0000FF" font-family="Arial" font-size="12" font-style="normal" font-weight="normal" text-decoration="none" transform="matrix(4.166670,0.000000,0.000000,4.166670,4157.830078,2020.500000)" x="0px" y="12px">PORTAL</text>

    
    <text class="AnText" fill="#0000FF" font-family="Arial" font-size="12" font-style="normal" font-weight="normal" text-decoration="none" transform="matrix(4.166670,0.000000,0.000000,4.166670,3672.000000,1960.500000)" x="0px" y="12px">NOISE</text>

    
    <text class="AnText" fill="#0000FF" font-family="Arial" font-size="12" font-style="normal" font-weight="normal" text-decoration="none" transform="matrix(4.166670,0.000000,0.000000,4.166670,3602.840088,2020.500000)" x="0px" y="12px">ENCLOSURE</text>

    
    <text class="AnText" fill="#0000FF" font-family="Arial" font-size="12" font-style="normal" font-weight="normal" text-decoration="none" transform="matrix(4.166670,0.000000,0.000000,4.166670,4146.169922,1345.500000)" x="0px" y="12px">TAI WAI</text>

    
    <text class="AnText" fill="#0000FF" font-family="Arial" font-size="12" font-style="normal" font-weight="normal" text-decoration="none" transform="matrix(4.166670,0.000000,0.000000,4.166670,4087.830078,1405.500000)" x="0px" y="12px">VENTILATION</text>

    
    <text class="AnText" fill="#0000FF" font-family="Arial" font-size="12" font-style="normal" font-weight="normal" text-decoration="none" transform="matrix(4.166670,0.000000,0.000000,4.166670,4132.830078,1465.500000)" x="0px" y="12px">BUILDING</text>

    
    <text class="AnText" fill="#0000FF" font-family="Arial" font-size="12" font-style="normal" font-weight="normal" text-decoration="none" transform="matrix(4.166670,0.000000,0.000000,4.166670,271.166992,1960.500000)" x="0px" y="12px">KOWLOON TONG</text>

    
    <text class="AnText" fill="#0000FF" font-family="Arial" font-size="12" font-style="normal" font-weight="normal" text-decoration="none" transform="matrix(4.166670,0.000000,0.000000,4.166670,357.834015,2020.500000)" x="0px" y="12px">PORTAL</text>

    
    <text class="AnText" fill="#0000FF" font-family="Arial" font-size="12" font-style="normal" font-weight="normal" text-decoration="none" transform="matrix(4.166670,0.000000,0.000000,4.166670,902.000000,1960.500000)" x="0px" y="12px">NOISE</text>

    
    <text class="AnText" fill="#0000FF" font-family="Arial" font-size="12" font-style="normal" font-weight="normal" text-decoration="none" transform="matrix(4.166670,0.000000,0.000000,4.166670,837.830017,2020.500000)" x="0px" y="12px">ENCLOSURE</text>

    
    <text class="AnText" fill="#FFFFFF" font-family="Arial" font-size="12" font-style="normal" font-weight="normal" text-decoration="none" transform="matrix(4.000000,0.000000,0.000000,4.000000,495.000000,636.000000)" x="0px" y="12px">MFD-00002</text>

    
    <text class="AnText" fill="#FFFFFF" font-family="Arial" font-size="12" font-style="normal" font-weight="normal" text-decoration="none" transform="matrix(4.000000,0.000000,0.000000,4.000000,495.000000,997.000000)" x="0px" y="12px">MFD-00001</text>

    
    <text class="AnText" fill="#FFFFFF" font-family="Arial" font-size="12" font-style="normal" font-weight="normal" text-decoration="none" transform="matrix(4.000000,0.000000,0.000000,4.000000,4020.000000,269.000000)" x="0px" y="12px">MFD-00006</text>

    
    <text class="AnText" fill="#FFFFFF" font-family="Arial" font-size="12" font-style="normal" font-weight="normal" text-decoration="none" transform="matrix(4.000000,0.000000,0.000000,4.000000,4020.000000,631.000000)" x="0px" y="12px">MFD-00005</text>

    
    <text class="AnText" fill="#FFFFFF" font-family="Arial" font-size="12" font-style="normal" font-weight="normal" text-decoration="none" transform="matrix(4.000000,0.000000,0.000000,4.000000,4020.000000,998.000000)" x="0px" y="12px">MFD-00004</text>

    
    <polyline class="AnPolyline" fill="none" points="4497,1974 4497,2092 " stroke="#000000" stroke-width="1px" />

    
    <polyline class="AnPolyline" fill="none" points="3987,1974 3987,2092 " stroke="#000000" stroke-width="1px" />

    
    <polyline class="AnPolyline" fill="none" points="3517,1974 3517,2092 " stroke="#000000" stroke-width="1px" />

    
    <polyline class="AnPolyline" fill="none" points="212,1974 212,2092 " stroke="#000000" stroke-width="1px" />

    
    <polyline class="AnPolyline" fill="none" points="752,1974 752,2092 " stroke="#000000" stroke-width="1px" />

    
    <polyline class="AnPolyline" fill="none" points="1202,1974 1202,2092 " stroke="#000000" stroke-width="1px" />

    
    <text class="AnText" fill="#0000FF" font-family="Arial" font-size="12" font-style="normal" font-weight="normal" text-decoration="none" transform="matrix(4.166670,0.000000,0.000000,4.166670,320.333008,1345.500000)" x="0px" y="12px">KOWLOON TONG</text>

    
    <text class="AnText" fill="#0000FF" font-family="Arial" font-size="12" font-style="normal" font-weight="normal" text-decoration="none" transform="matrix(4.166670,0.000000,0.000000,4.166670,347.833008,1405.500000)" x="0px" y="12px">VENTILATION</text>

    
    <text class="AnText" fill="#0000FF" font-family="Arial" font-size="12" font-style="normal" font-weight="normal" text-decoration="none" transform="matrix(4.166670,0.000000,0.000000,4.166670,392.833008,1465.500000)" x="0px" y="12px">BUILDING</text>

    
    <text class="AnText" fill="#000000" font-family="Arial" font-size="12" font-style="normal" font-weight="normal" text-decoration="none" transform="matrix(4.000000,0.000000,0.000000,4.000000,531.000000,1763.000000)" x="0px" y="12px">DCB1</text>

    
    <text class="AnText" fill="#000000" font-family="Arial" font-size="12" font-style="normal" font-weight="normal" text-decoration="none" transform="matrix(4.050000,0.000000,0.000000,4.050000,303.250000,2144.000000)" x="0px" y="12px">KTPLCA </text>

    
    <text class="AnText" fill="#000000" font-family="Arial" font-size="12" font-style="normal" font-weight="normal" text-decoration="none" transform="matrix(4.050000,0.000000,0.000000,4.050000,598.750000,2144.000000)" x="0px" y="12px">KTPLCB </text>

    
    <text class="AnText" fill="#000000" font-family="Arial" font-size="12" font-style="normal" font-weight="normal" text-decoration="none" transform="matrix(4.050000,0.000000,0.000000,4.050000,882.250000,2144.000000)" x="0px" y="12px">KTVB-GAS </text>

    
    <text class="AnText" fill="#000000" font-family="Arial" font-size="12" font-style="normal" font-weight="normal" text-decoration="none" transform="matrix(4.050000,0.000000,0.000000,4.050000,3638.000000,2144.000000)" x="0px" y="12px">TWPLCA </text>

    
    <text class="AnText" fill="#000000" font-family="Arial" font-size="12" font-style="normal" font-weight="normal" text-decoration="none" transform="matrix(4.050000,0.000000,0.000000,4.050000,3933.500000,2144.000000)" x="0px" y="12px">TWPLCB </text>

    
    <text class="AnText" fill="#000000" font-family="Arial" font-size="12" font-style="normal" font-weight="normal" text-decoration="none" transform="matrix(4.050000,0.000000,0.000000,4.050000,4222.250000,2144.000000)" x="0px" y="12px">TWVB-GAS </text>

    
    <text class="AnText" fill="#000000" font-family="Arial" font-size="12" font-style="normal" font-weight="normal" text-decoration="none" transform="matrix(3.980490,0.000000,0.000000,4.000000,1600.000000,1458.000000)" x="0px" y="12px">EVACUATION TOWARDS</text>

    
    <text class="AnText" fill="#000000" font-family="Arial" font-size="12" font-style="normal" font-weight="normal" text-decoration="none" transform="matrix(3.980490,0.000000,0.000000,4.000000,1677.000000,1519.000000)" x="0px" y="12px">KOWLOON TONG</text>

    
    <text class="AnText" fill="#000000" font-family="Arial" font-size="12" font-style="normal" font-weight="normal" text-decoration="none" transform="matrix(3.980490,0.000000,0.000000,4.000000,2563.000000,1458.000000)" x="0px" y="12px">EVACUATION TOWARDS</text>

    
    <text class="AnText" fill="#000000" font-family="Arial" font-size="12" font-style="normal" font-weight="normal" text-decoration="none" transform="matrix(3.980490,0.000000,0.000000,4.000000,2756.000000,1519.000000)" x="0px" y="12px">TAI WAI</text>

    
    <text class="AnText" fill="#000000" font-family="Arial" font-size="12" font-style="normal" font-weight="normal" text-decoration="none" transform="matrix(3.744000,0.000000,0.000000,3.744000,3554.310059,464.231995)" x="0px" y="12px">6</text>

    
    <text class="AnText" fill="#000000" font-family="Arial" font-size="12" font-style="normal" font-weight="normal" text-decoration="none" transform="matrix(3.744000,0.000000,0.000000,3.744000,1100.310059,464.231995)" x="0px" y="12px">3</text>

    
    <text class="AnText" fill="#000000" font-family="Arial" font-size="12" font-style="normal" font-weight="normal" text-decoration="none" transform="matrix(3.744000,0.000000,0.000000,3.744000,1100.310059,874.231995)" x="0px" y="12px">5</text>

    
    <text class="AnText" fill="#000000" font-family="Arial" font-size="12" font-style="normal" font-weight="normal" text-decoration="none" transform="matrix(3.744000,0.000000,0.000000,3.744000,1100.310059,1170.229980)" x="0px" y="12px">4</text>

    
    <text class="AnText" fill="#000000" font-family="Arial" font-size="12" font-style="normal" font-weight="normal" text-decoration="none" transform="matrix(3.744000,0.000000,0.000000,3.744000,3555.310059,872.231995)" x="0px" y="12px">2</text>

    
    <text class="AnText" fill="#000000" font-family="Arial" font-size="12" font-style="normal" font-weight="normal" text-decoration="none" transform="matrix(3.744000,0.000000,0.000000,3.744000,3552.310059,1170.229980)" x="0px" y="12px">1</text>

    
    <text class="AnText" fill="#000000" font-family="Arial" font-size="12" font-style="normal" font-weight="normal" text-decoration="none" transform="matrix(4.189100,0.000000,0.000000,4.189100,4076.699951,42.582500)" x="0px" y="12px">Control Location</text>

    
    <polyline class="AnPolyline" fill="none" points="2553,2206 2746,2206 2746,2289 2553,2289 2553,2206 " stroke="#000000" stroke-width="2px" />

    
    <polyline class="AnPolyline" fill="none" points="2746,2206 2939,2206 2939,2289 2746,2289 2746,2206 " stroke="#000000" stroke-width="2px" />

    
    <polyline class="AnPolyline" fill="none" points="2939,2206 3132,2206 3132,2289 2939,2289 2939,2206 " stroke="#000000" stroke-width="2px" />

    
    <polyline class="AnPolyline" fill="none" points="3132,2206 3325,2206 3325,2289 3132,2289 3132,2206 " stroke="#000000" stroke-width="2px" />

    
    <polyline class="AnPolyline" fill="none" points="3325,2206 3518,2206 3518,2289 3325,2289 3325,2206 " stroke="#000000" stroke-width="2px" />

    
    <polyline class="AnPolyline" fill="none" points="1202,2206 1395,2206 1395,2289 1202,2289 1202,2206 " stroke="#000000" stroke-width="2px" />

    
    <polyline class="AnPolyline" fill="none" points="1395,2206 1588,2206 1588,2289 1395,2289 1395,2206 " stroke="#000000" stroke-width="2px" />

    
    <polyline class="AnPolyline" fill="none" points="1588,2206 1781,2206 1781,2289 1588,2289 1588,2206 " stroke="#000000" stroke-width="2px" />

    
    <polyline class="AnPolyline" fill="none" points="1781,2206 1974,2206 1974,2289 1781,2289 1781,2206 " stroke="#000000" stroke-width="2px" />

    
    <polyline class="AnPolyline" fill="none" points="1974,2206 2167,2206 2167,2289 1974,2289 1974,2206 " stroke="#000000" stroke-width="2px" />

    
    <polyline class="AnPolyline" fill="none" points="2167,2206 2360,2206 2360,2289 2167,2289 2167,2206 " stroke="#000000" stroke-width="2px" />

    
    <polyline class="AnPolyline" fill="none" points="2360,2206 2553,2206 2553,2289 2360,2289 2360,2206 " stroke="#000000" stroke-width="2px" />

  
  </g>

</svg>