<?xml version='1.0' encoding='UTF-8'?>
<svg xmlns="http://www.w3.org/2000/svg" height="1303" preserveAspectRatio="xMinYMin meet" style="background-color:#D2D2D2;" version="1.1" viewBox="0 0 2553 1303" width="2553">

  
  <g class="AnLayer" id="AnDefaultLayer">

    
    <polyline class="AnPolyline" fill="none" points="46,236 1304,236 1304,1209 46,1209 46,236 " stroke="#000000" stroke-width="3px" />

    
    <polyline class="AnPolyline" fill="none" points="1340,1209 1340,236 2502,236 2502,1209 1340,1209 " stroke="#000000" stroke-width="3px" />

  
  </g>

  
  <g class="AnLayer" id="Background">

    
    <polyline class="AnPolyline" fill="none" points="96,902 205,902 205,970 96,970 96,902 " stroke="#000000" stroke-width="2px" />

    
    <polyline class="AnPolyline" fill="none" points="280,868 263,868 263,908 243,908 " stroke="#000000" stroke-width="2px" />

    
    <polyline class="AnPolyline" fill="none" points="869,868 881,868 919,986 931,986 " stroke="#000000" stroke-width="2px" />

    
    <polyline class="AnPolyline" fill="none" points="1088,894 1190,894 1190,1007 1088,1007 1088,894 " stroke="#000000" stroke-width="2px" />

    
    <polyline class="AnPolyline" fill="none" points="1063,990 1045,990 " stroke="#000000" stroke-width="2px" />

    
    <polyline class="AnPolyline" fill="none" points="1063,990 1088,990 1088,1036 1063,1036 1063,990 " stroke="#000000" stroke-width="2px" />

    
    <polyline class="AnPolyline" fill="none" points="367,381 75,381 75,902 148,902 " stroke="#000000" stroke-width="2px" />

    
    <polyline class="AnPolyline" fill="none" points="1190,894 1287,894 1287,285 " stroke="#000000" stroke-width="2px" />

    
    <polyline class="AnPolyline" fill="none" points="367,283 367,381 " stroke="#000000" stroke-width="2px" />

    
    <polyline class="AnPolyline" fill="none" points="637,283 637,380 1145,380 1145,283 " stroke="#000000" stroke-width="2px" />

    
    <polyline class="AnPolyline" fill="none" points="250,301 367,301 367,381 250,381 250,301 " stroke="#000000" stroke-width="2px" />

    
    <polyline class="AnPolyline" fill="none" points="637,326 744,326 744,380 637,380 637,326 " stroke="#000000" stroke-width="2px" />

    
    <polyline class="AnPolyline" fill="none" points="1038,326 1145,326 1145,380 1038,380 1038,326 " stroke="#000000" stroke-width="2px" />

    
    <polyline class="AnPolyline" fill="none" points="205,902 243,902 243,941 205,941 205,902 " stroke="#000000" stroke-width="2px" />

    
    <polyline class="AnPolyline" fill="none" points="1448,709 1448,933 1538,933 1538,1144 " stroke="#000000" stroke-width="2px" />

    
    <polyline class="AnPolyline" fill="none" points="1448,1099 1448,933 1538,933 1538,1099 1448,1099 " stroke="#000000" stroke-width="2px" />

    
    <polyline class="AnPolyline" fill="none" points="2419,620 2473,620 2399,992 2017,992 2017,1145 " stroke="#000000" stroke-width="2px" />

    
    <polyline class="AnPolyline" fill="none" points="2005,658 2005,577 2122,577 2122,658 2005,658 " stroke="#000000" stroke-width="2px" />

    
    <polyline class="AnPolyline" fill="none" points="2224,620 2273,620 " stroke="#000000" stroke-width="2px" />

    
    <polyline class="AnPolyline" fill="none" points="1985,617 2005,617 " stroke="#000000" stroke-width="2px" />

    
    <polyline class="AnPolyline" fill="none" points="2141,619 2122,619 " stroke="#000000" stroke-width="2px" />

    
    <polyline class="AnPolyline" fill="none" points="1720,617 1742,617 " stroke="#000000" stroke-width="2px" />

    
    <polyline class="AnPolyline" fill="none" points="1476,617 1448,617 " stroke="#000000" stroke-width="2px" />

    
    <polyline class="AnPolyline" fill="none" points="2017,1099 2017,992 2087,992 2087,1099 2017,1099 " stroke="#000000" stroke-width="2px" />

    
    <g>

      
      <polyline class="AnPolyline" fill="none" points="1368,709 1368,571 1448,571 1448,709 1368,709 " stroke="#000000" stroke-width="2px" />

      
      <polyline class="AnPolyline" fill="none" points="1368,571 1368,425 1448,425 1448,571 1368,571 " stroke="#000000" stroke-width="2px" />

    
    </g>

  
  </g>

  
  <g class="AnLayer" id="Equipement Text">

    
    <text class="AnText" fill="#000000" font-family="Arial" font-size="12" font-style="normal" font-weight="normal" text-decoration="none" transform="matrix(1.575380,0.000000,0.000000,1.575380,1283.400024,47.110298)" x="0px" y="12px">Station</text>

    
    <text class="AnText" fill="#000000" font-family="Arial" font-size="12" font-style="normal" font-weight="normal" text-decoration="none" transform="matrix(1.575380,0.000000,0.000000,1.575380,1273.510010,70.110298)" x="0px" y="12px">Computer</text>

  
  </g>

  
  <g class="AnLayer" id="Layout_AFC">

  
  </g>

  
  <g class="AnLayer" id="Layout_AFC_Label">

    
    <text class="AnText" fill="#000000" font-family="Arial" font-size="12" font-style="normal" font-weight="normal" text-decoration="none" transform="matrix(1.575380,0.000000,0.000000,1.575380,874.512024,667.776978)" x="0px" y="12px">GAT-066</text>

    
    <text class="AnText" fill="#000000" font-family="Arial" font-size="12" font-style="normal" font-weight="normal" text-decoration="none" transform="matrix(1.575380,0.000000,0.000000,1.575380,874.512024,696.776978)" x="0px" y="12px">GAT-067</text>

    
    <text class="AnText" fill="#000000" font-family="Arial" font-size="12" font-style="normal" font-weight="normal" text-decoration="none" transform="matrix(1.575380,0.000000,0.000000,1.575380,874.512024,723.776978)" x="0px" y="12px">GAT-068</text>

    
    <text class="AnText" fill="#000000" font-family="Arial" font-size="12" font-style="normal" font-weight="normal" text-decoration="none" transform="matrix(1.575380,0.000000,0.000000,1.575380,874.512024,750.776978)" x="0px" y="12px">GAT-069</text>

    
    <text class="AnText" fill="#000000" font-family="Arial" font-size="12" font-style="normal" font-weight="normal" text-decoration="none" transform="matrix(1.575380,0.000000,0.000000,1.575380,874.512024,778.776978)" x="0px" y="12px">GAT-070</text>

    
    <text class="AnText" fill="#000000" font-family="Arial" font-size="12" font-style="normal" font-weight="normal" text-decoration="none" transform="matrix(1.575380,0.000000,0.000000,1.575380,874.512024,640.776978)" x="0px" y="12px">GAT-065</text>

    
    <polyline class="AnPolyline" fill="none" points="794,828 794,736 869,736 " stroke="#000000" stroke-width="1px" />

    
    <polyline class="AnPolyline" fill="none" points="789,814 794,828 799,814 " stroke="#000000" stroke-width="1px" />

    
    <polyline class="AnPolyline" fill="none" points="827,828 827,764 869,764 " stroke="#000000" stroke-width="1px" />

    
    <polyline class="AnPolyline" fill="none" points="822,814 827,828 832,814 " stroke="#000000" stroke-width="1px" />

    
    <polyline class="AnPolyline" fill="none" points="859,828 859,790 869,790 " stroke="#000000" stroke-width="1px" />

    
    <polyline class="AnPolyline" fill="none" points="854,814 859,828 864,814 " stroke="#000000" stroke-width="1px" />

    
    <polyline class="AnPolyline" fill="none" points="699,827 699,654 866,654 " stroke="#000000" stroke-width="1px" />

    
    <polyline class="AnPolyline" fill="none" points="694,813 699,827 704,813 " stroke="#000000" stroke-width="1px" />

    
    <polyline class="AnPolyline" fill="none" points="732,827 732,681 868,681 " stroke="#000000" stroke-width="1px" />

    
    <polyline class="AnPolyline" fill="none" points="727,813 732,827 737,813 " stroke="#000000" stroke-width="1px" />

    
    <polyline class="AnPolyline" fill="none" points="764,827 764,709 869,709 " stroke="#000000" stroke-width="1px" />

    
    <polyline class="AnPolyline" fill="none" points="759,813 764,827 769,813 " stroke="#000000" stroke-width="1px" />

    
    <text class="AnText" fill="#000000" font-family="Arial" font-size="12" font-style="normal" font-weight="normal" text-decoration="none" transform="matrix(1.575380,0.000000,0.000000,1.575380,685.512024,961.776978)" x="0px" y="12px">GAT-015</text>

    
    <text class="AnText" fill="#000000" font-family="Arial" font-size="12" font-style="normal" font-weight="normal" text-decoration="none" transform="matrix(1.575380,0.000000,0.000000,1.575380,685.512024,990.775024)" x="0px" y="12px">GAT-014</text>

    
    <text class="AnText" fill="#000000" font-family="Arial" font-size="12" font-style="normal" font-weight="normal" text-decoration="none" transform="matrix(1.575380,0.000000,0.000000,1.575380,685.512024,1017.770020)" x="0px" y="12px">GAT-013</text>

    
    <text class="AnText" fill="#000000" font-family="Arial" font-size="12" font-style="normal" font-weight="normal" text-decoration="none" transform="matrix(1.575380,0.000000,0.000000,1.575380,685.512024,1044.770020)" x="0px" y="12px">GAT-012</text>

    
    <text class="AnText" fill="#000000" font-family="Arial" font-size="12" font-style="normal" font-weight="normal" text-decoration="none" transform="matrix(1.575380,0.000000,0.000000,1.575380,684.512024,1072.770020)" x="0px" y="12px">GAT-011</text>

    
    <text class="AnText" fill="#000000" font-family="Arial" font-size="12" font-style="normal" font-weight="normal" text-decoration="none" transform="matrix(1.575380,0.000000,0.000000,1.575380,685.512024,934.776978)" x="0px" y="12px">GAT-016</text>

    
    <polyline class="AnPolyline" fill="none" points="414,825 414,733 489,733 " stroke="#000000" stroke-width="1px" />

    
    <polyline class="AnPolyline" fill="none" points="409,811 414,825 419,811 " stroke="#000000" stroke-width="1px" />

    
    <polyline class="AnPolyline" fill="none" points="447,825 447,761 489,761 " stroke="#000000" stroke-width="1px" />

    
    <polyline class="AnPolyline" fill="none" points="442,811 447,825 452,811 " stroke="#000000" stroke-width="1px" />

    
    <polyline class="AnPolyline" fill="none" points="479,825 479,787 489,787 " stroke="#000000" stroke-width="1px" />

    
    <polyline class="AnPolyline" fill="none" points="474,811 479,825 484,811 " stroke="#000000" stroke-width="1px" />

    
    <polyline class="AnPolyline" fill="none" points="319,824 319,651 486,651 " stroke="#000000" stroke-width="1px" />

    
    <polyline class="AnPolyline" fill="none" points="314,810 319,824 324,810 " stroke="#000000" stroke-width="1px" />

    
    <polyline class="AnPolyline" fill="none" points="352,824 352,678 488,678 " stroke="#000000" stroke-width="1px" />

    
    <polyline class="AnPolyline" fill="none" points="347,810 352,824 357,810 " stroke="#000000" stroke-width="1px" />

    
    <polyline class="AnPolyline" fill="none" points="384,824 384,706 489,706 " stroke="#000000" stroke-width="1px" />

    
    <polyline class="AnPolyline" fill="none" points="379,810 384,824 389,810 " stroke="#000000" stroke-width="1px" />

    
    <text class="AnText" fill="#000000" font-family="Arial" font-size="12" font-style="normal" font-weight="normal" text-decoration="none" transform="matrix(1.575380,0.000000,0.000000,1.575380,493.511993,665.776978)" x="0px" y="12px">GAT-006</text>

    
    <text class="AnText" fill="#000000" font-family="Arial" font-size="12" font-style="normal" font-weight="normal" text-decoration="none" transform="matrix(1.575380,0.000000,0.000000,1.575380,493.511993,694.776978)" x="0px" y="12px">GAT-007</text>

    
    <text class="AnText" fill="#000000" font-family="Arial" font-size="12" font-style="normal" font-weight="normal" text-decoration="none" transform="matrix(1.575380,0.000000,0.000000,1.575380,493.511993,721.776978)" x="0px" y="12px">GAT-008</text>

    
    <text class="AnText" fill="#000000" font-family="Arial" font-size="12" font-style="normal" font-weight="normal" text-decoration="none" transform="matrix(1.575380,0.000000,0.000000,1.575380,493.511993,748.776978)" x="0px" y="12px">GAT-009</text>

    
    <text class="AnText" fill="#000000" font-family="Arial" font-size="12" font-style="normal" font-weight="normal" text-decoration="none" transform="matrix(1.575380,0.000000,0.000000,1.575380,493.511993,776.776978)" x="0px" y="12px">GAT-010</text>

    
    <text class="AnText" fill="#000000" font-family="Arial" font-size="12" font-style="normal" font-weight="normal" text-decoration="none" transform="matrix(1.575380,0.000000,0.000000,1.575380,493.511993,638.776978)" x="0px" y="12px">GAT-005</text>

    
    <text class="AnText" fill="#000000" font-family="Arial" font-size="12" font-style="normal" font-weight="normal" text-decoration="none" transform="matrix(1.575380,0.000000,0.000000,1.575380,303.511993,934.776978)" x="0px" y="12px">GAT-113</text>

    
    <polyline class="AnPolyline" fill="none" points="605,909 605,1001 680,1001 " stroke="#000000" stroke-width="1px" />

    
    <polyline class="AnPolyline" fill="none" points="600,923 605,909 610,923 " stroke="#000000" stroke-width="1px" />

    
    <polyline class="AnPolyline" fill="none" points="638,909 638,973 680,973 " stroke="#000000" stroke-width="1px" />

    
    <polyline class="AnPolyline" fill="none" points="633,923 638,909 643,923 " stroke="#000000" stroke-width="1px" />

    
    <polyline class="AnPolyline" fill="none" points="670,909 670,947 680,947 " stroke="#000000" stroke-width="1px" />

    
    <polyline class="AnPolyline" fill="none" points="665,923 670,909 675,923 " stroke="#000000" stroke-width="1px" />

    
    <polyline class="AnPolyline" fill="none" points="510,910 510,1083 677,1083 " stroke="#000000" stroke-width="1px" />

    
    <polyline class="AnPolyline" fill="none" points="505,924 510,910 515,924 " stroke="#000000" stroke-width="1px" />

    
    <polyline class="AnPolyline" fill="none" points="543,910 543,1056 679,1056 " stroke="#000000" stroke-width="1px" />

    
    <polyline class="AnPolyline" fill="none" points="538,924 543,910 548,924 " stroke="#000000" stroke-width="1px" />

    
    <polyline class="AnPolyline" fill="none" points="575,910 575,1028 680,1028 " stroke="#000000" stroke-width="1px" />

    
    <polyline class="AnPolyline" fill="none" points="570,924 575,910 580,924 " stroke="#000000" stroke-width="1px" />

    
    <polyline class="AnPolyline" fill="none" points="288,909 288,947 298,947 " stroke="#000000" stroke-width="1px" />

    
    <polyline class="AnPolyline" fill="none" points="283,923 288,909 293,923 " stroke="#000000" stroke-width="1px" />

    
    <text class="AnText" fill="#000000" font-family="Arial" font-size="12" font-style="normal" font-weight="normal" text-decoration="none" transform="matrix(1.575380,0.000000,0.000000,1.575380,848.512024,1049.770020)" x="0px" y="12px">GAT-004</text>

    
    <text class="AnText" fill="#000000" font-family="Arial" font-size="12" font-style="normal" font-weight="normal" text-decoration="none" transform="matrix(1.575380,0.000000,0.000000,1.575380,848.512024,1076.770020)" x="0px" y="12px">GAT-003</text>

    
    <text class="AnText" fill="#000000" font-family="Arial" font-size="12" font-style="normal" font-weight="normal" text-decoration="none" transform="matrix(1.575380,0.000000,0.000000,1.575380,848.512024,1103.770020)" x="0px" y="12px">GAT-002</text>

    
    <text class="AnText" fill="#000000" font-family="Arial" font-size="12" font-style="normal" font-weight="normal" text-decoration="none" transform="matrix(1.575380,0.000000,0.000000,1.575380,848.512024,1131.770020)" x="0px" y="12px">GAT-001</text>

    
    <polyline class="AnPolyline" fill="none" points="1005,1024 1005,1116 929,1116 " stroke="#000000" stroke-width="1px" />

    
    <polyline class="AnPolyline" fill="none" points="1010,1038 1005,1024 1000,1038 " stroke="#000000" stroke-width="1px" />

    
    <polyline class="AnPolyline" fill="none" points="972,1024 972,1091 929,1091 " stroke="#000000" stroke-width="1px" />

    
    <polyline class="AnPolyline" fill="none" points="977,1038 972,1024 967,1038 " stroke="#000000" stroke-width="1px" />

    
    <polyline class="AnPolyline" fill="none" points="941,1024 941,1062 929,1062 " stroke="#000000" stroke-width="1px" />

    
    <polyline class="AnPolyline" fill="none" points="946,1038 941,1024 936,1038 " stroke="#000000" stroke-width="1px" />

    
    <polyline class="AnPolyline" fill="none" points="1035,1025 1035,1143 929,1143 " stroke="#000000" stroke-width="1px" />

    
    <polyline class="AnPolyline" fill="none" points="1040,1039 1035,1025 1030,1039 " stroke="#000000" stroke-width="1px" />

    
    <polyline class="AnPolyline" fill="none" points="1911,656 1911,748 1986,748 " stroke="#000000" stroke-width="1px" />

    
    <polyline class="AnPolyline" fill="none" points="1906,670 1911,656 1916,670 " stroke="#000000" stroke-width="1px" />

    
    <polyline class="AnPolyline" fill="none" points="1944,656 1944,720 1986,720 " stroke="#000000" stroke-width="1px" />

    
    <polyline class="AnPolyline" fill="none" points="1939,670 1944,656 1949,670 " stroke="#000000" stroke-width="1px" />

    
    <polyline class="AnPolyline" fill="none" points="1976,656 1976,694 1986,694 " stroke="#000000" stroke-width="1px" />

    
    <polyline class="AnPolyline" fill="none" points="1971,670 1976,656 1981,670 " stroke="#000000" stroke-width="1px" />

    
    <polyline class="AnPolyline" fill="none" points="1816,657 1816,830 1985,830 " stroke="#000000" stroke-width="1px" />

    
    <polyline class="AnPolyline" fill="none" points="1811,671 1816,657 1821,671 " stroke="#000000" stroke-width="1px" />

    
    <polyline class="AnPolyline" fill="none" points="1847,657 1847,803 1985,803 " stroke="#000000" stroke-width="1px" />

    
    <polyline class="AnPolyline" fill="none" points="1842,671 1847,657 1852,671 " stroke="#000000" stroke-width="1px" />

    
    <polyline class="AnPolyline" fill="none" points="1879,657 1879,775 1986,775 " stroke="#000000" stroke-width="1px" />

    
    <polyline class="AnPolyline" fill="none" points="1874,671 1879,657 1884,671 " stroke="#000000" stroke-width="1px" />

    
    <polyline class="AnPolyline" fill="none" points="1747,669 1752,655 1757,669 " stroke="#000000" stroke-width="1px" />

    
    <polyline class="AnPolyline" fill="none" points="1778,669 1783,655 1788,669 " stroke="#000000" stroke-width="1px" />

    
    <polyline class="AnPolyline" fill="none" points="1783,655 1783,858 1985,858 " stroke="#000000" stroke-width="1px" />

    
    <polyline class="AnPolyline" fill="none" points="1752,655 1752,886 1986,886 " stroke="#000000" stroke-width="1px" />

    
    <text class="AnText" fill="#000000" font-family="Arial" font-size="12" font-style="normal" font-weight="normal" text-decoration="none" transform="matrix(1.575380,0.000000,0.000000,1.575380,1990.479980,847.776978)" x="0px" y="12px">GAT-034</text>

    
    <text class="AnText" fill="#000000" font-family="Arial" font-size="12" font-style="normal" font-weight="normal" text-decoration="none" transform="matrix(1.575380,0.000000,0.000000,1.575380,1990.479980,818.776978)" x="0px" y="12px">GAT-035</text>

    
    <text class="AnText" fill="#000000" font-family="Arial" font-size="12" font-style="normal" font-weight="normal" text-decoration="none" transform="matrix(1.575380,0.000000,0.000000,1.575380,1990.479980,791.776978)" x="0px" y="12px">GAT-036</text>

    
    <text class="AnText" fill="#000000" font-family="Arial" font-size="12" font-style="normal" font-weight="normal" text-decoration="none" transform="matrix(1.575380,0.000000,0.000000,1.575380,1990.479980,763.776978)" x="0px" y="12px">GAT-037</text>

    
    <text class="AnText" fill="#000000" font-family="Arial" font-size="12" font-style="normal" font-weight="normal" text-decoration="none" transform="matrix(1.575380,0.000000,0.000000,1.575380,1990.479980,735.776978)" x="0px" y="12px">GAT-038</text>

    
    <text class="AnText" fill="#000000" font-family="Arial" font-size="12" font-style="normal" font-weight="normal" text-decoration="none" transform="matrix(1.575380,0.000000,0.000000,1.575380,1990.479980,875.776978)" x="0px" y="12px">GAT-033</text>

    
    <text class="AnText" fill="#000000" font-family="Arial" font-size="12" font-style="normal" font-weight="normal" text-decoration="none" transform="matrix(1.575380,0.000000,0.000000,1.575380,1990.479980,709.776978)" x="0px" y="12px">GAT-039</text>

    
    <text class="AnText" fill="#000000" font-family="Arial" font-size="12" font-style="normal" font-weight="normal" text-decoration="none" transform="matrix(1.575380,0.000000,0.000000,1.575380,1990.479980,682.776978)" x="0px" y="12px">GAT-040</text>

    
    <g>

      
      <polyline class="AnPolyline" fill="none" points="1643,578 1643,486 1718,486 " stroke="#000000" stroke-width="1px" />

      
      <polyline class="AnPolyline" fill="none" points="1638,564 1643,578 1648,564 " stroke="#000000" stroke-width="1px" />

      
      <polyline class="AnPolyline" fill="none" points="1676,578 1676,514 1718,514 " stroke="#000000" stroke-width="1px" />

      
      <polyline class="AnPolyline" fill="none" points="1671,564 1676,578 1681,564 " stroke="#000000" stroke-width="1px" />

      
      <polyline class="AnPolyline" fill="none" points="1708,578 1708,540 1718,540 " stroke="#000000" stroke-width="1px" />

      
      <polyline class="AnPolyline" fill="none" points="1703,564 1708,578 1713,564 " stroke="#000000" stroke-width="1px" />

      
      <polyline class="AnPolyline" fill="none" points="1548,577 1548,404 1717,404 " stroke="#000000" stroke-width="1px" />

      
      <polyline class="AnPolyline" fill="none" points="1543,563 1548,577 1553,563 " stroke="#000000" stroke-width="1px" />

      
      <polyline class="AnPolyline" fill="none" points="1579,577 1579,431 1717,431 " stroke="#000000" stroke-width="1px" />

      
      <polyline class="AnPolyline" fill="none" points="1574,563 1579,577 1584,563 " stroke="#000000" stroke-width="1px" />

      
      <polyline class="AnPolyline" fill="none" points="1611,577 1611,459 1718,459 " stroke="#000000" stroke-width="1px" />

      
      <polyline class="AnPolyline" fill="none" points="1606,563 1611,577 1616,563 " stroke="#000000" stroke-width="1px" />

      
      <polyline class="AnPolyline" fill="none" points="1479,565 1484,579 1489,565 " stroke="#000000" stroke-width="1px" />

      
      <polyline class="AnPolyline" fill="none" points="1510,565 1515,579 1520,565 " stroke="#000000" stroke-width="1px" />

      
      <polyline class="AnPolyline" fill="none" points="1515,579 1515,376 1717,376 " stroke="#000000" stroke-width="1px" />

      
      <polyline class="AnPolyline" fill="none" points="1484,579 1484,348 1718,348 " stroke="#000000" stroke-width="1px" />

    
    </g>

    
    <text class="AnText" fill="#000000" font-family="Arial" font-size="12" font-style="normal" font-weight="normal" text-decoration="none" transform="matrix(1.575380,0.000000,0.000000,1.575380,1723.479980,364.777008)" x="0px" y="12px">GAT-082</text>

    
    <text class="AnText" fill="#000000" font-family="Arial" font-size="12" font-style="normal" font-weight="normal" text-decoration="none" transform="matrix(1.575380,0.000000,0.000000,1.575380,1723.479980,392.777008)" x="0px" y="12px">GAT-083</text>

    
    <text class="AnText" fill="#000000" font-family="Arial" font-size="12" font-style="normal" font-weight="normal" text-decoration="none" transform="matrix(1.575380,0.000000,0.000000,1.575380,1723.479980,418.777008)" x="0px" y="12px">GAT-084</text>

    
    <text class="AnText" fill="#000000" font-family="Arial" font-size="12" font-style="normal" font-weight="normal" text-decoration="none" transform="matrix(1.575380,0.000000,0.000000,1.575380,1723.479980,448.777008)" x="0px" y="12px">GAT-085</text>

    
    <text class="AnText" fill="#000000" font-family="Arial" font-size="12" font-style="normal" font-weight="normal" text-decoration="none" transform="matrix(1.575380,0.000000,0.000000,1.575380,1723.479980,475.777008)" x="0px" y="12px">GAT-086</text>

    
    <text class="AnText" fill="#000000" font-family="Arial" font-size="12" font-style="normal" font-weight="normal" text-decoration="none" transform="matrix(1.575380,0.000000,0.000000,1.575380,1723.479980,338.777008)" x="0px" y="12px">GAT-081</text>

    
    <text class="AnText" fill="#000000" font-family="Arial" font-size="12" font-style="normal" font-weight="normal" text-decoration="none" transform="matrix(1.575380,0.000000,0.000000,1.575380,1723.479980,502.777008)" x="0px" y="12px">GAT-087</text>

    
    <text class="AnText" fill="#000000" font-family="Arial" font-size="12" font-style="normal" font-weight="normal" text-decoration="none" transform="matrix(1.575380,0.000000,0.000000,1.575380,1723.479980,528.776978)" x="0px" y="12px">GAT-088</text>

    
    <polyline class="AnPolyline" fill="none" points="2151,657 2151,749 2226,749 " stroke="#000000" stroke-width="1px" />

    
    <polyline class="AnPolyline" fill="none" points="2146,671 2151,657 2156,671 " stroke="#000000" stroke-width="1px" />

    
    <polyline class="AnPolyline" fill="none" points="2184,657 2184,721 2226,721 " stroke="#000000" stroke-width="1px" />

    
    <polyline class="AnPolyline" fill="none" points="2179,671 2184,657 2189,671 " stroke="#000000" stroke-width="1px" />

    
    <polyline class="AnPolyline" fill="none" points="2216,657 2216,695 2226,695 " stroke="#000000" stroke-width="1px" />

    
    <polyline class="AnPolyline" fill="none" points="2211,671 2216,657 2221,671 " stroke="#000000" stroke-width="1px" />

    
    <text class="AnText" fill="#000000" font-family="Arial" font-size="12" font-style="normal" font-weight="normal" text-decoration="none" transform="matrix(1.575380,0.000000,0.000000,1.575380,2230.479980,709.776978)" x="0px" y="12px">GAT-047</text>

    
    <text class="AnText" fill="#000000" font-family="Arial" font-size="12" font-style="normal" font-weight="normal" text-decoration="none" transform="matrix(1.575380,0.000000,0.000000,1.575380,2230.479980,683.776978)" x="0px" y="12px">GAT-133</text>

    
    <text class="AnText" fill="#000000" font-family="Arial" font-size="12" font-style="normal" font-weight="normal" text-decoration="none" transform="matrix(1.575380,0.000000,0.000000,1.575380,2230.479980,738.776978)" x="0px" y="12px">GAT-046</text>

    
    <text class="AnText" fill="#000000" font-family="Arial" font-size="12" font-style="normal" font-weight="normal" text-decoration="none" transform="matrix(1.575380,0.000000,0.000000,1.575380,2189.479980,503.769989)" x="0px" y="12px">GAT-042</text>

    
    <text class="AnText" fill="#000000" font-family="Arial" font-size="12" font-style="normal" font-weight="normal" text-decoration="none" transform="matrix(1.575380,0.000000,0.000000,1.575380,2189.479980,474.769989)" x="0px" y="12px">GAT-043</text>

    
    <text class="AnText" fill="#000000" font-family="Arial" font-size="12" font-style="normal" font-weight="normal" text-decoration="none" transform="matrix(1.575380,0.000000,0.000000,1.575380,2189.479980,447.769989)" x="0px" y="12px">GAT-044</text>

    
    <text class="AnText" fill="#000000" font-family="Arial" font-size="12" font-style="normal" font-weight="normal" text-decoration="none" transform="matrix(1.575380,0.000000,0.000000,1.575380,2189.479980,528.776978)" x="0px" y="12px">GAT-193</text>

    
    <text class="AnText" fill="#000000" font-family="Arial" font-size="12" font-style="normal" font-weight="normal" text-decoration="none" transform="matrix(1.575380,0.000000,0.000000,1.575380,2189.479980,419.769989)" x="0px" y="12px">GAT-045</text>

    
    <polyline class="AnPolyline" fill="none" points="2349,578 2349,486 2274,486 " stroke="#000000" stroke-width="1px" />

    
    <polyline class="AnPolyline" fill="none" points="2354,564 2349,578 2344,564 " stroke="#000000" stroke-width="1px" />

    
    <polyline class="AnPolyline" fill="none" points="2316,578 2316,514 2274,514 " stroke="#000000" stroke-width="1px" />

    
    <polyline class="AnPolyline" fill="none" points="2321,564 2316,578 2311,564 " stroke="#000000" stroke-width="1px" />

    
    <polyline class="AnPolyline" fill="none" points="2284,578 2284,540 2274,540 " stroke="#000000" stroke-width="1px" />

    
    <polyline class="AnPolyline" fill="none" points="2289,564 2284,578 2279,564 " stroke="#000000" stroke-width="1px" />

    
    <polyline class="AnPolyline" fill="none" points="2413,577 2413,431 2275,431 " stroke="#000000" stroke-width="1px" />

    
    <polyline class="AnPolyline" fill="none" points="2418,563 2413,577 2408,563 " stroke="#000000" stroke-width="1px" />

    
    <polyline class="AnPolyline" fill="none" points="2381,577 2381,459 2274,459 " stroke="#000000" stroke-width="1px" />

    
    <polyline class="AnPolyline" fill="none" points="2386,563 2381,577 2376,563 " stroke="#000000" stroke-width="1px" />

  
  </g>

  
  <g class="AnLayer" id="Layout_Room_Label">

    
    <text class="AnText" fill="#000000" font-family="Arial" font-size="12" font-style="normal" font-weight="normal" text-decoration="none" transform="matrix(1.969230,0.000000,0.000000,1.969230,486.839996,1137.439941)" x="0px" y="12px">(Paid Area)</text>

    
    <text class="AnText" fill="#000000" font-family="Arial" font-size="12" font-style="normal" font-weight="normal" text-decoration="none" transform="matrix(1.575380,0.000000,0.000000,1.575380,1111.469971,939.776978)" x="0px" y="12px">LOW 8</text>

    
    <text class="AnText" fill="#000000" font-family="Arial" font-size="12" font-style="normal" font-weight="normal" text-decoration="none" transform="matrix(1.575380,0.000000,0.000000,1.575380,120.671997,911.776978)" x="0px" y="12px">Station</text>

    
    <text class="AnText" fill="#000000" font-family="Arial" font-size="12" font-style="normal" font-weight="normal" text-decoration="none" transform="matrix(1.575380,0.000000,0.000000,1.575380,123.272003,933.776978)" x="0px" y="12px">Office</text>

    
    <text class="AnText" fill="#000000" font-family="Arial" font-size="12" font-style="normal" font-weight="normal" text-decoration="none" transform="matrix(1.969230,0.000000,0.000000,1.969230,485.589996,541.440002)" x="0px" y="12px">(Unpaid Area)</text>

    
    <text class="AnText" fill="#000000" font-family="Arial" font-size="12" font-style="normal" font-weight="normal" text-decoration="none" transform="matrix(2.835700,0.000000,0.000000,2.835700,612.903992,1227.180054)" x="0px" y="12px">LOW 2F</text>

    
    <text class="AnText" fill="#000000" font-family="Arial" font-size="12" font-style="normal" font-weight="normal" text-decoration="none" transform="matrix(1.575380,0.000000,0.000000,1.575380,285.071991,317.777008)" x="0px" y="12px">Open</text>

    
    <text class="AnText" fill="#000000" font-family="Arial" font-size="12" font-style="normal" font-weight="normal" text-decoration="none" transform="matrix(1.575380,0.000000,0.000000,1.575380,259.296997,339.777008)" x="0px" y="12px">Sitting Area</text>

    
    <text class="AnText" fill="#000000" font-family="Arial" font-size="12" font-style="normal" font-weight="normal" text-decoration="none" transform="matrix(1.575380,0.000000,0.000000,1.575380,661.471985,340.777008)" x="0px" y="12px">LOW 6</text>

    
    <text class="AnText" fill="#000000" font-family="Arial" font-size="12" font-style="normal" font-weight="normal" text-decoration="none" transform="matrix(1.575380,0.000000,0.000000,1.575380,1063.469971,341.777008)" x="0px" y="12px">LOW 2</text>

    
    <text class="AnText" fill="#000000" font-family="Arial" font-size="12" font-style="normal" font-weight="normal" text-decoration="none" transform="matrix(1.969230,0.000000,0.000000,1.969230,499.589996,511.440002)" x="0px" y="12px">Concourse</text>

    
    <text class="AnText" fill="#000000" font-family="Arial" font-size="12" font-style="normal" font-weight="normal" text-decoration="none" transform="matrix(1.969230,0.000000,0.000000,1.969230,489.589996,1110.439941)" x="0px" y="12px">Concourse</text>

    
    <text class="AnText" fill="#000000" font-family="Arial" font-size="12" font-style="normal" font-weight="normal" text-decoration="none" transform="matrix(2.835700,0.000000,0.000000,2.835700,1813.900024,1227.180054)" x="0px" y="12px">LOW Platform</text>

    
    <text class="AnText" fill="#000000" font-family="Arial" font-size="12" font-style="normal" font-weight="normal" text-decoration="none" transform="matrix(1.575380,0.000000,0.000000,1.575380,1379.260010,496.777008)" x="0px" y="12px">LOW5</text>

    
    <text class="AnText" fill="#000000" font-family="Arial" font-size="12" font-style="normal" font-weight="normal" text-decoration="none" transform="matrix(1.575380,0.000000,0.000000,1.575380,1385.260010,628.776978)" x="0px" y="12px">Store</text>

    
    <text class="AnText" fill="#000000" font-family="Arial" font-size="12" font-style="normal" font-weight="normal" text-decoration="none" transform="matrix(1.575380,0.000000,0.000000,1.575380,1459.439941,1006.780029)" x="0px" y="12px">LOWK4</text>

    
    <g>

      
      <text class="AnText" fill="#000000" font-family="Arial" font-size="12" font-style="normal" font-weight="normal" text-decoration="none" transform="matrix(1.969230,0.000000,0.000000,1.969230,1903.099976,468.440002)" x="0px" y="12px">Concourse</text>

      
      <text class="AnText" fill="#000000" font-family="Arial" font-size="12" font-style="normal" font-weight="normal" text-decoration="none" transform="matrix(1.969230,0.000000,0.000000,1.969230,1889.349976,493.440002)" x="0px" y="12px">(Unpaid Area)</text>

      
      <text class="AnText" fill="#000000" font-family="Arial" font-size="12" font-style="normal" font-weight="normal" text-decoration="none" transform="matrix(1.969230,0.000000,0.000000,1.969230,1928.099976,444.440002)" x="0px" y="12px">Lower</text>

    
    </g>

    
    <g>

      
      <text class="AnText" fill="#000000" font-family="Arial" font-size="12" font-style="normal" font-weight="normal" text-decoration="none" transform="matrix(1.969230,0.000000,0.000000,1.969230,1584.849976,759.440002)" x="0px" y="12px">(Paid Area)</text>

      
      <text class="AnText" fill="#000000" font-family="Arial" font-size="12" font-style="normal" font-weight="normal" text-decoration="none" transform="matrix(1.969230,0.000000,0.000000,1.969230,1585.099976,733.442993)" x="0px" y="12px">Concourse</text>

      
      <text class="AnText" fill="#000000" font-family="Arial" font-size="12" font-style="normal" font-weight="normal" text-decoration="none" transform="matrix(1.969230,0.000000,0.000000,1.969230,1611.099976,711.442993)" x="0px" y="12px">Lower</text>

    
    </g>

    
    <g>

      
      <text class="AnText" fill="#000000" font-family="Arial" font-size="12" font-style="normal" font-weight="normal" text-decoration="none" transform="matrix(1.575380,0.000000,0.000000,1.575380,2043.239990,584.776978)" x="0px" y="12px">Fare</text>

      
      <text class="AnText" fill="#000000" font-family="Arial" font-size="12" font-style="normal" font-weight="normal" text-decoration="none" transform="matrix(1.575380,0.000000,0.000000,1.575380,2017.439941,604.776978)" x="0px" y="12px">Adjustment</text>

      
      <text class="AnText" fill="#000000" font-family="Arial" font-size="12" font-style="normal" font-weight="normal" text-decoration="none" transform="matrix(1.575380,0.000000,0.000000,1.575380,2037.239990,627.776978)" x="0px" y="12px">Office</text>

    
    </g>

    
    <g>

      
      <text class="AnText" fill="#000000" font-family="Arial" font-size="12" font-style="normal" font-weight="normal" text-decoration="none" transform="matrix(1.575380,0.000000,0.000000,1.575380,2025.640015,1023.780029)" x="0px" y="12px">Travel</text>

      
      <text class="AnText" fill="#000000" font-family="Arial" font-size="12" font-style="normal" font-weight="normal" text-decoration="none" transform="matrix(1.575380,0.000000,0.000000,1.575380,2028.239990,1045.780029)" x="0px" y="12px">Agent</text>

    
    </g>

  
  </g>

</svg>