<?xml version='1.0' encoding='UTF-8'?>
<svg xmlns="http://www.w3.org/2000/svg" height="2524" preserveAspectRatio="xMinYMin meet" style="background-color:#D2D2D2;" version="1.1" viewBox="0 0 4536 2524" width="4536">

  
  <g class="AnLayer" id="AnDefaultLayer">

    
    <polygon class="AnPolygon" fill="#A9A9A9" fill-rule="evenodd" points="2522,202 1772,202 1772,732 1617,877 1617,987 997,987 782,1187 652,1187 652,1482 782,1482 1002,1687 1617,1687 1617,1807 1772,1947 1772,2512 2512,2512 2512,1947 3137,1947 3137,1482 3847,1482 3847,1187 3137,1187 3137,732 2522,732 2522,202 " />

    
    <polygon class="AnPolygon" fill="#D2D2D2" fill-rule="evenodd" points="1057,1072 937,1187 2022,1187 2022,927 1867,927 1867,1072 1057,1072 " />

    
    <polygon class="AnPolygon" fill="#D2D2D2" fill-rule="evenodd" points="652,1277 1177,1277 1242,1332 1177,1392 652,1392 652,1277 " />

    
    <polygon class="AnPolygon" fill="#D2D2D2" fill-rule="evenodd" points="937,1482 1057,1597 1867,1597 1867,1742 2022,1742 2022,1482 937,1482 " />

    
    <polygon class="AnPolygon" fill="#D2D2D2" fill-rule="evenodd" points="1437,1277 1377,1332 1442,1392 2892,1392 2892,1277 1437,1277 " />

    
    <polygon class="AnPolygon" fill="#D2D2D2" fill-rule="evenodd" points="2267,927 2267,1187 2892,1187 2892,817 2522,817 2522,927 2267,927 " />

    
    <polygon class="AnPolygon" fill="#D2D2D2" fill-rule="evenodd" points="2267,1747 2267,1482 2892,1482 2892,1862 2512,1862 2512,1747 2267,1747 " />

    
    <polygon class="AnPolygon" fill="#D2D2D2" fill-rule="evenodd" points="3137,1277 3847,1277 3847,1392 3137,1392 3137,1277 " />

  
  </g>

  
  <g class="AnLayer" id="Background">

    
    <line class="AnLine" fill="none" stroke="#000000" stroke-width="3px" x1="2512px" x2="2512px" y1="1947px" y2="2512px" />

    
    <line class="AnLine" fill="none" stroke="#000000" stroke-width="3px" x1="2147px" x2="2147px" y1="1947px" y2="2512px" />

    
    <line class="AnLine" fill="none" stroke="#000000" stroke-width="3px" x1="1772px" x2="1772px" y1="1947px" y2="2512px" />

    
    <line class="AnLine" fill="none" stroke="#000000" stroke-width="3px" x1="2892px" x2="1437px" y1="1277px" y2="1277px" />

    
    <line class="AnLine" fill="none" stroke="#287FB8" stroke-dasharray=" 9 15" stroke-dashoffset="0" stroke-width="3px" x1="617px" x2="2892px" y1="1232px" y2="1232px" />

    
    <line class="AnLine" fill="none" stroke="#287FB8" stroke-dasharray=" 9 15" stroke-dashoffset="0" stroke-width="3px" x1="617px" x2="2892px" y1="1437px" y2="1437px" />

    
    <line class="AnLine" fill="none" stroke="#000000" stroke-width="3px" x1="1442px" x2="2892px" y1="1392px" y2="1392px" />

    
    <line class="AnLine" fill="none" stroke="#000000" stroke-width="3px" x1="2147px" x2="2147px" y1="732px" y2="202px" />

    
    <line class="AnLine" fill="none" stroke="#000000" stroke-width="3px" x1="1772px" x2="1772px" y1="732px" y2="202px" />

    
    <line class="AnLine" fill="none" stroke="#000000" stroke-width="3px" x1="1177px" x2="652px" y1="1277px" y2="1277px" />

    
    <line class="AnLine" fill="none" stroke="#000000" stroke-width="3px" x1="782px" x2="997px" y1="1187px" y2="987px" />

    
    <line class="AnLine" fill="none" stroke="#000000" stroke-width="3px" x1="937px" x2="1057px" y1="1187px" y2="1072px" />

    
    <line class="AnLine" fill="none" stroke="#000000" stroke-width="3px" x1="2022px" x2="937px" y1="1187px" y2="1187px" />

    
    <line class="AnLine" fill="none" stroke="#000000" stroke-width="3px" x1="782px" x2="1002px" y1="1482px" y2="1687px" />

    
    <line class="AnLine" fill="none" stroke="#000000" stroke-width="3px" x1="937px" x2="1057px" y1="1482px" y2="1597px" />

    
    <line class="AnLine" fill="none" stroke="#000000" stroke-width="3px" x1="937px" x2="2022px" y1="1482px" y2="1482px" />

    
    <line class="AnLine" fill="none" stroke="#000000" stroke-width="3px" x1="652px" x2="1177px" y1="1392px" y2="1392px" />

    
    <line class="AnLine" fill="none" stroke="#000000" stroke-width="3px" x1="652px" x2="782px" y1="1187px" y2="1187px" />

    
    <line class="AnLine" fill="none" stroke="#000000" stroke-width="3px" x1="652px" x2="782px" y1="1482px" y2="1482px" />

    
    <line class="AnLine" fill="none" stroke="#000000" stroke-width="3px" x1="997px" x2="1617px" y1="987px" y2="987px" />

    
    <line class="AnLine" fill="none" stroke="#000000" stroke-width="3px" x1="1057px" x2="1867px" y1="1597px" y2="1597px" />

    
    <line class="AnLine" fill="none" stroke="#287FB8" stroke-dasharray=" 9 15" stroke-dashoffset="0" stroke-width="3px" x1="1197px" x2="1417px" y1="1232px" y2="1437px" />

    
    <line class="AnLine" fill="none" stroke="#287FB8" stroke-dasharray=" 9 15" stroke-dashoffset="0" stroke-width="3px" x1="1417px" x2="1197px" y1="1232px" y2="1437px" />

    
    <line class="AnLine" fill="none" stroke="#000000" stroke-width="3px" x1="1177px" x2="1242px" y1="1277px" y2="1332px" />

    
    <line class="AnLine" fill="none" stroke="#000000" stroke-width="3px" x1="1242px" x2="1177px" y1="1332px" y2="1392px" />

    
    <line class="AnLine" fill="none" stroke="#000000" stroke-width="3px" x1="1437px" x2="1377px" y1="1277px" y2="1332px" />

    
    <line class="AnLine" fill="none" stroke="#000000" stroke-width="3px" x1="1377px" x2="1442px" y1="1332px" y2="1392px" />

    
    <line class="AnLine" fill="none" stroke="#000000" stroke-width="3px" x1="1057px" x2="1867px" y1="1072px" y2="1072px" />

    
    <line class="AnLine" fill="none" stroke="#000000" stroke-width="3px" x1="1002px" x2="1617px" y1="1687px" y2="1687px" />

    
    <line class="AnLine" fill="none" stroke="#000000" stroke-width="3px" x1="1617px" x2="1617px" y1="987px" y2="877px" />

    
    <line class="AnLine" fill="none" stroke="#000000" stroke-width="3px" x1="1617px" x2="1772px" y1="877px" y2="732px" />

    
    <line class="AnLine" fill="none" stroke="#000000" stroke-width="3px" x1="1867px" x2="1867px" y1="1072px" y2="927px" />

    
    <line class="AnLine" fill="none" stroke="#000000" stroke-width="3px" x1="1867px" x2="2022px" y1="927px" y2="927px" />

    
    <line class="AnLine" fill="none" stroke="#000000" stroke-width="3px" x1="2022px" x2="2022px" y1="927px" y2="1187px" />

    
    <line class="AnLine" fill="none" stroke="#000000" stroke-width="3px" x1="1617px" x2="1772px" y1="1807px" y2="1947px" />

    
    <line class="AnLine" fill="none" stroke="#000000" stroke-width="3px" x1="1617px" x2="1617px" y1="1687px" y2="1807px" />

    
    <line class="AnLine" fill="none" stroke="#000000" stroke-width="3px" x1="2022px" x2="2022px" y1="1482px" y2="1742px" />

    
    <line class="AnLine" fill="none" stroke="#000000" stroke-width="3px" x1="2022px" x2="1867px" y1="1742px" y2="1742px" />

    
    <line class="AnLine" fill="none" stroke="#000000" stroke-width="3px" x1="1867px" x2="1867px" y1="1742px" y2="1597px" />

    
    <line class="AnLine" fill="none" stroke="#000000" stroke-width="3px" x1="2522px" x2="2522px" y1="732px" y2="202px" />

    
    <line class="AnLine" fill="none" stroke="#000000" stroke-width="3px" x1="3137px" x2="3847px" y1="1187px" y2="1187px" />

    
    <line class="AnLine" fill="none" stroke="#000000" stroke-width="3px" x1="3847px" x2="3137px" y1="1277px" y2="1277px" />

    
    <line class="AnLine" fill="none" stroke="#000000" stroke-width="3px" x1="3137px" x2="3847px" y1="1482px" y2="1482px" />

    
    <line class="AnLine" fill="none" stroke="#287FB8" stroke-dasharray=" 9 15" stroke-dashoffset="0" stroke-width="3px" x1="3137px" x2="3862px" y1="1232px" y2="1232px" />

    
    <line class="AnLine" fill="none" stroke="#287FB8" stroke-dasharray=" 9 15" stroke-dashoffset="0" stroke-width="3px" x1="3137px" x2="3862px" y1="1437px" y2="1437px" />

    
    <line class="AnLine" fill="none" stroke="#000000" stroke-width="3px" x1="3137px" x2="3847px" y1="1392px" y2="1392px" />

    
    <line class="AnLine" fill="none" stroke="#000000" stroke-width="3px" x1="2267px" x2="2892px" y1="1187px" y2="1187px" />

    
    <line class="AnLine" fill="none" stroke="#000000" stroke-width="3px" x1="2522px" x2="3137px" y1="732px" y2="732px" />

    
    <line class="AnLine" fill="none" stroke="#000000" stroke-width="3px" x1="3137px" x2="3137px" y1="732px" y2="1947px" />

    
    <line class="AnLine" fill="none" stroke="#000000" stroke-width="3px" x1="3137px" x2="2512px" y1="1947px" y2="1947px" />

    
    <line class="AnLine" fill="none" stroke="#000000" stroke-width="3px" x1="2522px" x2="2892px" y1="817px" y2="817px" />

    
    <line class="AnLine" fill="none" stroke="#000000" stroke-width="3px" x1="2892px" x2="2892px" y1="817px" y2="1862px" />

    
    <line class="AnLine" fill="none" stroke="#000000" stroke-width="3px" x1="2892px" x2="2512px" y1="1862px" y2="1862px" />

    
    <line class="AnLine" fill="none" stroke="#000000" stroke-width="3px" x1="2267px" x2="2892px" y1="1482px" y2="1482px" />

    
    <line class="AnLine" fill="none" stroke="#000000" stroke-width="3px" x1="2267px" x2="2267px" y1="1187px" y2="927px" />

    
    <line class="AnLine" fill="none" stroke="#000000" stroke-width="3px" x1="2267px" x2="2522px" y1="927px" y2="927px" />

    
    <line class="AnLine" fill="none" stroke="#000000" stroke-width="3px" x1="2522px" x2="2522px" y1="927px" y2="817px" />

    
    <line class="AnLine" fill="none" stroke="#000000" stroke-width="3px" x1="2512px" x2="2512px" y1="1862px" y2="1747px" />

    
    <line class="AnLine" fill="none" stroke="#000000" stroke-width="3px" x1="2512px" x2="2267px" y1="1747px" y2="1747px" />

    
    <line class="AnLine" fill="none" stroke="#000000" stroke-width="3px" x1="2267px" x2="2267px" y1="1747px" y2="1482px" />

    
    <line class="AnLine" fill="none" stroke="#000000" stroke-width="3px" x1="3847px" x2="3877px" y1="1187px" y2="1157px" />

    
    <line class="AnLine" fill="none" stroke="#000000" stroke-width="3px" x1="3847px" x2="3877px" y1="1277px" y2="1307px" />

    
    <line class="AnLine" fill="none" stroke="#000000" stroke-width="3px" x1="3847px" x2="3877px" y1="1392px" y2="1362px" />

    
    <line class="AnLine" fill="none" stroke="#000000" stroke-width="3px" x1="3847px" x2="3877px" y1="1482px" y2="1512px" />

    
    <line class="AnLine" fill="none" stroke="#000000" stroke-width="2px" x1="3752px" x2="4151px" y1="1047px" y2="1047px" />

    
    <polygon class="AnPolygon" fill="#000000" fill-rule="evenodd" points="4132,1062 4132,1032 4172,1047 4132,1062 " />

    
    <polyline class="AnPolyline" fill="none" points="552,1172 537,1187 527,1202 522,1217 517,1237 522,1262 532,1292 562,1392 567,1407 572,1427 572,1442 567,1462 557,1477 542,1497 " stroke="#000000" stroke-width="3px" />

    
    <polyline class="AnPolyline" fill="none" points="512,1167 497,1182 487,1197 482,1212 477,1232 482,1257 492,1287 522,1387 527,1402 532,1422 532,1437 527,1457 517,1472 502,1492 " stroke="#000000" stroke-width="3px" />

    
    <line class="AnLine" fill="none" stroke="#000000" stroke-width="2px" x1="3432px" x2="3287px" y1="1412px" y2="1412px" />

    
    <polygon class="AnPolygon" fill="#000000" fill-rule="evenodd" points="3302,1422 3302,1402 3262,1412 3302,1422 " />

    
    <line class="AnLine" fill="none" stroke="#000000" stroke-width="2px" x1="3452px" x2="3597px" y1="1207px" y2="1207px" />

    
    <polygon class="AnPolygon" fill="#000000" fill-rule="evenodd" points="3582,1217 3582,1197 3622,1207 3582,1217 " />

  
  </g>

  
  <g class="AnLayer" id="Equipement">

  
  </g>

  
  <g class="AnLayer" id="Equipement Text">

    
    <text class="AnText" fill="#FFFFFF" font-family="Arial" font-size="12" font-style="normal" font-weight="normal" text-decoration="none" transform="matrix(4.000000,0.000000,0.000000,4.000000,1864.000000,566.000000)" x="0px" y="12px">MFD-003</text>

    
    <text class="AnText" fill="#FFFFFF" font-family="Arial" font-size="12" font-style="normal" font-weight="normal" text-decoration="none" transform="matrix(4.000000,0.000000,0.000000,4.000000,2243.000000,566.000000)" x="0px" y="12px">MFD-004</text>

    
    <text class="AnText" fill="#FFFFFF" font-family="Arial" font-size="12" font-style="normal" font-weight="normal" text-decoration="none" transform="matrix(4.000000,0.000000,0.000000,4.000000,1661.000000,862.000000)" x="0px" y="12px">MFD-009</text>

    
    <text class="AnText" fill="#FFFFFF" font-family="Arial" font-size="12" font-style="normal" font-weight="normal" text-decoration="none" transform="matrix(4.000000,0.000000,0.000000,4.000000,2061.000000,862.000000)" x="0px" y="12px">MFD-008</text>

    
    <text class="AnText" fill="#FFFFFF" font-family="Arial" font-size="12" font-style="normal" font-weight="normal" text-decoration="none" transform="matrix(4.000000,0.000000,0.000000,4.000000,2921.000000,862.000000)" x="0px" y="12px">MFD-005</text>

    
    <text class="AnText" fill="#FFFFFF" font-family="Arial" font-size="12" font-style="normal" font-weight="normal" text-decoration="none" transform="matrix(4.000000,0.000000,0.000000,4.000000,1656.000000,1612.000000)" x="0px" y="12px">MFD-007</text>

    
    <text class="AnText" fill="#FFFFFF" font-family="Arial" font-size="12" font-style="normal" font-weight="normal" text-decoration="none" transform="matrix(4.000000,0.000000,0.000000,4.000000,2052.000000,1612.000000)" x="0px" y="12px">MFD-006</text>

    
    <text class="AnText" fill="#FFFFFF" font-family="Arial" font-size="12" font-style="normal" font-weight="normal" text-decoration="none" transform="matrix(4.000000,0.000000,0.000000,4.000000,1850.000000,1888.000000)" x="0px" y="12px">MFD-001</text>

    
    <text class="AnText" fill="#FFFFFF" font-family="Arial" font-size="12" font-style="normal" font-weight="normal" text-decoration="none" transform="matrix(4.000000,0.000000,0.000000,4.000000,2235.000000,1888.000000)" x="0px" y="12px">MFD-002</text>

    
    <text class="AnText" fill="#FFFFFF" font-family="Arial" font-size="12" font-style="normal" font-weight="normal" text-decoration="none" transform="matrix(4.000000,0.000000,0.000000,4.000000,1851.000000,2387.000000)" x="0px" y="12px">TVF-001</text>

    
    <text class="AnText" fill="#FFFFFF" font-family="Arial" font-size="12" font-style="normal" font-weight="normal" text-decoration="none" transform="matrix(4.000000,0.000000,0.000000,4.000000,2234.000000,2387.000000)" x="0px" y="12px">TVF-002</text>

    
    <text class="AnText" fill="#FFFFFF" font-family="Arial" font-size="12" font-style="normal" font-weight="normal" text-decoration="none" transform="matrix(4.000000,0.000000,0.000000,4.000000,2244.000000,468.000000)" x="0px" y="12px">TVF-004</text>

    
    <text class="AnText" fill="#FFFFFF" font-family="Arial" font-size="12" font-style="normal" font-weight="normal" text-decoration="none" transform="matrix(4.000000,0.000000,0.000000,4.000000,1865.000000,468.000000)" x="0px" y="12px">TVF-003</text>

    
    <text class="AnText" fill="#000000" font-family="Arial" font-size="12" font-style="normal" font-weight="normal" text-decoration="none" transform="matrix(2.916000,0.000000,0.000000,2.916000,3437.770020,1394.300049)" x="0px" y="12px">DOWN TRACK</text>

    
    <text class="AnText" fill="#000000" font-family="Arial" font-size="12" font-style="normal" font-weight="normal" text-decoration="none" transform="matrix(2.916000,0.000000,0.000000,2.916000,3267.010010,1189.290039)" x="0px" y="12px">UP TRACK</text>

    
    <text class="AnText" fill="#000000" font-family="Arial" font-size="12" font-style="normal" font-weight="normal" text-decoration="none" transform="matrix(4.800000,0.000000,0.000000,4.800000,3749.000000,951.200012)" x="0px" y="12px">To Lok Ma Chau</text>

    
    <text class="AnText" fill="#000000" font-family="Arial" font-size="12" font-style="normal" font-weight="normal" text-decoration="none" transform="matrix(8.000000,0.000000,0.000000,8.000000,1570.000000,36.000000)" x="0px" y="12px">CTV Ventilation Schematic</text>

  
  </g>

</svg>