<?xml version='1.0' encoding='UTF-8'?>
<svg xmlns="http://www.w3.org/2000/svg" height="1575" preserveAspectRatio="xMinYMin meet" style="background-color:#D2D2D2;" version="1.1" viewBox="0 0 4979 1575" width="4979">

  
  <g class="AnLayer" id="AnDefaultLayer">

    
    <polygon class="AnPolygon" fill="#E3DBCC" fill-rule="evenodd" points="3317,93 4908,93 4908,1434 3317,1434 " />

    
    <polygon class="AnPolygon" fill="#E3DBCC" fill-rule="evenodd" points="3317,1328 4336,1328 4336,1504 3317,1504 " />

    
    <polygon class="AnPolygon" fill="#E3DBCC" fill-rule="evenodd" points="62,532 1666,532 1666,873 62,873 " />

    
    <polygon class="AnPolygon" fill="#E3DBCC" fill-rule="evenodd" points="59,1101 1666,1101 1666,1445 59,1445 " />

    
    <polygon class="AnPolygon" fill="#E3DBCC" fill-rule="evenodd" points="981,867 1693,867 1693,1172 981,1172 " />

    
    <polygon class="AnPolygon" fill="#E3DBCC" fill-rule="evenodd" points="1273,620 3330,620 3330,1354 1273,1354 " />

    
    <polygon class="AnPolygon" fill="#A9A9A9" fill-rule="evenodd" points="3426,540 3419,555 3438,560 3427,600 3573,600 3573,540 " />

  
  </g>

  
  <g class="AnLayer" id="Background">

    
    <polyline class="AnPolyline" fill="none" points="664,991 664,1515 " stroke="#000000" stroke-width="1px" />

    
    <polyline class="AnPolyline" fill="none" points="641,997 641,1515 " stroke="#000000" stroke-width="1px" />

    
    <polyline class="AnPolyline" fill="none" points="2043,622 1663,622 " stroke="#000000" stroke-width="1px" />

    
    <polyline class="AnPolyline" fill="none" points="1136,1270 2021,1270 " stroke="#000000" stroke-width="1px" />

    
    <polyline class="AnPolyline" fill="none" points="2021,702 1136,702 " stroke="#000000" stroke-width="1px" />

    
    <polyline class="AnPolyline" fill="none" points="2043,632 1663,632 " stroke="#000000" stroke-width="1px" />

    
    <polyline class="AnPolyline" fill="none" points="2043,1350 1663,1350 " stroke="#000000" stroke-width="1px" />

    
    <polyline class="AnPolyline" fill="none" points="1663,1312 2043,1312 " stroke="#000000" stroke-width="1px" />

    
    <polyline class="AnPolyline" fill="none" points="1663,660 2043,660 " stroke="#000000" stroke-width="1px" />

    
    <polyline class="AnPolyline" fill="none" points="76,855 76,547 " stroke="#000000" stroke-width="1px" />

    
    <polyline class="AnPolyline" fill="none" points="61,870 61,532 " stroke="#000000" stroke-width="1px" />

    
    <polyline class="AnPolyline" fill="none" points="166,572 166,830 " stroke="#000000" stroke-width="1px" />

    
    <polyline class="AnPolyline" fill="none" points="609,572 609,830 " stroke="#000000" stroke-width="1px" />

    
    <polyline class="AnPolyline" fill="none" points="1066,683 1066,1289 " stroke="#000000" stroke-width="1px" />

    
    <polyline class="AnPolyline" fill="none" points="1091,1315 1091,662 " stroke="#000000" stroke-width="1px" />

    
    <polyline class="AnPolyline" fill="none" points="1136,702 1136,1270 " stroke="#000000" stroke-width="1px" />

    
    <polyline class="AnPolyline" fill="none" points="664,968 664,457 " stroke="#000000" stroke-width="1px" />

    
    <polyline class="AnPolyline" fill="none" points="641,974 641,457 " stroke="#000000" stroke-width="1px" />

    
    <polyline class="AnPolyline" fill="none" points="1059,1357 1059,615 " stroke="#000000" stroke-width="1px" />

    
    <polyline class="AnPolyline" fill="none" points="1076,683 1076,1289 " stroke="#000000" stroke-width="1px" />

    
    <polyline class="AnPolyline" fill="none" points="664,532 1663,532 " stroke="#000000" stroke-width="1px" />

    
    <polyline class="AnPolyline" fill="none" points="664,547 1648,547 " stroke="#000000" stroke-width="1px" />

    
    <polyline class="AnPolyline" fill="none" points="664,572 1623,572 " stroke="#000000" stroke-width="1px" />

    
    <polyline class="AnPolyline" fill="none" points="601,547 601,532 " stroke="#000000" stroke-width="1px" />

    
    <polyline class="AnPolyline" fill="none" points="614,572 614,547 " stroke="#000000" stroke-width="1px" />

    
    <polyline class="AnPolyline" fill="none" points="61,532 641,532 " stroke="#000000" stroke-width="1px" />

    
    <polyline class="AnPolyline" fill="none" points="76,547 641,547 " stroke="#000000" stroke-width="1px" />

    
    <polyline class="AnPolyline" fill="none" points="166,572 641,572 " stroke="#000000" stroke-width="1px" />

    
    <polyline class="AnPolyline" fill="none" points="1640,657 1640,622 " stroke="#000000" stroke-width="1px" />

    
    <polyline class="AnPolyline" fill="none" points="1066,622 1066,683 " stroke="#000000" stroke-width="1px" />

    
    <polyline class="AnPolyline" fill="none" points="1104,622 1104,657 " stroke="#000000" stroke-width="1px" />

    
    <polyline class="AnPolyline" fill="none" points="1104,657 1066,657 " stroke="#000000" stroke-width="1px" />

    
    <polyline class="AnPolyline" fill="none" points="1663,657 1640,657 " stroke="#000000" stroke-width="1px" />

    
    <polyline class="AnPolyline" fill="none" points="1663,657 1663,622 " stroke="#000000" stroke-width="1px" />

    
    <polyline class="AnPolyline" fill="none" points="1640,632 1593,632 " stroke="#000000" stroke-width="1px" />

    
    <polyline class="AnPolyline" fill="none" points="1104,632 1139,632 " stroke="#000000" stroke-width="1px" />

    
    <polyline class="AnPolyline" fill="none" points="1593,632 1593,622 " stroke="#000000" stroke-width="1px" />

    
    <polyline class="AnPolyline" fill="none" points="1139,632 1139,622 " stroke="#000000" stroke-width="1px" />

    
    <polyline class="AnPolyline" fill="none" points="1593,622 1663,622 " stroke="#000000" stroke-width="1px" />

    
    <polyline class="AnPolyline" fill="none" points="1139,622 1066,622 " stroke="#000000" stroke-width="1px" />

    
    <polyline class="AnPolyline" fill="none" points="1593,622 1139,622 " stroke="#000000" stroke-width="1px" />

    
    <polyline class="AnPolyline" fill="none" points="1076,683 1076,657 " stroke="#000000" stroke-width="1px" />

    
    <polyline class="AnPolyline" fill="none" points="1640,657 1139,657 " stroke="#000000" stroke-width="1px" />

    
    <polyline class="AnPolyline" fill="none" points="1648,547 1648,615 " stroke="#000000" stroke-width="1px" />

    
    <polyline class="AnPolyline" fill="none" points="1663,622 1663,532 " stroke="#000000" stroke-width="1px" />

    
    <polyline class="AnPolyline" fill="none" points="1623,572 1623,615 " stroke="#000000" stroke-width="1px" />

    
    <polyline class="AnPolyline" fill="none" points="1139,632 1139,662 " stroke="#000000" stroke-width="1px" />

    
    <polyline class="AnPolyline" fill="none" points="1104,657 1134,657 " stroke="#000000" stroke-width="1px" />

    
    <polyline class="AnPolyline" fill="none" points="1076,662 1139,662 " stroke="#000000" stroke-width="1px" />

    
    <polyline class="AnPolyline" fill="none" points="1134,632 1134,657 " stroke="#000000" stroke-width="1px" />

    
    <polyline class="AnPolyline" fill="none" points="1593,632 1593,657 " stroke="#000000" stroke-width="1px" />

    
    <polyline class="AnPolyline" fill="none" points="1593,657 1640,657 " stroke="#000000" stroke-width="1px" />

    
    <polyline class="AnPolyline" fill="none" points="1640,652 1598,652 " stroke="#000000" stroke-width="1px" />

    
    <polyline class="AnPolyline" fill="none" points="1598,632 1598,652 " stroke="#000000" stroke-width="1px" />

    
    <polyline class="AnPolyline" fill="none" points="1593,632 1139,632 " stroke="#000000" stroke-width="1px" />

    
    <polyline class="AnPolyline" fill="none" points="1648,615 1059,615 " stroke="#000000" stroke-width="1px" />

    
    <polyline class="AnPolyline" fill="none" points="1663,657 1663,660 " stroke="#000000" stroke-width="1px" />

    
    <polyline class="AnPolyline" fill="none" points="61,1102 61,1440 " stroke="#000000" stroke-width="1px" />

    
    <polyline class="AnPolyline" fill="none" points="601,1117 601,1102 " stroke="#000000" stroke-width="1px" />

    
    <polyline class="AnPolyline" fill="none" points="991,855 991,1117 " stroke="#000000" stroke-width="1px" />

    
    <polyline class="AnPolyline" fill="none" points="976,870 976,1102 " stroke="#000000" stroke-width="1px" />

    
    <polyline class="AnPolyline" fill="none" points="61,1102 641,1102 " stroke="#000000" stroke-width="1px" />

    
    <polyline class="AnPolyline" fill="none" points="664,1102 976,1102 " stroke="#000000" stroke-width="1px" />

    
    <polyline class="AnPolyline" fill="none" points="664,1117 991,1117 " stroke="#000000" stroke-width="1px" />

    
    <polyline class="AnPolyline" fill="none" points="664,1142 1059,1142 " stroke="#000000" stroke-width="1px" />

    
    <polyline class="AnPolyline" fill="none" points="664,1440 1663,1440 " stroke="#000000" stroke-width="1px" />

    
    <polyline class="AnPolyline" fill="none" points="664,1425 1648,1425 " stroke="#000000" stroke-width="1px" />

    
    <polyline class="AnPolyline" fill="none" points="664,1400 1623,1400 " stroke="#000000" stroke-width="1px" />

    
    <polyline class="AnPolyline" fill="none" points="664,870 976,870 " stroke="#000000" stroke-width="1px" />

    
    <polyline class="AnPolyline" fill="none" points="664,855 991,855 " stroke="#000000" stroke-width="1px" />

    
    <polyline class="AnPolyline" fill="none" points="664,830 1059,830 " stroke="#000000" stroke-width="1px" />

    
    <polyline class="AnPolyline" fill="none" points="601,855 601,870 " stroke="#000000" stroke-width="1px" />

    
    <polyline class="AnPolyline" fill="none" points="614,830 614,855 " stroke="#000000" stroke-width="1px" />

    
    <polyline class="AnPolyline" fill="none" points="684,980 644,980 " stroke="#000000" stroke-width="1px" />

    
    <polyline class="AnPolyline" fill="none" points="644,980 664,968 " stroke="#000000" stroke-width="1px" />

    
    <polyline class="AnPolyline" fill="none" points="684,980 664,991 " stroke="#000000" stroke-width="1px" />

    
    <polyline class="AnPolyline" fill="none" points="661,986 622,986 " stroke="#000000" stroke-width="1px" />

    
    <polyline class="AnPolyline" fill="none" points="622,986 641,974 " stroke="#000000" stroke-width="1px" />

    
    <polyline class="AnPolyline" fill="none" points="661,986 641,997 " stroke="#000000" stroke-width="1px" />

    
    <polyline class="AnPolyline" fill="none" points="61,870 641,870 " stroke="#000000" stroke-width="1px" />

    
    <polyline class="AnPolyline" fill="none" points="76,855 641,855 " stroke="#000000" stroke-width="1px" />

    
    <polyline class="AnPolyline" fill="none" points="166,830 641,830 " stroke="#000000" stroke-width="1px" />

    
    <polyline class="AnPolyline" fill="none" points="76,1117 76,1425 " stroke="#000000" stroke-width="1px" />

    
    <polyline class="AnPolyline" fill="none" points="601,1425 601,1440 " stroke="#000000" stroke-width="1px" />

    
    <polyline class="AnPolyline" fill="none" points="166,1400 166,1142 " stroke="#000000" stroke-width="1px" />

    
    <polyline class="AnPolyline" fill="none" points="609,1400 609,1142 " stroke="#000000" stroke-width="1px" />

    
    <polyline class="AnPolyline" fill="none" points="614,1400 614,1425 " stroke="#000000" stroke-width="1px" />

    
    <polyline class="AnPolyline" fill="none" points="614,1142 614,1117 " stroke="#000000" stroke-width="1px" />

    
    <polyline class="AnPolyline" fill="none" points="76,1117 641,1117 " stroke="#000000" stroke-width="1px" />

    
    <polyline class="AnPolyline" fill="none" points="166,1142 641,1142 " stroke="#000000" stroke-width="1px" />

    
    <polyline class="AnPolyline" fill="none" points="61,1440 641,1440 " stroke="#000000" stroke-width="1px" />

    
    <polyline class="AnPolyline" fill="none" points="76,1425 641,1425 " stroke="#000000" stroke-width="1px" />

    
    <polyline class="AnPolyline" fill="none" points="166,1400 641,1400 " stroke="#000000" stroke-width="1px" />

    
    <polyline class="AnPolyline" fill="none" points="1640,1350 1640,1315 " stroke="#000000" stroke-width="1px" />

    
    <polyline class="AnPolyline" fill="none" points="1066,1350 1066,1289 " stroke="#000000" stroke-width="1px" />

    
    <polyline class="AnPolyline" fill="none" points="1104,1315 1104,1350 " stroke="#000000" stroke-width="1px" />

    
    <polyline class="AnPolyline" fill="none" points="1104,1315 1066,1315 " stroke="#000000" stroke-width="1px" />

    
    <polyline class="AnPolyline" fill="none" points="1663,1315 1640,1315 " stroke="#000000" stroke-width="1px" />

    
    <polyline class="AnPolyline" fill="none" points="1663,1315 1663,1350 " stroke="#000000" stroke-width="1px" />

    
    <polyline class="AnPolyline" fill="none" points="1640,1340 1593,1340 " stroke="#000000" stroke-width="1px" />

    
    <polyline class="AnPolyline" fill="none" points="1104,1340 1139,1340 " stroke="#000000" stroke-width="1px" />

    
    <polyline class="AnPolyline" fill="none" points="1593,1350 1593,1340 " stroke="#000000" stroke-width="1px" />

    
    <polyline class="AnPolyline" fill="none" points="1066,1350 1139,1350 " stroke="#000000" stroke-width="1px" />

    
    <polyline class="AnPolyline" fill="none" points="1593,1350 1663,1350 " stroke="#000000" stroke-width="1px" />

    
    <polyline class="AnPolyline" fill="none" points="1076,1289 1076,1315 " stroke="#000000" stroke-width="1px" />

    
    <polyline class="AnPolyline" fill="none" points="1640,1315 1139,1315 " stroke="#000000" stroke-width="1px" />

    
    <polyline class="AnPolyline" fill="none" points="1648,1425 1648,1357 " stroke="#000000" stroke-width="1px" />

    
    <polyline class="AnPolyline" fill="none" points="1663,1350 1663,1440 " stroke="#000000" stroke-width="1px" />

    
    <polyline class="AnPolyline" fill="none" points="1623,1400 1623,1357 " stroke="#000000" stroke-width="1px" />

    
    <polyline class="AnPolyline" fill="none" points="1139,1340 1139,1310 " stroke="#000000" stroke-width="1px" />

    
    <polyline class="AnPolyline" fill="none" points="1104,1315 1134,1315 " stroke="#000000" stroke-width="1px" />

    
    <polyline class="AnPolyline" fill="none" points="1076,1310 1139,1310 " stroke="#000000" stroke-width="1px" />

    
    <polyline class="AnPolyline" fill="none" points="1134,1340 1134,1315 " stroke="#000000" stroke-width="1px" />

    
    <polyline class="AnPolyline" fill="none" points="1593,1340 1593,1315 " stroke="#000000" stroke-width="1px" />

    
    <polyline class="AnPolyline" fill="none" points="1640,1315 1593,1315 " stroke="#000000" stroke-width="1px" />

    
    <polyline class="AnPolyline" fill="none" points="1640,1320 1598,1320 " stroke="#000000" stroke-width="1px" />

    
    <polyline class="AnPolyline" fill="none" points="1598,1340 1598,1320 " stroke="#000000" stroke-width="1px" />

    
    <polyline class="AnPolyline" fill="none" points="1648,1357 1059,1357 " stroke="#000000" stroke-width="1px" />

    
    <polyline class="AnPolyline" fill="none" points="1593,1340 1139,1340 " stroke="#000000" stroke-width="1px" />

    
    <polyline class="AnPolyline" fill="none" points="1593,1350 1139,1350 " stroke="#000000" stroke-width="1px" />

    
    <polyline class="AnPolyline" fill="none" points="1663,1315 1663,1312 " stroke="#000000" stroke-width="1px" />

    
    <polyline class="AnPolyline" fill="none" points="3843,622 4063,622 " stroke="#000000" stroke-width="1px" />

    
    <polyline class="AnPolyline" fill="none" points="3528,622 3528,758 " stroke="#000000" stroke-width="1px" />

    
    <polyline class="AnPolyline" fill="none" points="3538,677 3538,760 " stroke="#000000" stroke-width="1px" />

    
    <polyline class="AnPolyline" fill="none" points="3403,767 3403,632 " stroke="#000000" stroke-width="1px" />

    
    <polyline class="AnPolyline" fill="none" points="3428,758 3428,664 " stroke="#000000" stroke-width="1px" />

    
    <polyline class="AnPolyline" fill="none" points="2480,657 2480,797 " stroke="#000000" stroke-width="1px" />

    
    <polyline class="AnPolyline" fill="none" points="2488,622 2488,805 " stroke="#000000" stroke-width="1px" />

    
    <polyline class="AnPolyline" fill="none" points="2051,657 2051,797 " stroke="#000000" stroke-width="1px" />

    
    <polyline class="AnPolyline" fill="none" points="2043,805 2043,622 " stroke="#000000" stroke-width="1px" />

    
    <polyline class="AnPolyline" fill="none" points="4890,110 3333,110 " stroke="#000000" stroke-width="1px" />

    
    <polyline class="AnPolyline" fill="none" points="4890,110 4890,1402 " stroke="#000000" stroke-width="1px" />

    
    <polyline class="AnPolyline" fill="none" points="4905,95 3318,95 " stroke="#000000" stroke-width="1px" />

    
    <polyline class="AnPolyline" fill="none" points="4905,95 4905,1432 " stroke="#000000" stroke-width="1px" />

    
    <polyline class="AnPolyline" fill="none" points="4063,632 3865,632 " stroke="#000000" stroke-width="1px" />

    
    <polyline class="AnPolyline" fill="none" points="4063,1350 3843,1350 " stroke="#000000" stroke-width="1px" />

    
    <polyline class="AnPolyline" fill="none" points="4038,1340 3843,1340 " stroke="#000000" stroke-width="1px" />

    
    <polyline class="AnPolyline" fill="none" points="3333,1492 4310,1492 " stroke="#000000" stroke-width="1px" />

    
    <polyline class="AnPolyline" fill="none" points="3318,1507 4340,1507 " stroke="#000000" stroke-width="1px" />

    
    <polyline class="AnPolyline" fill="none" points="3390,1417 4310,1417 " stroke="#000000" stroke-width="1px" />

    
    <polyline class="AnPolyline" fill="none" points="4440,686 4440,1286 " stroke="#000000" stroke-width="1px" />

    
    <polyline class="AnPolyline" fill="none" points="3613,767 4415,767 " stroke="#000000" stroke-width="1px" />

    
    <polyline class="AnPolyline" fill="none" points="4415,1192 3613,1192 " stroke="#000000" stroke-width="1px" />

    
    <polyline class="AnPolyline" fill="none" points="3390,185 4815,185 " stroke="#000000" stroke-width="1px" />

    
    <polyline class="AnPolyline" fill="none" points="4815,185 4815,1402 " stroke="#000000" stroke-width="1px" />

    
    <polyline class="AnPolyline" fill="none" points="4448,615 3333,615 " stroke="#000000" stroke-width="1px" />

    
    <polyline class="AnPolyline" fill="none" points="4448,1357 4448,615 " stroke="#000000" stroke-width="1px" />

    
    <polyline class="AnPolyline" fill="none" points="4448,1357 3333,1357 " stroke="#000000" stroke-width="1px" />

    
    <polyline class="AnPolyline" fill="none" points="2021,702 2021,827 " stroke="#000000" stroke-width="1px" />

    
    <polyline class="AnPolyline" fill="none" points="2510,827 2510,702 " stroke="#000000" stroke-width="1px" />

    
    <polyline class="AnPolyline" fill="none" points="2510,702 3358,702 " stroke="#000000" stroke-width="1px" />

    
    <polyline class="AnPolyline" fill="none" points="3358,702 3358,812 " stroke="#000000" stroke-width="1px" />

    
    <polyline class="AnPolyline" fill="none" points="3565,812 4370,812 " stroke="#000000" stroke-width="1px" />

    
    <polyline class="AnPolyline" fill="none" points="3565,1147 4370,1147 " stroke="#000000" stroke-width="1px" />

    
    <polyline class="AnPolyline" fill="none" points="3608,678 3608,760 " stroke="#000000" stroke-width="1px" />

    
    <polyline class="AnPolyline" fill="none" points="3613,678 3613,760 " stroke="#000000" stroke-width="1px" />

    
    <polyline class="AnPolyline" fill="none" points="4058,670 3848,670 " stroke="#000000" stroke-width="1px" />

    
    <polyline class="AnPolyline" fill="none" points="4063,675 3843,675 " stroke="#000000" stroke-width="1px" />

    
    <polyline class="AnPolyline" fill="none" points="3848,1302 4058,1302 " stroke="#000000" stroke-width="1px" />

    
    <polyline class="AnPolyline" fill="none" points="3843,1297 4063,1297 " stroke="#000000" stroke-width="1px" />

    
    <polyline class="AnPolyline" fill="none" points="4430,686 4430,1286 " stroke="#000000" stroke-width="1px" />

    
    <polyline class="AnPolyline" fill="none" points="3613,760 4423,760 " stroke="#000000" stroke-width="1px" />

    
    <polyline class="AnPolyline" fill="none" points="4423,1200 3613,1200 " stroke="#000000" stroke-width="1px" />

    
    <polyline class="AnPolyline" fill="none" points="2938,657 2915,657 " stroke="#000000" stroke-width="1px" />

    
    <polyline class="AnPolyline" fill="none" points="2938,622 2938,657 " stroke="#000000" stroke-width="1px" />

    
    <polyline class="AnPolyline" fill="none" points="3333,110 3333,615 " stroke="#000000" stroke-width="1px" />

    
    <polyline class="AnPolyline" fill="none" points="3318,95 3318,622 " stroke="#000000" stroke-width="1px" />

    
    <polyline class="AnPolyline" fill="none" points="2938,622 2868,622 " stroke="#000000" stroke-width="1px" />

    
    <polyline class="AnPolyline" fill="none" points="3390,185 3390,615 " stroke="#000000" stroke-width="1px" />

    
    <polyline class="AnPolyline" fill="none" points="2938,657 2938,660 " stroke="#000000" stroke-width="1px" />

    
    <polyline class="AnPolyline" fill="none" points="2938,660 3318,660 " stroke="#000000" stroke-width="1px" />

    
    <polyline class="AnPolyline" fill="none" points="2938,632 3318,632 " stroke="#000000" stroke-width="1px" />

    
    <polyline class="AnPolyline" fill="none" points="2938,622 3318,622 " stroke="#000000" stroke-width="1px" />

    
    <polyline class="AnPolyline" fill="none" points="2915,622 2915,657 " stroke="#000000" stroke-width="1px" />

    
    <polyline class="AnPolyline" fill="none" points="2915,632 2868,632 " stroke="#000000" stroke-width="1px" />

    
    <polyline class="AnPolyline" fill="none" points="2465,657 2465,622 " stroke="#000000" stroke-width="1px" />

    
    <polyline class="AnPolyline" fill="none" points="2488,657 2465,657 " stroke="#000000" stroke-width="1px" />

    
    <polyline class="AnPolyline" fill="none" points="2065,657 2065,622 " stroke="#000000" stroke-width="1px" />

    
    <polyline class="AnPolyline" fill="none" points="2065,657 2043,657 " stroke="#000000" stroke-width="1px" />

    
    <polyline class="AnPolyline" fill="none" points="2488,622 2113,622 " stroke="#000000" stroke-width="1px" />

    
    <polyline class="AnPolyline" fill="none" points="2043,622 2113,622 " stroke="#000000" stroke-width="1px" />

    
    <polyline class="AnPolyline" fill="none" points="2465,632 2113,632 " stroke="#000000" stroke-width="1px" />

    
    <polyline class="AnPolyline" fill="none" points="2065,632 2113,632 " stroke="#000000" stroke-width="1px" />

    
    <polyline class="AnPolyline" fill="none" points="2868,622 2868,632 " stroke="#000000" stroke-width="1px" />

    
    <polyline class="AnPolyline" fill="none" points="2488,657 2868,657 " stroke="#000000" stroke-width="1px" />

    
    <polyline class="AnPolyline" fill="none" points="2868,632 2868,657 " stroke="#000000" stroke-width="1px" />

    
    <polyline class="AnPolyline" fill="none" points="2868,657 2915,657 " stroke="#000000" stroke-width="1px" />

    
    <polyline class="AnPolyline" fill="none" points="2915,652 2873,652 " stroke="#000000" stroke-width="1px" />

    
    <polyline class="AnPolyline" fill="none" points="2873,632 2873,652 " stroke="#000000" stroke-width="1px" />

    
    <polyline class="AnPolyline" fill="none" points="2488,632 2868,632 " stroke="#000000" stroke-width="1px" />

    
    <polyline class="AnPolyline" fill="none" points="2488,622 2868,622 " stroke="#000000" stroke-width="1px" />

    
    <polyline class="AnPolyline" fill="none" points="3613,622 3318,622 " stroke="#000000" stroke-width="1px" />

    
    <polyline class="AnPolyline" fill="none" points="3428,630 3528,630 " stroke="#000000" stroke-width="1px" />

    
    <polyline class="AnPolyline" fill="none" points="3428,656 3528,656 " stroke="#000000" stroke-width="1px" />

    
    <polyline class="AnPolyline" fill="none" points="3528,664 3428,664 " stroke="#000000" stroke-width="1px" />

    
    <polyline class="AnPolyline" fill="none" points="3426,600 3576,600 " stroke="#000000" stroke-width="1px" />

    
    <polyline class="AnPolyline" fill="none" points="3426,540 3576,540 " stroke="#000000" stroke-width="1px" />

    
    <polyline class="AnPolyline" fill="none" points="3318,632 3403,632 " stroke="#000000" stroke-width="1px" />

    
    <polyline class="AnPolyline" fill="none" points="3318,632 3318,622 " stroke="#000000" stroke-width="1px" />

    
    <polyline class="AnPolyline" fill="none" points="3428,656 3428,630 " stroke="#000000" stroke-width="1px" />

    
    <polyline class="AnPolyline" fill="none" points="3318,632 3318,657 " stroke="#000000" stroke-width="1px" />

    
    <polyline class="AnPolyline" fill="none" points="3318,657 3403,657 " stroke="#000000" stroke-width="1px" />

    
    <polyline class="AnPolyline" fill="none" points="3323,652 3403,652 " stroke="#000000" stroke-width="1px" />

    
    <polyline class="AnPolyline" fill="none" points="3323,632 3323,652 " stroke="#000000" stroke-width="1px" />

    
    <polyline class="AnPolyline" fill="none" points="3318,660 3318,657 " stroke="#000000" stroke-width="1px" />

    
    <polyline class="AnPolyline" fill="none" points="3440,511 3419,555 " stroke="#000000" stroke-width="1px" />

    
    <polyline class="AnPolyline" fill="none" points="3419,555 3438,560 " stroke="#000000" stroke-width="1px" />

    
    <polyline class="AnPolyline" fill="none" points="3438,560 3424,609 " stroke="#000000" stroke-width="1px" />

    
    <polyline class="AnPolyline" fill="none" points="3843,657 3865,657 " stroke="#000000" stroke-width="1px" />

    
    <polyline class="AnPolyline" fill="none" points="3843,622 3843,657 " stroke="#000000" stroke-width="1px" />

    
    <polyline class="AnPolyline" fill="none" points="3553,677 3553,622 " stroke="#000000" stroke-width="1px" />

    
    <polyline class="AnPolyline" fill="none" points="3553,677 3528,677 " stroke="#000000" stroke-width="1px" />

    
    <polyline class="AnPolyline" fill="none" points="3865,657 3865,622 " stroke="#000000" stroke-width="1px" />

    
    <polyline class="AnPolyline" fill="none" points="3553,632 3613,632 " stroke="#000000" stroke-width="1px" />

    
    <polyline class="AnPolyline" fill="none" points="3608,642 3613,642 " stroke="#000000" stroke-width="1px" />

    
    <polyline class="AnPolyline" fill="none" points="3608,678 3613,678 " stroke="#000000" stroke-width="1px" />

    
    <polyline class="AnPolyline" fill="none" points="3608,632 3608,642 " stroke="#000000" stroke-width="1px" />

    
    <polyline class="AnPolyline" fill="none" points="3613,632 3613,642 " stroke="#000000" stroke-width="1px" />

    
    <polyline class="AnPolyline" fill="none" points="3843,657 3843,675 " stroke="#000000" stroke-width="1px" />

    
    <polyline class="AnPolyline" fill="none" points="3848,657 3848,670 " stroke="#000000" stroke-width="1px" />

    
    <polyline class="AnPolyline" fill="none" points="3843,622 3613,622 " stroke="#000000" stroke-width="1px" />

    
    <polyline class="AnPolyline" fill="none" points="3843,632 3613,632 " stroke="#000000" stroke-width="1px" />

    
    <polyline class="AnPolyline" fill="none" points="3573,540 3573,600 " stroke="#FFFFFF" stroke-width="1px" />

    
    <polyline class="AnPolyline" fill="none" points="3553,540 3553,600 " stroke="#FFFFFF" stroke-width="1px" />

    
    <polyline class="AnPolyline" fill="none" points="3533,540 3533,600 " stroke="#FFFFFF" stroke-width="1px" />

    
    <polyline class="AnPolyline" fill="none" points="3513,540 3513,600 " stroke="#FFFFFF" stroke-width="1px" />

    
    <polyline class="AnPolyline" fill="none" points="3493,540 3493,600 " stroke="#FFFFFF" stroke-width="1px" />

    
    <polyline class="AnPolyline" fill="none" points="3473,540 3473,600 " stroke="#FFFFFF" stroke-width="1px" />

    
    <polyline class="AnPolyline" fill="none" points="3453,540 3453,600 " stroke="#FFFFFF" stroke-width="1px" />

    
    <polyline class="AnPolyline" fill="none" points="3453,570 3577,570 " stroke="#000000" stroke-width="1px" />

    
    <polyline class="AnPolyline" fill="none" points="3470,564 3453,570 " stroke="#000000" stroke-width="1px" />

    
    <polyline class="AnPolyline" fill="none" points="3453,570 3469,577 " stroke="#000000" stroke-width="1px" />

    
    <polyline class="AnPolyline" fill="none" points="4440,622 4368,622 " stroke="#000000" stroke-width="1px" />

    
    <polyline class="AnPolyline" fill="none" points="4415,657 4440,657 " stroke="#000000" stroke-width="1px" />

    
    <polyline class="AnPolyline" fill="none" points="4415,657 4415,622 " stroke="#000000" stroke-width="1px" />

    
    <polyline class="AnPolyline" fill="none" points="4430,657 4430,686 " stroke="#000000" stroke-width="1px" />

    
    <polyline class="AnPolyline" fill="none" points="4440,622 4440,686 " stroke="#000000" stroke-width="1px" />

    
    <polyline class="AnPolyline" fill="none" points="4368,622 4368,632 " stroke="#000000" stroke-width="1px" />

    
    <polyline class="AnPolyline" fill="none" points="4415,632 4368,632 " stroke="#000000" stroke-width="1px" />

    
    <polyline class="AnPolyline" fill="none" points="4289,380 4334,380 " stroke="#000000" stroke-width="1px" />

    
    <polyline class="AnPolyline" fill="none" points="4334,380 4334,335 " stroke="#000000" stroke-width="1px" />

    
    <polyline class="AnPolyline" fill="none" points="4334,335 4289,335 " stroke="#000000" stroke-width="1px" />

    
    <polyline class="AnPolyline" fill="none" points="4289,335 4289,380 " stroke="#000000" stroke-width="1px" />

    
    <polyline class="AnPolyline" fill="none" points="4063,675 4063,632 " stroke="#000000" stroke-width="1px" />

    
    <polyline class="AnPolyline" fill="none" points="4058,670 4058,632 " stroke="#000000" stroke-width="1px" />

    
    <polyline class="AnPolyline" fill="none" points="4368,632 4368,657 " stroke="#000000" stroke-width="1px" />

    
    <polyline class="AnPolyline" fill="none" points="4373,652 4415,652 " stroke="#000000" stroke-width="1px" />

    
    <polyline class="AnPolyline" fill="none" points="4373,632 4373,652 " stroke="#000000" stroke-width="1px" />

    
    <polyline class="AnPolyline" fill="none" points="4368,657 4415,657 " stroke="#000000" stroke-width="1px" />

    
    <polyline class="AnPolyline" fill="none" points="4368,622 4063,622 " stroke="#000000" stroke-width="1px" />

    
    <polyline class="AnPolyline" fill="none" points="4368,632 4063,632 " stroke="#000000" stroke-width="1px" />

    
    <polyline class="AnPolyline" fill="none" points="2938,1315 2915,1315 " stroke="#000000" stroke-width="1px" />

    
    <polyline class="AnPolyline" fill="none" points="2938,1350 2938,1315 " stroke="#000000" stroke-width="1px" />

    
    <polyline class="AnPolyline" fill="none" points="2938,1350 2868,1350 " stroke="#000000" stroke-width="1px" />

    
    <polyline class="AnPolyline" fill="none" points="2510,1270 3358,1270 " stroke="#000000" stroke-width="1px" />

    
    <polyline class="AnPolyline" fill="none" points="3520,812 3520,1147 " stroke="#000000" stroke-width="1px" />

    
    <polyline class="AnPolyline" fill="none" points="3565,812 3565,1147 " stroke="#000000" stroke-width="1px" />

    
    <polyline class="AnPolyline" fill="none" points="2938,1315 2938,1312 " stroke="#000000" stroke-width="1px" />

    
    <polyline class="AnPolyline" fill="none" points="2938,1312 3318,1312 " stroke="#000000" stroke-width="1px" />

    
    <polyline class="AnPolyline" fill="none" points="2938,1350 3318,1350 " stroke="#000000" stroke-width="1px" />

    
    <polyline class="AnPolyline" fill="none" points="2938,1340 3318,1340 " stroke="#000000" stroke-width="1px" />

    
    <polyline class="AnPolyline" fill="none" points="2021,827 2510,827 " stroke="#000000" stroke-width="1px" />

    
    <polyline class="AnPolyline" fill="none" points="2215,805 2043,805 " stroke="#000000" stroke-width="1px" />

    
    <polyline class="AnPolyline" fill="none" points="2315,805 2488,805 " stroke="#000000" stroke-width="1px" />

    
    <polyline class="AnPolyline" fill="none" points="2215,797 2051,797 " stroke="#000000" stroke-width="1px" />

    
    <polyline class="AnPolyline" fill="none" points="2315,797 2480,797 " stroke="#000000" stroke-width="1px" />

    
    <polyline class="AnPolyline" fill="none" points="2215,805 2315,805 " stroke="#000000" stroke-width="1px" />

    
    <polyline class="AnPolyline" fill="none" points="2215,797 2315,797 " stroke="#000000" stroke-width="1px" />

    
    <polyline class="AnPolyline" fill="none" points="3538,760 3613,760 " stroke="#000000" stroke-width="1px" />

    
    <polyline class="AnPolyline" fill="none" points="3528,758 3428,758 " stroke="#000000" stroke-width="1px" />

    
    <polyline class="AnPolyline" fill="none" points="3403,767 3613,767 " stroke="#000000" stroke-width="1px" />

    
    <polyline class="AnPolyline" fill="none" points="3560,760 3560,750 " stroke="#000000" stroke-width="1px" />

    
    <polyline class="AnPolyline" fill="none" points="3560,750 3585,750 " stroke="#000000" stroke-width="1px" />

    
    <polyline class="AnPolyline" fill="none" points="3585,750 3585,760 " stroke="#000000" stroke-width="1px" />

    
    <polyline class="AnPolyline" fill="none" points="3563,760 3563,752 " stroke="#000000" stroke-width="1px" />

    
    <polyline class="AnPolyline" fill="none" points="3563,752 3583,752 " stroke="#000000" stroke-width="1px" />

    
    <polyline class="AnPolyline" fill="none" points="3583,752 3583,760 " stroke="#000000" stroke-width="1px" />

    
    <polyline class="AnPolyline" fill="none" points="3557,760 3557,727 " stroke="#000000" stroke-width="1px" />

    
    <polyline class="AnPolyline" fill="none" points="3557,727 3589,727 " stroke="#000000" stroke-width="1px" />

    
    <polyline class="AnPolyline" fill="none" points="3589,727 3589,760 " stroke="#000000" stroke-width="1px" />

    
    <polyline class="AnPolyline" fill="none" points="3358,812 3520,812 " stroke="#000000" stroke-width="1px" />

    
    <polyline class="AnPolyline" fill="none" points="2480,1315 2480,1175 " stroke="#000000" stroke-width="1px" />

    
    <polyline class="AnPolyline" fill="none" points="2488,1350 2488,1167 " stroke="#000000" stroke-width="1px" />

    
    <polyline class="AnPolyline" fill="none" points="2051,1315 2051,1175 " stroke="#000000" stroke-width="1px" />

    
    <polyline class="AnPolyline" fill="none" points="2043,1167 2043,1350 " stroke="#000000" stroke-width="1px" />

    
    <polyline class="AnPolyline" fill="none" points="2488,1350 2418,1350 " stroke="#000000" stroke-width="1px" />

    
    <polyline class="AnPolyline" fill="none" points="2043,1350 2418,1350 " stroke="#000000" stroke-width="1px" />

    
    <polyline class="AnPolyline" fill="none" points="2465,1340 2418,1340 " stroke="#000000" stroke-width="1px" />

    
    <polyline class="AnPolyline" fill="none" points="2065,1340 2418,1340 " stroke="#000000" stroke-width="1px" />

    
    <polyline class="AnPolyline" fill="none" points="2315,1167 2488,1167 " stroke="#000000" stroke-width="1px" />

    
    <polyline class="AnPolyline" fill="none" points="2315,1175 2480,1175 " stroke="#000000" stroke-width="1px" />

    
    <polyline class="AnPolyline" fill="none" points="2021,1145 2510,1145 " stroke="#000000" stroke-width="1px" />

    
    <polyline class="AnPolyline" fill="none" points="2215,1167 2043,1167 " stroke="#000000" stroke-width="1px" />

    
    <polyline class="AnPolyline" fill="none" points="2215,1175 2051,1175 " stroke="#000000" stroke-width="1px" />

    
    <polyline class="AnPolyline" fill="none" points="2215,1167 2315,1167 " stroke="#000000" stroke-width="1px" />

    
    <polyline class="AnPolyline" fill="none" points="2021,1270 2021,1145 " stroke="#000000" stroke-width="1px" />

    
    <polyline class="AnPolyline" fill="none" points="2215,1175 2315,1175 " stroke="#000000" stroke-width="1px" />

    
    <polyline class="AnPolyline" fill="none" points="2510,1145 2510,1270 " stroke="#000000" stroke-width="1px" />

    
    <polyline class="AnPolyline" fill="none" points="2065,1315 2065,1350 " stroke="#000000" stroke-width="1px" />

    
    <polyline class="AnPolyline" fill="none" points="2065,1315 2043,1315 " stroke="#000000" stroke-width="1px" />

    
    <polyline class="AnPolyline" fill="none" points="2915,1350 2915,1315 " stroke="#000000" stroke-width="1px" />

    
    <polyline class="AnPolyline" fill="none" points="2915,1340 2868,1340 " stroke="#000000" stroke-width="1px" />

    
    <polyline class="AnPolyline" fill="none" points="2465,1315 2465,1350 " stroke="#000000" stroke-width="1px" />

    
    <polyline class="AnPolyline" fill="none" points="2488,1315 2465,1315 " stroke="#000000" stroke-width="1px" />

    
    <polyline class="AnPolyline" fill="none" points="2488,1350 2868,1350 " stroke="#000000" stroke-width="1px" />

    
    <polyline class="AnPolyline" fill="none" points="2868,1340 2868,1350 " stroke="#000000" stroke-width="1px" />

    
    <polyline class="AnPolyline" fill="none" points="2488,1315 2868,1315 " stroke="#000000" stroke-width="1px" />

    
    <polyline class="AnPolyline" fill="none" points="2868,1340 2868,1315 " stroke="#000000" stroke-width="1px" />

    
    <polyline class="AnPolyline" fill="none" points="2868,1315 2915,1315 " stroke="#000000" stroke-width="1px" />

    
    <polyline class="AnPolyline" fill="none" points="2915,1320 2873,1320 " stroke="#000000" stroke-width="1px" />

    
    <polyline class="AnPolyline" fill="none" points="2873,1340 2873,1320 " stroke="#000000" stroke-width="1px" />

    
    <polyline class="AnPolyline" fill="none" points="2488,1340 2868,1340 " stroke="#000000" stroke-width="1px" />

    
    <polyline class="AnPolyline" fill="none" points="3403,1340 3403,1192 " stroke="#000000" stroke-width="1px" />

    
    <polyline class="AnPolyline" fill="none" points="3613,1192 3403,1192 " stroke="#000000" stroke-width="1px" />

    
    <polyline class="AnPolyline" fill="none" points="3553,1295 3553,1350 " stroke="#000000" stroke-width="1px" />

    
    <polyline class="AnPolyline" fill="none" points="3428,1312 3528,1312 " stroke="#000000" stroke-width="1px" />

    
    <polyline class="AnPolyline" fill="none" points="3428,1305 3528,1305 " stroke="#000000" stroke-width="1px" />

    
    <polyline class="AnPolyline" fill="none" points="3428,1305 3428,1200 " stroke="#000000" stroke-width="1px" />

    
    <polyline class="AnPolyline" fill="none" points="3428,1312 3428,1342 " stroke="#000000" stroke-width="1px" />

    
    <polyline class="AnPolyline" fill="none" points="3528,1350 3528,1200 " stroke="#000000" stroke-width="1px" />

    
    <polyline class="AnPolyline" fill="none" points="3428,1200 3528,1200 " stroke="#000000" stroke-width="1px" />

    
    <polyline class="AnPolyline" fill="none" points="3319,1350 3613,1350 " stroke="#000000" stroke-width="1px" />

    
    <polyline class="AnPolyline" fill="none" points="3528,1342 3428,1342 " stroke="#000000" stroke-width="1px" />

    
    <polyline class="AnPolyline" fill="none" points="3358,1147 3520,1147 " stroke="#000000" stroke-width="1px" />

    
    <polyline class="AnPolyline" fill="none" points="3318,1312 3318,1315 " stroke="#000000" stroke-width="1px" />

    
    <polyline class="AnPolyline" fill="none" points="3843,1297 3843,1340 " stroke="#000000" stroke-width="1px" />

    
    <polyline class="AnPolyline" fill="none" points="3848,1302 3848,1340 " stroke="#000000" stroke-width="1px" />

    
    <polyline class="AnPolyline" fill="none" points="3358,1147 3358,1270 " stroke="#000000" stroke-width="1px" />

    
    <polyline class="AnPolyline" fill="none" points="3613,1200 3538,1200 " stroke="#000000" stroke-width="1px" />

    
    <polyline class="AnPolyline" fill="none" points="3553,1295 3528,1295 " stroke="#000000" stroke-width="1px" />

    
    <polyline class="AnPolyline" fill="none" points="3538,1295 3538,1200 " stroke="#000000" stroke-width="1px" />

    
    <polyline class="AnPolyline" fill="none" points="3608,1294 3613,1294 " stroke="#000000" stroke-width="1px" />

    
    <polyline class="AnPolyline" fill="none" points="3608,1200 3608,1294 " stroke="#000000" stroke-width="1px" />

    
    <polyline class="AnPolyline" fill="none" points="3613,1200 3613,1294 " stroke="#000000" stroke-width="1px" />

    
    <polyline class="AnPolyline" fill="none" points="3403,1340 3318,1340 " stroke="#000000" stroke-width="1px" />

    
    <polyline class="AnPolyline" fill="none" points="3318,1350 3318,1340 " stroke="#000000" stroke-width="1px" />

    
    <polyline class="AnPolyline" fill="none" points="3318,1350 3318,1507 " stroke="#000000" stroke-width="1px" />

    
    <polyline class="AnPolyline" fill="none" points="3333,1492 3333,1357 " stroke="#000000" stroke-width="1px" />

    
    <polyline class="AnPolyline" fill="none" points="3390,1417 3390,1357 " stroke="#000000" stroke-width="1px" />

    
    <polyline class="AnPolyline" fill="none" points="3318,1340 3318,1315 " stroke="#000000" stroke-width="1px" />

    
    <polyline class="AnPolyline" fill="none" points="3318,1315 3403,1315 " stroke="#000000" stroke-width="1px" />

    
    <polyline class="AnPolyline" fill="none" points="3323,1320 3403,1320 " stroke="#000000" stroke-width="1px" />

    
    <polyline class="AnPolyline" fill="none" points="3323,1340 3323,1320 " stroke="#000000" stroke-width="1px" />

    
    <polyline class="AnPolyline" fill="none" points="3553,1340 3613,1340 " stroke="#000000" stroke-width="1px" />

    
    <polyline class="AnPolyline" fill="none" points="3843,1340 3843,1350 " stroke="#000000" stroke-width="1px" />

    
    <polyline class="AnPolyline" fill="none" points="3843,1350 3613,1350 " stroke="#000000" stroke-width="1px" />

    
    <polyline class="AnPolyline" fill="none" points="3608,1330 3613,1330 " stroke="#000000" stroke-width="1px" />

    
    <polyline class="AnPolyline" fill="none" points="3608,1340 3608,1330 " stroke="#000000" stroke-width="1px" />

    
    <polyline class="AnPolyline" fill="none" points="3613,1340 3613,1330 " stroke="#000000" stroke-width="1px" />

    
    <polyline class="AnPolyline" fill="none" points="3843,1340 3613,1340 " stroke="#000000" stroke-width="1px" />

    
    <polyline class="AnPolyline" fill="none" points="4440,1350 4368,1350 " stroke="#000000" stroke-width="1px" />

    
    <polyline class="AnPolyline" fill="none" points="4415,1315 4440,1315 " stroke="#000000" stroke-width="1px" />

    
    <polyline class="AnPolyline" fill="none" points="4415,1350 4415,1315 " stroke="#000000" stroke-width="1px" />

    
    <polyline class="AnPolyline" fill="none" points="4430,1286 4430,1315 " stroke="#000000" stroke-width="1px" />

    
    <polyline class="AnPolyline" fill="none" points="4063,1315 4063,1350 " stroke="#000000" stroke-width="1px" />

    
    <polyline class="AnPolyline" fill="none" points="4038,1350 4038,1315 " stroke="#000000" stroke-width="1px" />

    
    <polyline class="AnPolyline" fill="none" points="4063,1315 4038,1315 " stroke="#000000" stroke-width="1px" />

    
    <polyline class="AnPolyline" fill="none" points="4440,1286 4440,1350 " stroke="#000000" stroke-width="1px" />

    
    <polyline class="AnPolyline" fill="none" points="4368,1340 4368,1350 " stroke="#000000" stroke-width="1px" />

    
    <polyline class="AnPolyline" fill="none" points="4368,1340 4415,1340 " stroke="#000000" stroke-width="1px" />

    
    <polyline class="AnPolyline" fill="none" points="4368,1350 4063,1350 " stroke="#000000" stroke-width="1px" />

    
    <polyline class="AnPolyline" fill="none" points="4415,767 4415,1192 " stroke="#000000" stroke-width="1px" />

    
    <polyline class="AnPolyline" fill="none" points="4310,1402 4310,1492 " stroke="#000000" stroke-width="1px" />

    
    <polyline class="AnPolyline" fill="none" points="4340,1507 4340,1432 " stroke="#000000" stroke-width="1px" />

    
    <polyline class="AnPolyline" fill="none" points="4340,1432 4905,1432 " stroke="#000000" stroke-width="1px" />

    
    <polyline class="AnPolyline" fill="none" points="4310,1402 4890,1402 " stroke="#000000" stroke-width="1px" />

    
    <polyline class="AnPolyline" fill="none" points="4370,1147 4370,812 " stroke="#000000" stroke-width="1px" />

    
    <polyline class="AnPolyline" fill="none" points="4063,1315 4063,1297 " stroke="#000000" stroke-width="1px" />

    
    <polyline class="AnPolyline" fill="none" points="4058,1315 4058,1302 " stroke="#000000" stroke-width="1px" />

    
    <polyline class="AnPolyline" fill="none" points="4368,1340 4368,1315 " stroke="#000000" stroke-width="1px" />

    
    <polyline class="AnPolyline" fill="none" points="4373,1320 4415,1320 " stroke="#000000" stroke-width="1px" />

    
    <polyline class="AnPolyline" fill="none" points="4373,1340 4373,1320 " stroke="#000000" stroke-width="1px" />

    
    <polyline class="AnPolyline" fill="none" points="4368,1315 4415,1315 " stroke="#000000" stroke-width="1px" />

    
    <polyline class="AnPolyline" fill="none" points="4368,1340 4063,1340 " stroke="#000000" stroke-width="1px" />

    
    <polyline class="AnPolyline" fill="none" points="4139,1340 4139,1350 " stroke="#000000" stroke-width="1px" />

    
    <polyline class="AnPolyline" fill="none" points="4423,760 4423,1200 " stroke="#000000" stroke-width="1px" />

  
  </g>

  
  <g class="AnLayer" id="Layout_Room_Label">

    
    <text class="AnText" fill="#000000" font-family="Arial" font-size="12" font-style="normal" font-weight="normal" text-decoration="none" transform="matrix(2.363080,0.000000,0.000000,2.363080,827.000000,1250.530029)" x="0px" y="12px">Roof</text>

    
    <text class="AnText" fill="#000000" font-family="Arial" font-size="12" font-style="normal" font-weight="normal" text-decoration="none" transform="matrix(2.363080,0.000000,0.000000,2.363080,817.000000,681.530029)" x="0px" y="12px">Roof</text>

    
    <text class="AnText" fill="#000000" font-family="Arial" font-size="12" font-style="normal" font-weight="normal" text-decoration="none" transform="matrix(2.363080,0.000000,0.000000,2.363080,2177.000000,723.530029)" x="0px" y="12px">Fan Room 1</text>

    
    <text class="AnText" fill="#000000" font-family="Arial" font-size="12" font-style="normal" font-weight="normal" text-decoration="none" transform="matrix(2.363080,0.000000,0.000000,2.363080,2185.000000,1233.530029)" x="0px" y="12px">Fan Room 2</text>

    
    <text class="AnText" fill="#000000" font-family="Arial" font-size="12" font-style="normal" font-weight="normal" text-decoration="none" transform="matrix(2.363080,0.000000,0.000000,2.363080,3764.000000,363.529999)" x="0px" y="12px">Roof</text>

    
    <text class="AnText" fill="#000000" font-family="Arial" font-size="12" font-style="normal" font-weight="normal" text-decoration="none" transform="matrix(2.363080,0.000000,0.000000,2.363080,3457.000000,695.530029)" x="0px" y="12px">L01</text>

    
    <text class="AnText" fill="#000000" font-family="Arial" font-size="12" font-style="normal" font-weight="normal" text-decoration="none" transform="matrix(2.363080,0.000000,0.000000,2.363080,3460.000000,1238.530029)" x="0px" y="12px">L02</text>

    
    <text class="AnText" fill="#000000" font-family="Arial" font-size="12" font-style="normal" font-weight="normal" text-decoration="none" transform="matrix(2.363080,0.000000,0.000000,2.363080,3863.000000,706.530029)" x="0px" y="12px">Flat Roof</text>

    
    <text class="AnText" fill="#000000" font-family="Arial" font-size="12" font-style="normal" font-weight="normal" text-decoration="none" transform="matrix(2.363080,0.000000,0.000000,2.363080,3875.000000,1232.530029)" x="0px" y="12px">Flat Roof</text>

  
  </g>

</svg>