<?xml version='1.0' encoding='UTF-8'?>
<svg xmlns="http://www.w3.org/2000/svg" height="1141" preserveAspectRatio="xMinYMin meet" style="background-color:#D2D2D2;" version="1.1" viewBox="0 0 3757 1141" width="3757">

  
  <g class="AnLayer" id="AnDefaultLayer">

    
    <polygon class="AnPolygon" fill="#E3DBCC" fill-rule="evenodd" points="98,103 3651,103 3651,1008 98,1008 " />

  
  </g>

  
  <g class="AnLayer" id="Background">

    
    <polyline class="AnPolyline" fill="none" points="3637,119 113,119 " stroke="#000000" stroke-width="1px" />

    
    <polyline class="AnPolyline" fill="none" points="3652,104 98,104 " stroke="#000000" stroke-width="1px" />

    
    <polyline class="AnPolyline" fill="none" points="3637,996 113,996 " stroke="#000000" stroke-width="1px" />

    
    <polyline class="AnPolyline" fill="none" points="3652,1011 98,1011 " stroke="#000000" stroke-width="1px" />

    
    <polyline class="AnPolyline" fill="none" points="2512,194 188,194 " stroke="#000000" stroke-width="1px" />

    
    <polyline class="AnPolyline" fill="none" points="2512,921 188,921 " stroke="#000000" stroke-width="1px" />

    
    <polyline class="AnPolyline" fill="none" points="113,119 113,996 " stroke="#000000" stroke-width="1px" />

    
    <polyline class="AnPolyline" fill="none" points="98,104 98,1011 " stroke="#000000" stroke-width="1px" />

    
    <polyline class="AnPolyline" fill="none" points="188,194 188,921 " stroke="#000000" stroke-width="1px" />

    
    <polyline class="AnPolyline" fill="none" points="3637,119 3637,996 " stroke="#000000" stroke-width="1px" />

    
    <polyline class="AnPolyline" fill="none" points="3652,104 3652,1011 " stroke="#000000" stroke-width="1px" />

    
    <polyline class="AnPolyline" fill="none" points="2649,911 2649,686 " stroke="#000000" stroke-width="1px" />

    
    <polyline class="AnPolyline" fill="none" points="2527,911 2527,686 " stroke="#000000" stroke-width="1px" />

    
    <polyline class="AnPolyline" fill="none" points="2862,686 2862,911 " stroke="#000000" stroke-width="1px" />

    
    <polyline class="AnPolyline" fill="none" points="2512,671 2512,926 " stroke="#000000" stroke-width="1px" />

    
    <polyline class="AnPolyline" fill="none" points="2852,756 2852,901 " stroke="#000000" stroke-width="1px" />

    
    <polyline class="AnPolyline" fill="none" points="2852,901 2842,911 " stroke="#000000" stroke-width="1px" />

    
    <polyline class="AnPolyline" fill="none" points="2669,911 2659,901 " stroke="#000000" stroke-width="1px" />

    
    <polyline class="AnPolyline" fill="none" points="2659,901 2659,696 " stroke="#000000" stroke-width="1px" />

    
    <polyline class="AnPolyline" fill="none" points="2972,911 2972,746 " stroke="#000000" stroke-width="1px" />

    
    <polyline class="AnPolyline" fill="none" points="2982,911 2982,746 " stroke="#000000" stroke-width="1px" />

    
    <polyline class="AnPolyline" fill="none" points="3197,911 3197,899 " stroke="#000000" stroke-width="1px" />

    
    <polyline class="AnPolyline" fill="none" points="3212,926 3212,899 " stroke="#000000" stroke-width="1px" />

    
    <polyline class="AnPolyline" fill="none" points="3212,699 3212,899 " stroke="#000000" stroke-width="1px" />

    
    <polyline class="AnPolyline" fill="none" points="3197,699 3197,899 " stroke="#000000" stroke-width="1px" />

    
    <polyline class="AnPolyline" fill="none" points="3562,921 3562,194 " stroke="#000000" stroke-width="1px" />

    
    <polyline class="AnPolyline" fill="none" points="2659,204 2852,204 " stroke="#000000" stroke-width="1px" />

    
    <polyline class="AnPolyline" fill="none" points="3212,189 2512,189 " stroke="#000000" stroke-width="1px" />

    
    <polyline class="AnPolyline" fill="none" points="2669,686 2842,686 " stroke="#000000" stroke-width="1px" />

    
    <polyline class="AnPolyline" fill="none" points="2874,671 2589,671 " stroke="#000000" stroke-width="1px" />

    
    <polyline class="AnPolyline" fill="none" points="2659,429 2852,429 " stroke="#000000" stroke-width="1px" />

    
    <polyline class="AnPolyline" fill="none" points="2874,444 2589,444 " stroke="#000000" stroke-width="1px" />

    
    <polyline class="AnPolyline" fill="none" points="2649,204 2649,429 " stroke="#000000" stroke-width="1px" />

    
    <polyline class="AnPolyline" fill="none" points="2659,204 2659,429 " stroke="#000000" stroke-width="1px" />

    
    <polyline class="AnPolyline" fill="none" points="2527,204 2649,204 " stroke="#000000" stroke-width="1px" />

    
    <polyline class="AnPolyline" fill="none" points="2512,189 2512,444 " stroke="#000000" stroke-width="1px" />

    
    <polyline class="AnPolyline" fill="none" points="2527,204 2527,429 " stroke="#000000" stroke-width="1px" />

    
    <polyline class="AnPolyline" fill="none" points="2539,444 2539,429 " stroke="#000000" stroke-width="1px" />

    
    <polyline class="AnPolyline" fill="none" points="2589,444 2589,429 " stroke="#000000" stroke-width="1px" />

    
    <polyline class="AnPolyline" fill="none" points="2512,444 2539,444 " stroke="#000000" stroke-width="1px" />

    
    <polyline class="AnPolyline" fill="none" points="2589,429 2649,429 " stroke="#000000" stroke-width="1px" />

    
    <polyline class="AnPolyline" fill="none" points="2539,429 2527,429 " stroke="#000000" stroke-width="1px" />

    
    <polyline class="AnPolyline" fill="none" points="2862,204 3197,204 " stroke="#000000" stroke-width="1px" />

    
    <polyline class="AnPolyline" fill="none" points="2852,264 2862,264 " stroke="#000000" stroke-width="1px" />

    
    <polyline class="AnPolyline" fill="none" points="2852,309 2862,309 " stroke="#000000" stroke-width="1px" />

    
    <polyline class="AnPolyline" fill="none" points="3197,429 3197,416 " stroke="#000000" stroke-width="1px" />

    
    <polyline class="AnPolyline" fill="none" points="3212,444 3212,416 " stroke="#000000" stroke-width="1px" />

    
    <polyline class="AnPolyline" fill="none" points="2852,204 2852,264 " stroke="#000000" stroke-width="1px" />

    
    <polyline class="AnPolyline" fill="none" points="2852,309 2852,429 " stroke="#000000" stroke-width="1px" />

    
    <polyline class="AnPolyline" fill="none" points="2862,204 2862,264 " stroke="#000000" stroke-width="1px" />

    
    <polyline class="AnPolyline" fill="none" points="2862,429 2862,309 " stroke="#000000" stroke-width="1px" />

    
    <polyline class="AnPolyline" fill="none" points="3212,194 3562,194 " stroke="#000000" stroke-width="1px" />

    
    <polyline class="AnPolyline" fill="none" points="3197,429 3184,429 " stroke="#000000" stroke-width="1px" />

    
    <polyline class="AnPolyline" fill="none" points="2874,444 2874,429 " stroke="#000000" stroke-width="1px" />

    
    <polyline class="AnPolyline" fill="none" points="3184,429 3184,444 " stroke="#000000" stroke-width="1px" />

    
    <polyline class="AnPolyline" fill="none" points="3212,444 3184,444 " stroke="#000000" stroke-width="1px" />

    
    <polyline class="AnPolyline" fill="none" points="2862,429 2874,429 " stroke="#000000" stroke-width="1px" />

    
    <polyline class="AnPolyline" fill="none" points="2924,444 3184,444 " stroke="#000000" stroke-width="1px" />

    
    <polyline class="AnPolyline" fill="none" points="2924,429 3184,429 " stroke="#000000" stroke-width="1px" />

    
    <polyline class="AnPolyline" fill="none" points="2924,444 2924,429 " stroke="#000000" stroke-width="1px" />

    
    <polyline class="AnPolyline" fill="none" points="3212,416 3212,189 " stroke="#000000" stroke-width="1px" />

    
    <polyline class="AnPolyline" fill="none" points="3197,416 3197,204 " stroke="#000000" stroke-width="1px" />

    
    <polyline class="AnPolyline" fill="none" points="2659,696 2669,686 " stroke="#000000" stroke-width="1px" />

    
    <polyline class="AnPolyline" fill="none" points="2539,686 2539,671 " stroke="#000000" stroke-width="1px" />

    
    <polyline class="AnPolyline" fill="none" points="2589,686 2589,671 " stroke="#000000" stroke-width="1px" />

    
    <polyline class="AnPolyline" fill="none" points="2649,686 2589,686 " stroke="#000000" stroke-width="1px" />

    
    <polyline class="AnPolyline" fill="none" points="2527,686 2539,686 " stroke="#000000" stroke-width="1px" />

    
    <polyline class="AnPolyline" fill="none" points="2512,671 2539,671 " stroke="#000000" stroke-width="1px" />

    
    <polyline class="AnPolyline" fill="none" points="3197,686 3184,686 " stroke="#000000" stroke-width="1px" />

    
    <polyline class="AnPolyline" fill="none" points="2797,746 2797,736 " stroke="#000000" stroke-width="1px" />

    
    <polyline class="AnPolyline" fill="none" points="2842,686 2852,696 " stroke="#000000" stroke-width="1px" />

    
    <polyline class="AnPolyline" fill="none" points="2852,696 2852,726 " stroke="#000000" stroke-width="1px" />

    
    <polyline class="AnPolyline" fill="none" points="2852,726 2842,736 " stroke="#000000" stroke-width="1px" />

    
    <polyline class="AnPolyline" fill="none" points="2842,736 2797,736 " stroke="#000000" stroke-width="1px" />

    
    <polyline class="AnPolyline" fill="none" points="2797,746 2842,746 " stroke="#000000" stroke-width="1px" />

    
    <polyline class="AnPolyline" fill="none" points="2842,746 2852,756 " stroke="#000000" stroke-width="1px" />

    
    <polyline class="AnPolyline" fill="none" points="2874,671 2874,686 " stroke="#000000" stroke-width="1px" />

    
    <polyline class="AnPolyline" fill="none" points="2972,701 2982,701 " stroke="#000000" stroke-width="1px" />

    
    <polyline class="AnPolyline" fill="none" points="2982,746 2972,746 " stroke="#000000" stroke-width="1px" />

    
    <polyline class="AnPolyline" fill="none" points="3212,671 3184,671 " stroke="#000000" stroke-width="1px" />

    
    <polyline class="AnPolyline" fill="none" points="2862,686 2874,686 " stroke="#000000" stroke-width="1px" />

    
    <polyline class="AnPolyline" fill="none" points="2982,686 2972,686 " stroke="#000000" stroke-width="1px" />

    
    <polyline class="AnPolyline" fill="none" points="2972,686 2972,701 " stroke="#000000" stroke-width="1px" />

    
    <polyline class="AnPolyline" fill="none" points="2982,686 2982,701 " stroke="#000000" stroke-width="1px" />

    
    <polyline class="AnPolyline" fill="none" points="3197,686 3197,699 " stroke="#000000" stroke-width="1px" />

    
    <polyline class="AnPolyline" fill="none" points="3212,671 3212,699 " stroke="#000000" stroke-width="1px" />

    
    <polyline class="AnPolyline" fill="none" points="2924,671 3184,671 " stroke="#000000" stroke-width="1px" />

    
    <polyline class="AnPolyline" fill="none" points="2924,686 3184,686 " stroke="#000000" stroke-width="1px" />

    
    <polyline class="AnPolyline" fill="none" points="2924,671 2924,686 " stroke="#000000" stroke-width="1px" />

    
    <polyline class="AnPolyline" fill="none" points="2972,686 2982,686 " stroke="#000000" stroke-width="1px" />

    
    <polyline class="AnPolyline" fill="none" points="2527,911 2649,911 " stroke="#000000" stroke-width="1px" />

    
    <polyline class="AnPolyline" fill="none" points="2862,911 2972,911 " stroke="#000000" stroke-width="1px" />

    
    <polyline class="AnPolyline" fill="none" points="3197,911 2982,911 " stroke="#000000" stroke-width="1px" />

    
    <polyline class="AnPolyline" fill="none" points="2512,926 3212,926 " stroke="#000000" stroke-width="1px" />

    
    <polyline class="AnPolyline" fill="none" points="2842,911 2669,911 " stroke="#000000" stroke-width="1px" />

    
    <polyline class="AnPolyline" fill="none" points="3212,921 3562,921 " stroke="#000000" stroke-width="1px" />

  
  </g>

  
  <g class="AnLayer" id="Layout_Room_Label">

    
    <text class="AnText" fill="#000000" font-family="Arial" font-size="12" font-style="normal" font-weight="normal" text-decoration="none" transform="matrix(2.363080,0.000000,0.000000,2.363080,2559.000000,272.529999)" x="0px" y="12px">Lift</text>

    
    <text class="AnText" fill="#000000" font-family="Arial" font-size="12" font-style="normal" font-weight="normal" text-decoration="none" transform="matrix(2.363080,0.000000,0.000000,2.363080,2532.000000,303.529999)" x="0px" y="12px">Machine</text>

    
    <text class="AnText" fill="#000000" font-family="Arial" font-size="12" font-style="normal" font-weight="normal" text-decoration="none" transform="matrix(2.363080,0.000000,0.000000,2.363080,2539.000000,332.529999)" x="0px" y="12px">Room 1</text>

    
    <text class="AnText" fill="#000000" font-family="Arial" font-size="12" font-style="normal" font-weight="normal" text-decoration="none" transform="matrix(2.363080,0.000000,0.000000,2.363080,2685.000000,271.529999)" x="0px" y="12px">Tank Room</text>

    
    <text class="AnText" fill="#000000" font-family="Arial" font-size="12" font-style="normal" font-weight="normal" text-decoration="none" transform="matrix(2.363080,0.000000,0.000000,2.363080,2971.000000,269.529999)" x="0px" y="12px">A/C Plant</text>

    
    <text class="AnText" fill="#000000" font-family="Arial" font-size="12" font-style="normal" font-weight="normal" text-decoration="none" transform="matrix(2.363080,0.000000,0.000000,2.363080,2963.000000,296.529999)" x="0px" y="12px">Enclosure 1</text>

    
    <text class="AnText" fill="#000000" font-family="Arial" font-size="12" font-style="normal" font-weight="normal" text-decoration="none" transform="matrix(2.363080,0.000000,0.000000,2.363080,2559.000000,776.530029)" x="0px" y="12px">Lift</text>

    
    <text class="AnText" fill="#000000" font-family="Arial" font-size="12" font-style="normal" font-weight="normal" text-decoration="none" transform="matrix(2.363080,0.000000,0.000000,2.363080,2532.000000,807.530029)" x="0px" y="12px">Machine</text>

    
    <text class="AnText" fill="#000000" font-family="Arial" font-size="12" font-style="normal" font-weight="normal" text-decoration="none" transform="matrix(2.363080,0.000000,0.000000,2.363080,2539.000000,836.530029)" x="0px" y="12px">Room 2</text>

    
    <text class="AnText" fill="#000000" font-family="Arial" font-size="12" font-style="normal" font-weight="normal" text-decoration="none" transform="matrix(2.363080,0.000000,0.000000,2.363080,2732.000000,787.530029)" x="0px" y="12px">F.S.</text>

    
    <text class="AnText" fill="#000000" font-family="Arial" font-size="12" font-style="normal" font-weight="normal" text-decoration="none" transform="matrix(2.363080,0.000000,0.000000,2.363080,2719.000000,813.530029)" x="0px" y="12px">Water</text>

    
    <text class="AnText" fill="#000000" font-family="Arial" font-size="12" font-style="normal" font-weight="normal" text-decoration="none" transform="matrix(2.363080,0.000000,0.000000,2.363080,2726.000000,842.530029)" x="0px" y="12px">Tank</text>

    
    <text class="AnText" fill="#000000" font-family="Arial" font-size="12" font-style="normal" font-weight="normal" text-decoration="none" transform="matrix(2.363080,0.000000,0.000000,2.363080,3029.000000,781.530029)" x="0px" y="12px">A/C Plant</text>

    
    <text class="AnText" fill="#000000" font-family="Arial" font-size="12" font-style="normal" font-weight="normal" text-decoration="none" transform="matrix(2.363080,0.000000,0.000000,2.363080,3021.000000,808.530029)" x="0px" y="12px">Enclosure 2</text>

    
    <text class="AnText" fill="#000000" font-family="Arial" font-size="12" font-style="normal" font-weight="normal" text-decoration="none" transform="matrix(2.363080,0.000000,0.000000,2.363080,2892.000000,782.530029)" x="0px" y="12px">A/C</text>

    
    <text class="AnText" fill="#000000" font-family="Arial" font-size="12" font-style="normal" font-weight="normal" text-decoration="none" transform="matrix(2.363080,0.000000,0.000000,2.363080,2884.000000,811.530029)" x="0px" y="12px">Plant</text>

    
    <text class="AnText" fill="#000000" font-family="Arial" font-size="12" font-style="normal" font-weight="normal" text-decoration="none" transform="matrix(2.363080,0.000000,0.000000,2.363080,2882.000000,839.530029)" x="0px" y="12px">Room</text>

  
  </g>

</svg>