<?xml version='1.0' encoding='UTF-8'?>
<svg xmlns="http://www.w3.org/2000/svg" height="1684" preserveAspectRatio="xMinYMin meet" style="background-color:#D2D2D2;" version="1.1" viewBox="0 0 3024 1684" width="3024">

  
  <g class="AnLayer" id="Background">

    
    <polyline class="AnPolyline" fill="none" points="276,97 2775,97 2775,1596 276,1596 276,97 " stroke="#000000" stroke-width="2px" />

    
    <polyline class="AnPolyline" fill="none" points="278,273 2774,273 " stroke="#000000" stroke-width="2px" />

    
    <polyline class="AnPolyline" fill="none" points="278,839 2774,839 " stroke="#000000" stroke-width="1px" />

    
    <polyline class="AnPolyline" fill="none" points="963,273 963,1595 " stroke="#000000" stroke-width="1px" />

  
  </g>

  
  <g class="AnLayer" id="Equipement">

  
  </g>

  
  <g class="AnLayer" id="Equipement Text">

    
    <text class="AnText" fill="#000000" font-family="Arial" font-size="12" font-style="normal" font-weight="normal" text-decoration="none" transform="matrix(4.000000,0.000000,0.000000,4.000000,1065.000000,658.000000)" x="0px" y="12px">AIR-00001</text>

    
    <text class="AnText" fill="#000000" font-family="Arial" font-size="12" font-style="normal" font-weight="normal" text-decoration="none" transform="matrix(4.000000,0.000000,0.000000,4.000000,1523.000000,658.000000)" x="0px" y="12px">AIR-00002</text>

    
    <text class="AnText" fill="#000000" font-family="Arial" font-size="12" font-style="normal" font-weight="normal" text-decoration="none" transform="matrix(4.000000,0.000000,0.000000,4.000000,1983.000000,658.000000)" x="0px" y="12px">AIR-00003</text>

    
    <text class="AnText" fill="#000000" font-family="Arial" font-size="12" font-style="normal" font-weight="normal" text-decoration="none" transform="matrix(4.000000,0.000000,0.000000,4.000000,2449.000000,658.000000)" x="0px" y="12px">AIR-00004</text>

    
    <text class="AnText" fill="#000000" font-family="Arial" font-size="12" font-style="normal" font-weight="normal" text-decoration="none" transform="matrix(4.000000,0.000000,0.000000,4.000000,1065.000000,1148.000000)" x="0px" y="12px">AIC-00001</text>

    
    <text class="AnText" fill="#000000" font-family="Arial" font-size="12" font-style="normal" font-weight="normal" text-decoration="none" transform="matrix(4.000000,0.000000,0.000000,4.000000,1523.000000,1148.000000)" x="0px" y="12px">AIC-00002</text>

    
    <text class="AnText" fill="#000000" font-family="Arial" font-size="12" font-style="normal" font-weight="normal" text-decoration="none" transform="matrix(4.000000,0.000000,0.000000,4.000000,1983.000000,1148.000000)" x="0px" y="12px">AIC-00003</text>

    
    <text class="AnText" fill="#000000" font-family="Arial" font-size="12" font-style="normal" font-weight="normal" text-decoration="none" transform="matrix(4.000000,0.000000,0.000000,4.000000,2449.000000,1148.000000)" x="0px" y="12px">AIC-00004</text>

    
    <text class="AnText" fill="#000000" font-family="Arial" font-size="12" font-style="normal" font-weight="normal" text-decoration="none" transform="matrix(4.000000,0.000000,0.000000,4.000000,1075.000000,1466.000000)" x="0px" y="12px">AIC-KTVB</text>

    
    <text class="AnText" fill="#000000" font-family="Arial" font-size="12" font-style="normal" font-weight="normal" text-decoration="none" transform="matrix(4.000000,0.000000,0.000000,4.000000,1527.000000,1466.000000)" x="0px" y="12px">AIC-TWVB</text>

    
    <text class="AnText" fill="#000000" font-family="Arial" font-size="12" font-style="normal" font-weight="normal" text-decoration="none" transform="matrix(5.000000,0.000000,0.000000,5.000000,410.000000,531.000000)" x="0px" y="12px">AIR RECEIVER</text>

    
    <text class="AnText" fill="#000000" font-family="Arial" font-size="12" font-style="normal" font-weight="normal" text-decoration="none" transform="matrix(5.000000,0.000000,0.000000,5.000000,352.000000,1166.000000)" x="0px" y="12px">AIR COMPRESSOR</text>

    
    <text class="AnText" fill="#000000" font-family="Arial" font-size="12" font-style="normal" font-weight="normal" text-decoration="none" transform="matrix(6.199960,0.000000,0.000000,6.480000,989.859985,143.679993)" x="0px" y="12px">KOT Compressed Air Summary</text>

  
  </g>

</svg>