<?xml version='1.0' encoding='UTF-8'?>
<svg xmlns="http://www.w3.org/2000/svg" height="1303" preserveAspectRatio="xMinYMin meet" style="background-color:#D2D2D2;" version="1.1" viewBox="0 0 2553 1303" width="2553">

  
  <g class="AnLayer" id="AnDefaultLayer">

    
    <polyline class="AnPolyline" fill="none" points="75,93 2334,93 2334,1192 75,1192 75,93 " stroke="#000000" stroke-width="3px" />

  
  </g>

  
  <g class="AnLayer" id="Background">

    
    <polyline class="AnPolyline" fill="none" points="1560,218 1955,218 " stroke="#000000" stroke-width="2px" />

    
    <polyline class="AnPolyline" fill="none" points="338,1129 2285,1129 " stroke="#000000" stroke-width="2px" />

    
    <polyline class="AnPolyline" fill="none" points="338,1013 338,1129 " stroke="#000000" stroke-width="2px" />

    
    <polyline class="AnPolyline" fill="none" points="2285,416 2285,1127 " stroke="#000000" stroke-width="2px" />

    
    <polyline class="AnPolyline" fill="none" points="674,330 691,330 691,251 732,217 935,217 " stroke="#000000" stroke-width="2px" />

    
    <polyline class="AnPolyline" fill="none" points="1170,318 1153,318 1153,252 1111,217 909,217 " stroke="#000000" stroke-width="2px" />

    
    <polyline class="AnPolyline" fill="none" points="1522,283 1522,251 1560,218 " stroke="#000000" stroke-width="2px" />

    
    <polyline class="AnPolyline" fill="none" points="2003,340 1995,340 1995,252 1955,218 " stroke="#000000" stroke-width="2px" />

    
    <polyline class="AnPolyline" fill="none" points="297,879 405,879 405,1013 297,1013 297,879 " stroke="#000000" stroke-width="2px" />

    
    <polyline class="AnPolyline" fill="none" points="331,832 331,879 " stroke="#000000" stroke-width="2px" />

    
    <polyline class="AnPolyline" fill="none" points="410,392 410,527 333,527 333,696 " stroke="#000000" stroke-width="2px" />

    
    <polyline class="AnPolyline" fill="none" points="410,284 528,284 528,392 410,392 410,284 " stroke="#000000" stroke-width="2px" />

    
    <polyline class="AnPolyline" fill="none" points="1413,282 1522,282 1522,392 1413,392 1413,282 " stroke="#000000" stroke-width="2px" />

    
    <polyline class="AnPolyline" fill="none" points="2177,306 2285,306 2285,417 2177,417 2177,306 " stroke="#000000" stroke-width="2px" />

  
  </g>

  
  <g class="AnLayer" id="Equipement Text">

    
    <text class="AnText" fill="#000000" font-family="Arial" font-size="12" font-style="normal" font-weight="normal" text-decoration="none" transform="matrix(1.575380,0.000000,0.000000,1.575380,2412.510010,92.777000)" x="0px" y="12px">Station</text>

    
    <text class="AnText" fill="#000000" font-family="Arial" font-size="12" font-style="normal" font-weight="normal" text-decoration="none" transform="matrix(1.575380,0.000000,0.000000,1.575380,2402.510010,113.777000)" x="0px" y="12px">Computer</text>

  
  </g>

  
  <g class="AnLayer" id="Layout_AFC">

  
  </g>

  
  <g class="AnLayer" id="Layout_AFC_Label">

    
    <text class="AnText" fill="#000000" font-family="Arial" font-size="12" font-style="normal" font-weight="normal" text-decoration="none" transform="matrix(1.575380,0.000000,0.000000,1.575380,376.511993,692.776610)" x="0px" y="12px">GAT-101</text>

    
    <text class="AnText" fill="#000000" font-family="Arial" font-size="12" font-style="normal" font-weight="normal" text-decoration="none" transform="matrix(1.575380,0.000000,0.000000,1.575380,376.511993,722.776610)" x="0px" y="12px">GAT-001</text>

    
    <text class="AnText" fill="#000000" font-family="Arial" font-size="12" font-style="normal" font-weight="normal" text-decoration="none" transform="matrix(1.575380,0.000000,0.000000,1.575380,376.511993,750.776610)" x="0px" y="12px">GAT-002</text>

    
    <text class="AnText" fill="#000000" font-family="Arial" font-size="12" font-style="normal" font-weight="normal" text-decoration="none" transform="matrix(1.575380,0.000000,0.000000,1.575380,376.511993,778.776610)" x="0px" y="12px">GAT-003</text>

    
    <text class="AnText" fill="#000000" font-family="Arial" font-size="12" font-style="normal" font-weight="normal" text-decoration="none" transform="matrix(1.575380,0.000000,0.000000,1.575380,376.511993,808.776610)" x="0px" y="12px">GAT-004</text>

    
    <text class="AnText" fill="#000000" font-family="Arial" font-size="12" font-style="normal" font-weight="normal" text-decoration="none" transform="matrix(1.575380,0.000000,0.000000,1.575380,587.512024,203.776625)" x="0px" y="12px">GAT-021</text>

    
    <text class="AnText" fill="#000000" font-family="Arial" font-size="12" font-style="normal" font-weight="normal" text-decoration="none" transform="matrix(1.575380,0.000000,0.000000,1.575380,587.512024,231.776625)" x="0px" y="12px">GAT-020</text>

    
    <text class="AnText" fill="#000000" font-family="Arial" font-size="12" font-style="normal" font-weight="normal" text-decoration="none" transform="matrix(1.575380,0.000000,0.000000,1.575380,512.512024,399.776610)" x="0px" y="12px">GAT-019</text>

    
    <text class="AnText" fill="#000000" font-family="Arial" font-size="12" font-style="normal" font-weight="normal" text-decoration="none" transform="matrix(1.575380,0.000000,0.000000,1.575380,512.512024,427.776610)" x="0px" y="12px">GAT-018</text>

    
    <text class="AnText" fill="#000000" font-family="Arial" font-size="12" font-style="normal" font-weight="normal" text-decoration="none" transform="matrix(1.575380,0.000000,0.000000,1.575380,512.512024,454.776610)" x="0px" y="12px">GAT-017</text>

    
    <polyline class="AnPolyline" fill="none" points="608,366 608,409 590,409 " stroke="#000000" stroke-width="1px" />

    
    <polyline class="AnPolyline" fill="none" points="613,381 608,366 603,381 " stroke="#000000" stroke-width="1px" />

    
    <polyline class="AnPolyline" fill="none" points="637,366 637,437 590,437 " stroke="#000000" stroke-width="1px" />

    
    <polyline class="AnPolyline" fill="none" points="642,381 637,366 632,381 " stroke="#000000" stroke-width="1px" />

    
    <polyline class="AnPolyline" fill="none" points="667,367 667,466 590,466 " stroke="#000000" stroke-width="1px" />

    
    <polyline class="AnPolyline" fill="none" points="672,382 667,367 662,382 " stroke="#000000" stroke-width="1px" />

    
    <text class="AnText" fill="#000000" font-family="Arial" font-size="12" font-style="normal" font-weight="normal" text-decoration="none" transform="matrix(1.575380,0.000000,0.000000,1.575380,1294.510010,194.776625)" x="0px" y="12px">GAT-055</text>

    
    <text class="AnText" fill="#000000" font-family="Arial" font-size="12" font-style="normal" font-weight="normal" text-decoration="none" transform="matrix(1.575380,0.000000,0.000000,1.575380,1294.510010,165.776625)" x="0px" y="12px">GAT-056</text>

    
    <text class="AnText" fill="#000000" font-family="Arial" font-size="12" font-style="normal" font-weight="normal" text-decoration="none" transform="matrix(1.575380,0.000000,0.000000,1.575380,1294.510010,222.776625)" x="0px" y="12px">GAT-054</text>

    
    <text class="AnText" fill="#000000" font-family="Arial" font-size="12" font-style="normal" font-weight="normal" text-decoration="none" transform="matrix(1.575380,0.000000,0.000000,1.575380,1204.510010,386.776610)" x="0px" y="12px">GAT-053</text>

    
    <text class="AnText" fill="#000000" font-family="Arial" font-size="12" font-style="normal" font-weight="normal" text-decoration="none" transform="matrix(1.575380,0.000000,0.000000,1.575380,1206.510010,413.776610)" x="0px" y="12px">GAT-052</text>

    
    <text class="AnText" fill="#000000" font-family="Arial" font-size="12" font-style="normal" font-weight="normal" text-decoration="none" transform="matrix(1.575380,0.000000,0.000000,1.575380,1205.510010,441.776610)" x="0px" y="12px">GAT-051</text>

    
    <text class="AnText" fill="#000000" font-family="Arial" font-size="12" font-style="normal" font-weight="normal" text-decoration="none" transform="matrix(1.575380,0.000000,0.000000,1.575380,1204.510010,469.776610)" x="0px" y="12px">GAT-050</text>

    
    <polyline class="AnPolyline" fill="none" points="1303,356 1303,399 1285,399 " stroke="#000000" stroke-width="1px" />

    
    <polyline class="AnPolyline" fill="none" points="1308,371 1303,356 1298,371 " stroke="#000000" stroke-width="1px" />

    
    <polyline class="AnPolyline" fill="none" points="1332,356 1332,427 1285,427 " stroke="#000000" stroke-width="1px" />

    
    <polyline class="AnPolyline" fill="none" points="1337,371 1332,356 1327,371 " stroke="#000000" stroke-width="1px" />

    
    <polyline class="AnPolyline" fill="none" points="1362,357 1362,456 1285,456 " stroke="#000000" stroke-width="1px" />

    
    <polyline class="AnPolyline" fill="none" points="1367,372 1362,357 1357,372 " stroke="#000000" stroke-width="1px" />

    
    <polyline class="AnPolyline" fill="none" points="1391,357 1391,483 1285,483 " stroke="#000000" stroke-width="1px" />

    
    <polyline class="AnPolyline" fill="none" points="1396,372 1391,357 1386,372 " stroke="#000000" stroke-width="1px" />

    
    <polyline class="AnPolyline" fill="none" points="575,287 575,244 582,244 " stroke="#000000" stroke-width="1px" />

    
    <polyline class="AnPolyline" fill="none" points="570,272 575,287 580,272 " stroke="#000000" stroke-width="1px" />

    
    <polyline class="AnPolyline" fill="none" points="545,287 545,216 581,216 " stroke="#000000" stroke-width="1px" />

    
    <polyline class="AnPolyline" fill="none" points="540,272 545,287 550,272 " stroke="#000000" stroke-width="1px" />

    
    <text class="AnText" fill="#000000" font-family="Arial" font-size="12" font-style="normal" font-weight="normal" text-decoration="none" transform="matrix(1.575380,0.000000,0.000000,1.575380,2066.510010,214.776625)" x="0px" y="12px">GAT-038</text>

    
    <text class="AnText" fill="#000000" font-family="Arial" font-size="12" font-style="normal" font-weight="normal" text-decoration="none" transform="matrix(1.575380,0.000000,0.000000,1.575380,2066.510010,242.776625)" x="0px" y="12px">GAT-037</text>

    
    <text class="AnText" fill="#000000" font-family="Arial" font-size="12" font-style="normal" font-weight="normal" text-decoration="none" transform="matrix(1.575380,0.000000,0.000000,1.575380,1975.510010,409.776610)" x="0px" y="12px">GAT-036</text>

    
    <text class="AnText" fill="#000000" font-family="Arial" font-size="12" font-style="normal" font-weight="normal" text-decoration="none" transform="matrix(1.575380,0.000000,0.000000,1.575380,1975.510010,437.776610)" x="0px" y="12px">GAT-049</text>

    
    <text class="AnText" fill="#000000" font-family="Arial" font-size="12" font-style="normal" font-weight="normal" text-decoration="none" transform="matrix(1.575380,0.000000,0.000000,1.575380,1975.510010,464.776610)" x="0px" y="12px">GAT-034</text>

    
    <text class="AnText" fill="#000000" font-family="Arial" font-size="12" font-style="normal" font-weight="normal" text-decoration="none" transform="matrix(1.575380,0.000000,0.000000,1.575380,1975.510010,492.776610)" x="0px" y="12px">GAT-033</text>

    
    <polyline class="AnPolyline" fill="none" points="2075,379 2075,422 2057,422 " stroke="#000000" stroke-width="1px" />

    
    <polyline class="AnPolyline" fill="none" points="2080,394 2075,379 2070,394 " stroke="#000000" stroke-width="1px" />

    
    <polyline class="AnPolyline" fill="none" points="2104,379 2104,450 2057,450 " stroke="#000000" stroke-width="1px" />

    
    <polyline class="AnPolyline" fill="none" points="2109,394 2104,379 2099,394 " stroke="#000000" stroke-width="1px" />

    
    <polyline class="AnPolyline" fill="none" points="2134,380 2134,479 2057,479 " stroke="#000000" stroke-width="1px" />

    
    <polyline class="AnPolyline" fill="none" points="2139,395 2134,380 2129,395 " stroke="#000000" stroke-width="1px" />

    
    <polyline class="AnPolyline" fill="none" points="2163,380 2163,506 2057,506 " stroke="#000000" stroke-width="1px" />

    
    <polyline class="AnPolyline" fill="none" points="2168,395 2163,380 2158,395 " stroke="#000000" stroke-width="1px" />

    
    <polyline class="AnPolyline" fill="none" points="2042,300 2042,257 2060,257 " stroke="#000000" stroke-width="1px" />

    
    <polyline class="AnPolyline" fill="none" points="2037,285 2042,300 2047,285 " stroke="#000000" stroke-width="1px" />

    
    <polyline class="AnPolyline" fill="none" points="2012,300 2012,229 2059,229 " stroke="#000000" stroke-width="1px" />

    
    <polyline class="AnPolyline" fill="none" points="2007,285 2012,300 2017,285 " stroke="#000000" stroke-width="1px" />

    
    <polyline class="AnPolyline" fill="none" points="1270,277 1270,234 1288,234 " stroke="#000000" stroke-width="1px" />

    
    <polyline class="AnPolyline" fill="none" points="1265,262 1270,277 1275,262 " stroke="#000000" stroke-width="1px" />

    
    <polyline class="AnPolyline" fill="none" points="1240,277 1240,206 1287,206 " stroke="#000000" stroke-width="1px" />

    
    <polyline class="AnPolyline" fill="none" points="1235,262 1240,277 1245,262 " stroke="#000000" stroke-width="1px" />

    
    <polyline class="AnPolyline" fill="none" points="1211,276 1211,177 1288,177 " stroke="#000000" stroke-width="1px" />

    
    <polyline class="AnPolyline" fill="none" points="1206,261 1211,276 1216,261 " stroke="#000000" stroke-width="1px" />

    
    <polyline class="AnPolyline" fill="none" points="1177,277 1177,150 1286,150 " stroke="#000000" stroke-width="1px" />

    
    <polyline class="AnPolyline" fill="none" points="1173,262 1178,277 1183,262 " stroke="#000000" stroke-width="1px" />

    
    <text class="AnText" fill="#000000" font-family="Arial" font-size="12" font-style="normal" font-weight="normal" text-decoration="none" transform="matrix(1.575380,0.000000,0.000000,1.575380,1293.510010,140.776625)" x="0px" y="12px">GAT-057</text>

  
  </g>

  
  <g class="AnLayer" id="Layout_Room_Label">

    
    <text class="AnText" fill="#000000" font-family="Arial" font-size="12" font-style="normal" font-weight="normal" text-decoration="none" transform="matrix(2.835700,0.000000,0.000000,2.835700,1072.900024,1220.180054)" x="0px" y="12px">RAC Concourse</text>

    
    <text class="AnText" fill="#000000" font-family="Arial" font-size="12" font-style="normal" font-weight="normal" text-decoration="none" transform="matrix(1.575380,0.000000,0.000000,1.575380,314.471985,921.776610)" x="0px" y="12px">Services</text>

    
    <text class="AnText" fill="#000000" font-family="Arial" font-size="12" font-style="normal" font-weight="normal" text-decoration="none" transform="matrix(1.575380,0.000000,0.000000,1.575380,313.071991,901.776610)" x="0px" y="12px">Customer</text>

    
    <text class="AnText" fill="#000000" font-family="Arial" font-size="12" font-style="normal" font-weight="normal" text-decoration="none" transform="matrix(1.575380,0.000000,0.000000,1.575380,319.071991,962.776610)" x="0px" y="12px">(South)</text>

    
    <text class="AnText" fill="#000000" font-family="Arial" font-size="12" font-style="normal" font-weight="normal" text-decoration="none" transform="matrix(1.575380,0.000000,0.000000,1.575380,320.471985,941.776610)" x="0px" y="12px">Centre</text>

    
    <text class="AnText" fill="#000000" font-family="Arial" font-size="12" font-style="normal" font-weight="normal" text-decoration="none" transform="matrix(1.575380,0.000000,0.000000,1.575380,417.671997,353.776610)" x="0px" y="12px">(South East)</text>

    
    <text class="AnText" fill="#000000" font-family="Arial" font-size="12" font-style="normal" font-weight="normal" text-decoration="none" transform="matrix(1.575380,0.000000,0.000000,1.575380,1419.270020,353.776610)" x="0px" y="12px">(North East)</text>

    
    <text class="AnText" fill="#000000" font-family="Arial" font-size="12" font-style="normal" font-weight="normal" text-decoration="none" transform="matrix(1.575380,0.000000,0.000000,1.575380,2200.669922,379.776610)" x="0px" y="12px">(North)</text>

    
    <text class="AnText" fill="#000000" font-family="Arial" font-size="12" font-style="normal" font-weight="normal" text-decoration="none" transform="matrix(1.890460,0.000000,0.000000,1.890460,1219.939941,727.122009)" x="0px" y="12px">Concourse </text>

    
    <text class="AnText" fill="#000000" font-family="Arial" font-size="12" font-style="normal" font-weight="normal" text-decoration="none" transform="matrix(1.890460,0.000000,0.000000,1.890460,1217.510010,750.702026)" x="0px" y="12px">(Paid Area) </text>

    
    <text class="AnText" fill="#000000" font-family="Arial" font-size="12" font-style="normal" font-weight="normal" text-decoration="none" transform="matrix(1.890460,0.000000,0.000000,1.890460,131.735992,730.442017)" x="0px" y="12px">Concourse</text>

    
    <text class="AnText" fill="#000000" font-family="Arial" font-size="12" font-style="normal" font-weight="normal" text-decoration="none" transform="matrix(1.890460,0.000000,0.000000,1.890460,118.248001,754.862000)" x="0px" y="12px">(Unpaid Area)</text>

    
    <text class="AnText" fill="#000000" font-family="Arial" font-size="12" font-style="normal" font-weight="normal" text-decoration="none" transform="matrix(1.575380,0.000000,0.000000,1.575380,429.470001,314.774626)" x="0px" y="12px">Services</text>

    
    <text class="AnText" fill="#000000" font-family="Arial" font-size="12" font-style="normal" font-weight="normal" text-decoration="none" transform="matrix(1.575380,0.000000,0.000000,1.575380,428.644989,294.774626)" x="0px" y="12px">Customer</text>

    
    <text class="AnText" fill="#000000" font-family="Arial" font-size="12" font-style="normal" font-weight="normal" text-decoration="none" transform="matrix(1.575380,0.000000,0.000000,1.575380,436.470001,334.774626)" x="0px" y="12px">Centre</text>

    
    <text class="AnText" fill="#000000" font-family="Arial" font-size="12" font-style="normal" font-weight="normal" text-decoration="none" transform="matrix(1.575380,0.000000,0.000000,1.575380,1431.469971,312.774626)" x="0px" y="12px">Services</text>

    
    <text class="AnText" fill="#000000" font-family="Arial" font-size="12" font-style="normal" font-weight="normal" text-decoration="none" transform="matrix(1.575380,0.000000,0.000000,1.575380,1430.650024,292.774626)" x="0px" y="12px">Customer</text>

    
    <text class="AnText" fill="#000000" font-family="Arial" font-size="12" font-style="normal" font-weight="normal" text-decoration="none" transform="matrix(1.575380,0.000000,0.000000,1.575380,1438.469971,332.774626)" x="0px" y="12px">Centre</text>

    
    <text class="AnText" fill="#000000" font-family="Arial" font-size="12" font-style="normal" font-weight="normal" text-decoration="none" transform="matrix(1.575380,0.000000,0.000000,1.575380,2193.469971,340.774626)" x="0px" y="12px">Services</text>

    
    <text class="AnText" fill="#000000" font-family="Arial" font-size="12" font-style="normal" font-weight="normal" text-decoration="none" transform="matrix(1.575380,0.000000,0.000000,1.575380,2192.649902,320.774626)" x="0px" y="12px">Customer</text>

    
    <text class="AnText" fill="#000000" font-family="Arial" font-size="12" font-style="normal" font-weight="normal" text-decoration="none" transform="matrix(1.575380,0.000000,0.000000,1.575380,2200.469971,360.774626)" x="0px" y="12px">Centre</text>

    
    <text class="AnText" fill="#000000" font-family="Arial" font-size="12" font-style="normal" font-weight="normal" text-decoration="none" transform="matrix(1.890460,0.000000,0.000000,1.890460,841.739990,141.440002)" x="0px" y="12px">Concourse</text>

    
    <text class="AnText" fill="#000000" font-family="Arial" font-size="12" font-style="normal" font-weight="normal" text-decoration="none" transform="matrix(1.890460,0.000000,0.000000,1.890460,828.250000,165.860001)" x="0px" y="12px">(Unpaid Area)</text>

    
    <text class="AnText" fill="#000000" font-family="Arial" font-size="12" font-style="normal" font-weight="normal" text-decoration="none" transform="matrix(1.890460,0.000000,0.000000,1.890460,1703.739990,143.440002)" x="0px" y="12px">Concourse</text>

    
    <text class="AnText" fill="#000000" font-family="Arial" font-size="12" font-style="normal" font-weight="normal" text-decoration="none" transform="matrix(1.890460,0.000000,0.000000,1.890460,1690.250000,167.860001)" x="0px" y="12px">(Unpaid Area)</text>

  
  </g>

</svg>