<?xml version='1.0' encoding='UTF-8'?>
<svg xmlns="http://www.w3.org/2000/svg" height="815" preserveAspectRatio="xMinYMin meet" style="background-color:#D2D2D2;" version="1.1" viewBox="0 0 1596 815" width="1596">

  
  <g class="AnLayer" id="AnDefaultLayer">

    
    <polygon class="AnPolygon" fill="#FFFFCF" fill-rule="evenodd" points="40,36 1546,36 1546,769 40,769 40,36 " />

  
  </g>

  
  <g class="AnLayer" id="Background">

    
    <g class="DCN_static HUB Symbol" id="DCN_static HUB_1_1">

      
      <rect class="AnRectangle" fill="#989898" fill-rule="evenodd" height="30px" width="225px" x="323px" y="360px" />

      
      <rect class="AnRectangle" fill="none" height="30px" stroke="#000000" stroke-width="3px" width="225px" x="323px" y="360px" />

      
      <rect class="AnRectangle" fill="#D6DADD" fill-rule="evenodd" height="15px" width="15px" x="435px" y="368px" />

      
      <rect class="AnRectangle" fill="#D6DADD" fill-rule="evenodd" height="15px" width="15px" x="458px" y="368px" />

      
      <rect class="AnRectangle" fill="#D6DADD" fill-rule="evenodd" height="15px" width="15px" x="480px" y="368px" />

      
      <rect class="AnRectangle" fill="#D6DADD" fill-rule="evenodd" height="15px" width="15px" x="503px" y="368px" />

      
      <rect class="AnRectangle" fill="#D6DADD" fill-rule="evenodd" height="15px" width="15px" x="526px" y="368px" />

      
      <rect class="AnRectangle" fill="#D6DADD" fill-rule="evenodd" height="15px" width="15px" x="368px" y="368px" />

      
      <rect class="AnRectangle" fill="#D6DADD" fill-rule="evenodd" height="15px" width="15px" x="390px" y="368px" />

      
      <rect class="AnRectangle" fill="#D6DADD" fill-rule="evenodd" height="15px" width="15px" x="413px" y="368px" />

      
      <rect class="AnRectangle" fill="none" height="15px" stroke="#000000" stroke-width="1px" width="15px" x="435px" y="368px" />

      
      <rect class="AnRectangle" fill="none" height="15px" stroke="#000000" stroke-width="1px" width="15px" x="458px" y="368px" />

      
      <rect class="AnRectangle" fill="none" height="15px" stroke="#000000" stroke-width="1px" width="15px" x="480px" y="368px" />

      
      <rect class="AnRectangle" fill="none" height="15px" stroke="#000000" stroke-width="1px" width="15px" x="503px" y="368px" />

      
      <rect class="AnRectangle" fill="none" height="15px" stroke="#000000" stroke-width="1px" width="15px" x="526px" y="368px" />

      
      <rect class="AnRectangle" fill="none" height="15px" stroke="#000000" stroke-width="1px" width="15px" x="368px" y="368px" />

      
      <rect class="AnRectangle" fill="none" height="15px" stroke="#000000" stroke-width="1px" width="15px" x="390px" y="368px" />

      
      <rect class="AnRectangle" fill="none" height="15px" stroke="#000000" stroke-width="1px" width="15px" x="413px" y="368px" />

    
    </g>

    
    <g class="DCN_static HUB Symbol" id="DCN_static HUB_2_2">

      
      <rect class="AnRectangle" fill="#989898" fill-rule="evenodd" height="30px" width="225px" x="755px" y="360px" />

      
      <rect class="AnRectangle" fill="none" height="30px" stroke="#000000" stroke-width="3px" width="225px" x="755px" y="360px" />

      
      <rect class="AnRectangle" fill="#D6DADD" fill-rule="evenodd" height="15px" width="15px" x="867px" y="368px" />

      
      <rect class="AnRectangle" fill="#D6DADD" fill-rule="evenodd" height="15px" width="15px" x="890px" y="368px" />

      
      <rect class="AnRectangle" fill="#D6DADD" fill-rule="evenodd" height="15px" width="15px" x="912px" y="368px" />

      
      <rect class="AnRectangle" fill="#D6DADD" fill-rule="evenodd" height="15px" width="15px" x="935px" y="368px" />

      
      <rect class="AnRectangle" fill="#D6DADD" fill-rule="evenodd" height="15px" width="15px" x="958px" y="368px" />

      
      <rect class="AnRectangle" fill="#D6DADD" fill-rule="evenodd" height="15px" width="15px" x="800px" y="368px" />

      
      <rect class="AnRectangle" fill="#D6DADD" fill-rule="evenodd" height="15px" width="15px" x="822px" y="368px" />

      
      <rect class="AnRectangle" fill="#D6DADD" fill-rule="evenodd" height="15px" width="15px" x="845px" y="368px" />

      
      <rect class="AnRectangle" fill="none" height="15px" stroke="#000000" stroke-width="1px" width="15px" x="867px" y="368px" />

      
      <rect class="AnRectangle" fill="none" height="15px" stroke="#000000" stroke-width="1px" width="15px" x="890px" y="368px" />

      
      <rect class="AnRectangle" fill="none" height="15px" stroke="#000000" stroke-width="1px" width="15px" x="912px" y="368px" />

      
      <rect class="AnRectangle" fill="none" height="15px" stroke="#000000" stroke-width="1px" width="15px" x="935px" y="368px" />

      
      <rect class="AnRectangle" fill="none" height="15px" stroke="#000000" stroke-width="1px" width="15px" x="958px" y="368px" />

      
      <rect class="AnRectangle" fill="none" height="15px" stroke="#000000" stroke-width="1px" width="15px" x="800px" y="368px" />

      
      <rect class="AnRectangle" fill="none" height="15px" stroke="#000000" stroke-width="1px" width="15px" x="822px" y="368px" />

      
      <rect class="AnRectangle" fill="none" height="15px" stroke="#000000" stroke-width="1px" width="15px" x="845px" y="368px" />

    
    </g>

    
    <polyline class="AnPolyline" fill="none" points="1116,289 1515,289 1515,738 1116,738 1116,289 " stroke="#000000" stroke-dasharray=" 6 8" stroke-dashoffset="0" stroke-width="2px" />

    
    <polyline class="AnPolyline" fill="none" points="68,289 1067,289 1067,738 68,738 68,289 " stroke="#000000" stroke-dasharray=" 6 8" stroke-dashoffset="0" stroke-width="2px" />

  
  </g>

  
  <g class="AnLayer" id="Equipement">

  
  </g>

  
  <g class="AnLayer" id="Equipement Text">

    
    <text class="AnText" fill="#000000" font-family="Arial" font-size="12" font-style="normal" font-weight="normal" text-decoration="none" transform="matrix(2.500000,0.000000,0.000000,2.500000,606.130005,122.690002)" x="0px" y="12px">CDN</text>

    
    <text class="AnText" fill="#000000" font-family="Arial" font-size="12" font-style="normal" font-weight="normal" text-decoration="none" transform="matrix(2.000000,0.000000,0.000000,2.000000,504.500000,450.750000)" x="0px" y="12px">FEP
</text>

    
    <text class="AnText" fill="#000000" font-family="Arial" font-size="12" font-style="normal" font-weight="normal" text-decoration="none" transform="matrix(2.000000,0.000000,0.000000,2.000000,1186.500000,354.750000)" x="0px" y="12px">SCRWS1
</text>

    
    <text class="AnText" fill="#000000" font-family="Arial" font-size="12" font-style="normal" font-weight="normal" text-decoration="none" transform="matrix(2.000000,0.000000,0.000000,2.000000,1340.500000,354.750000)" x="0px" y="12px">SCRWS2
</text>

    
    <text class="AnText" fill="#000000" font-family="Arial" font-size="12" font-style="normal" font-weight="normal" text-decoration="none" transform="matrix(2.500000,0.000000,0.000000,2.500000,82.129997,300.690002)" x="0px" y="12px">LMC TER1</text>

    
    <text class="AnText" fill="#000000" font-family="Arial" font-size="12" font-style="normal" font-weight="normal" text-decoration="none" transform="matrix(2.500000,0.000000,0.000000,2.500000,108.129997,640.690002)" x="0px" y="12px">MCS</text>

    
    <text class="AnText" fill="#000000" font-family="Arial" font-size="12" font-style="normal" font-weight="normal" text-decoration="none" transform="matrix(2.500000,0.000000,0.000000,2.500000,108.129997,672.690002)" x="0px" y="12px">Network</text>

    
    <text class="AnText" fill="#000000" font-family="Arial" font-size="12" font-style="normal" font-weight="normal" text-decoration="none" transform="matrix(2.500000,0.000000,0.000000,2.500000,1132.130005,299.690002)" x="0px" y="12px">LMC SCR</text>

    
    <text class="AnText" fill="#000000" font-family="Arial" font-size="12" font-style="normal" font-weight="normal" text-decoration="none" transform="matrix(2.000000,0.000000,0.000000,2.000000,452.500000,326.750000)" x="0px" y="12px">Switch 1</text>

    
    <text class="AnText" fill="#000000" font-family="Arial" font-size="12" font-style="normal" font-weight="normal" text-decoration="none" transform="matrix(2.000000,0.000000,0.000000,2.000000,898.500000,326.750000)" x="0px" y="12px">Switch 2</text>

    
    <text class="AnText" fill="#000000" font-family="Arial" font-size="12" font-style="normal" font-weight="normal" text-decoration="none" transform="matrix(2.000000,0.000000,0.000000,2.000000,691.500000,437.750000)" x="0px" y="12px">TERWS1
</text>

    
    <text class="AnText" fill="#000000" font-family="Arial" font-size="12" font-style="normal" font-weight="normal" text-decoration="none" transform="matrix(2.000000,0.000000,0.000000,2.000000,452.500000,300.750000)" x="0px" y="12px">MCS</text>

    
    <text class="AnText" fill="#000000" font-family="Arial" font-size="12" font-style="normal" font-weight="normal" text-decoration="none" transform="matrix(2.000000,0.000000,0.000000,2.000000,897.500000,300.750000)" x="0px" y="12px">MCS</text>

  
  </g>

  
  <g class="AnLayer" id="Pscada_Line">

    
    <g>

      
    <path class="AnClosedSpline" d="M974,143 C974,124 821,111 641,111 456,111 308,124 308,143 304,154 456,170 636,171 821,171 969,154 974,143 Z" fill="none" stroke="#000000" stroke-width="2px" />
      
    <path class="AnClosedSpline" d="M1034,143 C1034,111 855,79 635,79 411,78 235,111 235,143 233,174 411,205 632,205 855,205 1032,174 1034,143 Z" fill="none" stroke="#000000" stroke-width="2px" />
    
    </g>

    
    <polyline class="AnPolyline" fill="none" points="420,188 420,162 " stroke="#000000" stroke-width="1px" />

    
    <polyline class="AnPolyline" fill="none" points="420,360 420,202 " stroke="#000000" stroke-width="1px" />

    
    <polyline class="AnPolyline" fill="none" points="440,197 440,360 " stroke="#000000" stroke-width="1px" />

    
    <g>

      
      <polyline class="AnPolyline" fill="none" points="234,645 1032,645 " stroke="#000000" stroke-width="3px" />

      
      <polyline class="AnPolyline" fill="none" points="234,701 1032,701 " stroke="#000000" stroke-width="3px" />

    
    </g>

    
    <g>

      
      <polyline class="AnPolyline" fill="none" points="479,553 479,645 " stroke="#000000" stroke-width="1px" />

      
      <polyline class="AnPolyline" fill="none" points="499,553 499,638 " stroke="#000000" stroke-width="1px" />

      
      <polyline class="AnPolyline" fill="none" points="499,701 499,652 " stroke="#000000" stroke-width="1px" />

    
    </g>

    
    <g>

      
      <polyline class="AnPolyline" fill="none" points="560,553 560,645 " stroke="#000000" stroke-width="1px" />

      
      <polyline class="AnPolyline" fill="none" points="580,553 580,638 " stroke="#000000" stroke-width="1px" />

      
      <polyline class="AnPolyline" fill="none" points="580,701 580,652 " stroke="#000000" stroke-width="1px" />

    
    </g>

    
    <polyline class="AnPolyline" fill="none" points="864,186 864,162 " stroke="#000000" stroke-width="1px" />

    
    <polyline class="AnPolyline" fill="none" points="864,360 864,200 " stroke="#000000" stroke-width="1px" />

    
    <polyline class="AnPolyline" fill="none" points="884,190 884,360 " stroke="#000000" stroke-width="1px" />

    
    <polyline class="AnPolyline" fill="none" points="1220,471 1220,535 " stroke="#000000" stroke-width="1px" />

    
    <polyline class="AnPolyline" fill="none" points="1240,471 1240,555 " stroke="#000000" stroke-width="1px" />

    
    <polyline class="AnPolyline" fill="none" points="1377,471 1377,578 " stroke="#000000" stroke-width="1px" />

    
    <polyline class="AnPolyline" fill="none" points="1397,471 1397,598 " stroke="#000000" stroke-width="1px" />

    
    <polyline class="AnPolyline" fill="none" points="891,535 891,645 " stroke="#000000" stroke-width="1px" />

    
    <polyline class="AnPolyline" fill="none" points="911,555 911,639 " stroke="#000000" stroke-width="1px" />

    
    <polyline class="AnPolyline" fill="none" points="911,701 911,653 " stroke="#000000" stroke-width="1px" />

    
    <polyline class="AnPolyline" fill="none" points="972,578 972,645 " stroke="#000000" stroke-width="1px" />

    
    <polyline class="AnPolyline" fill="none" points="992,598 992,639 " stroke="#000000" stroke-width="1px" />

    
    <polyline class="AnPolyline" fill="none" points="992,701 992,653 " stroke="#000000" stroke-width="1px" />

    
    <polyline class="AnPolyline" fill="none" points="1377,578 972,578 " stroke="#000000" stroke-width="1px" />

    
    <polyline class="AnPolyline" fill="none" points="1397,598 992,598 " stroke="#000000" stroke-width="1px" />

    
    <polyline class="AnPolyline" fill="none" points="1220,535 891,535 " stroke="#000000" stroke-width="1px" />

    
    <polyline class="AnPolyline" fill="none" points="1240,555 911,555 " stroke="#000000" stroke-width="1px" />

    
    <g>

      
      <polyline class="AnPolyline" fill="none" points="728,553 728,645 " stroke="#000000" stroke-width="1px" />

      
      <polyline class="AnPolyline" fill="none" points="748,553 748,638 " stroke="#000000" stroke-width="1px" />

      
      <polyline class="AnPolyline" fill="none" points="748,701 748,652 " stroke="#000000" stroke-width="1px" />

    
    </g>

    
    <polyline class="AnPolyline" fill="none" points="377,390 377,645 " stroke="#000000" stroke-width="1px" />

    
    <polyline class="AnPolyline" fill="none" points="845,390 845,638 " stroke="#000000" stroke-width="1px" />

    
    <polyline class="AnPolyline" fill="none" points="845,701 845,652 " stroke="#000000" stroke-width="1px" />

  
  </g>

</svg>