<?xml version='1.0' encoding='UTF-8'?>
<svg xmlns="http://www.w3.org/2000/svg" height="2443" preserveAspectRatio="xMinYMin meet" style="background-color:#D2D2D2;" version="1.1" viewBox="0 0 4786 2443" width="4786">

  
  <g class="AnLayer" id="AnDefaultLayer">

    
    <polygon class="AnPolygon" fill="#FFFFFF" fill-rule="evenodd" points="545,852 1224,852 1224,941 545,941 545,852 " />

  
  </g>

  
  <g class="AnLayer" id="Background">

    
    <line class="AnLine" fill="none" stroke="#8902AB" stroke-width="2px" x1="4167px" x2="4167px" y1="146px" y2="97px" />

    
    <line class="AnLine" fill="none" stroke="#1B1B1F" stroke-dasharray=" 3 3" stroke-dashoffset="0" stroke-width="1px" x1="475px" x2="4165px" y1="377px" y2="377px" />

    
    <line class="AnLine" fill="none" stroke="#1B1B1F" stroke-dasharray=" 3 3" stroke-dashoffset="0" stroke-width="1px" x1="475px" x2="1873px" y1="775px" y2="775px" />

    
    <line class="AnLine" fill="none" stroke="#1B1B1F" stroke-dasharray=" 3 3" stroke-dashoffset="0" stroke-width="1px" x1="2654px" x2="4168px" y1="775px" y2="775px" />

    
    <line class="AnLine" fill="none" stroke="#000000" stroke-dasharray=" 21 3" stroke-dashoffset="0" stroke-width="1px" x1="1970px" x2="2557px" y1="1199px" y2="1199px" />

    
    <line class="AnLine" fill="none" stroke="#000000" stroke-dasharray=" 21 3" stroke-dashoffset="0" stroke-width="1px" x1="2264px" x2="2264px" y1="1200px" y2="1781px" />

    
    <g>

      
      <line class="AnLine" fill="none" stroke="#000000" stroke-dasharray=" 3 3" stroke-dashoffset="0" stroke-width="1px" x1="1225px" x2="1465px" y1="2071px" y2="2071px" />

      
      <line class="AnLine" fill="none" stroke="#000000" stroke-dasharray=" 3 3" stroke-dashoffset="0" stroke-width="1px" x1="1225px" x2="1225px" y1="2348px" y2="2071px" />

      
      <line class="AnLine" fill="none" stroke="#000000" stroke-dasharray=" 3 3" stroke-dashoffset="0" stroke-width="1px" x1="1465px" x2="1225px" y1="2348px" y2="2348px" />

      
      <line class="AnLine" fill="none" stroke="#000000" stroke-dasharray=" 3 3" stroke-dashoffset="0" stroke-width="1px" x1="1465px" x2="1465px" y1="2071px" y2="2348px" />

    
    </g>

    
    <g>

      
      <line class="AnLine" fill="none" stroke="#FFFFCF" stroke-width="2px" x1="4015px" x2="4015px" y1="835px" y2="2029px" />

      
      <line class="AnLine" fill="none" stroke="#FFFFCF" stroke-width="2px" x1="529px" x2="529px" y1="2029px" y2="835px" />

      
      <line class="AnLine" fill="none" stroke="#FFFFCF" stroke-width="2px" x1="529px" x2="4015px" y1="835px" y2="835px" />

      
      <line class="AnLine" fill="none" stroke="#FFFFCF" stroke-width="2px" x1="4015px" x2="529px" y1="2029px" y2="2029px" />

    
    </g>

    
    <polyline class="AnPolyline" fill="none" points="1945,775 2581,775 " stroke="#1B1B1F" stroke-dasharray=" 3 3" stroke-dashoffset="0" stroke-width="1px" />

    
    <line class="AnLine" fill="none" stroke="#8902AB" stroke-width="2px" x1="2605px" x2="2671px" y1="1410px" y2="1410px" />

    
    <line class="AnLine" fill="none" stroke="#8902AB" stroke-width="2px" x1="2629px" x2="2605px" y1="1356px" y2="1362px" />

    
    <line class="AnLine" fill="none" stroke="#8902AB" stroke-width="2px" x1="2605px" x2="2593px" y1="1362px" y2="1368px" />

    
    <line class="AnLine" fill="none" stroke="#8902AB" stroke-width="2px" x1="2593px" x2="2587px" y1="1368px" y2="1380px" />

    
    <line class="AnLine" fill="none" stroke="#8902AB" stroke-width="2px" x1="2587px" x2="2587px" y1="1380px" y2="1392px" />

    
    <line class="AnLine" fill="none" stroke="#8902AB" stroke-width="2px" x1="2587px" x2="2593px" y1="1392px" y2="1398px" />

    
    <line class="AnLine" fill="none" stroke="#8902AB" stroke-width="2px" x1="2593px" x2="2605px" y1="1398px" y2="1410px" />

    
    <line class="AnLine" fill="none" stroke="#8902AB" stroke-width="2px" x1="2629px" x2="2605px" y1="1458px" y2="1452px" />

    
    <line class="AnLine" fill="none" stroke="#8902AB" stroke-width="2px" x1="2605px" x2="2593px" y1="1452px" y2="1446px" />

    
    <line class="AnLine" fill="none" stroke="#8902AB" stroke-width="2px" x1="2593px" x2="2587px" y1="1446px" y2="1434px" />

    
    <line class="AnLine" fill="none" stroke="#8902AB" stroke-width="2px" x1="2587px" x2="2587px" y1="1434px" y2="1428px" />

    
    <line class="AnLine" fill="none" stroke="#8902AB" stroke-width="2px" x1="2587px" x2="2593px" y1="1428px" y2="1416px" />

    
    <line class="AnLine" fill="none" stroke="#8902AB" stroke-width="2px" x1="2593px" x2="2605px" y1="1416px" y2="1410px" />

    
    <line class="AnLine" fill="none" stroke="#8902AB" stroke-width="2px" x1="2785px" x2="3074px" y1="1707px" y2="1707px" />

    
    <line class="AnLine" fill="none" stroke="#8902AB" stroke-width="2px" x1="2605px" x2="3074px" y1="1557px" y2="1557px" />

    
    <text class="AnText" fill="#000000" font-family="Arial" font-size="12" font-style="normal" font-weight="normal" text-decoration="none" transform="matrix(2.461700,0.000000,0.000000,2.457600,2977.409912,1613.369995)" x="0px" y="12px">MD1</text>

    
    <line class="AnLine" fill="none" stroke="#8902AB" stroke-width="2px" x1="3116px" x2="3152px" y1="1557px" y2="1557px" />

    
    <circle class="AnCircle" cx="3170px" cy="1557px" fill="none" r="18.00px" stroke="#8902AB" stroke-width="2px" />

    
    <line class="AnLine" fill="none" stroke="#8902AB" stroke-width="2px" x1="3116px" x2="3152px" y1="1707px" y2="1707px" />

    
    <circle class="AnCircle" cx="3170px" cy="1707px" fill="none" r="18.00px" stroke="#8902AB" stroke-width="2px" />

    
    <circle class="AnCircle" cx="3008px" cy="1635px" fill="none" r="42.00px" stroke="#000000" stroke-width="1px" />

    
    <line class="AnLine" fill="none" stroke="#8902AB" stroke-width="2px" x1="3008px" x2="3008px" y1="1593px" y2="1557px" />

    
    <line class="AnLine" fill="none" stroke="#8902AB" stroke-width="2px" x1="3008px" x2="3008px" y1="1677px" y2="1707px" />

    
    <line class="AnLine" fill="none" stroke="#8902AB" stroke-width="2px" x1="3116px" x2="3074px" y1="1545px" y2="1545px" />

    
    <line class="AnLine" fill="none" stroke="#8902AB" stroke-width="2px" x1="3074px" x2="3074px" y1="1545px" y2="1575px" />

    
    <line class="AnLine" fill="none" stroke="#8902AB" stroke-width="2px" x1="3074px" x2="3116px" y1="1575px" y2="1575px" />

    
    <line class="AnLine" fill="none" stroke="#8902AB" stroke-width="2px" x1="3116px" x2="3116px" y1="1575px" y2="1545px" />

    
    <line class="AnLine" fill="none" stroke="#8902AB" stroke-width="2px" x1="3116px" x2="3074px" y1="1689px" y2="1689px" />

    
    <line class="AnLine" fill="none" stroke="#8902AB" stroke-width="2px" x1="3074px" x2="3074px" y1="1689px" y2="1719px" />

    
    <line class="AnLine" fill="none" stroke="#8902AB" stroke-width="2px" x1="3074px" x2="3116px" y1="1719px" y2="1719px" />

    
    <line class="AnLine" fill="none" stroke="#8902AB" stroke-width="2px" x1="3116px" x2="3116px" y1="1719px" y2="1689px" />

    
    <circle class="AnCircle" cx="2815px" cy="1635px" fill="none" r="42.00px" stroke="#000000" stroke-width="1px" />

    
    <circle class="AnCircle" cx="2911px" cy="1635px" fill="none" r="42.00px" stroke="#000000" stroke-width="1px" />

    
    <g>

      
      <line class="AnLine" fill="none" stroke="#000000" stroke-width="1px" x1="2942px" x2="2881px" y1="1607px" y2="1607px" />

      
      <line class="AnLine" fill="none" stroke="#000000" stroke-width="1px" x1="2881px" x2="2881px" y1="1607px" y2="1661px" />

      
      <line class="AnLine" fill="none" stroke="#000000" stroke-width="1px" x1="2881px" x2="2942px" y1="1661px" y2="1661px" />

      
      <line class="AnLine" fill="none" stroke="#000000" stroke-width="1px" x1="2942px" x2="2942px" y1="1661px" y2="1607px" />

    
    </g>

    
    <text class="AnText" fill="#000000" font-family="Arial" font-size="12" font-style="normal" font-weight="normal" text-decoration="none" transform="matrix(2.461700,0.000000,0.000000,2.457600,2799.050049,1613.369995)" x="0px" y="12px">PF</text>

    
    <line class="AnLine" fill="none" stroke="#8902AB" stroke-width="2px" x1="2912px" x2="2912px" y1="1593px" y2="1557px" />

    
    <line class="AnLine" fill="none" stroke="#8902AB" stroke-width="2px" x1="2815px" x2="2815px" y1="1593px" y2="1557px" />

    
    <line class="AnLine" fill="none" stroke="#8902AB" stroke-width="2px" x1="2593px" x2="2587px" y1="1521px" y2="1533px" />

    
    <line class="AnLine" fill="none" stroke="#8902AB" stroke-width="2px" x1="2587px" x2="2587px" y1="1533px" y2="1539px" />

    
    <line class="AnLine" fill="none" stroke="#8902AB" stroke-width="2px" x1="2629px" x2="2605px" y1="1509px" y2="1515px" />

    
    <line class="AnLine" fill="none" stroke="#8902AB" stroke-width="2px" x1="2605px" x2="2593px" y1="1515px" y2="1521px" />

    
    <line class="AnLine" fill="none" stroke="#8902AB" stroke-width="2px" x1="2587px" x2="2593px" y1="1539px" y2="1551px" />

    
    <line class="AnLine" fill="none" stroke="#8902AB" stroke-width="2px" x1="2593px" x2="2605px" y1="1551px" y2="1557px" />

    
    <line class="AnLine" fill="none" stroke="#8902AB" stroke-width="2px" x1="2629px" x2="2605px" y1="1611px" y2="1605px" />

    
    <line class="AnLine" fill="none" stroke="#8902AB" stroke-width="2px" x1="2605px" x2="2593px" y1="1605px" y2="1599px" />

    
    <line class="AnLine" fill="none" stroke="#8902AB" stroke-width="2px" x1="2593px" x2="2587px" y1="1599px" y2="1587px" />

    
    <line class="AnLine" fill="none" stroke="#8902AB" stroke-width="2px" x1="2587px" x2="2587px" y1="1587px" y2="1575px" />

    
    <line class="AnLine" fill="none" stroke="#8902AB" stroke-width="2px" x1="2587px" x2="2593px" y1="1575px" y2="1569px" />

    
    <line class="AnLine" fill="none" stroke="#8902AB" stroke-width="2px" x1="2593px" x2="2605px" y1="1569px" y2="1557px" />

    
    <line class="AnLine" fill="none" stroke="#8902AB" stroke-width="2px" x1="2912px" x2="2912px" y1="1677px" y2="1707px" />

    
    <line class="AnLine" fill="none" stroke="#8902AB" stroke-width="2px" x1="2815px" x2="2815px" y1="1677px" y2="1707px" />

    
    <line class="AnLine" fill="none" stroke="#8902AB" stroke-width="2px" x1="2617px" x2="2664px" y1="1707px" y2="1707px" />

    
    <g>

      
      <circle class="AnCircle" cx="2682px" cy="1707px" fill="none" r="18.00px" stroke="#8902AB" stroke-width="2px" />

      
      <circle class="AnCircle" cx="2766px" cy="1707px" fill="none" r="18.00px" stroke="#8902AB" stroke-width="2px" />

      
      <line class="AnLine" fill="none" stroke="#8902AB" stroke-width="2px" x1="2758px" x2="2691px" y1="1691px" y2="1722px" />

      
      <line class="AnLine" fill="none" stroke="#8902AB" stroke-width="2px" x1="2691px" x2="2758px" y1="1691px" y2="1722px" />

    
    </g>

    
    <g>

      
      <line class="AnLine" fill="none" stroke="#8902AB" stroke-width="2px" x1="2881px" x2="2930px" y1="955px" y2="955px" />

      
      <circle class="AnCircle" cx="2954px" cy="955px" fill="none" r="24.00px" stroke="#8902AB" stroke-width="2px" />

      
      <line class="AnLine" fill="none" stroke="#8902AB" stroke-width="2px" x1="2926px" x2="2938px" y1="926px" y2="938px" />

      
      <line class="AnLine" fill="none" stroke="#8902AB" stroke-width="2px" x1="2989px" x2="2971px" y1="926px" y2="938px" />

      
      <line class="AnLine" fill="none" stroke="#8902AB" stroke-width="2px" x1="2935px" x2="2923px" y1="968px" y2="980px" />

      
      <line class="AnLine" fill="none" stroke="#8902AB" stroke-width="2px" x1="2972px" x2="2990px" y1="970px" y2="988px" />

    
    </g>

    
    <g>

      
      <line class="AnLine" fill="none" stroke="#8902AB" stroke-width="2px" x1="2978px" x2="3026px" y1="955px" y2="955px" />

      
      <circle class="AnCircle" cx="3050px" cy="955px" fill="none" r="24.00px" stroke="#8902AB" stroke-width="2px" />

      
      <line class="AnLine" fill="none" stroke="#8902AB" stroke-width="2px" x1="3022px" x2="3034px" y1="926px" y2="938px" />

      
      <line class="AnLine" fill="none" stroke="#8902AB" stroke-width="2px" x1="3085px" x2="3067px" y1="926px" y2="938px" />

      
      <line class="AnLine" fill="none" stroke="#8902AB" stroke-width="2px" x1="3031px" x2="3019px" y1="968px" y2="980px" />

      
      <line class="AnLine" fill="none" stroke="#8902AB" stroke-width="2px" x1="3068px" x2="3086px" y1="970px" y2="988px" />

    
    </g>

    
    <g>

      
      <line class="AnLine" fill="none" stroke="#8902AB" stroke-width="2px" x1="2785px" x2="2833px" y1="955px" y2="955px" />

      
      <circle class="AnCircle" cx="2857px" cy="955px" fill="none" r="24.00px" stroke="#8902AB" stroke-width="2px" />

      
      <line class="AnLine" fill="none" stroke="#8902AB" stroke-width="2px" x1="2829px" x2="2841px" y1="926px" y2="938px" />

      
      <line class="AnLine" fill="none" stroke="#8902AB" stroke-width="2px" x1="2893px" x2="2874px" y1="926px" y2="938px" />

      
      <line class="AnLine" fill="none" stroke="#8902AB" stroke-width="2px" x1="2838px" x2="2826px" y1="968px" y2="980px" />

      
      <line class="AnLine" fill="none" stroke="#8902AB" stroke-width="2px" x1="2875px" x2="2894px" y1="970px" y2="988px" />

    
    </g>

    
    <g>

      
      <line class="AnLine" fill="none" stroke="#8902AB" stroke-width="2px" x1="2617px" x2="2665px" y1="955px" y2="955px" />

      
      <g>

        
        <circle class="AnCircle" cx="2683px" cy="955px" fill="none" r="18.00px" stroke="#8902AB" stroke-width="2px" />

        
        <circle class="AnCircle" cx="2767px" cy="955px" fill="none" r="18.00px" stroke="#8902AB" stroke-width="2px" />

        
        <line class="AnLine" fill="none" stroke="#8902AB" stroke-width="2px" x1="2759px" x2="2692px" y1="939px" y2="970px" />

        
        <line class="AnLine" fill="none" stroke="#8902AB" stroke-width="2px" x1="2692px" x2="2759px" y1="939px" y2="970px" />

      
      </g>

    
    </g>

    
    <line class="AnLine" fill="none" stroke="#8902AB" stroke-width="2px" x1="2785px" x2="2833px" y1="1049px" y2="1049px" />

    
    <polyline class="AnPolyline" fill="none" points="2883,1030 2833,1030 2833,1067 2883,1067 2883,1030 " stroke="#8902AB" stroke-width="2px" />

    
    <line class="AnLine" fill="none" stroke="#8902AB" stroke-width="2px" x1="2617px" x2="2665px" y1="1049px" y2="1049px" />

    
    <g>

      
      <circle class="AnCircle" cx="2683px" cy="1049px" fill="none" r="18.00px" stroke="#8902AB" stroke-width="2px" />

      
      <circle class="AnCircle" cx="2767px" cy="1049px" fill="none" r="18.00px" stroke="#8902AB" stroke-width="2px" />

      
      <polyline class="AnPolyline" fill="none" points="2757,1034 2689,1066 " stroke="#8902AB" stroke-width="2px" />

      
      <polyline class="AnPolyline" fill="none" points="2758,1064 2692,1033 " stroke="#8902AB" stroke-width="2px" />

    
    </g>

    
    <text class="AnText" fill="#000000" font-family="Arial" font-size="12" font-style="normal" font-weight="normal" text-decoration="none" transform="matrix(4.006670,0.000000,0.000000,4.000000,3034.199951,863.000000)" x="0px" y="12px">R</text>

    
    <text class="AnText" fill="#000000" font-family="Arial" font-size="12" font-style="normal" font-weight="normal" text-decoration="none" transform="matrix(4.006670,0.000000,0.000000,4.000000,2937.360107,863.000000)" x="0px" y="12px">Y</text>

    
    <text class="AnText" fill="#000000" font-family="Arial" font-size="12" font-style="normal" font-weight="normal" text-decoration="none" transform="matrix(4.006670,0.000000,0.000000,4.000000,2839.530029,863.000000)" x="0px" y="12px">B</text>

    
    <line class="AnLine" fill="none" stroke="#8902AB" stroke-width="2px" x1="1921px" x2="1855px" y1="1410px" y2="1410px" />

    
    <line class="AnLine" fill="none" stroke="#8902AB" stroke-width="2px" x1="1897px" x2="1921px" y1="1356px" y2="1362px" />

    
    <line class="AnLine" fill="none" stroke="#8902AB" stroke-width="2px" x1="1921px" x2="1933px" y1="1362px" y2="1368px" />

    
    <line class="AnLine" fill="none" stroke="#8902AB" stroke-width="2px" x1="1933px" x2="1939px" y1="1368px" y2="1380px" />

    
    <line class="AnLine" fill="none" stroke="#8902AB" stroke-width="2px" x1="1939px" x2="1939px" y1="1380px" y2="1392px" />

    
    <line class="AnLine" fill="none" stroke="#8902AB" stroke-width="2px" x1="1939px" x2="1933px" y1="1392px" y2="1398px" />

    
    <line class="AnLine" fill="none" stroke="#8902AB" stroke-width="2px" x1="1933px" x2="1921px" y1="1398px" y2="1410px" />

    
    <line class="AnLine" fill="none" stroke="#8902AB" stroke-width="2px" x1="1897px" x2="1921px" y1="1458px" y2="1452px" />

    
    <line class="AnLine" fill="none" stroke="#8902AB" stroke-width="2px" x1="1921px" x2="1933px" y1="1452px" y2="1446px" />

    
    <line class="AnLine" fill="none" stroke="#8902AB" stroke-width="2px" x1="1933px" x2="1939px" y1="1446px" y2="1434px" />

    
    <line class="AnLine" fill="none" stroke="#8902AB" stroke-width="2px" x1="1939px" x2="1939px" y1="1434px" y2="1428px" />

    
    <line class="AnLine" fill="none" stroke="#8902AB" stroke-width="2px" x1="1939px" x2="1933px" y1="1428px" y2="1416px" />

    
    <line class="AnLine" fill="none" stroke="#8902AB" stroke-width="2px" x1="1933px" x2="1921px" y1="1416px" y2="1410px" />

    
    <g>

      
      <line class="AnLine" fill="none" stroke="#000000" stroke-dasharray=" 3 3" stroke-dashoffset="0" stroke-width="1px" x1="3007px" x2="3247px" y1="2066px" y2="2066px" />

      
      <line class="AnLine" fill="none" stroke="#000000" stroke-dasharray=" 3 3" stroke-dashoffset="0" stroke-width="1px" x1="3007px" x2="3007px" y1="2343px" y2="2066px" />

      
      <line class="AnLine" fill="none" stroke="#000000" stroke-dasharray=" 3 3" stroke-dashoffset="0" stroke-width="1px" x1="3247px" x2="3007px" y1="2343px" y2="2343px" />

      
      <line class="AnLine" fill="none" stroke="#000000" stroke-dasharray=" 3 3" stroke-dashoffset="0" stroke-width="1px" x1="3247px" x2="3247px" y1="2066px" y2="2343px" />

    
    </g>

    
    <line class="AnLine" fill="none" stroke="#8902AB" stroke-width="2px" x1="4167px" x2="4167px" y1="2361px" y2="687px" />

    
    <line class="AnLine" fill="none" stroke="#8902AB" stroke-width="2px" x1="4167px" x2="4167px" y1="486px" y2="307px" />

    
    <g>

      
      <g>

        
        <polygon class="AnPolygon" fill="#E0E4E5" fill-rule="evenodd" points="2581,757 2653,757 2653,793 2581,793 2581,757 " />

        
        <polyline class="AnPolyline" fill="none" points="2581,757 2653,757 2653,793 2581,793 2581,757 " stroke="#000000" stroke-width="1px" />

      
      </g>

      
      <line class="AnLine" fill="none" stroke="#8902AB" stroke-width="2px" x1="2653px" x2="2581px" y1="757px" y2="757px" />

      
      <line class="AnLine" fill="none" stroke="#8902AB" stroke-width="2px" x1="2581px" x2="2581px" y1="757px" y2="793px" />

      
      <line class="AnLine" fill="none" stroke="#8902AB" stroke-width="2px" x1="2581px" x2="2653px" y1="793px" y2="793px" />

      
      <line class="AnLine" fill="none" stroke="#8902AB" stroke-width="2px" x1="2653px" x2="2653px" y1="793px" y2="757px" />

    
    </g>

    
    <g>

      
      <g>

        
        <polygon class="AnPolygon" fill="#E0E4E5" fill-rule="evenodd" points="1873,757 1945,757 1945,793 1873,793 1873,757 " />

        
        <polyline class="AnPolyline" fill="none" points="1873,757 1945,757 1945,793 1873,793 1873,757 " stroke="#000000" stroke-width="1px" />

      
      </g>

      
      <line class="AnLine" fill="none" stroke="#8902AB" stroke-width="2px" x1="1945px" x2="1873px" y1="757px" y2="757px" />

      
      <line class="AnLine" fill="none" stroke="#8902AB" stroke-width="2px" x1="1873px" x2="1873px" y1="757px" y2="793px" />

      
      <line class="AnLine" fill="none" stroke="#8902AB" stroke-width="2px" x1="1873px" x2="1945px" y1="793px" y2="793px" />

      
      <line class="AnLine" fill="none" stroke="#8902AB" stroke-width="2px" x1="1945px" x2="1945px" y1="793px" y2="757px" />

    
    </g>

    
    <text class="AnText" fill="#000000" font-family="Arial" font-size="12" font-style="normal" font-weight="normal" text-decoration="none" transform="matrix(4.000000,0.000000,0.000000,4.000000,1461.000000,860.000000)" x="0px" y="12px">R</text>

    
    <text class="AnText" fill="#000000" font-family="Arial" font-size="12" font-style="normal" font-weight="normal" text-decoration="none" transform="matrix(4.000000,0.000000,0.000000,4.000000,1554.000000,860.000000)" x="0px" y="12px">Y</text>

    
    <text class="AnText" fill="#000000" font-family="Arial" font-size="12" font-style="normal" font-weight="normal" text-decoration="none" transform="matrix(4.000000,0.000000,0.000000,4.000000,1654.000000,860.000000)" x="0px" y="12px">B</text>

    
    <g>

      
      <g>

        
        <line class="AnLine" fill="none" stroke="#8902AB" stroke-width="2px" x1="1645px" x2="1597px" y1="955px" y2="955px" />

        
        <circle class="AnCircle" cx="1573px" cy="955px" fill="none" r="24.00px" stroke="#8902AB" stroke-width="2px" />

        
        <line class="AnLine" fill="none" stroke="#8902AB" stroke-width="2px" x1="1601px" x2="1589px" y1="926px" y2="938px" />

        
        <line class="AnLine" fill="none" stroke="#8902AB" stroke-width="2px" x1="1538px" x2="1556px" y1="926px" y2="938px" />

        
        <line class="AnLine" fill="none" stroke="#8902AB" stroke-width="2px" x1="1592px" x2="1604px" y1="968px" y2="980px" />

        
        <line class="AnLine" fill="none" stroke="#8902AB" stroke-width="2px" x1="1555px" x2="1537px" y1="970px" y2="988px" />

      
      </g>

      
      <g>

        
        <line class="AnLine" fill="none" stroke="#8902AB" stroke-width="2px" x1="1549px" x2="1501px" y1="955px" y2="955px" />

        
        <circle class="AnCircle" cx="1477px" cy="955px" fill="none" r="24.00px" stroke="#8902AB" stroke-width="2px" />

        
        <line class="AnLine" fill="none" stroke="#8902AB" stroke-width="2px" x1="1505px" x2="1493px" y1="926px" y2="938px" />

        
        <line class="AnLine" fill="none" stroke="#8902AB" stroke-width="2px" x1="1442px" x2="1460px" y1="926px" y2="938px" />

        
        <line class="AnLine" fill="none" stroke="#8902AB" stroke-width="2px" x1="1496px" x2="1508px" y1="968px" y2="980px" />

        
        <line class="AnLine" fill="none" stroke="#8902AB" stroke-width="2px" x1="1459px" x2="1441px" y1="970px" y2="988px" />

      
      </g>

      
      <g>

        
        <line class="AnLine" fill="none" stroke="#8902AB" stroke-width="2px" x1="1741px" x2="1693px" y1="955px" y2="955px" />

        
        <circle class="AnCircle" cx="1669px" cy="955px" fill="none" r="24.00px" stroke="#8902AB" stroke-width="2px" />

        
        <line class="AnLine" fill="none" stroke="#8902AB" stroke-width="2px" x1="1697px" x2="1685px" y1="926px" y2="938px" />

        
        <line class="AnLine" fill="none" stroke="#8902AB" stroke-width="2px" x1="1634px" x2="1652px" y1="926px" y2="938px" />

        
        <line class="AnLine" fill="none" stroke="#8902AB" stroke-width="2px" x1="1688px" x2="1700px" y1="968px" y2="980px" />

        
        <line class="AnLine" fill="none" stroke="#8902AB" stroke-width="2px" x1="1651px" x2="1633px" y1="970px" y2="988px" />

      
      </g>

      
      <g>

        
        <line class="AnLine" fill="none" stroke="#8902AB" stroke-width="2px" x1="1909px" x2="1861px" y1="955px" y2="955px" />

        
        <g>

          
          <circle class="AnCircle" cx="1843px" cy="955px" fill="none" r="18.00px" stroke="#8902AB" stroke-width="2px" />

          
          <circle class="AnCircle" cx="1759px" cy="955px" fill="none" r="18.00px" stroke="#8902AB" stroke-width="2px" />

          
          <line class="AnLine" fill="none" stroke="#8902AB" stroke-width="2px" x1="1767px" x2="1834px" y1="939px" y2="970px" />

          
          <line class="AnLine" fill="none" stroke="#8902AB" stroke-width="2px" x1="1834px" x2="1767px" y1="939px" y2="970px" />

        
        </g>

      
      </g>

      
      <line class="AnLine" fill="none" stroke="#8902AB" stroke-width="2px" x1="1741px" x2="1693px" y1="1049px" y2="1049px" />

      
      <polyline class="AnPolyline" fill="none" points="1643,1030 1693,1030 1693,1067 1643,1067 1643,1030 " stroke="#8902AB" stroke-width="2px" />

      
      <line class="AnLine" fill="none" stroke="#8902AB" stroke-width="2px" x1="1909px" x2="1861px" y1="1049px" y2="1049px" />

      
      <g>

        
        <circle class="AnCircle" cx="1843px" cy="1049px" fill="none" r="18.00px" stroke="#8902AB" stroke-width="2px" />

        
        <circle class="AnCircle" cx="1759px" cy="1049px" fill="none" r="18.00px" stroke="#8902AB" stroke-width="2px" />

        
        <polyline class="AnPolyline" fill="none" points="1769,1034 1837,1066 " stroke="#8902AB" stroke-width="2px" />

        
        <polyline class="AnPolyline" fill="none" points="1768,1064 1834,1033 " stroke="#8902AB" stroke-width="2px" />

      
      </g>

    
    </g>

    
    <line class="AnLine" fill="none" stroke="#000000" stroke-width="1px" x1="1645px" x2="1855px" y1="1440px" y2="1374px" />

    
    <line class="AnLine" fill="none" stroke="#8902AB" stroke-width="2px" x1="1645px" x2="1855px" y1="1374px" y2="1374px" />

    
    <line class="AnLine" fill="none" stroke="#8902AB" stroke-width="2px" x1="1855px" x2="1855px" y1="1374px" y2="1440px" />

    
    <line class="AnLine" fill="none" stroke="#8902AB" stroke-width="2px" x1="1855px" x2="1645px" y1="1440px" y2="1440px" />

    
    <line class="AnLine" fill="none" stroke="#8902AB" stroke-width="2px" x1="1645px" x2="1645px" y1="1440px" y2="1374px" />

    
    <text class="AnText" fill="#000000" font-family="Arial" font-size="12" font-style="normal" font-weight="normal" text-decoration="none" transform="matrix(2.457600,0.000000,0.000000,2.457600,1657.449951,1375.530029)" x="0px" y="12px">O/C</text>

    
    <text class="AnText" fill="#000000" font-family="Arial" font-size="12" font-style="normal" font-weight="normal" text-decoration="none" transform="matrix(2.457600,0.000000,0.000000,2.457600,1802.500000,1394.530029)" x="0px" y="12px">E/F</text>

    
    <line class="AnLine" fill="none" stroke="#000000" stroke-width="1px" x1="2672px" x2="2882px" y1="1443px" y2="1377px" />

    
    <line class="AnLine" fill="none" stroke="#8902AB" stroke-width="2px" x1="2672px" x2="2882px" y1="1377px" y2="1377px" />

    
    <line class="AnLine" fill="none" stroke="#8902AB" stroke-width="2px" x1="2882px" x2="2882px" y1="1377px" y2="1443px" />

    
    <line class="AnLine" fill="none" stroke="#8902AB" stroke-width="2px" x1="2882px" x2="2672px" y1="1443px" y2="1443px" />

    
    <line class="AnLine" fill="none" stroke="#8902AB" stroke-width="2px" x1="2672px" x2="2672px" y1="1443px" y2="1377px" />

    
    <text class="AnText" fill="#000000" font-family="Arial" font-size="12" font-style="normal" font-weight="normal" text-decoration="none" transform="matrix(2.457600,0.000000,0.000000,2.457600,2686.449951,1379.530029)" x="0px" y="12px">O/C</text>

    
    <text class="AnText" fill="#000000" font-family="Arial" font-size="12" font-style="normal" font-weight="normal" text-decoration="none" transform="matrix(2.457600,0.000000,0.000000,2.457600,2829.500000,1397.530029)" x="0px" y="12px">E/F</text>

    
    <line class="AnLine" fill="none" stroke="#8902AB" stroke-width="2px" x1="1741px" x2="1453px" y1="1707px" y2="1707px" />

    
    <line class="AnLine" fill="none" stroke="#8902AB" stroke-width="2px" x1="1921px" x2="1453px" y1="1557px" y2="1557px" />

    
    <text class="AnText" fill="#000000" font-family="Arial" font-size="12" font-style="normal" font-weight="normal" text-decoration="none" transform="matrix(2.457600,0.000000,0.000000,2.457600,1488.209961,1612.369995)" x="0px" y="12px">MD1</text>

    
    <line class="AnLine" fill="none" stroke="#8902AB" stroke-width="2px" x1="1411px" x2="1375px" y1="1557px" y2="1557px" />

    
    <circle class="AnCircle" cx="1357px" cy="1557px" fill="none" r="18.00px" stroke="#8902AB" stroke-width="2px" />

    
    <line class="AnLine" fill="none" stroke="#8902AB" stroke-width="2px" x1="1411px" x2="1375px" y1="1707px" y2="1707px" />

    
    <circle class="AnCircle" cx="1357px" cy="1707px" fill="none" r="18.00px" stroke="#8902AB" stroke-width="2px" />

    
    <circle class="AnCircle" cx="1519px" cy="1635px" fill="none" r="42.00px" stroke="#000000" stroke-width="1px" />

    
    <line class="AnLine" fill="none" stroke="#8902AB" stroke-width="2px" x1="1519px" x2="1519px" y1="1593px" y2="1557px" />

    
    <line class="AnLine" fill="none" stroke="#8902AB" stroke-width="2px" x1="1519px" x2="1519px" y1="1677px" y2="1707px" />

    
    <line class="AnLine" fill="none" stroke="#8902AB" stroke-width="2px" x1="1411px" x2="1453px" y1="1545px" y2="1545px" />

    
    <line class="AnLine" fill="none" stroke="#8902AB" stroke-width="2px" x1="1453px" x2="1453px" y1="1545px" y2="1575px" />

    
    <line class="AnLine" fill="none" stroke="#8902AB" stroke-width="2px" x1="1453px" x2="1411px" y1="1575px" y2="1575px" />

    
    <line class="AnLine" fill="none" stroke="#8902AB" stroke-width="2px" x1="1411px" x2="1411px" y1="1575px" y2="1545px" />

    
    <line class="AnLine" fill="none" stroke="#8902AB" stroke-width="2px" x1="1411px" x2="1453px" y1="1689px" y2="1689px" />

    
    <line class="AnLine" fill="none" stroke="#8902AB" stroke-width="2px" x1="1453px" x2="1453px" y1="1689px" y2="1719px" />

    
    <line class="AnLine" fill="none" stroke="#8902AB" stroke-width="2px" x1="1453px" x2="1411px" y1="1719px" y2="1719px" />

    
    <line class="AnLine" fill="none" stroke="#8902AB" stroke-width="2px" x1="1411px" x2="1411px" y1="1719px" y2="1689px" />

    
    <circle class="AnCircle" cx="1711px" cy="1635px" fill="none" r="42.00px" stroke="#000000" stroke-width="1px" />

    
    <circle class="AnCircle" cx="1615px" cy="1635px" fill="none" r="42.00px" stroke="#000000" stroke-width="1px" />

    
    <g>

      
      <line class="AnLine" fill="none" stroke="#000000" stroke-width="1px" x1="1585px" x2="1645px" y1="1607px" y2="1607px" />

      
      <line class="AnLine" fill="none" stroke="#000000" stroke-width="1px" x1="1645px" x2="1645px" y1="1607px" y2="1661px" />

      
      <line class="AnLine" fill="none" stroke="#000000" stroke-width="1px" x1="1645px" x2="1585px" y1="1661px" y2="1661px" />

      
      <line class="AnLine" fill="none" stroke="#000000" stroke-width="1px" x1="1585px" x2="1585px" y1="1661px" y2="1607px" />

    
    </g>

    
    <text class="AnText" fill="#000000" font-family="Arial" font-size="12" font-style="normal" font-weight="normal" text-decoration="none" transform="matrix(2.457600,0.000000,0.000000,2.457600,1696.380005,1612.369995)" x="0px" y="12px">PF</text>

    
    <line class="AnLine" fill="none" stroke="#8902AB" stroke-width="2px" x1="1615px" x2="1615px" y1="1593px" y2="1557px" />

    
    <line class="AnLine" fill="none" stroke="#8902AB" stroke-width="2px" x1="1711px" x2="1711px" y1="1593px" y2="1557px" />

    
    <line class="AnLine" fill="none" stroke="#8902AB" stroke-width="2px" x1="1933px" x2="1939px" y1="1521px" y2="1533px" />

    
    <line class="AnLine" fill="none" stroke="#8902AB" stroke-width="2px" x1="1939px" x2="1939px" y1="1533px" y2="1539px" />

    
    <line class="AnLine" fill="none" stroke="#8902AB" stroke-width="2px" x1="1897px" x2="1921px" y1="1509px" y2="1515px" />

    
    <line class="AnLine" fill="none" stroke="#8902AB" stroke-width="2px" x1="1921px" x2="1933px" y1="1515px" y2="1521px" />

    
    <line class="AnLine" fill="none" stroke="#8902AB" stroke-width="2px" x1="1939px" x2="1933px" y1="1539px" y2="1551px" />

    
    <line class="AnLine" fill="none" stroke="#8902AB" stroke-width="2px" x1="1933px" x2="1921px" y1="1551px" y2="1557px" />

    
    <line class="AnLine" fill="none" stroke="#8902AB" stroke-width="2px" x1="1897px" x2="1921px" y1="1611px" y2="1605px" />

    
    <line class="AnLine" fill="none" stroke="#8902AB" stroke-width="2px" x1="1921px" x2="1933px" y1="1605px" y2="1599px" />

    
    <line class="AnLine" fill="none" stroke="#8902AB" stroke-width="2px" x1="1933px" x2="1939px" y1="1599px" y2="1587px" />

    
    <line class="AnLine" fill="none" stroke="#8902AB" stroke-width="2px" x1="1939px" x2="1939px" y1="1587px" y2="1575px" />

    
    <line class="AnLine" fill="none" stroke="#8902AB" stroke-width="2px" x1="1939px" x2="1933px" y1="1575px" y2="1569px" />

    
    <line class="AnLine" fill="none" stroke="#8902AB" stroke-width="2px" x1="1933px" x2="1921px" y1="1569px" y2="1557px" />

    
    <line class="AnLine" fill="none" stroke="#8902AB" stroke-width="2px" x1="1615px" x2="1615px" y1="1677px" y2="1707px" />

    
    <line class="AnLine" fill="none" stroke="#8902AB" stroke-width="2px" x1="1711px" x2="1711px" y1="1677px" y2="1707px" />

    
    <line class="AnLine" fill="none" stroke="#8902AB" stroke-width="2px" x1="1909px" x2="1862px" y1="1707px" y2="1707px" />

    
    <g>

      
      <circle class="AnCircle" cx="1844px" cy="1707px" fill="none" r="18.00px" stroke="#8902AB" stroke-width="2px" />

      
      <circle class="AnCircle" cx="1760px" cy="1707px" fill="none" r="18.00px" stroke="#8902AB" stroke-width="2px" />

      
      <line class="AnLine" fill="none" stroke="#8902AB" stroke-width="2px" x1="1768px" x2="1835px" y1="1691px" y2="1722px" />

      
      <line class="AnLine" fill="none" stroke="#8902AB" stroke-width="2px" x1="1835px" x2="1768px" y1="1691px" y2="1722px" />

    
    </g>

  
  </g>

  
  <g class="AnLayer" id="Equipement">

    
    <g>

      
      <circle class="AnCircle" cx="1909px" cy="653px" fill="none" r="43.00px" stroke="#000000" stroke-width="2px" />

      
      <circle class="AnCircle" cx="1909px" cy="588px" fill="none" r="43.00px" stroke="#000000" stroke-width="2px" />

    
    </g>

    
    <g>

      
      <circle class="AnCircle" cx="2617px" cy="653px" fill="none" r="43.00px" stroke="#000000" stroke-width="2px" />

      
      <circle class="AnCircle" cx="2617px" cy="588px" fill="none" r="43.00px" stroke="#000000" stroke-width="2px" />

    
    </g>

    
    <circle class="AnCircle" cx="3127px" cy="1958px" fill="#E0E4E5" fill-rule="evenodd" r="18.00px" />

    
    <circle class="AnCircle" cx="3127px" cy="1905px" fill="#E0E4E5" fill-rule="evenodd" r="18.00px" />

    
    <circle class="AnCircle" cx="3127px" cy="1958px" fill="none" r="18.00px" stroke="#8902AB" stroke-width="2px" />

    
    <circle class="AnCircle" cx="3127px" cy="1905px" fill="none" r="18.00px" stroke="#8902AB" stroke-width="2px" />

    
    <polyline class="AnPolyline" fill="none" points="3160,1915 3190,1949 " stroke="#8902AB" stroke-width="2px" />

    
    <polyline class="AnPolyline" fill="none" points="3160,1949 3189,1915 " stroke="#8902AB" stroke-width="2px" />

    
    <circle class="AnCircle" cx="3175px" cy="1905px" fill="#E0E4E5" fill-rule="evenodd" r="18.00px" />

    
    <circle class="AnCircle" cx="3175px" cy="1905px" fill="none" r="18.00px" stroke="#8902AB" stroke-width="2px" />

    
    <circle class="AnCircle" cx="3175px" cy="1958px" fill="#E0E4E5" fill-rule="evenodd" r="18.00px" />

    
    <circle class="AnCircle" cx="3175px" cy="1958px" fill="none" r="18.00px" stroke="#8902AB" stroke-width="2px" />

    
    <g>

      
      <circle class="AnCircle" cx="1333px" cy="1957px" fill="#E0E4E5" fill-rule="evenodd" r="18.00px" />

      
      <circle class="AnCircle" cx="1333px" cy="1904px" fill="#E0E4E5" fill-rule="evenodd" r="18.00px" />

      
      <circle class="AnCircle" cx="1333px" cy="1957px" fill="none" r="18.00px" stroke="#8902AB" stroke-width="2px" />

      
      <circle class="AnCircle" cx="1333px" cy="1904px" fill="none" r="18.00px" stroke="#8902AB" stroke-width="2px" />

      
      <polyline class="AnPolyline" fill="none" points="1366,1914 1396,1948 " stroke="#8902AB" stroke-width="2px" />

      
      <polyline class="AnPolyline" fill="none" points="1366,1948 1395,1914 " stroke="#8902AB" stroke-width="2px" />

      
      <circle class="AnCircle" cx="1381px" cy="1904px" fill="#E0E4E5" fill-rule="evenodd" r="18.00px" />

      
      <circle class="AnCircle" cx="1381px" cy="1904px" fill="none" r="18.00px" stroke="#8902AB" stroke-width="2px" />

      
      <circle class="AnCircle" cx="1381px" cy="1957px" fill="#E0E4E5" fill-rule="evenodd" r="18.00px" />

      
      <circle class="AnCircle" cx="1381px" cy="1957px" fill="none" r="18.00px" stroke="#8902AB" stroke-width="2px" />

    
    </g>

  
  </g>

  
  <g class="AnLayer" id="Equipement Text">

    
    <text class="AnText" fill="#000000" font-family="Arial" font-size="12" font-style="normal" font-weight="normal" text-decoration="none" transform="matrix(4.800000,0.000000,0.000000,4.800000,1902.400024,215.800003)" x="0px" y="12px">SOURCE A</text>

    
    <text class="AnText" fill="#000000" font-family="Arial" font-size="12" font-style="normal" font-weight="normal" text-decoration="none" transform="matrix(4.800000,0.000000,0.000000,4.800000,2336.399902,215.800003)" x="0px" y="12px">SOURCE B</text>

    
    <text class="AnText" fill="#000000" font-family="Arial" font-size="12" font-style="normal" font-weight="normal" text-decoration="none" transform="matrix(4.000000,0.000000,0.000000,4.000000,1435.000000,600.000000)" x="0px" y="12px">11kV/380V</text>

    
    <text class="AnText" fill="#000000" font-family="Arial" font-size="12" font-style="normal" font-weight="normal" text-decoration="none" transform="matrix(4.000000,0.000000,0.000000,4.000000,1433.000000,654.000000)" x="0px" y="12px">TRANSFORMER</text>

    
    <text class="AnText" fill="#000000" font-family="Arial" font-size="12" font-style="normal" font-weight="normal" text-decoration="none" transform="matrix(4.000000,0.000000,0.000000,4.000000,1437.000000,707.000000)" x="0px" y="12px">(SOURCE A)</text>

    
    <text class="AnText" fill="#000000" font-family="Arial" font-size="12" font-style="normal" font-weight="normal" text-decoration="none" transform="matrix(4.000000,0.000000,0.000000,4.000000,736.000000,1775.000000)" x="0px" y="12px">(380V 2500A TPN BUSBAR - ESSENTIAL)</text>

    
    <text class="AnText" fill="#000000" font-family="Arial" font-size="12" font-style="normal" font-weight="normal" text-decoration="none" transform="matrix(4.800000,0.000000,0.000000,4.800000,559.000000,873.799988)" x="0px" y="12px">380V SSVB - MCC - 001</text>

    
    <text class="AnText" fill="#000000" font-family="Arial" font-size="12" font-style="normal" font-weight="normal" text-decoration="none" transform="matrix(4.000000,0.000000,0.000000,4.000000,1943.000000,950.000000)" x="0px" y="12px">AUTOMATIC CHANGEOVER</text>

    
    <text class="AnText" fill="#000000" font-family="Arial" font-size="12" font-style="normal" font-weight="normal" text-decoration="none" transform="matrix(4.000000,0.000000,0.000000,4.000000,1996.000000,1006.000000)" x="0px" y="12px">WITH E&amp;M INTERLOCK</text>

    
    <text class="AnText" fill="#000000" font-family="Arial" font-size="12" font-style="normal" font-weight="normal" text-decoration="none" transform="matrix(4.000000,0.000000,0.000000,4.000000,2825.000000,1778.000000)" x="0px" y="12px">(380V 2500A TPN BUSBAR - ESSENTIAL)</text>

    
    <text class="AnText" fill="#000000" font-family="Arial" font-size="12" font-style="normal" font-weight="normal" text-decoration="none" transform="matrix(4.000000,0.000000,0.000000,4.000000,2789.000000,592.000000)" x="0px" y="12px">11kV/380V</text>

    
    <text class="AnText" fill="#000000" font-family="Arial" font-size="12" font-style="normal" font-weight="normal" text-decoration="none" transform="matrix(4.000000,0.000000,0.000000,4.000000,2787.000000,646.000000)" x="0px" y="12px">TRANSFORMER</text>

    
    <text class="AnText" fill="#000000" font-family="Arial" font-size="12" font-style="normal" font-weight="normal" text-decoration="none" transform="matrix(4.000000,0.000000,0.000000,4.000000,2791.000000,699.000000)" x="0px" y="12px">(SOURCE B)</text>

    
    <text class="AnText" fill="#000000" font-family="Arial" font-size="12" font-style="normal" font-weight="normal" text-decoration="none" transform="matrix(4.000000,0.000000,0.000000,4.000000,4119.000000,153.000000)" x="0px" y="12px">CLP</text>

    
    <text class="AnText" fill="#000000" font-family="Arial" font-size="12" font-style="normal" font-weight="normal" text-decoration="none" transform="matrix(4.000000,0.000000,0.000000,4.000000,4001.000000,207.000000)" x="0px" y="12px">132kV/11kV P/S</text>

    
    <text class="AnText" fill="#000000" font-family="Arial" font-size="12" font-style="normal" font-weight="normal" text-decoration="none" transform="matrix(4.000000,0.000000,0.000000,4.000000,4021.000000,260.000000)" x="0px" y="12px">SUBSTATION</text>

    
    <text class="AnText" fill="#000000" font-family="Arial" font-size="12" font-style="normal" font-weight="normal" text-decoration="none" transform="matrix(4.000000,0.000000,0.000000,4.000000,4060.000000,512.000000)" x="0px" y="12px">CLP 11kV</text>

    
    <text class="AnText" fill="#000000" font-family="Arial" font-size="12" font-style="normal" font-weight="normal" text-decoration="none" transform="matrix(4.000000,0.000000,0.000000,4.000000,3984.000000,566.000000)" x="0px" y="12px">TRANSFORMER</text>

    
    <text class="AnText" fill="#000000" font-family="Arial" font-size="12" font-style="normal" font-weight="normal" text-decoration="none" transform="matrix(4.000000,0.000000,0.000000,4.000000,4096.000000,619.000000)" x="0px" y="12px">ROOM</text>

    
    <text class="AnText" fill="#000000" font-family="Arial" font-size="12" font-style="normal" font-weight="normal" text-decoration="none" transform="matrix(4.000000,0.000000,0.000000,4.000000,1669.000000,1167.000000)" x="0px" y="12px">CLP-A1</text>

    
    <text class="AnText" fill="#000000" font-family="Arial" font-size="12" font-style="normal" font-weight="normal" text-decoration="none" transform="matrix(4.000000,0.000000,0.000000,4.000000,1480.000000,2163.000000)" x="0px" y="12px">CAPACITOR</text>

    
    <text class="AnText" fill="#000000" font-family="Arial" font-size="12" font-style="normal" font-weight="normal" text-decoration="none" transform="matrix(4.000000,0.000000,0.000000,4.000000,1480.000000,2217.000000)" x="0px" y="12px">BANK</text>

    
    <text class="AnText" fill="#000000" font-family="Arial" font-size="12" font-style="normal" font-weight="normal" text-decoration="none" transform="matrix(4.000000,0.000000,0.000000,4.000000,1480.000000,2270.000000)" x="0px" y="12px">CAP - 001</text>

    
    <text class="AnText" fill="#000000" font-family="Arial" font-size="12" font-style="normal" font-weight="normal" text-decoration="none" transform="matrix(4.000000,0.000000,0.000000,4.000000,3277.000000,2164.000000)" x="0px" y="12px">CAPACITOR</text>

    
    <text class="AnText" fill="#000000" font-family="Arial" font-size="12" font-style="normal" font-weight="normal" text-decoration="none" transform="matrix(4.000000,0.000000,0.000000,4.000000,3277.000000,2218.000000)" x="0px" y="12px">BANK</text>

    
    <text class="AnText" fill="#000000" font-family="Arial" font-size="12" font-style="normal" font-weight="normal" text-decoration="none" transform="matrix(4.000000,0.000000,0.000000,4.000000,3277.000000,2271.000000)" x="0px" y="12px">CAP - 002</text>

    
    <text class="AnText" fill="#000000" font-family="Arial" font-size="12" font-style="normal" font-weight="normal" text-decoration="none" transform="matrix(4.000000,0.000000,0.000000,4.000000,2698.000000,1172.000000)" x="0px" y="12px">CLP-B1</text>

    
    <text class="AnText" fill="#000000" font-family="Arial" font-size="12" font-style="normal" font-weight="normal" text-decoration="none" transform="matrix(4.000000,0.000000,0.000000,4.000000,2191.000000,1960.000000)" x="0px" y="12px">ACB-C</text>

  
  </g>

  
  <g class="AnLayer" id="Pscada_Line">

    
    <polygon class="AnPolygon" fill="#8902AB" fill-rule="evenodd" points="1768,453 2767,453 2767,461 1768,461 1768,453 " />

    
    <polyline class="AnPolyline" fill="none" points="1333,1843 1333,1885 " stroke="#8902AB" stroke-width="2px" />

    
    <polyline class="AnPolyline" fill="none" points="1333,1975 1333,2101 " stroke="#8902AB" stroke-width="2px" />

    
    <line class="AnLine" fill="none" stroke="#8902AB" stroke-width="2px" x1="1333px" x2="1381px" y1="2101px" y2="2131px" />

    
    <line class="AnLine" fill="none" stroke="#8902AB" stroke-width="2px" x1="1333px" x2="1333px" y1="2150px" y2="2199px" />

    
    <polyline class="AnPolyline" fill="none" points="3127,1845 3127,1887 " stroke="#8902AB" stroke-width="2px" />

    
    <polyline class="AnPolyline" fill="none" points="3127,1976 3127,2103 " stroke="#8902AB" stroke-width="2px" />

    
    <line class="AnLine" fill="none" stroke="#8902AB" stroke-width="2px" x1="3127px" x2="3175px" y1="2103px" y2="2133px" />

    
    <line class="AnLine" fill="none" stroke="#8902AB" stroke-width="2px" x1="3127px" x2="3127px" y1="2152px" y2="2201px" />

    
    <g>

      
      <line class="AnLine" fill="none" stroke="#8902AB" stroke-width="2px" x1="2047px" x2="2047px" y1="294px" y2="456px" />

      
      <line class="AnLine" fill="none" stroke="#8902AB" stroke-width="2px" x1="2485px" x2="2485px" y1="294px" y2="456px" />

    
    </g>

    
    <g>

      
      <line class="AnLine" fill="none" stroke="#8902AB" stroke-width="2px" x1="1909px" x2="1909px" y1="546px" y2="456px" />

      
      <line class="AnLine" fill="none" stroke="#8902AB" stroke-width="2px" x1="2617px" x2="2617px" y1="546px" y2="456px" />

    
    </g>

    
    <g>

      
      <polyline class="AnPolyline" fill="none" points="2306,419 2232,493 " stroke="#8902AB" stroke-width="2px" />

      
      <polyline class="AnPolyline" fill="none" points="2232,419 2306,493 " stroke="#8902AB" stroke-width="2px" />

    
    </g>

    
    <polygon class="AnPolygon" fill="#8902AB" fill-rule="evenodd" points="715,1840 2204,1840 2204,1849 715,1849 715,1840 " />

    
    <polygon class="AnPolygon" fill="#8902AB" fill-rule="evenodd" points="2324,1840 3812,1840 3812,1849 2324,1849 2324,1840 " />

    
    <line class="AnLine" fill="none" stroke="#8902AB" stroke-width="2px" x1="1909px" x2="1909px" y1="696px" y2="757px" />

    
    <line class="AnLine" fill="none" stroke="#8902AB" stroke-width="2px" x1="2617px" x2="2617px" y1="696px" y2="757px" />

    
    <circle class="AnCircle" cx="2266px" cy="1844px" fill="none" r="75.00px" stroke="#FFFFFF" stroke-width="2px" />

    
    <polyline class="AnPolyline" fill="none" points="1909,1138 1909,793 " stroke="#8902AB" stroke-width="2px" />

    
    <polyline class="AnPolyline" fill="none" points="1909,1845 1909,1257 " stroke="#8902AB" stroke-width="2px" />

    
    <polyline class="AnPolyline" fill="none" points="2617,1138 2617,793 " stroke="#8902AB" stroke-width="2px" />

    
    <polyline class="AnPolyline" fill="none" points="2617,1845 2617,1258 " stroke="#8902AB" stroke-width="2px" />

  
  </g>

</svg>