<?xml version='1.0' encoding='UTF-8'?>
<svg xmlns="http://www.w3.org/2000/svg" height="1348" preserveAspectRatio="xMinYMin meet" style="background-color:#D2D2D2;" version="1.1" viewBox="0 0 2420 1348" width="2420">

  
  <g class="AnLayer" id="AnDefaultLayer">

  
  </g>

  
  <g class="AnLayer" id="Background">

    
    <polyline class="AnPolyline" fill="none" points="128,337 2285,337 " stroke="#000000" stroke-width="2px" />

    
    <polyline class="AnPolyline" fill="none" points="128,669 2285,669 " stroke="#000000" stroke-width="1px" />

    
    <polyline class="AnPolyline" fill="none" points="126,194 2286,194 2286,1014 126,1014 126,194 " stroke="#000000" stroke-width="2px" />

    
    <polyline class="AnPolyline" fill="none" points="762,338 762,1013 " stroke="#000000" stroke-width="1px" />

  
  </g>

  
  <g class="AnLayer" id="Equipement Text">

    
    <text class="AnText" fill="#000000" font-family="Arial" font-size="12" font-style="normal" font-weight="normal" text-decoration="none" transform="matrix(6.199960,0.000000,0.000000,6.480000,1116.859985,220.679993)" x="0px" y="12px">KOT</text>

    
    <text class="AnText" fill="#000000" font-family="Arial" font-size="12" font-style="normal" font-weight="normal" text-decoration="none" transform="matrix(4.000000,0.000000,0.000000,4.000000,850.000000,919.000000)" x="0px" y="12px">KTVB-SUPF</text>

    
    <text class="AnText" fill="#000000" font-family="Arial" font-size="12" font-style="normal" font-weight="normal" text-decoration="none" transform="matrix(4.000000,0.000000,0.000000,4.000000,1199.000000,919.000000)" x="0px" y="12px">TWVB-SUPF</text>

    
    <text class="AnText" fill="#000000" font-family="Arial" font-size="12" font-style="normal" font-weight="normal" text-decoration="none" transform="matrix(5.000000,0.000000,0.000000,5.000000,216.000000,826.000000)" x="0px" y="12px">110V DC SUPPLY</text>

    
    <text class="AnText" fill="#000000" font-family="Arial" font-size="12" font-style="normal" font-weight="normal" text-decoration="none" transform="matrix(5.000000,0.000000,0.000000,5.000000,401.000000,467.000000)" x="0px" y="12px">UPS</text>

    
    <text class="AnText" fill="#000000" font-family="Arial" font-size="12" font-style="normal" font-weight="normal" text-decoration="none" transform="matrix(4.000000,0.000000,0.000000,4.000000,932.000000,526.000000)" x="0px" y="12px">UPS</text>

    
    <text class="AnText" fill="#000000" font-family="Arial" font-size="12" font-style="normal" font-weight="normal" text-decoration="none" transform="matrix(4.000000,0.000000,0.000000,4.000000,1237.000000,526.000000)" x="0px" y="12px">UPS-201</text>

    
    <text class="AnText" fill="#000000" font-family="Arial" font-size="12" font-style="normal" font-weight="normal" text-decoration="none" transform="matrix(4.000000,0.000000,0.000000,4.000000,1603.000000,526.000000)" x="0px" y="12px">UPS-202</text>

    
    <text class="AnText" fill="#000000" font-family="Arial" font-size="12" font-style="normal" font-weight="normal" text-decoration="none" transform="matrix(4.000000,0.000000,0.000000,4.000000,1948.000000,526.000000)" x="0px" y="12px">UPS-1001</text>

  
  </g>

</svg>