<?xml version='1.0' encoding='UTF-8'?>
<svg xmlns="http://www.w3.org/2000/svg" height="1303" preserveAspectRatio="xMinYMin meet" style="background-color:#D2D2D2;" version="1.1" viewBox="0 0 2553 1303" width="2553">

  
  <g class="AnLayer" id="AnDefaultLayer">

    
    <polyline class="AnPolyline" fill="none" points="224,460 224,431 101,431 101,313 570,313 570,460 1353,460 1353,551 1133,551 1133,587 " stroke="#000000" stroke-width="2px" />

    
    <polyline class="AnPolyline" fill="none" points="1136,754 1136,791 1248,791 1296,744 1388,744 1388,789 " stroke="#000000" stroke-width="2px" />

    
    <polyline class="AnPolyline" fill="none" points="1392,954 1392,988 120,988 120,803 223,803 223,771 " stroke="#000000" stroke-width="2px" />

    
    <polyline class="AnPolyline" fill="none" points="1840,549 2003,549 2003,669 1840,669 1840,549 " stroke="#000000" stroke-width="2px" />

    
    <polyline class="AnPolyline" fill="none" points="2190,669 2003,669 " stroke="#000000" stroke-width="2px" />

    
    <polyline class="AnPolyline" fill="none" points="2388,665 2432,665 2432,902 " stroke="#000000" stroke-width="2px" />

    
    <polyline class="AnPolyline" fill="none" points="1618,786 1793,786 1793,903 1618,903 1618,786 " stroke="#000000" stroke-width="2px" />

    
    <polyline class="AnPolyline" fill="none" points="1618,669 1793,669 1793,786 1618,786 1618,669 " stroke="#000000" stroke-width="2px" />

    
    <polyline class="AnPolyline" fill="none" points="1792,669 1840,669 " stroke="#000000" stroke-width="2px" />

    
    <polyline class="AnPolyline" fill="none" points="1206,345 1353,345 1353,460 1206,460 1206,345 " stroke="#000000" stroke-width="2px" />

    
    <polyline class="AnPolyline" fill="none" points="101,198 248,198 248,313 101,313 101,198 " stroke="#000000" stroke-width="2px" />

    
    <polyline class="AnPolyline" fill="none" points="2432,666 2432,574 " stroke="#000000" stroke-width="2px" />

    
    <polyline class="AnPolyline" fill="none" points="24,146 1554,146 1554,1058 24,1058 24,146 " stroke="#000000" stroke-width="3px" />

    
    <polyline class="AnPolyline" fill="none" points="1586,501 2530,501 2530,1058 1586,1058 1586,501 " stroke="#000000" stroke-width="3px" />

  
  </g>

  
  <g class="AnLayer" id="Background">

    
    <polyline class="AnPolyline" fill="none" points="1722,978 2502,978 " stroke="#000000" stroke-width="1px" />

    
    <polyline class="AnPolyline" fill="none" points="1732,968 2111,968 " stroke="#000000" stroke-width="1px" />

    
    <polyline class="AnPolyline" fill="none" points="1742,958 2111,958 " stroke="#000000" stroke-width="1px" />

    
    <polyline class="AnPolyline" fill="none" points="1752,948 2111,948 " stroke="#000000" stroke-width="1px" />

    
    <polyline class="AnPolyline" fill="none" points="1762,938 2111,938 " stroke="#000000" stroke-width="1px" />

    
    <polyline class="AnPolyline" fill="none" points="1762,903 1762,938 " stroke="#000000" stroke-width="1px" />

    
    <polyline class="AnPolyline" fill="none" points="1722,903 1722,978 " stroke="#000000" stroke-width="1px" />

    
    <polyline class="AnPolyline" fill="none" points="1732,903 1732,968 " stroke="#000000" stroke-width="1px" />

    
    <polyline class="AnPolyline" fill="none" points="1742,903 1742,958 " stroke="#000000" stroke-width="1px" />

    
    <polyline class="AnPolyline" fill="none" points="1752,903 1752,948 " stroke="#000000" stroke-width="1px" />

    
    <polyline class="AnPolyline" fill="none" points="1722,903 1722,959 " stroke="#000000" stroke-width="1px" />

    
    <polyline class="AnPolyline" fill="none" points="1772,928 2111,928 " stroke="#000000" stroke-width="1px" />

    
    <polyline class="AnPolyline" fill="none" points="1772,903 1772,928 " stroke="#000000" stroke-width="1px" />

    
    <polyline class="AnPolyline" fill="none" points="2113,908 2432,908 " stroke="#000000" stroke-width="1px" />

    
    <polyline class="AnPolyline" fill="none" points="2113,918 2442,918 " stroke="#000000" stroke-width="1px" />

    
    <polyline class="AnPolyline" fill="none" points="2113,928 2452,928 " stroke="#000000" stroke-width="1px" />

    
    <polyline class="AnPolyline" fill="none" points="2113,938 2462,938 " stroke="#000000" stroke-width="1px" />

    
    <polyline class="AnPolyline" fill="none" points="2113,948 2472,948 " stroke="#000000" stroke-width="1px" />

    
    <polyline class="AnPolyline" fill="none" points="2113,958 2482,958 " stroke="#000000" stroke-width="1px" />

    
    <polyline class="AnPolyline" fill="none" points="2113,968 2267,968 " stroke="#000000" stroke-width="1px" />

    
    <polyline class="AnPolyline" fill="none" points="2111,898 2111,975 " stroke="#000000" stroke-width="1px" />

    
    <polyline class="AnPolyline" fill="none" points="2113,898 2113,975 " stroke="#000000" stroke-width="1px" />

    
    <polyline class="AnPolyline" fill="none" points="2502,903 2502,978 " stroke="#000000" stroke-width="1px" />

    
    <polyline class="AnPolyline" fill="none" points="2452,903 2452,928 " stroke="#000000" stroke-width="1px" />

    
    <polyline class="AnPolyline" fill="none" points="2462,903 2462,938 " stroke="#000000" stroke-width="1px" />

    
    <polyline class="AnPolyline" fill="none" points="2472,903 2472,948 " stroke="#000000" stroke-width="1px" />

    
    <polyline class="AnPolyline" fill="none" points="2482,903 2482,958 " stroke="#000000" stroke-width="1px" />

    
    <polyline class="AnPolyline" fill="none" points="2492,903 2492,968 " stroke="#000000" stroke-width="1px" />

    
    <polyline class="AnPolyline" fill="none" points="1782,918 2111,918 " stroke="#000000" stroke-width="1px" />

    
    <polyline class="AnPolyline" fill="none" points="1792,908 2111,908 " stroke="#000000" stroke-width="1px" />

    
    <polyline class="AnPolyline" fill="none" points="1782,903 1782,918 " stroke="#000000" stroke-width="1px" />

    
    <polyline class="AnPolyline" fill="none" points="1792,903 1792,908 " stroke="#000000" stroke-width="1px" />

    
    <polyline class="AnPolyline" fill="none" points="2111,898 2113,898 " stroke="#000000" stroke-width="1px" />

    
    <polyline class="AnPolyline" fill="none" points="2442,903 2442,918 " stroke="#000000" stroke-width="1px" />

    
    <polyline class="AnPolyline" fill="none" points="2432,903 2432,908 " stroke="#000000" stroke-width="1px" />

    
    <polyline class="AnPolyline" fill="none" points="2432,903 2432,895 " stroke="#000000" stroke-width="1px" />

    
    <polyline class="AnPolyline" fill="none" points="2111,975 2113,975 " stroke="#000000" stroke-width="1px" />

    
    <polyline class="AnPolyline" fill="none" points="2267,968 2492,968 " stroke="#000000" stroke-width="1px" />

    
    <polyline class="AnPolyline" fill="none" points="2432,903 2502,903 " stroke="#000000" stroke-width="3px" />

  
  </g>

  
  <g class="AnLayer" id="Equipement Text">

    
    <g>

      
      <text class="AnText" fill="#000000" font-family="Arial" font-size="12" font-style="normal" font-weight="normal" text-decoration="none" transform="matrix(1.575380,0.000000,0.000000,1.575380,1627.510010,152.776993)" x="0px" y="12px">Station</text>

      
      <text class="AnText" fill="#000000" font-family="Arial" font-size="12" font-style="normal" font-weight="normal" text-decoration="none" transform="matrix(1.575380,0.000000,0.000000,1.575380,1617.510010,173.776993)" x="0px" y="12px">Computer</text>

    
    </g>

  
  </g>

  
  <g class="AnLayer" id="Layout_AFC">

  
  </g>

  
  <g class="AnLayer" id="Layout_AFC_Label">

    
    <text class="AnText" fill="#000000" font-family="Arial" font-size="12" font-style="normal" font-weight="normal" text-decoration="none" transform="matrix(1.575380,0.000000,0.000000,1.575380,274.511993,457.777008)" x="0px" y="12px">GAT-034</text>

    
    <text class="AnText" fill="#000000" font-family="Arial" font-size="12" font-style="normal" font-weight="normal" text-decoration="none" transform="matrix(1.575380,0.000000,0.000000,1.575380,274.511993,487.777008)" x="0px" y="12px">GAT-035</text>

    
    <text class="AnText" fill="#000000" font-family="Arial" font-size="12" font-style="normal" font-weight="normal" text-decoration="none" transform="matrix(1.575380,0.000000,0.000000,1.575380,274.511993,515.776978)" x="0px" y="12px">GAT-036</text>

    
    <text class="AnText" fill="#000000" font-family="Arial" font-size="12" font-style="normal" font-weight="normal" text-decoration="none" transform="matrix(1.575380,0.000000,0.000000,1.575380,274.511993,543.776978)" x="0px" y="12px">GAT-037</text>

    
    <text class="AnText" fill="#000000" font-family="Arial" font-size="12" font-style="normal" font-weight="normal" text-decoration="none" transform="matrix(1.575380,0.000000,0.000000,1.575380,274.511993,573.776978)" x="0px" y="12px">GAT-038</text>

    
    <text class="AnText" fill="#000000" font-family="Arial" font-size="12" font-style="normal" font-weight="normal" text-decoration="none" transform="matrix(1.575380,0.000000,0.000000,1.575380,274.511993,602.776978)" x="0px" y="12px">GAT-039</text>

    
    <text class="AnText" fill="#000000" font-family="Arial" font-size="12" font-style="normal" font-weight="normal" text-decoration="none" transform="matrix(1.575380,0.000000,0.000000,1.575380,274.511993,632.776978)" x="0px" y="12px">GAT-040</text>

    
    <text class="AnText" fill="#000000" font-family="Arial" font-size="12" font-style="normal" font-weight="normal" text-decoration="none" transform="matrix(1.575380,0.000000,0.000000,1.575380,274.511993,660.776978)" x="0px" y="12px">GAT-041</text>

    
    <text class="AnText" fill="#000000" font-family="Arial" font-size="12" font-style="normal" font-weight="normal" text-decoration="none" transform="matrix(1.575380,0.000000,0.000000,1.575380,274.511993,689.776978)" x="0px" y="12px">GAT-042</text>

    
    <text class="AnText" fill="#000000" font-family="Arial" font-size="12" font-style="normal" font-weight="normal" text-decoration="none" transform="matrix(1.575380,0.000000,0.000000,1.575380,274.511993,720.776978)" x="0px" y="12px">GAT-043</text>

    
    <text class="AnText" fill="#000000" font-family="Arial" font-size="12" font-style="normal" font-weight="normal" text-decoration="none" transform="matrix(1.575380,0.000000,0.000000,1.575380,274.511993,750.776978)" x="0px" y="12px">GAT-044</text>

    
    <text class="AnText" fill="#000000" font-family="Arial" font-size="12" font-style="normal" font-weight="normal" text-decoration="none" transform="matrix(1.575380,0.000000,0.000000,1.575380,1185.510010,584.776978)" x="0px" y="12px">GAT-102</text>

    
    <text class="AnText" fill="#000000" font-family="Arial" font-size="12" font-style="normal" font-weight="normal" text-decoration="none" transform="matrix(1.575380,0.000000,0.000000,1.575380,1185.510010,614.776978)" x="0px" y="12px">GAT-012</text>

    
    <text class="AnText" fill="#000000" font-family="Arial" font-size="12" font-style="normal" font-weight="normal" text-decoration="none" transform="matrix(1.575380,0.000000,0.000000,1.575380,1185.510010,642.776978)" x="0px" y="12px">GAT-011</text>

    
    <text class="AnText" fill="#000000" font-family="Arial" font-size="12" font-style="normal" font-weight="normal" text-decoration="none" transform="matrix(1.575380,0.000000,0.000000,1.575380,1185.510010,672.776978)" x="0px" y="12px">GAT-010</text>

    
    <text class="AnText" fill="#000000" font-family="Arial" font-size="12" font-style="normal" font-weight="normal" text-decoration="none" transform="matrix(1.575380,0.000000,0.000000,1.575380,1185.510010,703.776978)" x="0px" y="12px">GAT-009</text>

    
    <text class="AnText" fill="#000000" font-family="Arial" font-size="12" font-style="normal" font-weight="normal" text-decoration="none" transform="matrix(1.575380,0.000000,0.000000,1.575380,1185.510010,733.776978)" x="0px" y="12px">GAT-006</text>

    
    <text class="AnText" fill="#000000" font-family="Arial" font-size="12" font-style="normal" font-weight="normal" text-decoration="none" transform="matrix(1.575380,0.000000,0.000000,1.575380,1441.510010,784.776978)" x="0px" y="12px">GAT-101</text>

    
    <text class="AnText" fill="#000000" font-family="Arial" font-size="12" font-style="normal" font-weight="normal" text-decoration="none" transform="matrix(1.575380,0.000000,0.000000,1.575380,1441.510010,814.776978)" x="0px" y="12px">GAT-007</text>

    
    <text class="AnText" fill="#000000" font-family="Arial" font-size="12" font-style="normal" font-weight="normal" text-decoration="none" transform="matrix(1.575380,0.000000,0.000000,1.575380,1441.510010,842.776978)" x="0px" y="12px">GAT-005</text>

    
    <text class="AnText" fill="#000000" font-family="Arial" font-size="12" font-style="normal" font-weight="normal" text-decoration="none" transform="matrix(1.575380,0.000000,0.000000,1.575380,1441.510010,872.776978)" x="0px" y="12px">GAT-004</text>

    
    <text class="AnText" fill="#000000" font-family="Arial" font-size="12" font-style="normal" font-weight="normal" text-decoration="none" transform="matrix(1.575380,0.000000,0.000000,1.575380,1441.510010,903.776978)" x="0px" y="12px">GAT-003</text>

    
    <text class="AnText" fill="#000000" font-family="Arial" font-size="12" font-style="normal" font-weight="normal" text-decoration="none" transform="matrix(1.575380,0.000000,0.000000,1.575380,1441.510010,933.776978)" x="0px" y="12px">GAT-002</text>

    
    <text class="AnText" fill="#000000" font-family="Arial" font-size="12" font-style="normal" font-weight="normal" text-decoration="none" transform="matrix(1.575380,0.000000,0.000000,1.575380,2193.510010,729.776978)" x="0px" y="12px">GAT-068</text>

    
    <text class="AnText" fill="#000000" font-family="Arial" font-size="12" font-style="normal" font-weight="normal" text-decoration="none" transform="matrix(1.575380,0.000000,0.000000,1.575380,2192.510010,754.776978)" x="0px" y="12px">GAT-067</text>

    
    <text class="AnText" fill="#000000" font-family="Arial" font-size="12" font-style="normal" font-weight="normal" text-decoration="none" transform="matrix(1.575380,0.000000,0.000000,1.575380,2193.510010,779.776978)" x="0px" y="12px">GAT-066</text>

    
    <text class="AnText" fill="#000000" font-family="Arial" font-size="12" font-style="normal" font-weight="normal" text-decoration="none" transform="matrix(1.575380,0.000000,0.000000,1.575380,2194.510010,804.776978)" x="0px" y="12px">GAT-065</text>

    
    <polyline class="AnPolyline" fill="none" points="2290,706 2290,742 2274,742 " stroke="#000000" stroke-width="1px" />

    
    <polyline class="AnPolyline" fill="none" points="2317,706 2317,766 2275,766 " stroke="#000000" stroke-width="1px" />

    
    <polyline class="AnPolyline" fill="none" points="2321,718 2317,706 2314,718 " stroke="#000000" stroke-width="1px" />

    
    <polyline class="AnPolyline" fill="none" points="2349,705 2349,792 2276,792 " stroke="#000000" stroke-width="1px" />

    
    <polyline class="AnPolyline" fill="none" points="2377,706 2377,817 2276,817 " stroke="#000000" stroke-width="1px" />

    
    <polyline class="AnPolyline" fill="none" points="2294,718 2290,706 2287,718 " stroke="#000000" stroke-width="1px" />

    
    <polyline class="AnPolyline" fill="none" points="2353,717 2349,705 2346,717 " stroke="#000000" stroke-width="1px" />

    
    <polyline class="AnPolyline" fill="none" points="2381,718 2377,706 2374,718 " stroke="#000000" stroke-width="1px" />

    
    <text class="AnText" fill="#000000" font-family="Arial" font-size="12" font-style="normal" font-weight="normal" text-decoration="none" transform="matrix(1.575380,0.000000,0.000000,1.575380,2278.510010,552.776978)" x="0px" y="12px">GAT-161</text>

    
    <text class="AnText" fill="#000000" font-family="Arial" font-size="12" font-style="normal" font-weight="normal" text-decoration="none" transform="matrix(1.575380,0.000000,0.000000,1.575380,2278.510010,528.776978)" x="0px" y="12px">GAT-162</text>

    
    <text class="AnText" fill="#000000" font-family="Arial" font-size="12" font-style="normal" font-weight="normal" text-decoration="none" transform="matrix(1.575380,0.000000,0.000000,1.575380,2278.510010,575.776978)" x="0px" y="12px">GAT-070</text>

    
    <polyline class="AnPolyline" fill="none" points="2260,622 2260,588 2274,588 " stroke="#000000" stroke-width="1px" />

    
    <polyline class="AnPolyline" fill="none" points="2256,611 2260,622 2264,611 " stroke="#000000" stroke-width="1px" />

    
    <polyline class="AnPolyline" fill="none" points="2229,622 2229,566 2274,566 " stroke="#000000" stroke-width="1px" />

    
    <polyline class="AnPolyline" fill="none" points="2225,611 2229,622 2233,611 " stroke="#000000" stroke-width="1px" />

    
    <polyline class="AnPolyline" fill="none" points="2199,622 2199,542 2273,542 " stroke="#000000" stroke-width="1px" />

    
    <polyline class="AnPolyline" fill="none" points="2196,611 2199,622 2202,611 " stroke="#000000" stroke-width="1px" />

  
  </g>

  
  <g class="AnLayer" id="Layout_Room_Label">

    
    <text class="AnText" fill="#000000" font-family="Arial" font-size="12" font-style="normal" font-weight="normal" text-decoration="none" transform="matrix(1.575380,0.000000,0.000000,1.575380,1672.290039,830.776978)" x="0px" y="12px">Shop 2</text>

    
    <text class="AnText" fill="#000000" font-family="Arial" font-size="12" font-style="normal" font-weight="normal" text-decoration="none" transform="matrix(1.575380,0.000000,0.000000,1.575380,1675.290039,716.776978)" x="0px" y="12px">Shop 1</text>

    
    <g>

      
      <text class="AnText" fill="#000000" font-family="Arial" font-size="12" font-style="normal" font-weight="normal" text-decoration="none" transform="matrix(1.575380,0.000000,0.000000,1.575380,1872.469971,569.752014)" x="0px" y="12px">Ticket</text>

      
      <text class="AnText" fill="#000000" font-family="Arial" font-size="12" font-style="normal" font-weight="normal" text-decoration="none" transform="matrix(1.575380,0.000000,0.000000,1.575380,1872.469971,588.151978)" x="0px" y="12px">Fare</text>

      
      <text class="AnText" fill="#000000" font-family="Arial" font-size="12" font-style="normal" font-weight="normal" text-decoration="none" transform="matrix(1.575380,0.000000,0.000000,1.575380,1872.469971,628.952026)" x="0px" y="12px">Office</text>

      
      <text class="AnText" fill="#000000" font-family="Arial" font-size="12" font-style="normal" font-weight="normal" text-decoration="none" transform="matrix(1.575380,0.000000,0.000000,1.575380,1872.469971,608.151978)" x="0px" y="12px">Adjustment</text>

    
    </g>

    
    <text class="AnText" fill="#000000" font-family="Arial" font-size="12" font-style="normal" font-weight="normal" text-decoration="none" transform="matrix(1.575380,0.000000,0.000000,1.575380,1246.319946,369.511993)" x="0px" y="12px">Customer</text>

    
    <text class="AnText" fill="#000000" font-family="Arial" font-size="12" font-style="normal" font-weight="normal" text-decoration="none" transform="matrix(1.575380,0.000000,0.000000,1.575380,1248.420044,393.569000)" x="0px" y="12px">Services</text>

    
    <text class="AnText" fill="#000000" font-family="Arial" font-size="12" font-style="normal" font-weight="normal" text-decoration="none" transform="matrix(1.575380,0.000000,0.000000,1.575380,1253.489990,415.777008)" x="0px" y="12px">Centre</text>

    
    <g>

      
      <text class="AnText" fill="#000000" font-family="Arial" font-size="12" font-style="normal" font-weight="normal" text-decoration="none" transform="matrix(1.575380,0.000000,0.000000,1.575380,159.287994,212.776993)" x="0px" y="12px">New</text>

      
      <text class="AnText" fill="#000000" font-family="Arial" font-size="12" font-style="normal" font-weight="normal" text-decoration="none" transform="matrix(1.575380,0.000000,0.000000,1.575380,149.352005,271.152008)" x="0px" y="12px">Centre</text>

      
      <text class="AnText" fill="#000000" font-family="Arial" font-size="12" font-style="normal" font-weight="normal" text-decoration="none" transform="matrix(1.575380,0.000000,0.000000,1.575380,139.608002,231.951996)" x="0px" y="12px">Customer</text>

      
      <text class="AnText" fill="#000000" font-family="Arial" font-size="12" font-style="normal" font-weight="normal" text-decoration="none" transform="matrix(1.575380,0.000000,0.000000,1.575380,144.231995,251.151993)" x="0px" y="12px">Services</text>

    
    </g>

    
    <g>

      
      <text class="AnText" fill="#000000" font-family="Arial" font-size="12" font-style="normal" font-weight="normal" text-decoration="none" transform="matrix(1.890460,0.000000,0.000000,1.890460,2048.659912,736.442017)" x="0px" y="12px">Platform</text>

      
      <text class="AnText" fill="#000000" font-family="Arial" font-size="12" font-style="normal" font-weight="normal" text-decoration="none" transform="matrix(1.890460,0.000000,0.000000,1.890460,2026.569946,759.062012)" x="0px" y="12px">(Unpaid Area)</text>

    
    </g>

    
    <g>

      
      <text class="AnText" fill="#000000" font-family="Arial" font-size="12" font-style="normal" font-weight="normal" text-decoration="none" transform="matrix(1.890460,0.000000,0.000000,1.890460,2054.739990,555.122009)" x="0px" y="12px">Platform</text>

      
      <text class="AnText" fill="#000000" font-family="Arial" font-size="12" font-style="normal" font-weight="normal" text-decoration="none" transform="matrix(1.890460,0.000000,0.000000,1.890460,2040.709961,578.702026)" x="0px" y="12px">(Paid Area)</text>

    
    </g>

    
    <text class="AnText" fill="#000000" font-family="Arial" font-size="12" font-style="normal" font-weight="normal" text-decoration="none" transform="matrix(2.835700,0.000000,0.000000,2.835700,661.903992,1077.180054)" x="0px" y="12px">FAN Concourse</text>

    
    <text class="AnText" fill="#000000" font-family="Arial" font-size="12" font-style="normal" font-weight="normal" text-decoration="none" transform="matrix(2.835700,0.000000,0.000000,2.835700,1969.500000,1077.180054)" x="0px" y="12px">FAN Platform</text>

    
    <g>

      
      <text class="AnText" fill="#000000" font-family="Arial" font-size="12" font-style="normal" font-weight="normal" text-decoration="none" transform="matrix(1.890460,0.000000,0.000000,1.890460,403.735992,607.442017)" x="0px" y="12px">Concourse</text>

      
      <text class="AnText" fill="#000000" font-family="Arial" font-size="12" font-style="normal" font-weight="normal" text-decoration="none" transform="matrix(1.890460,0.000000,0.000000,1.890460,390.247986,631.862000)" x="0px" y="12px">(Unpaid Area)</text>

      
      <text class="AnText" fill="#000000" font-family="Arial" font-size="12" font-style="normal" font-weight="normal" text-decoration="none" transform="matrix(1.890460,0.000000,0.000000,1.890460,409.739990,584.442017)" x="0px" y="12px">Southern</text>

    
    </g>

    
    <g>

      
      <text class="AnText" fill="#000000" font-family="Arial" font-size="12" font-style="normal" font-weight="normal" text-decoration="none" transform="matrix(1.890460,0.000000,0.000000,1.890460,909.656006,647.442017)" x="0px" y="12px">Concourse</text>

      
      <text class="AnText" fill="#000000" font-family="Arial" font-size="12" font-style="normal" font-weight="normal" text-decoration="none" transform="matrix(1.890460,0.000000,0.000000,1.890460,898.567993,671.862000)" x="0px" y="12px">(Unpaid Area)</text>

      
      <text class="AnText" fill="#000000" font-family="Arial" font-size="12" font-style="normal" font-weight="normal" text-decoration="none" transform="matrix(1.890460,0.000000,0.000000,1.890460,919.659973,625.442017)" x="0px" y="12px">Northern</text>

    
    </g>

    
    <g>

      
      <text class="AnText" fill="#000000" font-family="Arial" font-size="12" font-style="normal" font-weight="normal" text-decoration="none" transform="matrix(1.890460,0.000000,0.000000,1.890460,1311.939941,635.122009)" x="0px" y="12px">Concourse </text>

      
      <text class="AnText" fill="#000000" font-family="Arial" font-size="12" font-style="normal" font-weight="normal" text-decoration="none" transform="matrix(1.890460,0.000000,0.000000,1.890460,1311.709961,660.702026)" x="0px" y="12px">(Paid Area)</text>

    
    </g>

    
    <g>

      
      <text class="AnText" fill="#000000" font-family="Arial" font-size="12" font-style="normal" font-weight="normal" text-decoration="none" transform="matrix(1.890460,0.000000,0.000000,1.890460,47.936001,596.122009)" x="0px" y="12px">Concourse </text>

      
      <text class="AnText" fill="#000000" font-family="Arial" font-size="12" font-style="normal" font-weight="normal" text-decoration="none" transform="matrix(1.890460,0.000000,0.000000,1.890460,45.512001,619.702026)" x="0px" y="12px">(Paid Area) </text>

    
    </g>

  
  </g>

</svg>