<?xml version='1.0' encoding='UTF-8'?>
<svg xmlns="http://www.w3.org/2000/svg" height="2443" preserveAspectRatio="xMinYMin meet" style="background-color:#D2D2D2;" version="1.1" viewBox="0 0 4786 2443" width="4786">

  
  <g class="AnLayer" id="AnDefaultLayer">

    
    <polygon class="AnPolygon" fill="#FFFFFF" fill-rule="evenodd" points="581,847 1260,847 1260,936 581,936 581,847 " />

  
  </g>

  
  <g class="AnLayer" id="Background">

    
    <line class="AnLine" fill="none" stroke="#8902AB" stroke-width="2px" x1="4203px" x2="4203px" y1="141px" y2="92px" />

    
    <line class="AnLine" fill="none" stroke="#000000" stroke-dasharray=" 3 3" stroke-dashoffset="0" stroke-width="1px" x1="511px" x2="4201px" y1="372px" y2="372px" />

    
    <line class="AnLine" fill="none" stroke="#000000" stroke-dasharray=" 3 3" stroke-dashoffset="0" stroke-width="1px" x1="511px" x2="1909px" y1="770px" y2="770px" />

    
    <line class="AnLine" fill="none" stroke="#000000" stroke-dasharray=" 3 3" stroke-dashoffset="0" stroke-width="1px" x1="2690px" x2="4204px" y1="770px" y2="770px" />

    
    <line class="AnLine" fill="none" stroke="#000000" stroke-dasharray=" 21 3" stroke-dashoffset="0" stroke-width="1px" x1="2005px" x2="2592px" y1="1195px" y2="1195px" />

    
    <line class="AnLine" fill="none" stroke="#000000" stroke-dasharray=" 21 3" stroke-dashoffset="0" stroke-width="1px" x1="2299px" x2="2299px" y1="1195px" y2="1778px" />

    
    <g>

      
      <line class="AnLine" fill="none" stroke="#000000" stroke-dasharray=" 3 3" stroke-dashoffset="0" stroke-width="1px" x1="1261px" x2="1501px" y1="2066px" y2="2066px" />

      
      <line class="AnLine" fill="none" stroke="#000000" stroke-dasharray=" 3 3" stroke-dashoffset="0" stroke-width="1px" x1="1261px" x2="1261px" y1="2343px" y2="2066px" />

      
      <line class="AnLine" fill="none" stroke="#000000" stroke-dasharray=" 3 3" stroke-dashoffset="0" stroke-width="1px" x1="1501px" x2="1261px" y1="2343px" y2="2343px" />

      
      <line class="AnLine" fill="none" stroke="#000000" stroke-dasharray=" 3 3" stroke-dashoffset="0" stroke-width="1px" x1="1501px" x2="1501px" y1="2066px" y2="2343px" />

    
    </g>

    
    <g>

      
      <line class="AnLine" fill="none" stroke="#FFFFCF" stroke-width="2px" x1="4051px" x2="4051px" y1="830px" y2="2024px" />

      
      <line class="AnLine" fill="none" stroke="#FFFFCF" stroke-width="2px" x1="565px" x2="565px" y1="2024px" y2="830px" />

      
      <line class="AnLine" fill="none" stroke="#FFFFCF" stroke-width="2px" x1="565px" x2="4051px" y1="830px" y2="830px" />

      
      <line class="AnLine" fill="none" stroke="#FFFFCF" stroke-width="2px" x1="4051px" x2="565px" y1="2024px" y2="2024px" />

    
    </g>

    
    <polyline class="AnPolyline" fill="none" points="1981,770 2617,770 " stroke="#000000" stroke-dasharray=" 3 3" stroke-dashoffset="0" stroke-width="1px" />

    
    <line class="AnLine" fill="none" stroke="#8902AB" stroke-width="2px" x1="2641px" x2="2707px" y1="1405px" y2="1405px" />

    
    <line class="AnLine" fill="none" stroke="#8902AB" stroke-width="2px" x1="2665px" x2="2641px" y1="1351px" y2="1357px" />

    
    <line class="AnLine" fill="none" stroke="#8902AB" stroke-width="2px" x1="2641px" x2="2629px" y1="1357px" y2="1363px" />

    
    <line class="AnLine" fill="none" stroke="#8902AB" stroke-width="2px" x1="2629px" x2="2623px" y1="1363px" y2="1375px" />

    
    <line class="AnLine" fill="none" stroke="#8902AB" stroke-width="2px" x1="2623px" x2="2623px" y1="1375px" y2="1387px" />

    
    <line class="AnLine" fill="none" stroke="#8902AB" stroke-width="2px" x1="2623px" x2="2629px" y1="1387px" y2="1393px" />

    
    <line class="AnLine" fill="none" stroke="#8902AB" stroke-width="2px" x1="2629px" x2="2641px" y1="1393px" y2="1405px" />

    
    <line class="AnLine" fill="none" stroke="#8902AB" stroke-width="2px" x1="2665px" x2="2641px" y1="1453px" y2="1447px" />

    
    <line class="AnLine" fill="none" stroke="#8902AB" stroke-width="2px" x1="2641px" x2="2629px" y1="1447px" y2="1441px" />

    
    <line class="AnLine" fill="none" stroke="#8902AB" stroke-width="2px" x1="2629px" x2="2623px" y1="1441px" y2="1429px" />

    
    <line class="AnLine" fill="none" stroke="#8902AB" stroke-width="2px" x1="2623px" x2="2623px" y1="1429px" y2="1423px" />

    
    <line class="AnLine" fill="none" stroke="#8902AB" stroke-width="2px" x1="2623px" x2="2629px" y1="1423px" y2="1411px" />

    
    <line class="AnLine" fill="none" stroke="#8902AB" stroke-width="2px" x1="2629px" x2="2641px" y1="1411px" y2="1405px" />

    
    <line class="AnLine" fill="none" stroke="#8902AB" stroke-width="2px" x1="2821px" x2="3110px" y1="1702px" y2="1702px" />

    
    <line class="AnLine" fill="none" stroke="#8902AB" stroke-width="2px" x1="2641px" x2="3110px" y1="1552px" y2="1552px" />

    
    <text class="AnText" fill="#000000" font-family="Arial" font-size="12" font-style="normal" font-weight="normal" text-decoration="none" transform="matrix(2.461700,0.000000,0.000000,2.457600,3013.409912,1608.369995)" x="0px" y="12px">MD1</text>

    
    <line class="AnLine" fill="none" stroke="#8902AB" stroke-width="2px" x1="3152px" x2="3188px" y1="1552px" y2="1552px" />

    
    <circle class="AnCircle" cx="3206px" cy="1552px" fill="none" r="18.00px" stroke="#8902AB" stroke-width="2px" />

    
    <line class="AnLine" fill="none" stroke="#8902AB" stroke-width="2px" x1="3152px" x2="3188px" y1="1702px" y2="1702px" />

    
    <circle class="AnCircle" cx="3206px" cy="1702px" fill="none" r="18.00px" stroke="#8902AB" stroke-width="2px" />

    
    <circle class="AnCircle" cx="3044px" cy="1630px" fill="none" r="42.00px" stroke="#000000" stroke-width="1px" />

    
    <line class="AnLine" fill="none" stroke="#8902AB" stroke-width="2px" x1="3044px" x2="3044px" y1="1588px" y2="1552px" />

    
    <line class="AnLine" fill="none" stroke="#8902AB" stroke-width="2px" x1="3044px" x2="3044px" y1="1672px" y2="1702px" />

    
    <line class="AnLine" fill="none" stroke="#8902AB" stroke-width="2px" x1="3152px" x2="3110px" y1="1540px" y2="1540px" />

    
    <line class="AnLine" fill="none" stroke="#8902AB" stroke-width="2px" x1="3110px" x2="3110px" y1="1540px" y2="1570px" />

    
    <line class="AnLine" fill="none" stroke="#8902AB" stroke-width="2px" x1="3110px" x2="3152px" y1="1570px" y2="1570px" />

    
    <line class="AnLine" fill="none" stroke="#8902AB" stroke-width="2px" x1="3152px" x2="3152px" y1="1570px" y2="1540px" />

    
    <line class="AnLine" fill="none" stroke="#8902AB" stroke-width="2px" x1="3152px" x2="3110px" y1="1684px" y2="1684px" />

    
    <line class="AnLine" fill="none" stroke="#8902AB" stroke-width="2px" x1="3110px" x2="3110px" y1="1684px" y2="1714px" />

    
    <line class="AnLine" fill="none" stroke="#8902AB" stroke-width="2px" x1="3110px" x2="3152px" y1="1714px" y2="1714px" />

    
    <line class="AnLine" fill="none" stroke="#8902AB" stroke-width="2px" x1="3152px" x2="3152px" y1="1714px" y2="1684px" />

    
    <circle class="AnCircle" cx="2851px" cy="1630px" fill="none" r="42.00px" stroke="#000000" stroke-width="1px" />

    
    <circle class="AnCircle" cx="2947px" cy="1630px" fill="none" r="42.00px" stroke="#000000" stroke-width="1px" />

    
    <g>

      
      <line class="AnLine" fill="none" stroke="#000000" stroke-width="1px" x1="2978px" x2="2917px" y1="1602px" y2="1602px" />

      
      <line class="AnLine" fill="none" stroke="#000000" stroke-width="1px" x1="2917px" x2="2917px" y1="1602px" y2="1656px" />

      
      <line class="AnLine" fill="none" stroke="#000000" stroke-width="1px" x1="2917px" x2="2978px" y1="1656px" y2="1656px" />

      
      <line class="AnLine" fill="none" stroke="#000000" stroke-width="1px" x1="2978px" x2="2978px" y1="1656px" y2="1602px" />

    
    </g>

    
    <text class="AnText" fill="#000000" font-family="Arial" font-size="12" font-style="normal" font-weight="normal" text-decoration="none" transform="matrix(2.461700,0.000000,0.000000,2.457600,2835.050049,1608.369995)" x="0px" y="12px">PF</text>

    
    <line class="AnLine" fill="none" stroke="#8902AB" stroke-width="2px" x1="2948px" x2="2948px" y1="1588px" y2="1552px" />

    
    <line class="AnLine" fill="none" stroke="#8902AB" stroke-width="2px" x1="2851px" x2="2851px" y1="1588px" y2="1552px" />

    
    <line class="AnLine" fill="none" stroke="#8902AB" stroke-width="2px" x1="2629px" x2="2623px" y1="1516px" y2="1528px" />

    
    <line class="AnLine" fill="none" stroke="#8902AB" stroke-width="2px" x1="2623px" x2="2623px" y1="1528px" y2="1534px" />

    
    <line class="AnLine" fill="none" stroke="#8902AB" stroke-width="2px" x1="2665px" x2="2641px" y1="1504px" y2="1510px" />

    
    <line class="AnLine" fill="none" stroke="#8902AB" stroke-width="2px" x1="2641px" x2="2629px" y1="1510px" y2="1516px" />

    
    <line class="AnLine" fill="none" stroke="#8902AB" stroke-width="2px" x1="2623px" x2="2629px" y1="1534px" y2="1546px" />

    
    <line class="AnLine" fill="none" stroke="#8902AB" stroke-width="2px" x1="2629px" x2="2641px" y1="1546px" y2="1552px" />

    
    <line class="AnLine" fill="none" stroke="#8902AB" stroke-width="2px" x1="2665px" x2="2641px" y1="1606px" y2="1600px" />

    
    <line class="AnLine" fill="none" stroke="#8902AB" stroke-width="2px" x1="2641px" x2="2629px" y1="1600px" y2="1594px" />

    
    <line class="AnLine" fill="none" stroke="#8902AB" stroke-width="2px" x1="2629px" x2="2623px" y1="1594px" y2="1582px" />

    
    <line class="AnLine" fill="none" stroke="#8902AB" stroke-width="2px" x1="2623px" x2="2623px" y1="1582px" y2="1570px" />

    
    <line class="AnLine" fill="none" stroke="#8902AB" stroke-width="2px" x1="2623px" x2="2629px" y1="1570px" y2="1564px" />

    
    <line class="AnLine" fill="none" stroke="#8902AB" stroke-width="2px" x1="2629px" x2="2641px" y1="1564px" y2="1552px" />

    
    <line class="AnLine" fill="none" stroke="#8902AB" stroke-width="2px" x1="2948px" x2="2948px" y1="1672px" y2="1702px" />

    
    <line class="AnLine" fill="none" stroke="#8902AB" stroke-width="2px" x1="2851px" x2="2851px" y1="1672px" y2="1702px" />

    
    <line class="AnLine" fill="none" stroke="#8902AB" stroke-width="2px" x1="2653px" x2="2700px" y1="1702px" y2="1702px" />

    
    <g>

      
      <circle class="AnCircle" cx="2718px" cy="1702px" fill="none" r="18.00px" stroke="#8902AB" stroke-width="2px" />

      
      <circle class="AnCircle" cx="2802px" cy="1702px" fill="none" r="18.00px" stroke="#8902AB" stroke-width="2px" />

      
      <line class="AnLine" fill="none" stroke="#8902AB" stroke-width="2px" x1="2794px" x2="2727px" y1="1686px" y2="1717px" />

      
      <line class="AnLine" fill="none" stroke="#8902AB" stroke-width="2px" x1="2727px" x2="2794px" y1="1686px" y2="1717px" />

    
    </g>

    
    <g>

      
      <line class="AnLine" fill="none" stroke="#8902AB" stroke-width="2px" x1="2917px" x2="2966px" y1="950px" y2="950px" />

      
      <circle class="AnCircle" cx="2990px" cy="950px" fill="none" r="24.00px" stroke="#8902AB" stroke-width="2px" />

      
      <line class="AnLine" fill="none" stroke="#8902AB" stroke-width="2px" x1="2962px" x2="2974px" y1="921px" y2="933px" />

      
      <line class="AnLine" fill="none" stroke="#8902AB" stroke-width="2px" x1="3025px" x2="3007px" y1="921px" y2="933px" />

      
      <line class="AnLine" fill="none" stroke="#8902AB" stroke-width="2px" x1="2971px" x2="2959px" y1="963px" y2="975px" />

      
      <line class="AnLine" fill="none" stroke="#8902AB" stroke-width="2px" x1="3008px" x2="3026px" y1="965px" y2="983px" />

    
    </g>

    
    <g>

      
      <line class="AnLine" fill="none" stroke="#8902AB" stroke-width="2px" x1="3014px" x2="3062px" y1="950px" y2="950px" />

      
      <circle class="AnCircle" cx="3086px" cy="950px" fill="none" r="24.00px" stroke="#8902AB" stroke-width="2px" />

      
      <line class="AnLine" fill="none" stroke="#8902AB" stroke-width="2px" x1="3058px" x2="3070px" y1="921px" y2="933px" />

      
      <line class="AnLine" fill="none" stroke="#8902AB" stroke-width="2px" x1="3121px" x2="3103px" y1="921px" y2="933px" />

      
      <line class="AnLine" fill="none" stroke="#8902AB" stroke-width="2px" x1="3067px" x2="3055px" y1="963px" y2="975px" />

      
      <line class="AnLine" fill="none" stroke="#8902AB" stroke-width="2px" x1="3104px" x2="3122px" y1="965px" y2="983px" />

    
    </g>

    
    <g>

      
      <line class="AnLine" fill="none" stroke="#8902AB" stroke-width="2px" x1="2821px" x2="2869px" y1="950px" y2="950px" />

      
      <circle class="AnCircle" cx="2893px" cy="950px" fill="none" r="24.00px" stroke="#8902AB" stroke-width="2px" />

      
      <line class="AnLine" fill="none" stroke="#8902AB" stroke-width="2px" x1="2865px" x2="2877px" y1="921px" y2="933px" />

      
      <line class="AnLine" fill="none" stroke="#8902AB" stroke-width="2px" x1="2929px" x2="2910px" y1="921px" y2="933px" />

      
      <line class="AnLine" fill="none" stroke="#8902AB" stroke-width="2px" x1="2874px" x2="2862px" y1="963px" y2="975px" />

      
      <line class="AnLine" fill="none" stroke="#8902AB" stroke-width="2px" x1="2911px" x2="2930px" y1="965px" y2="983px" />

    
    </g>

    
    <g>

      
      <line class="AnLine" fill="none" stroke="#8902AB" stroke-width="2px" x1="2653px" x2="2701px" y1="950px" y2="950px" />

      
      <g>

        
        <circle class="AnCircle" cx="2719px" cy="950px" fill="none" r="18.00px" stroke="#8902AB" stroke-width="2px" />

        
        <circle class="AnCircle" cx="2803px" cy="950px" fill="none" r="18.00px" stroke="#8902AB" stroke-width="2px" />

        
        <line class="AnLine" fill="none" stroke="#8902AB" stroke-width="2px" x1="2795px" x2="2728px" y1="934px" y2="965px" />

        
        <line class="AnLine" fill="none" stroke="#8902AB" stroke-width="2px" x1="2728px" x2="2795px" y1="934px" y2="965px" />

      
      </g>

    
    </g>

    
    <line class="AnLine" fill="none" stroke="#8902AB" stroke-width="2px" x1="2821px" x2="2869px" y1="1044px" y2="1044px" />

    
    <polyline class="AnPolyline" fill="none" points="2919,1025 2869,1025 2869,1062 2919,1062 2919,1025 " stroke="#8902AB" stroke-width="2px" />

    
    <line class="AnLine" fill="none" stroke="#8902AB" stroke-width="2px" x1="2653px" x2="2701px" y1="1044px" y2="1044px" />

    
    <g>

      
      <circle class="AnCircle" cx="2719px" cy="1044px" fill="none" r="18.00px" stroke="#8902AB" stroke-width="2px" />

      
      <circle class="AnCircle" cx="2803px" cy="1044px" fill="none" r="18.00px" stroke="#8902AB" stroke-width="2px" />

      
      <polyline class="AnPolyline" fill="none" points="2793,1029 2725,1061 " stroke="#8902AB" stroke-width="2px" />

      
      <polyline class="AnPolyline" fill="none" points="2794,1059 2728,1028 " stroke="#8902AB" stroke-width="2px" />

    
    </g>

    
    <text class="AnText" fill="#000000" font-family="Arial" font-size="12" font-style="normal" font-weight="normal" text-decoration="none" transform="matrix(4.006670,0.000000,0.000000,4.000000,3070.199951,858.000000)" x="0px" y="12px">R</text>

    
    <text class="AnText" fill="#000000" font-family="Arial" font-size="12" font-style="normal" font-weight="normal" text-decoration="none" transform="matrix(4.006670,0.000000,0.000000,4.000000,2973.360107,858.000000)" x="0px" y="12px">Y</text>

    
    <text class="AnText" fill="#000000" font-family="Arial" font-size="12" font-style="normal" font-weight="normal" text-decoration="none" transform="matrix(4.006670,0.000000,0.000000,4.000000,2875.530029,858.000000)" x="0px" y="12px">B</text>

    
    <line class="AnLine" fill="none" stroke="#8902AB" stroke-width="2px" x1="1957px" x2="1891px" y1="1405px" y2="1405px" />

    
    <line class="AnLine" fill="none" stroke="#8902AB" stroke-width="2px" x1="1933px" x2="1957px" y1="1351px" y2="1357px" />

    
    <line class="AnLine" fill="none" stroke="#8902AB" stroke-width="2px" x1="1957px" x2="1969px" y1="1357px" y2="1363px" />

    
    <line class="AnLine" fill="none" stroke="#8902AB" stroke-width="2px" x1="1969px" x2="1975px" y1="1363px" y2="1375px" />

    
    <line class="AnLine" fill="none" stroke="#8902AB" stroke-width="2px" x1="1975px" x2="1975px" y1="1375px" y2="1387px" />

    
    <line class="AnLine" fill="none" stroke="#8902AB" stroke-width="2px" x1="1975px" x2="1969px" y1="1387px" y2="1393px" />

    
    <line class="AnLine" fill="none" stroke="#8902AB" stroke-width="2px" x1="1969px" x2="1957px" y1="1393px" y2="1405px" />

    
    <line class="AnLine" fill="none" stroke="#8902AB" stroke-width="2px" x1="1933px" x2="1957px" y1="1453px" y2="1447px" />

    
    <line class="AnLine" fill="none" stroke="#8902AB" stroke-width="2px" x1="1957px" x2="1969px" y1="1447px" y2="1441px" />

    
    <line class="AnLine" fill="none" stroke="#8902AB" stroke-width="2px" x1="1969px" x2="1975px" y1="1441px" y2="1429px" />

    
    <line class="AnLine" fill="none" stroke="#8902AB" stroke-width="2px" x1="1975px" x2="1975px" y1="1429px" y2="1423px" />

    
    <line class="AnLine" fill="none" stroke="#8902AB" stroke-width="2px" x1="1975px" x2="1969px" y1="1423px" y2="1411px" />

    
    <line class="AnLine" fill="none" stroke="#8902AB" stroke-width="2px" x1="1969px" x2="1957px" y1="1411px" y2="1405px" />

    
    <g>

      
      <line class="AnLine" fill="none" stroke="#000000" stroke-dasharray=" 3 3" stroke-dashoffset="0" stroke-width="1px" x1="3043px" x2="3283px" y1="2061px" y2="2061px" />

      
      <line class="AnLine" fill="none" stroke="#000000" stroke-dasharray=" 3 3" stroke-dashoffset="0" stroke-width="1px" x1="3043px" x2="3043px" y1="2338px" y2="2061px" />

      
      <line class="AnLine" fill="none" stroke="#000000" stroke-dasharray=" 3 3" stroke-dashoffset="0" stroke-width="1px" x1="3283px" x2="3043px" y1="2338px" y2="2338px" />

      
      <line class="AnLine" fill="none" stroke="#000000" stroke-dasharray=" 3 3" stroke-dashoffset="0" stroke-width="1px" x1="3283px" x2="3283px" y1="2061px" y2="2338px" />

    
    </g>

    
    <line class="AnLine" fill="none" stroke="#8902AB" stroke-width="2px" x1="4203px" x2="4203px" y1="2356px" y2="682px" />

    
    <line class="AnLine" fill="none" stroke="#8902AB" stroke-width="2px" x1="4203px" x2="4203px" y1="481px" y2="302px" />

    
    <g>

      
      <g>

        
        <polygon class="AnPolygon" fill="#E0E4E5" fill-rule="evenodd" points="2617,752 2689,752 2689,788 2617,788 2617,752 " />

        
        <polyline class="AnPolyline" fill="none" points="2617,752 2689,752 2689,788 2617,788 2617,752 " stroke="#000000" stroke-width="1px" />

      
      </g>

      
      <line class="AnLine" fill="none" stroke="#8902AB" stroke-width="2px" x1="2689px" x2="2617px" y1="752px" y2="752px" />

      
      <line class="AnLine" fill="none" stroke="#8902AB" stroke-width="2px" x1="2617px" x2="2617px" y1="752px" y2="788px" />

      
      <line class="AnLine" fill="none" stroke="#8902AB" stroke-width="2px" x1="2617px" x2="2689px" y1="788px" y2="788px" />

      
      <line class="AnLine" fill="none" stroke="#8902AB" stroke-width="2px" x1="2689px" x2="2689px" y1="788px" y2="752px" />

    
    </g>

    
    <g>

      
      <g>

        
        <polygon class="AnPolygon" fill="#E0E4E5" fill-rule="evenodd" points="1909,752 1981,752 1981,788 1909,788 1909,752 " />

        
        <polyline class="AnPolyline" fill="none" points="1909,752 1981,752 1981,788 1909,788 1909,752 " stroke="#000000" stroke-width="1px" />

      
      </g>

      
      <line class="AnLine" fill="none" stroke="#8902AB" stroke-width="2px" x1="1981px" x2="1909px" y1="752px" y2="752px" />

      
      <line class="AnLine" fill="none" stroke="#8902AB" stroke-width="2px" x1="1909px" x2="1909px" y1="752px" y2="788px" />

      
      <line class="AnLine" fill="none" stroke="#8902AB" stroke-width="2px" x1="1909px" x2="1981px" y1="788px" y2="788px" />

      
      <line class="AnLine" fill="none" stroke="#8902AB" stroke-width="2px" x1="1981px" x2="1981px" y1="788px" y2="752px" />

    
    </g>

    
    <text class="AnText" fill="#000000" font-family="Arial" font-size="12" font-style="normal" font-weight="normal" text-decoration="none" transform="matrix(4.000000,0.000000,0.000000,4.000000,1497.000000,855.000000)" x="0px" y="12px">R</text>

    
    <text class="AnText" fill="#000000" font-family="Arial" font-size="12" font-style="normal" font-weight="normal" text-decoration="none" transform="matrix(4.000000,0.000000,0.000000,4.000000,1590.000000,855.000000)" x="0px" y="12px">Y</text>

    
    <text class="AnText" fill="#000000" font-family="Arial" font-size="12" font-style="normal" font-weight="normal" text-decoration="none" transform="matrix(4.000000,0.000000,0.000000,4.000000,1690.000000,855.000000)" x="0px" y="12px">B</text>

    
    <g>

      
      <g>

        
        <line class="AnLine" fill="none" stroke="#8902AB" stroke-width="2px" x1="1681px" x2="1633px" y1="950px" y2="950px" />

        
        <circle class="AnCircle" cx="1609px" cy="950px" fill="none" r="24.00px" stroke="#8902AB" stroke-width="2px" />

        
        <line class="AnLine" fill="none" stroke="#8902AB" stroke-width="2px" x1="1637px" x2="1625px" y1="921px" y2="933px" />

        
        <line class="AnLine" fill="none" stroke="#8902AB" stroke-width="2px" x1="1574px" x2="1592px" y1="921px" y2="933px" />

        
        <line class="AnLine" fill="none" stroke="#8902AB" stroke-width="2px" x1="1628px" x2="1640px" y1="963px" y2="975px" />

        
        <line class="AnLine" fill="none" stroke="#8902AB" stroke-width="2px" x1="1591px" x2="1573px" y1="965px" y2="983px" />

      
      </g>

      
      <g>

        
        <line class="AnLine" fill="none" stroke="#8902AB" stroke-width="2px" x1="1585px" x2="1537px" y1="950px" y2="950px" />

        
        <circle class="AnCircle" cx="1513px" cy="950px" fill="none" r="24.00px" stroke="#8902AB" stroke-width="2px" />

        
        <line class="AnLine" fill="none" stroke="#8902AB" stroke-width="2px" x1="1541px" x2="1529px" y1="921px" y2="933px" />

        
        <line class="AnLine" fill="none" stroke="#8902AB" stroke-width="2px" x1="1478px" x2="1496px" y1="921px" y2="933px" />

        
        <line class="AnLine" fill="none" stroke="#8902AB" stroke-width="2px" x1="1532px" x2="1544px" y1="963px" y2="975px" />

        
        <line class="AnLine" fill="none" stroke="#8902AB" stroke-width="2px" x1="1495px" x2="1477px" y1="965px" y2="983px" />

      
      </g>

      
      <g>

        
        <line class="AnLine" fill="none" stroke="#8902AB" stroke-width="2px" x1="1777px" x2="1729px" y1="950px" y2="950px" />

        
        <circle class="AnCircle" cx="1705px" cy="950px" fill="none" r="24.00px" stroke="#8902AB" stroke-width="2px" />

        
        <line class="AnLine" fill="none" stroke="#8902AB" stroke-width="2px" x1="1733px" x2="1721px" y1="921px" y2="933px" />

        
        <line class="AnLine" fill="none" stroke="#8902AB" stroke-width="2px" x1="1670px" x2="1688px" y1="921px" y2="933px" />

        
        <line class="AnLine" fill="none" stroke="#8902AB" stroke-width="2px" x1="1724px" x2="1736px" y1="963px" y2="975px" />

        
        <line class="AnLine" fill="none" stroke="#8902AB" stroke-width="2px" x1="1687px" x2="1669px" y1="965px" y2="983px" />

      
      </g>

      
      <g>

        
        <line class="AnLine" fill="none" stroke="#8902AB" stroke-width="2px" x1="1945px" x2="1897px" y1="950px" y2="950px" />

        
        <g>

          
          <circle class="AnCircle" cx="1879px" cy="950px" fill="none" r="18.00px" stroke="#8902AB" stroke-width="2px" />

          
          <circle class="AnCircle" cx="1795px" cy="950px" fill="none" r="18.00px" stroke="#8902AB" stroke-width="2px" />

          
          <line class="AnLine" fill="none" stroke="#8902AB" stroke-width="2px" x1="1803px" x2="1870px" y1="934px" y2="965px" />

          
          <line class="AnLine" fill="none" stroke="#8902AB" stroke-width="2px" x1="1870px" x2="1803px" y1="934px" y2="965px" />

        
        </g>

      
      </g>

      
      <line class="AnLine" fill="none" stroke="#8902AB" stroke-width="2px" x1="1777px" x2="1729px" y1="1044px" y2="1044px" />

      
      <polyline class="AnPolyline" fill="none" points="1679,1025 1729,1025 1729,1062 1679,1062 1679,1025 " stroke="#8902AB" stroke-width="2px" />

      
      <line class="AnLine" fill="none" stroke="#8902AB" stroke-width="2px" x1="1945px" x2="1897px" y1="1044px" y2="1044px" />

      
      <g>

        
        <circle class="AnCircle" cx="1879px" cy="1044px" fill="none" r="18.00px" stroke="#8902AB" stroke-width="2px" />

        
        <circle class="AnCircle" cx="1795px" cy="1044px" fill="none" r="18.00px" stroke="#8902AB" stroke-width="2px" />

        
        <polyline class="AnPolyline" fill="none" points="1805,1029 1873,1061 " stroke="#8902AB" stroke-width="2px" />

        
        <polyline class="AnPolyline" fill="none" points="1804,1059 1870,1028 " stroke="#8902AB" stroke-width="2px" />

      
      </g>

    
    </g>

    
    <line class="AnLine" fill="none" stroke="#000000" stroke-width="1px" x1="1681px" x2="1891px" y1="1435px" y2="1369px" />

    
    <line class="AnLine" fill="none" stroke="#8902AB" stroke-width="2px" x1="1681px" x2="1891px" y1="1369px" y2="1369px" />

    
    <line class="AnLine" fill="none" stroke="#8902AB" stroke-width="2px" x1="1891px" x2="1891px" y1="1369px" y2="1435px" />

    
    <line class="AnLine" fill="none" stroke="#8902AB" stroke-width="2px" x1="1891px" x2="1681px" y1="1435px" y2="1435px" />

    
    <line class="AnLine" fill="none" stroke="#8902AB" stroke-width="2px" x1="1681px" x2="1681px" y1="1435px" y2="1369px" />

    
    <text class="AnText" fill="#000000" font-family="Arial" font-size="12" font-style="normal" font-weight="normal" text-decoration="none" transform="matrix(2.457600,0.000000,0.000000,2.457600,1693.449951,1370.530029)" x="0px" y="12px">O/C</text>

    
    <text class="AnText" fill="#000000" font-family="Arial" font-size="12" font-style="normal" font-weight="normal" text-decoration="none" transform="matrix(2.457600,0.000000,0.000000,2.457600,1838.500000,1389.530029)" x="0px" y="12px">E/F</text>

    
    <line class="AnLine" fill="none" stroke="#000000" stroke-width="1px" x1="2708px" x2="2918px" y1="1438px" y2="1372px" />

    
    <line class="AnLine" fill="none" stroke="#8902AB" stroke-width="2px" x1="2708px" x2="2918px" y1="1372px" y2="1372px" />

    
    <line class="AnLine" fill="none" stroke="#8902AB" stroke-width="2px" x1="2918px" x2="2918px" y1="1372px" y2="1438px" />

    
    <line class="AnLine" fill="none" stroke="#8902AB" stroke-width="2px" x1="2918px" x2="2708px" y1="1438px" y2="1438px" />

    
    <line class="AnLine" fill="none" stroke="#8902AB" stroke-width="2px" x1="2708px" x2="2708px" y1="1438px" y2="1372px" />

    
    <text class="AnText" fill="#000000" font-family="Arial" font-size="12" font-style="normal" font-weight="normal" text-decoration="none" transform="matrix(2.457600,0.000000,0.000000,2.457600,2722.449951,1374.530029)" x="0px" y="12px">O/C</text>

    
    <text class="AnText" fill="#000000" font-family="Arial" font-size="12" font-style="normal" font-weight="normal" text-decoration="none" transform="matrix(2.457600,0.000000,0.000000,2.457600,2865.500000,1392.530029)" x="0px" y="12px">E/F</text>

    
    <line class="AnLine" fill="none" stroke="#8902AB" stroke-width="2px" x1="1777px" x2="1489px" y1="1702px" y2="1702px" />

    
    <line class="AnLine" fill="none" stroke="#8902AB" stroke-width="2px" x1="1957px" x2="1489px" y1="1552px" y2="1552px" />

    
    <text class="AnText" fill="#000000" font-family="Arial" font-size="12" font-style="normal" font-weight="normal" text-decoration="none" transform="matrix(2.457600,0.000000,0.000000,2.457600,1524.209961,1607.369995)" x="0px" y="12px">MD1</text>

    
    <line class="AnLine" fill="none" stroke="#8902AB" stroke-width="2px" x1="1447px" x2="1411px" y1="1552px" y2="1552px" />

    
    <circle class="AnCircle" cx="1393px" cy="1552px" fill="none" r="18.00px" stroke="#8902AB" stroke-width="2px" />

    
    <line class="AnLine" fill="none" stroke="#8902AB" stroke-width="2px" x1="1447px" x2="1411px" y1="1702px" y2="1702px" />

    
    <circle class="AnCircle" cx="1393px" cy="1702px" fill="none" r="18.00px" stroke="#8902AB" stroke-width="2px" />

    
    <circle class="AnCircle" cx="1555px" cy="1630px" fill="none" r="42.00px" stroke="#000000" stroke-width="1px" />

    
    <line class="AnLine" fill="none" stroke="#8902AB" stroke-width="2px" x1="1555px" x2="1555px" y1="1588px" y2="1552px" />

    
    <line class="AnLine" fill="none" stroke="#8902AB" stroke-width="2px" x1="1555px" x2="1555px" y1="1672px" y2="1702px" />

    
    <line class="AnLine" fill="none" stroke="#8902AB" stroke-width="2px" x1="1447px" x2="1489px" y1="1540px" y2="1540px" />

    
    <line class="AnLine" fill="none" stroke="#8902AB" stroke-width="2px" x1="1489px" x2="1489px" y1="1540px" y2="1570px" />

    
    <line class="AnLine" fill="none" stroke="#8902AB" stroke-width="2px" x1="1489px" x2="1447px" y1="1570px" y2="1570px" />

    
    <line class="AnLine" fill="none" stroke="#8902AB" stroke-width="2px" x1="1447px" x2="1447px" y1="1570px" y2="1540px" />

    
    <line class="AnLine" fill="none" stroke="#8902AB" stroke-width="2px" x1="1447px" x2="1489px" y1="1684px" y2="1684px" />

    
    <line class="AnLine" fill="none" stroke="#8902AB" stroke-width="2px" x1="1489px" x2="1489px" y1="1684px" y2="1714px" />

    
    <line class="AnLine" fill="none" stroke="#8902AB" stroke-width="2px" x1="1489px" x2="1447px" y1="1714px" y2="1714px" />

    
    <line class="AnLine" fill="none" stroke="#8902AB" stroke-width="2px" x1="1447px" x2="1447px" y1="1714px" y2="1684px" />

    
    <circle class="AnCircle" cx="1747px" cy="1630px" fill="none" r="42.00px" stroke="#000000" stroke-width="1px" />

    
    <circle class="AnCircle" cx="1651px" cy="1630px" fill="none" r="42.00px" stroke="#000000" stroke-width="1px" />

    
    <g>

      
      <line class="AnLine" fill="none" stroke="#000000" stroke-width="1px" x1="1621px" x2="1681px" y1="1602px" y2="1602px" />

      
      <line class="AnLine" fill="none" stroke="#000000" stroke-width="1px" x1="1681px" x2="1681px" y1="1602px" y2="1656px" />

      
      <line class="AnLine" fill="none" stroke="#000000" stroke-width="1px" x1="1681px" x2="1621px" y1="1656px" y2="1656px" />

      
      <line class="AnLine" fill="none" stroke="#000000" stroke-width="1px" x1="1621px" x2="1621px" y1="1656px" y2="1602px" />

    
    </g>

    
    <text class="AnText" fill="#000000" font-family="Arial" font-size="12" font-style="normal" font-weight="normal" text-decoration="none" transform="matrix(2.457600,0.000000,0.000000,2.457600,1732.380005,1607.369995)" x="0px" y="12px">PF</text>

    
    <line class="AnLine" fill="none" stroke="#8902AB" stroke-width="2px" x1="1651px" x2="1651px" y1="1588px" y2="1552px" />

    
    <line class="AnLine" fill="none" stroke="#8902AB" stroke-width="2px" x1="1747px" x2="1747px" y1="1588px" y2="1552px" />

    
    <line class="AnLine" fill="none" stroke="#8902AB" stroke-width="2px" x1="1969px" x2="1975px" y1="1516px" y2="1528px" />

    
    <line class="AnLine" fill="none" stroke="#8902AB" stroke-width="2px" x1="1975px" x2="1975px" y1="1528px" y2="1534px" />

    
    <line class="AnLine" fill="none" stroke="#8902AB" stroke-width="2px" x1="1933px" x2="1957px" y1="1504px" y2="1510px" />

    
    <line class="AnLine" fill="none" stroke="#8902AB" stroke-width="2px" x1="1957px" x2="1969px" y1="1510px" y2="1516px" />

    
    <line class="AnLine" fill="none" stroke="#8902AB" stroke-width="2px" x1="1975px" x2="1969px" y1="1534px" y2="1546px" />

    
    <line class="AnLine" fill="none" stroke="#8902AB" stroke-width="2px" x1="1969px" x2="1957px" y1="1546px" y2="1552px" />

    
    <line class="AnLine" fill="none" stroke="#8902AB" stroke-width="2px" x1="1933px" x2="1957px" y1="1606px" y2="1600px" />

    
    <line class="AnLine" fill="none" stroke="#8902AB" stroke-width="2px" x1="1957px" x2="1969px" y1="1600px" y2="1594px" />

    
    <line class="AnLine" fill="none" stroke="#8902AB" stroke-width="2px" x1="1969px" x2="1975px" y1="1594px" y2="1582px" />

    
    <line class="AnLine" fill="none" stroke="#8902AB" stroke-width="2px" x1="1975px" x2="1975px" y1="1582px" y2="1570px" />

    
    <line class="AnLine" fill="none" stroke="#8902AB" stroke-width="2px" x1="1975px" x2="1969px" y1="1570px" y2="1564px" />

    
    <line class="AnLine" fill="none" stroke="#8902AB" stroke-width="2px" x1="1969px" x2="1957px" y1="1564px" y2="1552px" />

    
    <line class="AnLine" fill="none" stroke="#8902AB" stroke-width="2px" x1="1651px" x2="1651px" y1="1672px" y2="1702px" />

    
    <line class="AnLine" fill="none" stroke="#8902AB" stroke-width="2px" x1="1747px" x2="1747px" y1="1672px" y2="1702px" />

    
    <line class="AnLine" fill="none" stroke="#8902AB" stroke-width="2px" x1="1945px" x2="1898px" y1="1702px" y2="1702px" />

    
    <g>

      
      <circle class="AnCircle" cx="1880px" cy="1702px" fill="none" r="18.00px" stroke="#8902AB" stroke-width="2px" />

      
      <circle class="AnCircle" cx="1796px" cy="1702px" fill="none" r="18.00px" stroke="#8902AB" stroke-width="2px" />

      
      <line class="AnLine" fill="none" stroke="#8902AB" stroke-width="2px" x1="1804px" x2="1871px" y1="1686px" y2="1717px" />

      
      <line class="AnLine" fill="none" stroke="#8902AB" stroke-width="2px" x1="1871px" x2="1804px" y1="1686px" y2="1717px" />

    
    </g>

  
  </g>

  
  <g class="AnLayer" id="Equipement">

    
    <g>

      
      <circle class="AnCircle" cx="1945px" cy="648px" fill="none" r="43.00px" stroke="#000000" stroke-width="2px" />

      
      <circle class="AnCircle" cx="1945px" cy="583px" fill="none" r="43.00px" stroke="#000000" stroke-width="2px" />

    
    </g>

    
    <g>

      
      <circle class="AnCircle" cx="2653px" cy="648px" fill="none" r="43.00px" stroke="#000000" stroke-width="2px" />

      
      <circle class="AnCircle" cx="2653px" cy="583px" fill="none" r="43.00px" stroke="#000000" stroke-width="2px" />

    
    </g>

    
    <circle class="AnCircle" cx="3163px" cy="1953px" fill="#E0E4E5" fill-rule="evenodd" r="18.00px" />

    
    <circle class="AnCircle" cx="3163px" cy="1900px" fill="#E0E4E5" fill-rule="evenodd" r="18.00px" />

    
    <circle class="AnCircle" cx="3163px" cy="1953px" fill="none" r="18.00px" stroke="#8902AB" stroke-width="2px" />

    
    <circle class="AnCircle" cx="3163px" cy="1900px" fill="none" r="18.00px" stroke="#8902AB" stroke-width="2px" />

    
    <polyline class="AnPolyline" fill="none" points="3196,1910 3226,1944 " stroke="#8902AB" stroke-width="2px" />

    
    <polyline class="AnPolyline" fill="none" points="3196,1944 3225,1910 " stroke="#8902AB" stroke-width="2px" />

    
    <circle class="AnCircle" cx="3211px" cy="1900px" fill="#E0E4E5" fill-rule="evenodd" r="18.00px" />

    
    <circle class="AnCircle" cx="3211px" cy="1900px" fill="none" r="18.00px" stroke="#8902AB" stroke-width="2px" />

    
    <circle class="AnCircle" cx="3211px" cy="1953px" fill="#E0E4E5" fill-rule="evenodd" r="18.00px" />

    
    <circle class="AnCircle" cx="3211px" cy="1953px" fill="none" r="18.00px" stroke="#8902AB" stroke-width="2px" />

    
    <g>

      
      <circle class="AnCircle" cx="1369px" cy="1952px" fill="#E0E4E5" fill-rule="evenodd" r="18.00px" />

      
      <circle class="AnCircle" cx="1369px" cy="1899px" fill="#E0E4E5" fill-rule="evenodd" r="18.00px" />

      
      <circle class="AnCircle" cx="1369px" cy="1952px" fill="none" r="18.00px" stroke="#8902AB" stroke-width="2px" />

      
      <circle class="AnCircle" cx="1369px" cy="1899px" fill="none" r="18.00px" stroke="#8902AB" stroke-width="2px" />

      
      <polyline class="AnPolyline" fill="none" points="1402,1909 1432,1943 " stroke="#8902AB" stroke-width="2px" />

      
      <polyline class="AnPolyline" fill="none" points="1402,1943 1431,1909 " stroke="#8902AB" stroke-width="2px" />

      
      <circle class="AnCircle" cx="1417px" cy="1899px" fill="#E0E4E5" fill-rule="evenodd" r="18.00px" />

      
      <circle class="AnCircle" cx="1417px" cy="1899px" fill="none" r="18.00px" stroke="#8902AB" stroke-width="2px" />

      
      <circle class="AnCircle" cx="1417px" cy="1952px" fill="#E0E4E5" fill-rule="evenodd" r="18.00px" />

      
      <circle class="AnCircle" cx="1417px" cy="1952px" fill="none" r="18.00px" stroke="#8902AB" stroke-width="2px" />

    
    </g>

  
  </g>

  
  <g class="AnLayer" id="Equipement Text">

    
    <text class="AnText" fill="#000000" font-family="Arial" font-size="12" font-style="normal" font-weight="normal" text-decoration="none" transform="matrix(4.800000,0.000000,0.000000,4.800000,1948.400024,210.800003)" x="0px" y="12px">SOURCE A</text>

    
    <text class="AnText" fill="#000000" font-family="Arial" font-size="12" font-style="normal" font-weight="normal" text-decoration="none" transform="matrix(4.800000,0.000000,0.000000,4.800000,2382.399902,210.800003)" x="0px" y="12px">SOURCE B</text>

    
    <text class="AnText" fill="#000000" font-family="Arial" font-size="12" font-style="normal" font-weight="normal" text-decoration="none" transform="matrix(4.000000,0.000000,0.000000,4.000000,1471.000000,595.000000)" x="0px" y="12px">11kV/380V</text>

    
    <text class="AnText" fill="#000000" font-family="Arial" font-size="12" font-style="normal" font-weight="normal" text-decoration="none" transform="matrix(4.000000,0.000000,0.000000,4.000000,1469.000000,649.000000)" x="0px" y="12px">TRANSFORMER</text>

    
    <text class="AnText" fill="#000000" font-family="Arial" font-size="12" font-style="normal" font-weight="normal" text-decoration="none" transform="matrix(4.000000,0.000000,0.000000,4.000000,1473.000000,702.000000)" x="0px" y="12px">(SOURCE A)</text>

    
    <text class="AnText" fill="#000000" font-family="Arial" font-size="12" font-style="normal" font-weight="normal" text-decoration="none" transform="matrix(4.000000,0.000000,0.000000,4.000000,1704.000000,1164.000000)" x="0px" y="12px">CLP-A1</text>

    
    <text class="AnText" fill="#000000" font-family="Arial" font-size="12" font-style="normal" font-weight="normal" text-decoration="none" transform="matrix(4.000000,0.000000,0.000000,4.000000,772.000000,1770.000000)" x="0px" y="12px">(380V 2500A TPN BUSBAR - ESSENTIAL)</text>

    
    <text class="AnText" fill="#000000" font-family="Arial" font-size="12" font-style="normal" font-weight="normal" text-decoration="none" transform="matrix(4.800000,0.000000,0.000000,4.800000,590.000000,868.799988)" x="0px" y="12px">380V CTVB - MCC - 001</text>

    
    <text class="AnText" fill="#000000" font-family="Arial" font-size="12" font-style="normal" font-weight="normal" text-decoration="none" transform="matrix(4.000000,0.000000,0.000000,4.000000,1984.000000,945.000000)" x="0px" y="12px">AUTOMATIC CHANGEOVER</text>

    
    <text class="AnText" fill="#000000" font-family="Arial" font-size="12" font-style="normal" font-weight="normal" text-decoration="none" transform="matrix(4.000000,0.000000,0.000000,4.000000,2037.000000,1001.000000)" x="0px" y="12px">WITH E&amp;M INTERLOCK</text>

    
    <text class="AnText" fill="#000000" font-family="Arial" font-size="12" font-style="normal" font-weight="normal" text-decoration="none" transform="matrix(4.000000,0.000000,0.000000,4.000000,2861.000000,1773.000000)" x="0px" y="12px">(380V 2500A TPN BUSBAR - ESSENTIAL)</text>

    
    <text class="AnText" fill="#000000" font-family="Arial" font-size="12" font-style="normal" font-weight="normal" text-decoration="none" transform="matrix(4.000000,0.000000,0.000000,4.000000,1515.000000,2160.000000)" x="0px" y="12px">CAPACITOR</text>

    
    <text class="AnText" fill="#000000" font-family="Arial" font-size="12" font-style="normal" font-weight="normal" text-decoration="none" transform="matrix(4.000000,0.000000,0.000000,4.000000,1515.000000,2214.000000)" x="0px" y="12px">BANK</text>

    
    <text class="AnText" fill="#000000" font-family="Arial" font-size="12" font-style="normal" font-weight="normal" text-decoration="none" transform="matrix(4.000000,0.000000,0.000000,4.000000,1515.000000,2267.000000)" x="0px" y="12px">CAP - 001</text>

    
    <text class="AnText" fill="#000000" font-family="Arial" font-size="12" font-style="normal" font-weight="normal" text-decoration="none" transform="matrix(4.000000,0.000000,0.000000,4.000000,3312.000000,2161.000000)" x="0px" y="12px">CAPACITOR</text>

    
    <text class="AnText" fill="#000000" font-family="Arial" font-size="12" font-style="normal" font-weight="normal" text-decoration="none" transform="matrix(4.000000,0.000000,0.000000,4.000000,3312.000000,2215.000000)" x="0px" y="12px">BANK</text>

    
    <text class="AnText" fill="#000000" font-family="Arial" font-size="12" font-style="normal" font-weight="normal" text-decoration="none" transform="matrix(4.000000,0.000000,0.000000,4.000000,3312.000000,2268.000000)" x="0px" y="12px">CAP - 002</text>

    
    <text class="AnText" fill="#000000" font-family="Arial" font-size="12" font-style="normal" font-weight="normal" text-decoration="none" transform="matrix(4.000000,0.000000,0.000000,4.000000,2733.000000,1169.000000)" x="0px" y="12px">CLP-B1</text>

    
    <text class="AnText" fill="#000000" font-family="Arial" font-size="12" font-style="normal" font-weight="normal" text-decoration="none" transform="matrix(4.000000,0.000000,0.000000,4.000000,2226.000000,1957.000000)" x="0px" y="12px">ACB-C</text>

    
    <text class="AnText" fill="#000000" font-family="Arial" font-size="12" font-style="normal" font-weight="normal" text-decoration="none" transform="matrix(4.000000,0.000000,0.000000,4.000000,2825.000000,587.000000)" x="0px" y="12px">11kV/380V</text>

    
    <text class="AnText" fill="#000000" font-family="Arial" font-size="12" font-style="normal" font-weight="normal" text-decoration="none" transform="matrix(4.000000,0.000000,0.000000,4.000000,2823.000000,641.000000)" x="0px" y="12px">TRANSFORMER</text>

    
    <text class="AnText" fill="#000000" font-family="Arial" font-size="12" font-style="normal" font-weight="normal" text-decoration="none" transform="matrix(4.000000,0.000000,0.000000,4.000000,2827.000000,694.000000)" x="0px" y="12px">(SOURCE B)</text>

    
    <text class="AnText" fill="#000000" font-family="Arial" font-size="12" font-style="normal" font-weight="normal" text-decoration="none" transform="matrix(4.000000,0.000000,0.000000,4.000000,4165.000000,148.000000)" x="0px" y="12px">CLP</text>

    
    <text class="AnText" fill="#000000" font-family="Arial" font-size="12" font-style="normal" font-weight="normal" text-decoration="none" transform="matrix(4.000000,0.000000,0.000000,4.000000,4037.000000,202.000000)" x="0px" y="12px">132kV/11kV P/S</text>

    
    <text class="AnText" fill="#000000" font-family="Arial" font-size="12" font-style="normal" font-weight="normal" text-decoration="none" transform="matrix(4.000000,0.000000,0.000000,4.000000,4057.000000,255.000000)" x="0px" y="12px">SUBSTATION</text>

    
    <text class="AnText" fill="#000000" font-family="Arial" font-size="12" font-style="normal" font-weight="normal" text-decoration="none" transform="matrix(4.000000,0.000000,0.000000,4.000000,4106.000000,507.000000)" x="0px" y="12px">CLP 11kV</text>

    
    <text class="AnText" fill="#000000" font-family="Arial" font-size="12" font-style="normal" font-weight="normal" text-decoration="none" transform="matrix(4.000000,0.000000,0.000000,4.000000,4040.000000,561.000000)" x="0px" y="12px">TRANSFORMER</text>

    
    <text class="AnText" fill="#000000" font-family="Arial" font-size="12" font-style="normal" font-weight="normal" text-decoration="none" transform="matrix(4.000000,0.000000,0.000000,4.000000,4142.000000,614.000000)" x="0px" y="12px">ROOM</text>

  
  </g>

  
  <g class="AnLayer" id="Pscada_Line">

    
    <polygon class="AnPolygon" fill="#8902AB" fill-rule="evenodd" points="1804,448 2803,448 2803,456 1804,456 1804,448 " />

    
    <polyline class="AnPolyline" fill="none" points="1369,1838 1369,1880 " stroke="#8902AB" stroke-width="2px" />

    
    <polyline class="AnPolyline" fill="none" points="1369,1970 1369,2096 " stroke="#8902AB" stroke-width="2px" />

    
    <line class="AnLine" fill="none" stroke="#8902AB" stroke-width="2px" x1="1369px" x2="1417px" y1="2096px" y2="2126px" />

    
    <line class="AnLine" fill="none" stroke="#8902AB" stroke-width="2px" x1="1369px" x2="1369px" y1="2145px" y2="2194px" />

    
    <polyline class="AnPolyline" fill="none" points="3163,1840 3163,1882 " stroke="#8902AB" stroke-width="2px" />

    
    <polyline class="AnPolyline" fill="none" points="3163,1971 3163,2098 " stroke="#8902AB" stroke-width="2px" />

    
    <line class="AnLine" fill="none" stroke="#8902AB" stroke-width="2px" x1="3163px" x2="3211px" y1="2098px" y2="2128px" />

    
    <line class="AnLine" fill="none" stroke="#8902AB" stroke-width="2px" x1="3163px" x2="3163px" y1="2147px" y2="2196px" />

    
    <g>

      
      <line class="AnLine" fill="none" stroke="#8902AB" stroke-width="2px" x1="2083px" x2="2083px" y1="289px" y2="451px" />

      
      <line class="AnLine" fill="none" stroke="#8902AB" stroke-width="2px" x1="2521px" x2="2521px" y1="289px" y2="451px" />

    
    </g>

    
    <g>

      
      <line class="AnLine" fill="none" stroke="#8902AB" stroke-width="2px" x1="1945px" x2="1945px" y1="541px" y2="451px" />

      
      <line class="AnLine" fill="none" stroke="#8902AB" stroke-width="2px" x1="2653px" x2="2653px" y1="541px" y2="451px" />

    
    </g>

    
    <g>

      
      <polyline class="AnPolyline" fill="none" points="2342,414 2268,488 " stroke="#8902AB" stroke-width="2px" />

      
      <polyline class="AnPolyline" fill="none" points="2268,414 2342,488 " stroke="#8902AB" stroke-width="2px" />

    
    </g>

    
    <polygon class="AnPolygon" fill="#8902AB" fill-rule="evenodd" points="751,1835 2239,1835 2239,1844 751,1844 751,1835 " />

    
    <polygon class="AnPolygon" fill="#8902AB" fill-rule="evenodd" points="2359,1835 3848,1835 3848,1844 2359,1844 2359,1835 " />

    
    <line class="AnLine" fill="none" stroke="#8902AB" stroke-width="2px" x1="1945px" x2="1945px" y1="691px" y2="752px" />

    
    <line class="AnLine" fill="none" stroke="#8902AB" stroke-width="2px" x1="2653px" x2="2653px" y1="691px" y2="752px" />

    
    <circle class="AnCircle" cx="2301px" cy="1841px" fill="none" r="75.00px" stroke="#FFFFFF" stroke-width="2px" />

    
    <polyline class="AnPolyline" fill="none" points="1945,1136 1945,788 " stroke="#8902AB" stroke-width="2px" />

    
    <polyline class="AnPolyline" fill="none" points="1945,1840 1945,1255 " stroke="#8902AB" stroke-width="2px" />

    
    <polyline class="AnPolyline" fill="none" points="2653,1135 2653,788 " stroke="#8902AB" stroke-width="2px" />

    
    <polyline class="AnPolyline" fill="none" points="2653,1840 2653,1256 " stroke="#8902AB" stroke-width="2px" />

  
  </g>

</svg>