<?xml version='1.0' encoding='UTF-8'?>
<svg xmlns="http://www.w3.org/2000/svg" height="1222" preserveAspectRatio="xMinYMin meet" style="background-color:#D2D2D2;" version="1.1" viewBox="0 0 2394 1222" width="2394">

  
  <g class="AnLayer" id="Background">

    
    <line class="AnLine" fill="none" stroke="#000000" stroke-width="2px" x1="32px" x2="2364px" y1="227px" y2="227px" />

    
    <g>

      
      <line class="AnLine" fill="none" stroke="#000000" stroke-width="2px" x1="1518px" x2="1518px" y1="126px" y2="1201px" />

      
      <line class="AnLine" fill="none" stroke="#000000" stroke-width="2px" x1="756px" x2="756px" y1="126px" y2="1201px" />

      
      <polyline class="AnPolyline" fill="none" points="30,125 2364,125 2364,1200 30,1200 30,125 " stroke="#000000" stroke-width="2px" />

    
    </g>

  
  </g>

  
  <g class="AnLayer" id="Equipement">

  
  </g>

  
  <g class="AnLayer" id="Equipement Text">

    
    <text class="AnText" fill="#000000" font-family="Arial" font-size="12" font-style="normal" font-weight="normal" text-decoration="none" transform="matrix(5.120000,0.000000,0.000000,5.120000,860.880005,19.600000)" x="0px" y="12px">Tunnel ECS-Control Summary</text>

    
    <text class="AnText" fill="#000000" font-family="Arial" font-size="12" font-style="normal" font-weight="normal" text-decoration="none" transform="matrix(2.792730,0.000000,0.000000,2.792730,1545.469971,260.054993)" x="0px" y="12px">Control Location</text>

    
    <text class="AnText" fill="#000000" font-family="Arial" font-size="12" font-style="normal" font-weight="normal" text-decoration="none" transform="matrix(2.792730,0.000000,0.000000,2.792730,1580.790039,858.054993)" x="0px" y="12px">LMC MLCP</text>

    
    <text class="AnText" fill="#000000" font-family="Arial" font-size="12" font-style="normal" font-weight="normal" text-decoration="none" transform="matrix(2.792730,0.000000,0.000000,2.792730,1581.359985,1007.049988)" x="0px" y="12px">SSVB LCP </text>

    
    <text class="AnText" fill="#000000" font-family="Arial" font-size="12" font-style="normal" font-weight="normal" text-decoration="none" transform="matrix(2.792730,0.000000,0.000000,2.792730,1864.329956,1007.049988)" x="0px" y="12px">CTVB LCP </text>

    
    <text class="AnText" fill="#000000" font-family="Arial" font-size="12" font-style="normal" font-weight="normal" text-decoration="none" transform="matrix(2.792730,0.000000,0.000000,2.792730,1604.839966,559.054993)" x="0px" y="12px">MT LMC</text>

    
    <text class="AnText" fill="#000000" font-family="Arial" font-size="12" font-style="normal" font-weight="normal" text-decoration="none" transform="matrix(2.792730,0.000000,0.000000,2.792730,1879.339966,559.054993)" x="0px" y="12px">MT CTVB</text>

    
    <text class="AnText" fill="#000000" font-family="Arial" font-size="12" font-style="normal" font-weight="normal" text-decoration="none" transform="matrix(2.792730,0.000000,0.000000,2.792730,2166.280029,559.054993)" x="0px" y="12px">MT IECC</text>

    
    <text class="AnText" fill="#000000" font-family="Arial" font-size="12" font-style="normal" font-weight="normal" text-decoration="none" transform="matrix(2.792730,0.000000,0.000000,2.792730,1623.400024,708.054993)" x="0px" y="12px">POT1</text>

    
    <text class="AnText" fill="#000000" font-family="Arial" font-size="12" font-style="normal" font-weight="normal" text-decoration="none" transform="matrix(2.792730,0.000000,0.000000,2.792730,1902.300049,708.054993)" x="0px" y="12px">POT2 </text>

    
    <text class="AnText" fill="#000000" font-family="Arial" font-size="12" font-style="normal" font-weight="normal" text-decoration="none" transform="matrix(2.792730,0.000000,0.000000,2.792730,1624.079956,411.054993)" x="0px" y="12px">ILCP </text>

    
    <text class="AnText" fill="#000000" font-family="Arial" font-size="12" font-style="normal" font-weight="normal" text-decoration="none" transform="matrix(4.096000,0.000000,0.000000,4.096000,1797.939941,150.695999)" x="0px" y="12px">LMC/SSV/CTV</text>

    
    <text class="AnText" fill="#000000" font-family="Arial" font-size="12" font-style="normal" font-weight="normal" text-decoration="none" transform="matrix(2.792730,0.000000,0.000000,2.792730,784.466980,260.054993)" x="0px" y="12px">Control Location</text>

    
    <text class="AnText" fill="#000000" font-family="Arial" font-size="12" font-style="normal" font-weight="normal" text-decoration="none" transform="matrix(2.792730,0.000000,0.000000,2.792730,817.651001,708.049988)" x="0px" y="12px">KTVB MLCP</text>

    
    <text class="AnText" fill="#000000" font-family="Arial" font-size="12" font-style="normal" font-weight="normal" text-decoration="none" transform="matrix(2.792730,0.000000,0.000000,2.792730,826.372986,858.049988)" x="0px" y="12px">KTVB MCC</text>

    
    <text class="AnText" fill="#000000" font-family="Arial" font-size="12" font-style="normal" font-weight="normal" text-decoration="none" transform="matrix(2.792730,0.000000,0.000000,2.792730,1105.310059,858.049988)" x="0px" y="12px">TWVB MCC</text>

    
    <text class="AnText" fill="#000000" font-family="Arial" font-size="12" font-style="normal" font-weight="normal" text-decoration="none" transform="matrix(2.792730,0.000000,0.000000,2.792730,888.421997,559.049988)" x="0px" y="12px">MT</text>

    
    <text class="AnText" fill="#000000" font-family="Arial" font-size="12" font-style="normal" font-weight="normal" text-decoration="none" transform="matrix(2.792730,0.000000,0.000000,2.792730,1159.489990,559.049988)" x="0px" y="12px">POT</text>

    
    <text class="AnText" fill="#000000" font-family="Arial" font-size="12" font-style="normal" font-weight="normal" text-decoration="none" transform="matrix(2.792730,0.000000,0.000000,2.792730,869.659973,411.054993)" x="0px" y="12px">IDCP</text>

    
    <text class="AnText" fill="#000000" font-family="Arial" font-size="12" font-style="normal" font-weight="normal" text-decoration="none" transform="matrix(2.792730,0.000000,0.000000,2.792730,1096.589966,708.049988)" x="0px" y="12px">TWVB MLCP</text>

    
    <text class="AnText" fill="#000000" font-family="Arial" font-size="12" font-style="normal" font-weight="normal" text-decoration="none" transform="matrix(4.096000,0.000000,0.000000,4.096000,368.231995,146.695999)" x="0px" y="12px">CHS</text>

    
    <text class="AnText" fill="#000000" font-family="Arial" font-size="12" font-style="normal" font-weight="normal" text-decoration="none" transform="matrix(4.096000,0.000000,0.000000,4.096000,966.229980,146.695999)" x="0px" y="12px">KOT/KTV/TWV</text>

  
  </g>

</svg>