<svg contentScriptType="text/ecmascript" width="3989.0" xmlns:xlink="http://www.w3.org/1999/xlink" zoomAndPan="magnify" contentStyleType="text/css" viewBox="0.0 0.0 3989.0 2037.0" height="2037.0" preserveAspectRatio="xMinYMin meet" xmlns="http://www.w3.org/2000/svg" version="1.1">

  
  <g class="AnLayer" id="Signalling_Track_Section">

    
    <g style="fill:#FF0000; " cmn_acla="C1166B_SIG_TACK_ActiveBackdrop" anclass="C1166B_SIG_TACK_ActiveBackdrop" class="C1166B_SIG_TACK_ActiveBackdrop ActiveBackdrop" id=":OCC:SIG:TACK0449_56" hv_id="OCC_OCCSIGTACK0449" anpath=":OCC:SIG:TACK0449">

      
      <g transform="matrix(1.000000, 0.000000, 0.000000, 1.000000, 0.000000, 0.000000)"><polygon class="AnPolygon" points="280,927 620,927 620,943 280,943 280,927 " fill-rule="evenodd"/>

    
    </g></g>

    
    <g style="fill:#FF0000; " cmn_acla="C1166B_SIG_TACK_ActiveBackdrop" anclass="C1166B_SIG_TACK_ActiveBackdrop" class="C1166B_SIG_TACK_ActiveBackdrop ActiveBackdrop" id=":OCC:SIG:TACK0443_57" hv_id="OCC_OCCSIGTACK0443" anpath=":OCC:SIG:TACK0443">

      
      <g transform="matrix(1.000000, 0.000000, 0.000000, 1.000000, 0.000000, 0.000000)"><polygon class="AnPolygon" points="650,927 810,927 810,943 650,943 650,927 " fill-rule="evenodd"/>

    
    </g></g>

    
    <g style="fill:#FF0000; " cmn_acla="C1166B_SIG_TACK_ActiveBackdrop" anclass="C1166B_SIG_TACK_ActiveBackdrop" class="C1166B_SIG_TACK_ActiveBackdrop ActiveBackdrop" id=":OCC:SIG:TACK0209_58" hv_id="OCC_OCCSIGTACK0209" anpath=":OCC:SIG:TACK0209">

      
      <g transform="matrix(1.000000, 0.000000, 0.000000, 1.000000, 0.000000, 0.000000)"><polygon class="AnPolygon" points="835,927 1055,927 1055,943 835,943 835,927 " fill-rule="evenodd"/>

    
    </g></g>

    
    <g style="fill:#FF0000; " cmn_acla="C1166B_SIG_TACK_ActiveBackdrop" anclass="C1166B_SIG_TACK_ActiveBackdrop" class="C1166B_SIG_TACK_ActiveBackdrop ActiveBackdrop" id=":OCC:SIG:TACK0210_59" hv_id="OCC_OCCSIGTACK0210" anpath=":OCC:SIG:TACK0210">

      
      <g transform="matrix(1.000000, 0.000000, 0.000000, 1.000000, 0.000000, 0.000000)"><polygon class="AnPolygon" points="1080,927 1420,927 1420,943 1080,943 1080,927 " fill-rule="evenodd"/>

    
    </g></g>

    
    <g style="fill:#FF0000; " cmn_acla="C1166B_SIG_TACK_ActiveBackdrop" anclass="C1166B_SIG_TACK_ActiveBackdrop" class="C1166B_SIG_TACK_ActiveBackdrop ActiveBackdrop" id=":OCC:SIG:TACK0211_60" hv_id="OCC_OCCSIGTACK0211" anpath=":OCC:SIG:TACK0211">

      
      <g transform="matrix(1.000000, 0.000000, 0.000000, 1.000000, 0.000000, 0.000000)"><polygon class="AnPolygon" points="1445,927 1785,927 1785,943 1445,943 1445,927 " fill-rule="evenodd"/>

    
    </g></g>

    
    <g style="fill:#FF0000; " cmn_acla="C1166B_SIG_TACK_ActiveBackdrop" anclass="C1166B_SIG_TACK_ActiveBackdrop" class="C1166B_SIG_TACK_ActiveBackdrop ActiveBackdrop" id=":OCC:SIG:TACK0212_61" hv_id="OCC_OCCSIGTACK0212" anpath=":OCC:SIG:TACK0212">

      
      <g transform="matrix(1.000000, 0.000000, 0.000000, 1.000000, 0.000000, 0.000000)"><polygon class="AnPolygon" points="1810,927 2150,927 2150,943 1810,943 1810,927 " fill-rule="evenodd"/>

    
    </g></g>

    
    <g style="fill:#FF0000; " cmn_acla="C1166B_SIG_TACK_ActiveBackdrop" anclass="C1166B_SIG_TACK_ActiveBackdrop" class="C1166B_SIG_TACK_ActiveBackdrop ActiveBackdrop" id=":OCC:SIG:TACK0213_62" hv_id="OCC_OCCSIGTACK0213" anpath=":OCC:SIG:TACK0213">

      
      <g transform="matrix(1.000000, 0.000000, 0.000000, 1.000000, 0.000000, 0.000000)"><polygon class="AnPolygon" points="2175,927 2515,927 2515,943 2175,943 2175,927 " fill-rule="evenodd"/>

    
    </g></g>

    
    <g style="fill:#FF0000; " cmn_acla="C1166B_SIG_TACK_ActiveBackdrop" anclass="C1166B_SIG_TACK_ActiveBackdrop" class="C1166B_SIG_TACK_ActiveBackdrop ActiveBackdrop" id=":OCC:SIG:TACK0214_63" hv_id="OCC_OCCSIGTACK0214" anpath=":OCC:SIG:TACK0214">

      
      <g transform="matrix(1.000000, 0.000000, 0.000000, 1.000000, 0.000000, 0.000000)"><polygon class="AnPolygon" points="2540,927 2825,927 2825,943 2540,943 2540,927 " fill-rule="evenodd"/>

    
    </g></g>

    
    <g style="fill:#FF0000; " cmn_acla="C1166B_SIG_TACK_ActiveBackdrop" anclass="C1166B_SIG_TACK_ActiveBackdrop" class="C1166B_SIG_TACK_ActiveBackdrop ActiveBackdrop" id=":OCC:SIG:TACK0215_64" hv_id="OCC_OCCSIGTACK0215" anpath=":OCC:SIG:TACK0215">

      
      <g transform="matrix(1.000000, 0.000000, 0.000000, 1.000000, 0.000000, 0.000000)"><polygon class="AnPolygon" points="2850,927 3090,927 3090,943 2850,943 2850,927 " fill-rule="evenodd"/>

    
    </g></g>

    
    <g style="fill:#FF0000; " cmn_acla="C1166B_SIG_TACK_ActiveBackdrop" anclass="C1166B_SIG_TACK_ActiveBackdrop" class="C1166B_SIG_TACK_ActiveBackdrop ActiveBackdrop" id=":OCC:SIG:TACK0216_65" hv_id="OCC_OCCSIGTACK0216" anpath=":OCC:SIG:TACK0216">

      
      <g transform="matrix(1.000000, 0.000000, 0.000000, 1.000000, 0.000000, 0.000000)"><polygon class="AnPolygon" points="3115,987 3335,987 3335,1003 3115,1003 3115,987 " fill-rule="evenodd"/>

    
    </g></g>

    
    <g style="fill:#FF0000; " cmn_acla="C1166B_SIG_TACK_ActiveBackdrop" anclass="C1166B_SIG_TACK_ActiveBackdrop" class="C1166B_SIG_TACK_ActiveBackdrop ActiveBackdrop" id=":OCC:SIG:TACK0217_66" hv_id="OCC_OCCSIGTACK0217" anpath=":OCC:SIG:TACK0217">

      
      <g transform="matrix(1.000000, 0.000000, 0.000000, 1.000000, 0.000000, 0.000000)"><polygon class="AnPolygon" points="3360,1047 3575,1047 3575,1063 3360,1063 3360,1047 " fill-rule="evenodd"/>

    
    </g></g>

    
    <g style="fill:#FF0000; " cmn_acla="C1166B_SIG_TACK_ActiveBackdrop" anclass="C1166B_SIG_TACK_ActiveBackdrop" class="C1166B_SIG_TACK_ActiveBackdrop ActiveBackdrop" id=":OCC:SIG:TACK0218_67" hv_id="OCC_OCCSIGTACK0218" anpath=":OCC:SIG:TACK0218">

      
      <g transform="matrix(1.000000, 0.000000, 0.000000, 1.000000, 0.000000, 0.000000)"><polygon class="AnPolygon" points="3605,1047 3945,1047 3945,1063 3605,1063 3605,1047 " fill-rule="evenodd"/>

    
    </g></g>

    
    <g style="fill:#FF0000; " cmn_acla="C1166B_SIG_TACK_ActiveBackdrop" anclass="C1166B_SIG_TACK_ActiveBackdrop" class="C1166B_SIG_TACK_ActiveBackdrop ActiveBackdrop" id=":OCC:SIG:TACK0229_68" hv_id="OCC_OCCSIGTACK0229" anpath=":OCC:SIG:TACK0229">

      
      <g transform="matrix(1.000000, 0.000000, 0.000000, 1.000000, 0.000000, 0.000000)"><polygon class="AnPolygon" points="3605,1252 3945,1252 3945,1268 3605,1268 3605,1252 " fill-rule="evenodd"/>

    
    </g></g>

    
    <g style="fill:#FF0000; " cmn_acla="C1166B_SIG_TACK_ActiveBackdrop" anclass="C1166B_SIG_TACK_ActiveBackdrop" class="C1166B_SIG_TACK_ActiveBackdrop ActiveBackdrop" id=":OCC:SIG:TACK0228_69" hv_id="OCC_OCCSIGTACK0228" anpath=":OCC:SIG:TACK0228">

      
      <g transform="matrix(1.000000, 0.000000, 0.000000, 1.000000, 0.000000, 0.000000)"><polygon class="AnPolygon" points="3360,1252 3575,1252 3575,1268 3360,1268 3360,1252 " fill-rule="evenodd"/>

    
    </g></g>

    
    <g style="fill:#FF0000; " cmn_acla="C1166B_SIG_TACK_ActiveBackdrop" anclass="C1166B_SIG_TACK_ActiveBackdrop" class="C1166B_SIG_TACK_ActiveBackdrop ActiveBackdrop" id=":OCC:SIG:TACK0227_70" hv_id="OCC_OCCSIGTACK0227" anpath=":OCC:SIG:TACK0227">

      
      <g transform="matrix(1.000000, 0.000000, 0.000000, 1.000000, 0.000000, 0.000000)"><polygon class="AnPolygon" points="3115,1307 3335,1307 3335,1323 3115,1323 3115,1307 " fill-rule="evenodd"/>

    
    </g></g>

    
    <g style="fill:#FF0000; " cmn_acla="C1166B_SIG_TACK_ActiveBackdrop" anclass="C1166B_SIG_TACK_ActiveBackdrop" class="C1166B_SIG_TACK_ActiveBackdrop ActiveBackdrop" id=":OCC:SIG:TACK0226_71" hv_id="OCC_OCCSIGTACK0226" anpath=":OCC:SIG:TACK0226">

      
      <g transform="matrix(1.000000, 0.000000, 0.000000, 1.000000, 0.000000, 0.000000)"><polygon class="AnPolygon" points="2850,1362 3090,1362 3090,1378 2850,1378 2850,1362 " fill-rule="evenodd"/>

    
    </g></g>

    
    <g style="fill:#FF0000; " cmn_acla="C1166B_SIG_TACK_ActiveBackdrop" anclass="C1166B_SIG_TACK_ActiveBackdrop" class="C1166B_SIG_TACK_ActiveBackdrop ActiveBackdrop" id=":OCC:SIG:TACK0225_72" hv_id="OCC_OCCSIGTACK0225" anpath=":OCC:SIG:TACK0225">

      
      <g transform="matrix(1.000000, 0.000000, 0.000000, 1.000000, 0.000000, 0.000000)"><polygon class="AnPolygon" points="2540,1362 2825,1362 2825,1378 2540,1378 2540,1362 " fill-rule="evenodd"/>

    
    </g></g>

    
    <g style="fill:#FF0000; " cmn_acla="C1166B_SIG_TACK_ActiveBackdrop" anclass="C1166B_SIG_TACK_ActiveBackdrop" class="C1166B_SIG_TACK_ActiveBackdrop ActiveBackdrop" id=":OCC:SIG:TACK0224_73" hv_id="OCC_OCCSIGTACK0224" anpath=":OCC:SIG:TACK0224">

      
      <g transform="matrix(1.000000, 0.000000, 0.000000, 1.000000, 0.000000, 0.000000)"><polygon class="AnPolygon" points="2175,1362 2515,1362 2515,1378 2175,1378 2175,1362 " fill-rule="evenodd"/>

    
    </g></g>

    
    <g style="fill:#FF0000; " cmn_acla="C1166B_SIG_TACK_ActiveBackdrop" anclass="C1166B_SIG_TACK_ActiveBackdrop" class="C1166B_SIG_TACK_ActiveBackdrop ActiveBackdrop" id=":OCC:SIG:TACK0223_74" hv_id="OCC_OCCSIGTACK0223" anpath=":OCC:SIG:TACK0223">

      
      <g transform="matrix(1.000000, 0.000000, 0.000000, 1.000000, 0.000000, 0.000000)"><polygon class="AnPolygon" points="1810,1362 2150,1362 2150,1378 1810,1378 1810,1362 " fill-rule="evenodd"/>

    
    </g></g>

    
    <g style="fill:#FF0000; " cmn_acla="C1166B_SIG_TACK_ActiveBackdrop" anclass="C1166B_SIG_TACK_ActiveBackdrop" class="C1166B_SIG_TACK_ActiveBackdrop ActiveBackdrop" id=":OCC:SIG:TACK0222_75" hv_id="OCC_OCCSIGTACK0222" anpath=":OCC:SIG:TACK0222">

      
      <g transform="matrix(1.000000, 0.000000, 0.000000, 1.000000, 0.000000, 0.000000)"><polygon class="AnPolygon" points="1445,1362 1785,1362 1785,1378 1445,1378 1445,1362 " fill-rule="evenodd"/>

    
    </g></g>

    
    <g style="fill:#FF0000; " cmn_acla="C1166B_SIG_TACK_ActiveBackdrop" anclass="C1166B_SIG_TACK_ActiveBackdrop" class="C1166B_SIG_TACK_ActiveBackdrop ActiveBackdrop" id=":OCC:SIG:TACK0221_76" hv_id="OCC_OCCSIGTACK0221" anpath=":OCC:SIG:TACK0221">

      
      <g transform="matrix(1.000000, 0.000000, 0.000000, 1.000000, 0.000000, 0.000000)"><polygon class="AnPolygon" points="1080,1362 1420,1362 1420,1378 1080,1378 1080,1362 " fill-rule="evenodd"/>

    
    </g></g>

    
    <g style="fill:#FF0000; " cmn_acla="C1166B_SIG_TACK_ActiveBackdrop" anclass="C1166B_SIG_TACK_ActiveBackdrop" class="C1166B_SIG_TACK_ActiveBackdrop ActiveBackdrop" id=":OCC:SIG:TACK0220_77" hv_id="OCC_OCCSIGTACK0220" anpath=":OCC:SIG:TACK0220">

      
      <g transform="matrix(1.000000, 0.000000, 0.000000, 1.000000, 0.000000, 0.000000)"><polygon class="AnPolygon" points="651,1362 1049,1362 1049,1378 651,1378 651,1362 " fill-rule="evenodd"/>

    
    </g></g>

    
    <g style="fill:#FF0000; " cmn_acla="C1166B_SIG_TACK_ActiveBackdrop" anclass="C1166B_SIG_TACK_ActiveBackdrop" class="C1166B_SIG_TACK_ActiveBackdrop ActiveBackdrop" id=":OCC:SIG:TACK0219_78" hv_id="OCC_OCCSIGTACK0219" anpath=":OCC:SIG:TACK0219">

      
      <g transform="matrix(1.000000, 0.000000, 0.000000, 1.000000, 0.000000, 0.000000)"><polygon class="AnPolygon" points="345,1242 565,1242 565,1258 345,1258 345,1242 " fill-rule="evenodd"/>

    
    </g></g>

    
    <g style="fill:#FF0000; " cmn_acla="C1166B_SIG_TACK_ActiveBackdrop" anclass="C1166B_SIG_TACK_ActiveBackdrop" class="C1166B_SIG_TACK_ActiveBackdrop ActiveBackdrop" id=":OCC:SIG:TACK0454_79" hv_id="OCC_OCCSIGTACK0454" anpath=":OCC:SIG:TACK0454">

      
      <g transform="matrix(1.000000, 0.000000, 0.000000, 1.000000, 0.000000, 0.000000)"><polygon class="AnPolygon" points="105,1242 320,1242 320,1258 105,1258 105,1242 " fill-rule="evenodd"/>

    
    </g></g>

  
  </g>

  
  </svg>