<svg contentScriptType="text/ecmascript" width="3989.0" xmlns:xlink="http://www.w3.org/1999/xlink" zoomAndPan="magnify" contentStyleType="text/css" viewBox="0.0 0.0 3989.0 2037.0" height="2037.0" preserveAspectRatio="xMinYMin meet" xmlns="http://www.w3.org/2000/svg" version="1.1">

  
  <g class="AnLayer" id="Signalling_Track_Section">

    
    <g style="fill:#FF0000; " cmn_acla="C1166B_SIG_TACK_ActiveBackdrop" anclass="C1166B_SIG_TACK_ActiveBackdrop" class="C1166B_SIG_TACK_ActiveBackdrop ActiveBackdrop" id=":OCC:SIG:TACK0449_15" hv_id="OCC_OCCSIGTACK0449" anpath=":OCC:SIG:TACK0449">

      
      <g transform="matrix(1.000000, 0.000000, 0.000000, 1.000000, 0.000000, 0.000000)"><polygon class="AnPolygon" points="250,927 590,927 590,943 250,943 250,927 " fill-rule="evenodd"/>

    
    </g></g>

    
    <g style="fill:#FF0000; " cmn_acla="C1166B_SIG_TACK_ActiveBackdrop" anclass="C1166B_SIG_TACK_ActiveBackdrop" class="C1166B_SIG_TACK_ActiveBackdrop ActiveBackdrop" id=":OCC:SIG:TACK0443_16" hv_id="OCC_OCCSIGTACK0443" anpath=":OCC:SIG:TACK0443">

      
      <g transform="matrix(1.000000, 0.000000, 0.000000, 1.000000, 0.000000, 0.000000)"><polygon class="AnPolygon" points="620,927 780,927 780,943 620,943 620,927 " fill-rule="evenodd"/>

    
    </g></g>

    
    <g style="fill:#FF0000; " cmn_acla="C1166B_SIG_TACK_ActiveBackdrop" anclass="C1166B_SIG_TACK_ActiveBackdrop" class="C1166B_SIG_TACK_ActiveBackdrop ActiveBackdrop" id=":OCC:SIG:TACK0209_17" hv_id="OCC_OCCSIGTACK0209" anpath=":OCC:SIG:TACK0209">

      
      <g transform="matrix(1.000000, 0.000000, 0.000000, 1.000000, 0.000000, 0.000000)"><polygon class="AnPolygon" points="805,927 1025,927 1025,943 805,943 805,927 " fill-rule="evenodd"/>

    
    </g></g>

    
    <g style="fill:#FF0000; " cmn_acla="C1166B_SIG_TACK_ActiveBackdrop" anclass="C1166B_SIG_TACK_ActiveBackdrop" class="C1166B_SIG_TACK_ActiveBackdrop ActiveBackdrop" id=":OCC:SIG:TACK0210_18" hv_id="OCC_OCCSIGTACK0210" anpath=":OCC:SIG:TACK0210">

      
      <g transform="matrix(1.000000, 0.000000, 0.000000, 1.000000, 0.000000, 0.000000)"><polygon class="AnPolygon" points="1050,927 1390,927 1390,943 1050,943 1050,927 " fill-rule="evenodd"/>

    
    </g></g>

    
    <g style="fill:#FF0000; " cmn_acla="C1166B_SIG_TACK_ActiveBackdrop" anclass="C1166B_SIG_TACK_ActiveBackdrop" class="C1166B_SIG_TACK_ActiveBackdrop ActiveBackdrop" id=":OCC:SIG:TACK0211_19" hv_id="OCC_OCCSIGTACK0211" anpath=":OCC:SIG:TACK0211">

      
      <g transform="matrix(1.000000, 0.000000, 0.000000, 1.000000, 0.000000, 0.000000)"><polygon class="AnPolygon" points="1415,927 1755,927 1755,943 1415,943 1415,927 " fill-rule="evenodd"/>

    
    </g></g>

    
    <g style="fill:#FF0000; " cmn_acla="C1166B_SIG_TACK_ActiveBackdrop" anclass="C1166B_SIG_TACK_ActiveBackdrop" class="C1166B_SIG_TACK_ActiveBackdrop ActiveBackdrop" id=":OCC:SIG:TACK0212_20" hv_id="OCC_OCCSIGTACK0212" anpath=":OCC:SIG:TACK0212">

      
      <g transform="matrix(1.000000, 0.000000, 0.000000, 1.000000, 0.000000, 0.000000)"><polygon class="AnPolygon" points="1780,927 2120,927 2120,943 1780,943 1780,927 " fill-rule="evenodd"/>

    
    </g></g>

    
    <g style="fill:#FF0000; " cmn_acla="C1166B_SIG_TACK_ActiveBackdrop" anclass="C1166B_SIG_TACK_ActiveBackdrop" class="C1166B_SIG_TACK_ActiveBackdrop ActiveBackdrop" id=":OCC:SIG:TACK0213_21" hv_id="OCC_OCCSIGTACK0213" anpath=":OCC:SIG:TACK0213">

      
      <g transform="matrix(1.000000, 0.000000, 0.000000, 1.000000, 0.000000, 0.000000)"><polygon class="AnPolygon" points="2145,927 2485,927 2485,943 2145,943 2145,927 " fill-rule="evenodd"/>

    
    </g></g>

    
    <g style="fill:#FF0000; " cmn_acla="C1166B_SIG_TACK_ActiveBackdrop" anclass="C1166B_SIG_TACK_ActiveBackdrop" class="C1166B_SIG_TACK_ActiveBackdrop ActiveBackdrop" id=":OCC:SIG:TACK0214_22" hv_id="OCC_OCCSIGTACK0214" anpath=":OCC:SIG:TACK0214">

      
      <g transform="matrix(1.000000, 0.000000, 0.000000, 1.000000, 0.000000, 0.000000)"><polygon class="AnPolygon" points="2510,927 2795,927 2795,943 2510,943 2510,927 " fill-rule="evenodd"/>

    
    </g></g>

    
    <g style="fill:#FF0000; " cmn_acla="C1166B_SIG_TACK_ActiveBackdrop" anclass="C1166B_SIG_TACK_ActiveBackdrop" class="C1166B_SIG_TACK_ActiveBackdrop ActiveBackdrop" id=":OCC:SIG:TACK0215_23" hv_id="OCC_OCCSIGTACK0215" anpath=":OCC:SIG:TACK0215">

      
      <g transform="matrix(1.000000, 0.000000, 0.000000, 1.000000, 0.000000, 0.000000)"><polygon class="AnPolygon" points="2820,927 3060,927 3060,943 2820,943 2820,927 " fill-rule="evenodd"/>

    
    </g></g>

    
    <g style="fill:#FF0000; " cmn_acla="C1166B_SIG_TACK_ActiveBackdrop" anclass="C1166B_SIG_TACK_ActiveBackdrop" class="C1166B_SIG_TACK_ActiveBackdrop ActiveBackdrop" id=":OCC:SIG:TACK0216_24" hv_id="OCC_OCCSIGTACK0216" anpath=":OCC:SIG:TACK0216">

      
      <g transform="matrix(1.000000, 0.000000, 0.000000, 1.000000, 0.000000, 0.000000)"><polygon class="AnPolygon" points="3085,987 3305,987 3305,1003 3085,1003 3085,987 " fill-rule="evenodd"/>

    
    </g></g>

    
    <g style="fill:#FF0000; " cmn_acla="C1166B_SIG_TACK_ActiveBackdrop" anclass="C1166B_SIG_TACK_ActiveBackdrop" class="C1166B_SIG_TACK_ActiveBackdrop ActiveBackdrop" id=":OCC:SIG:TACK0217_25" hv_id="OCC_OCCSIGTACK0217" anpath=":OCC:SIG:TACK0217">

      
      <g transform="matrix(1.000000, 0.000000, 0.000000, 1.000000, 0.000000, 0.000000)"><polygon class="AnPolygon" points="3330,1047 3545,1047 3545,1063 3330,1063 3330,1047 " fill-rule="evenodd"/>

    
    </g></g>

    
    <g style="fill:#FF0000; " cmn_acla="C1166B_SIG_TACK_ActiveBackdrop" anclass="C1166B_SIG_TACK_ActiveBackdrop" class="C1166B_SIG_TACK_ActiveBackdrop ActiveBackdrop" id=":OCC:SIG:TACK0218_26" hv_id="OCC_OCCSIGTACK0218" anpath=":OCC:SIG:TACK0218">

      
      <g transform="matrix(1.000000, 0.000000, 0.000000, 1.000000, 0.000000, 0.000000)"><polygon class="AnPolygon" points="3575,1047 3910,1047 3910,1063 3575,1063 3575,1047 " fill-rule="evenodd"/>

    
    </g></g>

    
    <g style="fill:#FF0000; " cmn_acla="C1166B_SIG_TACK_ActiveBackdrop" anclass="C1166B_SIG_TACK_ActiveBackdrop" class="C1166B_SIG_TACK_ActiveBackdrop ActiveBackdrop" id=":OCC:SIG:TACK0229_27" hv_id="OCC_OCCSIGTACK0229" anpath=":OCC:SIG:TACK0229">

      
      <g transform="matrix(1.000000, 0.000000, 0.000000, 1.000000, 0.000000, 0.000000)"><polygon class="AnPolygon" points="3575,1252 3910,1252 3910,1268 3575,1268 3575,1252 " fill-rule="evenodd"/>

    
    </g></g>

    
    <g style="fill:#FF0000; " cmn_acla="C1166B_SIG_TACK_ActiveBackdrop" anclass="C1166B_SIG_TACK_ActiveBackdrop" class="C1166B_SIG_TACK_ActiveBackdrop ActiveBackdrop" id=":OCC:SIG:TACK0228_28" hv_id="OCC_OCCSIGTACK0228" anpath=":OCC:SIG:TACK0228">

      
      <g transform="matrix(1.000000, 0.000000, 0.000000, 1.000000, 0.000000, 0.000000)"><polygon class="AnPolygon" points="3330,1252 3545,1252 3545,1268 3330,1268 3330,1252 " fill-rule="evenodd"/>

    
    </g></g>

    
    <g style="fill:#FF0000; " cmn_acla="C1166B_SIG_TACK_ActiveBackdrop" anclass="C1166B_SIG_TACK_ActiveBackdrop" class="C1166B_SIG_TACK_ActiveBackdrop ActiveBackdrop" id=":OCC:SIG:TACK0227_29" hv_id="OCC_OCCSIGTACK0227" anpath=":OCC:SIG:TACK0227">

      
      <g transform="matrix(1.000000, 0.000000, 0.000000, 1.000000, 0.000000, 0.000000)"><polygon class="AnPolygon" points="3085,1307 3305,1307 3305,1323 3085,1323 3085,1307 " fill-rule="evenodd"/>

    
    </g></g>

    
    <g style="fill:#FF0000; " cmn_acla="C1166B_SIG_TACK_ActiveBackdrop" anclass="C1166B_SIG_TACK_ActiveBackdrop" class="C1166B_SIG_TACK_ActiveBackdrop ActiveBackdrop" id=":OCC:SIG:TACK0226_30" hv_id="OCC_OCCSIGTACK0226" anpath=":OCC:SIG:TACK0226">

      
      <g transform="matrix(1.000000, 0.000000, 0.000000, 1.000000, 0.000000, 0.000000)"><polygon class="AnPolygon" points="2820,1362 3060,1362 3060,1378 2820,1378 2820,1362 " fill-rule="evenodd"/>

    
    </g></g>

    
    <g style="fill:#FF0000; " cmn_acla="C1166B_SIG_TACK_ActiveBackdrop" anclass="C1166B_SIG_TACK_ActiveBackdrop" class="C1166B_SIG_TACK_ActiveBackdrop ActiveBackdrop" id=":OCC:SIG:TACK0225_31" hv_id="OCC_OCCSIGTACK0225" anpath=":OCC:SIG:TACK0225">

      
      <g transform="matrix(1.000000, 0.000000, 0.000000, 1.000000, 0.000000, 0.000000)"><polygon class="AnPolygon" points="2510,1362 2795,1362 2795,1378 2510,1378 2510,1362 " fill-rule="evenodd"/>

    
    </g></g>

    
    <g style="fill:#FF0000; " cmn_acla="C1166B_SIG_TACK_ActiveBackdrop" anclass="C1166B_SIG_TACK_ActiveBackdrop" class="C1166B_SIG_TACK_ActiveBackdrop ActiveBackdrop" id=":OCC:SIG:TACK0224_32" hv_id="OCC_OCCSIGTACK0224" anpath=":OCC:SIG:TACK0224">

      
      <g transform="matrix(1.000000, 0.000000, 0.000000, 1.000000, 0.000000, 0.000000)"><polygon class="AnPolygon" points="2145,1362 2485,1362 2485,1378 2145,1378 2145,1362 " fill-rule="evenodd"/>

    
    </g></g>

    
    <g style="fill:#FF0000; " cmn_acla="C1166B_SIG_TACK_ActiveBackdrop" anclass="C1166B_SIG_TACK_ActiveBackdrop" class="C1166B_SIG_TACK_ActiveBackdrop ActiveBackdrop" id=":OCC:SIG:TACK0223_33" hv_id="OCC_OCCSIGTACK0223" anpath=":OCC:SIG:TACK0223">

      
      <g transform="matrix(1.000000, 0.000000, 0.000000, 1.000000, 0.000000, 0.000000)"><polygon class="AnPolygon" points="1780,1362 2120,1362 2120,1378 1780,1378 1780,1362 " fill-rule="evenodd"/>

    
    </g></g>

    
    <g style="fill:#FF0000; " cmn_acla="C1166B_SIG_TACK_ActiveBackdrop" anclass="C1166B_SIG_TACK_ActiveBackdrop" class="C1166B_SIG_TACK_ActiveBackdrop ActiveBackdrop" id=":OCC:SIG:TACK0222_34" hv_id="OCC_OCCSIGTACK0222" anpath=":OCC:SIG:TACK0222">

      
      <g transform="matrix(1.000000, 0.000000, 0.000000, 1.000000, 0.000000, 0.000000)"><polygon class="AnPolygon" points="1415,1362 1755,1362 1755,1378 1415,1378 1415,1362 " fill-rule="evenodd"/>

    
    </g></g>

    
    <g style="fill:#FF0000; " cmn_acla="C1166B_SIG_TACK_ActiveBackdrop" anclass="C1166B_SIG_TACK_ActiveBackdrop" class="C1166B_SIG_TACK_ActiveBackdrop ActiveBackdrop" id=":OCC:SIG:TACK0221_35" hv_id="OCC_OCCSIGTACK0221" anpath=":OCC:SIG:TACK0221">

      
      <g transform="matrix(1.000000, 0.000000, 0.000000, 1.000000, 0.000000, 0.000000)"><polygon class="AnPolygon" points="1050,1362 1390,1362 1390,1378 1050,1378 1050,1362 " fill-rule="evenodd"/>

    
    </g></g>

    
    <g style="fill:#FF0000; " cmn_acla="C1166B_SIG_TACK_ActiveBackdrop" anclass="C1166B_SIG_TACK_ActiveBackdrop" class="C1166B_SIG_TACK_ActiveBackdrop ActiveBackdrop" id=":OCC:SIG:TACK0220_36" hv_id="OCC_OCCSIGTACK0220" anpath=":OCC:SIG:TACK0220">

      
      <g transform="matrix(1.000000, 0.000000, 0.000000, 1.000000, 0.000000, 0.000000)"><polygon class="AnPolygon" points="621,1362 1020,1362 1020,1378 621,1378 621,1362 " fill-rule="evenodd"/>

    
    </g></g>

    
    <g style="fill:#FF0000; " cmn_acla="C1166B_SIG_TACK_ActiveBackdrop" anclass="C1166B_SIG_TACK_ActiveBackdrop" class="C1166B_SIG_TACK_ActiveBackdrop ActiveBackdrop" id=":OCC:SIG:TACK0219_37" hv_id="OCC_OCCSIGTACK0219" anpath=":OCC:SIG:TACK0219">

      
      <g transform="matrix(1.000000, 0.000000, 0.000000, 1.000000, 0.000000, 0.000000)"><polygon class="AnPolygon" points="315,1242 535,1242 535,1258 315,1258 315,1242 " fill-rule="evenodd"/>

    
    </g></g>

    
    <g style="fill:#FF0000; " cmn_acla="C1166B_SIG_TACK_ActiveBackdrop" anclass="C1166B_SIG_TACK_ActiveBackdrop" class="C1166B_SIG_TACK_ActiveBackdrop ActiveBackdrop" id=":OCC:SIG:TACK0454_38" hv_id="OCC_OCCSIGTACK0454" anpath=":OCC:SIG:TACK0454">

      
      <g transform="matrix(1.000000, 0.000000, 0.000000, 1.000000, 0.000000, 0.000000)"><polygon class="AnPolygon" points="75,1242 290,1242 290,1258 75,1258 75,1242 " fill-rule="evenodd"/>

    
    </g></g>

  
  </g>

  
  </svg>