<svg contentScriptType="text/ecmascript" width="3989.0" xmlns:xlink="http://www.w3.org/1999/xlink" zoomAndPan="magnify" contentStyleType="text/css" viewBox="0.0 0.0 3989.0 2036.0" height="2036.0" preserveAspectRatio="xMinYMin meet" xmlns="http://www.w3.org/2000/svg" version="1.1">

  
  <g class="AnLayer" id="Signalling_Track_Section">

    
    <g style="fill:#FF0000; " cmn_acla="C1166B_SIG_TACK_ActiveBackdrop" anclass="C1166B_SIG_TACK_ActiveBackdrop" class="C1166B_SIG_TACK_ActiveBackdrop ActiveBackdrop" id=":OCC:SIG:TACK0449_76" hv_id="OCC_OCCSIGTACK0449" anpath=":OCC:SIG:TACK0449">

      
      <g transform="matrix(1.000000, 0.000000, 0.000000, 1.000000, 0.000000, 0.000000)"><polygon class="AnPolygon" points="246,919 586,919 586,935 246,935 246,919 " fill-rule="evenodd"/>

    
    </g></g>

    
    <g style="fill:#FF0000; " cmn_acla="C1166B_SIG_TACK_ActiveBackdrop" anclass="C1166B_SIG_TACK_ActiveBackdrop" class="C1166B_SIG_TACK_ActiveBackdrop ActiveBackdrop" id=":OCC:SIG:TACK0443_77" hv_id="OCC_OCCSIGTACK0443" anpath=":OCC:SIG:TACK0443">

      
      <g transform="matrix(1.000000, 0.000000, 0.000000, 1.000000, 0.000000, 0.000000)"><polygon class="AnPolygon" points="616,919 776,919 776,935 616,935 616,919 " fill-rule="evenodd"/>

    
    </g></g>

    
    <g style="fill:#FF0000; " cmn_acla="C1166B_SIG_TACK_ActiveBackdrop" anclass="C1166B_SIG_TACK_ActiveBackdrop" class="C1166B_SIG_TACK_ActiveBackdrop ActiveBackdrop" id=":OCC:SIG:TACK0209_78" hv_id="OCC_OCCSIGTACK0209" anpath=":OCC:SIG:TACK0209">

      
      <g transform="matrix(1.000000, 0.000000, 0.000000, 1.000000, 0.000000, 0.000000)"><polygon class="AnPolygon" points="801,919 1031,919 1031,935 801,935 801,919 " fill-rule="evenodd"/>

    
    </g></g>

    
    <g style="fill:#FF0000; " cmn_acla="C1166B_SIG_TACK_ActiveBackdrop" anclass="C1166B_SIG_TACK_ActiveBackdrop" class="C1166B_SIG_TACK_ActiveBackdrop ActiveBackdrop" id=":OCC:SIG:TACK0210_79" hv_id="OCC_OCCSIGTACK0210" anpath=":OCC:SIG:TACK0210">

      
      <g transform="matrix(1.000000, 0.000000, 0.000000, 1.000000, 0.000000, 0.000000)"><polygon class="AnPolygon" points="1056,919 1396,919 1396,935 1056,935 1056,919 " fill-rule="evenodd"/>

    
    </g></g>

    
    <g style="fill:#FF0000; " cmn_acla="C1166B_SIG_TACK_ActiveBackdrop" anclass="C1166B_SIG_TACK_ActiveBackdrop" class="C1166B_SIG_TACK_ActiveBackdrop ActiveBackdrop" id=":OCC:SIG:TACK0211_80" hv_id="OCC_OCCSIGTACK0211" anpath=":OCC:SIG:TACK0211">

      
      <g transform="matrix(1.000000, 0.000000, 0.000000, 1.000000, 0.000000, 0.000000)"><polygon class="AnPolygon" points="1421,919 1761,919 1761,935 1421,935 1421,919 " fill-rule="evenodd"/>

    
    </g></g>

    
    <g style="fill:#FF0000; " cmn_acla="C1166B_SIG_TACK_ActiveBackdrop" anclass="C1166B_SIG_TACK_ActiveBackdrop" class="C1166B_SIG_TACK_ActiveBackdrop ActiveBackdrop" id=":OCC:SIG:TACK0212_81" hv_id="OCC_OCCSIGTACK0212" anpath=":OCC:SIG:TACK0212">

      
      <g transform="matrix(1.000000, 0.000000, 0.000000, 1.000000, 0.000000, 0.000000)"><polygon class="AnPolygon" points="1786,919 2126,919 2126,935 1786,935 1786,919 " fill-rule="evenodd"/>

    
    </g></g>

    
    <g style="fill:#FF0000; " cmn_acla="C1166B_SIG_TACK_ActiveBackdrop" anclass="C1166B_SIG_TACK_ActiveBackdrop" class="C1166B_SIG_TACK_ActiveBackdrop ActiveBackdrop" id=":OCC:SIG:TACK0213_82" hv_id="OCC_OCCSIGTACK0213" anpath=":OCC:SIG:TACK0213">

      
      <g transform="matrix(1.000000, 0.000000, 0.000000, 1.000000, 0.000000, 0.000000)"><polygon class="AnPolygon" points="2151,919 2491,919 2491,935 2151,935 2151,919 " fill-rule="evenodd"/>

    
    </g></g>

    
    <g style="fill:#FF0000; " cmn_acla="C1166B_SIG_TACK_ActiveBackdrop" anclass="C1166B_SIG_TACK_ActiveBackdrop" class="C1166B_SIG_TACK_ActiveBackdrop ActiveBackdrop" id=":OCC:SIG:TACK0214_83" hv_id="OCC_OCCSIGTACK0214" anpath=":OCC:SIG:TACK0214">

      
      <g transform="matrix(1.000000, 0.000000, 0.000000, 1.000000, 0.000000, 0.000000)"><polygon class="AnPolygon" points="2516,919 2801,919 2801,935 2516,935 2516,919 " fill-rule="evenodd"/>

    
    </g></g>

    
    <g style="fill:#FF0000; " cmn_acla="C1166B_SIG_TACK_ActiveBackdrop" anclass="C1166B_SIG_TACK_ActiveBackdrop" class="C1166B_SIG_TACK_ActiveBackdrop ActiveBackdrop" id=":OCC:SIG:TACK0215_84" hv_id="OCC_OCCSIGTACK0215" anpath=":OCC:SIG:TACK0215">

      
      <g transform="matrix(1.000000, 0.000000, 0.000000, 1.000000, 0.000000, 0.000000)"><polygon class="AnPolygon" points="2826,919 3066,919 3066,935 2826,935 2826,919 " fill-rule="evenodd"/>

    
    </g></g>

    
    <g style="fill:#FF0000; " cmn_acla="C1166B_SIG_TACK_ActiveBackdrop" anclass="C1166B_SIG_TACK_ActiveBackdrop" class="C1166B_SIG_TACK_ActiveBackdrop ActiveBackdrop" id=":OCC:SIG:TACK0216_85" hv_id="OCC_OCCSIGTACK0216" anpath=":OCC:SIG:TACK0216">

      
      <g transform="matrix(1.000000, 0.000000, 0.000000, 1.000000, 0.000000, 0.000000)"><polygon class="AnPolygon" points="3091,979 3311,979 3311,995 3091,995 3091,979 " fill-rule="evenodd"/>

    
    </g></g>

    
    <g style="fill:#FF0000; " cmn_acla="C1166B_SIG_TACK_ActiveBackdrop" anclass="C1166B_SIG_TACK_ActiveBackdrop" class="C1166B_SIG_TACK_ActiveBackdrop ActiveBackdrop" id=":OCC:SIG:TACK0217_86" hv_id="OCC_OCCSIGTACK0217" anpath=":OCC:SIG:TACK0217">

      
      <g transform="matrix(1.000000, 0.000000, 0.000000, 1.000000, 0.000000, 0.000000)"><polygon class="AnPolygon" points="3336,1039 3551,1039 3551,1055 3336,1055 3336,1039 " fill-rule="evenodd"/>

    
    </g></g>

    
    <g style="fill:#FF0000; " cmn_acla="C1166B_SIG_TACK_ActiveBackdrop" anclass="C1166B_SIG_TACK_ActiveBackdrop" class="C1166B_SIG_TACK_ActiveBackdrop ActiveBackdrop" id=":OCC:SIG:TACK0218_87" hv_id="OCC_OCCSIGTACK0218" anpath=":OCC:SIG:TACK0218">

      
      <g transform="matrix(1.000000, 0.000000, 0.000000, 1.000000, 0.000000, 0.000000)"><polygon class="AnPolygon" points="3581,1039 3916,1039 3916,1055 3581,1055 3581,1039 " fill-rule="evenodd"/>

    
    </g></g>

    
    <g style="fill:#FF0000; " cmn_acla="C1166B_SIG_TACK_ActiveBackdrop" anclass="C1166B_SIG_TACK_ActiveBackdrop" class="C1166B_SIG_TACK_ActiveBackdrop ActiveBackdrop" id=":OCC:SIG:TACK0229_88" hv_id="OCC_OCCSIGTACK0229" anpath=":OCC:SIG:TACK0229">

      
      <g transform="matrix(1.000000, 0.000000, 0.000000, 1.000000, 0.000000, 0.000000)"><polygon class="AnPolygon" points="3581,1244 3916,1244 3916,1260 3581,1260 3581,1244 " fill-rule="evenodd"/>

    
    </g></g>

    
    <g style="fill:#FF0000; " cmn_acla="C1166B_SIG_TACK_ActiveBackdrop" anclass="C1166B_SIG_TACK_ActiveBackdrop" class="C1166B_SIG_TACK_ActiveBackdrop ActiveBackdrop" id=":OCC:SIG:TACK0228_89" hv_id="OCC_OCCSIGTACK0228" anpath=":OCC:SIG:TACK0228">

      
      <g transform="matrix(1.000000, 0.000000, 0.000000, 1.000000, 0.000000, 0.000000)"><polygon class="AnPolygon" points="3336,1244 3551,1244 3551,1260 3336,1260 3336,1244 " fill-rule="evenodd"/>

    
    </g></g>

    
    <g style="fill:#FF0000; " cmn_acla="C1166B_SIG_TACK_ActiveBackdrop" anclass="C1166B_SIG_TACK_ActiveBackdrop" class="C1166B_SIG_TACK_ActiveBackdrop ActiveBackdrop" id=":OCC:SIG:TACK0227_90" hv_id="OCC_OCCSIGTACK0227" anpath=":OCC:SIG:TACK0227">

      
      <g transform="matrix(1.000000, 0.000000, 0.000000, 1.000000, 0.000000, 0.000000)"><polygon class="AnPolygon" points="3091,1299 3311,1299 3311,1315 3091,1315 3091,1299 " fill-rule="evenodd"/>

    
    </g></g>

    
    <g style="fill:#FF0000; " cmn_acla="C1166B_SIG_TACK_ActiveBackdrop" anclass="C1166B_SIG_TACK_ActiveBackdrop" class="C1166B_SIG_TACK_ActiveBackdrop ActiveBackdrop" id=":OCC:SIG:TACK0226_91" hv_id="OCC_OCCSIGTACK0226" anpath=":OCC:SIG:TACK0226">

      
      <g transform="matrix(1.000000, 0.000000, 0.000000, 1.000000, 0.000000, 0.000000)"><polygon class="AnPolygon" points="2826,1354 3066,1354 3066,1370 2826,1370 2826,1354 " fill-rule="evenodd"/>

    
    </g></g>

    
    <g style="fill:#FF0000; " cmn_acla="C1166B_SIG_TACK_ActiveBackdrop" anclass="C1166B_SIG_TACK_ActiveBackdrop" class="C1166B_SIG_TACK_ActiveBackdrop ActiveBackdrop" id=":OCC:SIG:TACK0225_92" hv_id="OCC_OCCSIGTACK0225" anpath=":OCC:SIG:TACK0225">

      
      <g transform="matrix(1.000000, 0.000000, 0.000000, 1.000000, 0.000000, 0.000000)"><polygon class="AnPolygon" points="2516,1354 2801,1354 2801,1370 2516,1370 2516,1354 " fill-rule="evenodd"/>

    
    </g></g>

    
    <g style="fill:#FF0000; " cmn_acla="C1166B_SIG_TACK_ActiveBackdrop" anclass="C1166B_SIG_TACK_ActiveBackdrop" class="C1166B_SIG_TACK_ActiveBackdrop ActiveBackdrop" id=":OCC:SIG:TACK0224_93" hv_id="OCC_OCCSIGTACK0224" anpath=":OCC:SIG:TACK0224">

      
      <g transform="matrix(1.000000, 0.000000, 0.000000, 1.000000, 0.000000, 0.000000)"><polygon class="AnPolygon" points="2151,1354 2491,1354 2491,1370 2151,1370 2151,1354 " fill-rule="evenodd"/>

    
    </g></g>

    
    <g style="fill:#FF0000; " cmn_acla="C1166B_SIG_TACK_ActiveBackdrop" anclass="C1166B_SIG_TACK_ActiveBackdrop" class="C1166B_SIG_TACK_ActiveBackdrop ActiveBackdrop" id=":OCC:SIG:TACK0223_94" hv_id="OCC_OCCSIGTACK0223" anpath=":OCC:SIG:TACK0223">

      
      <g transform="matrix(1.000000, 0.000000, 0.000000, 1.000000, 0.000000, 0.000000)"><polygon class="AnPolygon" points="1786,1354 2126,1354 2126,1370 1786,1370 1786,1354 " fill-rule="evenodd"/>

    
    </g></g>

    
    <g style="fill:#FF0000; " cmn_acla="C1166B_SIG_TACK_ActiveBackdrop" anclass="C1166B_SIG_TACK_ActiveBackdrop" class="C1166B_SIG_TACK_ActiveBackdrop ActiveBackdrop" id=":OCC:SIG:TACK0222_95" hv_id="OCC_OCCSIGTACK0222" anpath=":OCC:SIG:TACK0222">

      
      <g transform="matrix(1.000000, 0.000000, 0.000000, 1.000000, 0.000000, 0.000000)"><polygon class="AnPolygon" points="1421,1354 1761,1354 1761,1370 1421,1370 1421,1354 " fill-rule="evenodd"/>

    
    </g></g>

    
    <g style="fill:#FF0000; " cmn_acla="C1166B_SIG_TACK_ActiveBackdrop" anclass="C1166B_SIG_TACK_ActiveBackdrop" class="C1166B_SIG_TACK_ActiveBackdrop ActiveBackdrop" id=":OCC:SIG:TACK0221_96" hv_id="OCC_OCCSIGTACK0221" anpath=":OCC:SIG:TACK0221">

      
      <g transform="matrix(1.000000, 0.000000, 0.000000, 1.000000, 0.000000, 0.000000)"><polygon class="AnPolygon" points="1056,1354 1396,1354 1396,1370 1056,1370 1056,1354 " fill-rule="evenodd"/>

    
    </g></g>

    
    <g style="fill:#FF0000; " cmn_acla="C1166B_SIG_TACK_ActiveBackdrop" anclass="C1166B_SIG_TACK_ActiveBackdrop" class="C1166B_SIG_TACK_ActiveBackdrop ActiveBackdrop" id=":OCC:SIG:TACK0220_97" hv_id="OCC_OCCSIGTACK0220" anpath=":OCC:SIG:TACK0220">

      
      <g transform="matrix(1.000000, 0.000000, 0.000000, 1.000000, 0.000000, 0.000000)"><polygon class="AnPolygon" points="616,1354 1026,1354 1026,1370 616,1370 616,1354 " fill-rule="evenodd"/>

    
    </g></g>

    
    <g style="fill:#FF0000; " cmn_acla="C1166B_SIG_TACK_ActiveBackdrop" anclass="C1166B_SIG_TACK_ActiveBackdrop" class="C1166B_SIG_TACK_ActiveBackdrop ActiveBackdrop" id=":OCC:SIG:TACK0219_98" hv_id="OCC_OCCSIGTACK0219" anpath=":OCC:SIG:TACK0219">

      
      <g transform="matrix(1.000000, 0.000000, 0.000000, 1.000000, 0.000000, 0.000000)"><polygon class="AnPolygon" points="311,1234 531,1234 531,1250 311,1250 311,1234 " fill-rule="evenodd"/>

    
    </g></g>

    
    <g style="fill:#FF0000; " cmn_acla="C1166B_SIG_TACK_ActiveBackdrop" anclass="C1166B_SIG_TACK_ActiveBackdrop" class="C1166B_SIG_TACK_ActiveBackdrop ActiveBackdrop" id=":OCC:SIG:TACK0454_99" hv_id="OCC_OCCSIGTACK0454" anpath=":OCC:SIG:TACK0454">

      
      <g transform="matrix(1.000000, 0.000000, 0.000000, 1.000000, 0.000000, 0.000000)"><polygon class="AnPolygon" points="71,1234 286,1234 286,1250 71,1250 71,1234 " fill-rule="evenodd"/>

    
    </g></g>

  
  </g>

  
  </svg>