<svg contentScriptType="text/ecmascript" width="4308.0" xmlns:xlink="http://www.w3.org/1999/xlink" zoomAndPan="magnify" contentStyleType="text/css" viewBox="0.0 0.0 4308.0 2199.0" height="2199.0" preserveAspectRatio="xMinYMin meet" xmlns="http://www.w3.org/2000/svg" version="1.1">

  
  <g class="AnLayer" id="Equipement">

    
    <g style="fill:#00FF00; " cmn_acla="C1166B_ECT_TES__ActiveBackdrop" anclass="C1166B_ECT_TES__ActiveBackdrop" class="C1166B_ECT_TES__ActiveBackdrop ActiveBackdrop" id=":SSV:ECT:TES_0007_11" hv_id="OCC_SSVECTTES_0007" anpath=":SSV:ECT:TES_0007">

      
      <g transform="matrix(1.000000, 0.000000, 0.000000, 1.000000, 0.000000, 0.000000)"><polygon class="AnPolygon" points="589,554 981,554 981,636 589,636 589,554 " fill-rule="evenodd"/>

    
    </g></g>

    
    <g style="fill:#00FF00; " cmn_acla="C1166B_ECT_TES__ActiveBackdrop" anclass="C1166B_ECT_TES__ActiveBackdrop" class="C1166B_ECT_TES__ActiveBackdrop ActiveBackdrop" id=":SSV:ECT:TES_0006_12" hv_id="OCC_SSVECTTES_0006" anpath=":SSV:ECT:TES_0006">

      
      <g transform="matrix(1.000000, 0.000000, 0.000000, 1.000000, 0.000000, 0.000000)"><polygon class="AnPolygon" points="981,554 1170,554 1170,636 981,636 981,554 " fill-rule="evenodd"/>

    
    </g></g>

    
    <g style="fill:#00FF00; " cmn_acla="C1166B_ECT_TES__ActiveBackdrop" anclass="C1166B_ECT_TES__ActiveBackdrop" class="C1166B_ECT_TES__ActiveBackdrop ActiveBackdrop" id=":SSV:ECT:TES_0005_13" hv_id="OCC_SSVECTTES_0005" anpath=":SSV:ECT:TES_0005">

      
      <g transform="matrix(1.000000, 0.000000, 0.000000, 1.000000, 0.000000, 0.000000)"><polygon class="AnPolygon" points="1170,554 1324,554 1324,636 1170,636 1170,554 " fill-rule="evenodd"/>

    
    </g></g>

    
    <g style="fill:#00FF00; " cmn_acla="C1166B_ECT_TES__ActiveBackdrop" anclass="C1166B_ECT_TES__ActiveBackdrop" class="C1166B_ECT_TES__ActiveBackdrop ActiveBackdrop" id=":CTV:ECT:TES_0024_14" hv_id="OCC_CTVECTTES_0024" anpath=":CTV:ECT:TES_0024">

      
      <g transform="matrix(1.000000, 0.000000, 0.000000, 1.000000, 0.000000, 0.000000)"><polygon class="AnPolygon" points="1324,554 1530,554 1530,636 1324,636 1324,554 " fill-rule="evenodd"/>

    
    </g></g>

    
    <g style="fill:#00FF00; " cmn_acla="C1166B_ECT_TES__ActiveBackdrop" anclass="C1166B_ECT_TES__ActiveBackdrop" class="C1166B_ECT_TES__ActiveBackdrop ActiveBackdrop" id=":CTV:ECT:TES_0023_15" hv_id="OCC_CTVECTTES_0023" anpath=":CTV:ECT:TES_0023">

      
      <g transform="matrix(1.000000, 0.000000, 0.000000, 1.000000, 0.000000, 0.000000)"><polygon class="AnPolygon" points="1530,554 1706,554 1706,636 1530,636 1530,554 " fill-rule="evenodd"/>

    
    </g></g>

    
    <g style="fill:#00FF00; " cmn_acla="C1166B_ECT_TES__ActiveBackdrop" anclass="C1166B_ECT_TES__ActiveBackdrop" class="C1166B_ECT_TES__ActiveBackdrop ActiveBackdrop" id=":CTV:ECT:TES_0013_16" hv_id="OCC_CTVECTTES_0013" anpath=":CTV:ECT:TES_0013">

      
      <g transform="matrix(1.000000, 0.000000, 0.000000, 1.000000, 0.000000, 0.000000)"><polygon class="AnPolygon" points="3410,554 3714,554 3714,636 3410,636 3410,554 " fill-rule="evenodd"/>

    
    </g></g>

    
    <g style="fill:#00FF00; " cmn_acla="C1166B_ECT_TES__ActiveBackdrop" anclass="C1166B_ECT_TES__ActiveBackdrop" class="C1166B_ECT_TES__ActiveBackdrop ActiveBackdrop" id=":CTV:ECT:TES_0014_17" hv_id="OCC_CTVECTTES_0014" anpath=":CTV:ECT:TES_0014">

      
      <g transform="matrix(1.000000, 0.000000, 0.000000, 1.000000, 0.000000, 0.000000)"><polygon class="AnPolygon" points="3078,554 3410,554 3410,636 3078,636 3078,554 " fill-rule="evenodd"/>

    
    </g></g>

    
    <g style="fill:#00FF00; " cmn_acla="C1166B_ECT_TES__ActiveBackdrop" anclass="C1166B_ECT_TES__ActiveBackdrop" class="C1166B_ECT_TES__ActiveBackdrop ActiveBackdrop" id=":CTV:ECT:TES_0015_18" hv_id="OCC_CTVECTTES_0015" anpath=":CTV:ECT:TES_0015">

      
      <g transform="matrix(1.000000, 0.000000, 0.000000, 1.000000, 0.000000, 0.000000)"><polygon class="AnPolygon" points="2829,554 3078,554 3078,636 2829,636 2829,554 " fill-rule="evenodd"/>

    
    </g></g>

    
    <g style="fill:#00FF00; " cmn_acla="C1166B_ECT_TES__ActiveBackdrop" anclass="C1166B_ECT_TES__ActiveBackdrop" class="C1166B_ECT_TES__ActiveBackdrop ActiveBackdrop" id=":CTV:ECT:TES_0016_19" hv_id="OCC_CTVECTTES_0016" anpath=":CTV:ECT:TES_0016">

      
      <g transform="matrix(1.000000, 0.000000, 0.000000, 1.000000, 0.000000, 0.000000)"><polygon class="AnPolygon" points="2637,554 2829,554 2829,636 2637,636 2637,554 " fill-rule="evenodd"/>

    
    </g></g>

    
    <g style="fill:#00FF00; " cmn_acla="C1166B_ECT_TES__ActiveBackdrop" anclass="C1166B_ECT_TES__ActiveBackdrop" class="C1166B_ECT_TES__ActiveBackdrop ActiveBackdrop" id=":CTV:ECT:TES_0017_20" hv_id="OCC_CTVECTTES_0017" anpath=":CTV:ECT:TES_0017">

      
      <g transform="matrix(1.000000, 0.000000, 0.000000, 1.000000, 0.000000, 0.000000)"><polygon class="AnPolygon" points="2511,554 2637,554 2637,636 2511,636 2511,554 " fill-rule="evenodd"/>

    
    </g></g>

    
    <g style="fill:#00FF00; " cmn_acla="C1166B_ECT_TES__ActiveBackdrop" anclass="C1166B_ECT_TES__ActiveBackdrop" class="C1166B_ECT_TES__ActiveBackdrop ActiveBackdrop" id=":CTV:ECT:TES_0018_21" hv_id="OCC_CTVECTTES_0018" anpath=":CTV:ECT:TES_0018">

      
      <g transform="matrix(1.000000, 0.000000, 0.000000, 1.000000, 0.000000, 0.000000)"><polygon class="AnPolygon" points="2369,554 2511,554 2511,636 2369,636 2369,554 " fill-rule="evenodd"/>

    
    </g></g>

    
    <g style="fill:#00FF00; " cmn_acla="C1166B_ECT_TES__ActiveBackdrop" anclass="C1166B_ECT_TES__ActiveBackdrop" class="C1166B_ECT_TES__ActiveBackdrop ActiveBackdrop" id=":CTV:ECT:TES_0019_22" hv_id="OCC_CTVECTTES_0019" anpath=":CTV:ECT:TES_0019">

      
      <g transform="matrix(1.000000, 0.000000, 0.000000, 1.000000, 0.000000, 0.000000)"><polygon class="AnPolygon" points="2228,554 2369,554 2369,636 2228,636 2228,554 " fill-rule="evenodd"/>

    
    </g></g>

    
    <g style="fill:#00FF00; " cmn_acla="C1166B_ECT_TES__ActiveBackdrop" anclass="C1166B_ECT_TES__ActiveBackdrop" class="C1166B_ECT_TES__ActiveBackdrop ActiveBackdrop" id=":CTV:ECT:TES_0020_23" hv_id="OCC_CTVECTTES_0020" anpath=":CTV:ECT:TES_0020">

      
      <g transform="matrix(1.000000, 0.000000, 0.000000, 1.000000, 0.000000, 0.000000)"><polygon class="AnPolygon" points="2071,554 2228,554 2228,636 2071,636 2071,554 " fill-rule="evenodd"/>

    
    </g></g>

    
    <g style="fill:#00FF00; " cmn_acla="C1166B_ECT_TES__ActiveBackdrop" anclass="C1166B_ECT_TES__ActiveBackdrop" class="C1166B_ECT_TES__ActiveBackdrop ActiveBackdrop" id=":CTV:ECT:TES_0021_24" hv_id="OCC_CTVECTTES_0021" anpath=":CTV:ECT:TES_0021">

      
      <g transform="matrix(1.000000, 0.000000, 0.000000, 1.000000, 0.000000, 0.000000)"><polygon class="AnPolygon" points="1877,554 2071,554 2071,636 1877,636 1877,554 " fill-rule="evenodd"/>

    
    </g></g>

    
    <g style="fill:#00FF00; " cmn_acla="C1166B_ECT_TES__ActiveBackdrop" anclass="C1166B_ECT_TES__ActiveBackdrop" class="C1166B_ECT_TES__ActiveBackdrop ActiveBackdrop" id=":CTV:ECT:TES_0022_25" hv_id="OCC_CTVECTTES_0022" anpath=":CTV:ECT:TES_0022">

      
      <g transform="matrix(1.000000, 0.000000, 0.000000, 1.000000, 0.000000, 0.000000)"><polygon class="AnPolygon" points="1706,554 1877,554 1877,636 1706,636 1706,554 " fill-rule="evenodd"/>

    
    </g></g>

    
    <g style="fill:#00FF00; " cmn_acla="C1166B_ECT_TES__ActiveBackdrop" anclass="C1166B_ECT_TES__ActiveBackdrop" class="C1166B_ECT_TES__ActiveBackdrop ActiveBackdrop" id=":SSV:ECT:TES_0001_26" hv_id="OCC_SSVECTTES_0001" anpath=":SSV:ECT:TES_0001">

      
      <g transform="matrix(1.000000, 0.000000, 0.000000, 1.000000, 0.000000, 0.000000)"><polygon class="AnPolygon" points="1151,1984 1296,1984 1296,2066 1151,2066 1151,1984 " fill-rule="evenodd"/>

    
    </g></g>

    
    <g style="fill:#00FF00; " cmn_acla="C1166B_ECT_TES__ActiveBackdrop" anclass="C1166B_ECT_TES__ActiveBackdrop" class="C1166B_ECT_TES__ActiveBackdrop ActiveBackdrop" id=":SSV:ECT:TES_0002_27" hv_id="OCC_SSVECTTES_0002" anpath=":SSV:ECT:TES_0002">

      
      <g transform="matrix(1.000000, 0.000000, 0.000000, 1.000000, 0.000000, 0.000000)"><polygon class="AnPolygon" points="1008,1984 1151,1984 1151,2066 1008,2066 1008,1984 " fill-rule="evenodd"/>

    
    </g></g>

    
    <g style="fill:#00FF00; " cmn_acla="C1166B_ECT_TES__ActiveBackdrop" anclass="C1166B_ECT_TES__ActiveBackdrop" class="C1166B_ECT_TES__ActiveBackdrop ActiveBackdrop" id=":SSV:ECT:TES_0003_28" hv_id="OCC_SSVECTTES_0003" anpath=":SSV:ECT:TES_0003">

      
      <g transform="matrix(1.000000, 0.000000, 0.000000, 1.000000, 0.000000, 0.000000)"><polygon class="AnPolygon" points="692,1984 1008,1984 1008,2066 692,2066 692,1984 " fill-rule="evenodd"/>

    
    </g></g>

    
    <g style="fill:#00FF00; " cmn_acla="C1166B_ECT_TES__ActiveBackdrop" anclass="C1166B_ECT_TES__ActiveBackdrop" class="C1166B_ECT_TES__ActiveBackdrop ActiveBackdrop" id=":SSV:ECT:TES_0004_29" hv_id="OCC_SSVECTTES_0004" anpath=":SSV:ECT:TES_0004">

      
      <g transform="matrix(1.000000, 0.000000, 0.000000, 1.000000, 0.000000, 0.000000)"><polygon class="AnPolygon" points="433,1984 692,1984 692,2066 433,2066 433,1984 " fill-rule="evenodd"/>

    
    </g></g>

    
    <g style="fill:#00FF00; " cmn_acla="C1166B_ECT_TES__ActiveBackdrop" anclass="C1166B_ECT_TES__ActiveBackdrop" class="C1166B_ECT_TES__ActiveBackdrop ActiveBackdrop" id=":CTV:ECT:TES_0012_30" hv_id="OCC_CTVECTTES_0012" anpath=":CTV:ECT:TES_0012">

      
      <g transform="matrix(1.000000, 0.000000, 0.000000, 1.000000, 0.000000, 0.000000)"><polygon class="AnPolygon" points="1296,1984 1534,1984 1534,2066 1296,2066 1296,1984 " fill-rule="evenodd"/>

    
    </g></g>

    
    <g style="fill:#00FF00; " cmn_acla="C1166B_ECT_TES__ActiveBackdrop" anclass="C1166B_ECT_TES__ActiveBackdrop" class="C1166B_ECT_TES__ActiveBackdrop ActiveBackdrop" id=":CTV:ECT:TES_0001_31" hv_id="OCC_CTVECTTES_0001" anpath=":CTV:ECT:TES_0001">

      
      <g transform="matrix(1.000000, 0.000000, 0.000000, 1.000000, 0.000000, 0.000000)"><polygon class="AnPolygon" points="3413,1984 3722,1984 3722,2066 3413,2066 3413,1984 " fill-rule="evenodd"/>

    
    </g></g>

    
    <g style="fill:#00FF00; " cmn_acla="C1166B_ECT_TES__ActiveBackdrop" anclass="C1166B_ECT_TES__ActiveBackdrop" class="C1166B_ECT_TES__ActiveBackdrop ActiveBackdrop" id=":CTV:ECT:TES_0002_32" hv_id="OCC_CTVECTTES_0002" anpath=":CTV:ECT:TES_0002">

      
      <g transform="matrix(1.000000, 0.000000, 0.000000, 1.000000, 0.000000, 0.000000)"><polygon class="AnPolygon" points="3081,1984 3413,1984 3413,2066 3081,2066 3081,1984 " fill-rule="evenodd"/>

    
    </g></g>

    
    <g style="fill:#00FF00; " cmn_acla="C1166B_ECT_TES__ActiveBackdrop" anclass="C1166B_ECT_TES__ActiveBackdrop" class="C1166B_ECT_TES__ActiveBackdrop ActiveBackdrop" id=":CTV:ECT:TES_0003_33" hv_id="OCC_CTVECTTES_0003" anpath=":CTV:ECT:TES_0003">

      
      <g transform="matrix(1.000000, 0.000000, 0.000000, 1.000000, 0.000000, 0.000000)"><polygon class="AnPolygon" points="2829,1984 3081,1984 3081,2066 2829,2066 2829,1984 " fill-rule="evenodd"/>

    
    </g></g>

    
    <g style="fill:#00FF00; " cmn_acla="C1166B_ECT_TES__ActiveBackdrop" anclass="C1166B_ECT_TES__ActiveBackdrop" class="C1166B_ECT_TES__ActiveBackdrop ActiveBackdrop" id=":CTV:ECT:TES_0004_34" hv_id="OCC_CTVECTTES_0004" anpath=":CTV:ECT:TES_0004">

      
      <g transform="matrix(1.000000, 0.000000, 0.000000, 1.000000, 0.000000, 0.000000)"><polygon class="AnPolygon" points="2641,1984 2829,1984 2829,2066 2641,2066 2641,1984 " fill-rule="evenodd"/>

    
    </g></g>

    
    <g style="fill:#00FF00; " cmn_acla="C1166B_ECT_TES__ActiveBackdrop" anclass="C1166B_ECT_TES__ActiveBackdrop" class="C1166B_ECT_TES__ActiveBackdrop ActiveBackdrop" id=":CTV:ECT:TES_0005_35" hv_id="OCC_CTVECTTES_0005" anpath=":CTV:ECT:TES_0005">

      
      <g transform="matrix(1.000000, 0.000000, 0.000000, 1.000000, 0.000000, 0.000000)"><polygon class="AnPolygon" points="2514,1984 2641,1984 2641,2066 2514,2066 2514,1984 " fill-rule="evenodd"/>

    
    </g></g>

    
    <g style="fill:#00FF00; " cmn_acla="C1166B_ECT_TES__ActiveBackdrop" anclass="C1166B_ECT_TES__ActiveBackdrop" class="C1166B_ECT_TES__ActiveBackdrop ActiveBackdrop" id=":CTV:ECT:TES_0006_36" hv_id="OCC_CTVECTTES_0006" anpath=":CTV:ECT:TES_0006">

      
      <g transform="matrix(1.000000, 0.000000, 0.000000, 1.000000, 0.000000, 0.000000)"><polygon class="AnPolygon" points="2374,1984 2514,1984 2514,2066 2374,2066 2374,1984 " fill-rule="evenodd"/>

    
    </g></g>

    
    <g style="fill:#00FF00; " cmn_acla="C1166B_ECT_TES__ActiveBackdrop" anclass="C1166B_ECT_TES__ActiveBackdrop" class="C1166B_ECT_TES__ActiveBackdrop ActiveBackdrop" id=":CTV:ECT:TES_0007_37" hv_id="OCC_CTVECTTES_0007" anpath=":CTV:ECT:TES_0007">

      
      <g transform="matrix(1.000000, 0.000000, 0.000000, 1.000000, 0.000000, 0.000000)"><polygon class="AnPolygon" points="2235,1984 2374,1984 2374,2066 2235,2066 2235,1984 " fill-rule="evenodd"/>

    
    </g></g>

    
    <g style="fill:#00FF00; " cmn_acla="C1166B_ECT_TES__ActiveBackdrop" anclass="C1166B_ECT_TES__ActiveBackdrop" class="C1166B_ECT_TES__ActiveBackdrop ActiveBackdrop" id=":CTV:ECT:TES_0008_38" hv_id="OCC_CTVECTTES_0008" anpath=":CTV:ECT:TES_0008">

      
      <g transform="matrix(1.000000, 0.000000, 0.000000, 1.000000, 0.000000, 0.000000)"><polygon class="AnPolygon" points="2072,1984 2235,1984 2235,2066 2072,2066 2072,1984 " fill-rule="evenodd"/>

    
    </g></g>

    
    <g style="fill:#00FF00; " cmn_acla="C1166B_ECT_TES__ActiveBackdrop" anclass="C1166B_ECT_TES__ActiveBackdrop" class="C1166B_ECT_TES__ActiveBackdrop ActiveBackdrop" id=":CTV:ECT:TES_0009_39" hv_id="OCC_CTVECTTES_0009" anpath=":CTV:ECT:TES_0009">

      
      <g transform="matrix(1.000000, 0.000000, 0.000000, 1.000000, 0.000000, 0.000000)"><polygon class="AnPolygon" points="1878,1984 2072,1984 2072,2066 1878,2066 1878,1984 " fill-rule="evenodd"/>

    
    </g></g>

    
    <g style="fill:#00FF00; " cmn_acla="C1166B_ECT_TES__ActiveBackdrop" anclass="C1166B_ECT_TES__ActiveBackdrop" class="C1166B_ECT_TES__ActiveBackdrop ActiveBackdrop" id=":CTV:ECT:TES_0010_40" hv_id="OCC_CTVECTTES_0010" anpath=":CTV:ECT:TES_0010">

      
      <g transform="matrix(1.000000, 0.000000, 0.000000, 1.000000, 0.000000, 0.000000)"><polygon class="AnPolygon" points="1706,1984 1878,1984 1878,2066 1706,2066 1706,1984 " fill-rule="evenodd"/>

    
    </g></g>

    
    <g style="fill:#00FF00; " cmn_acla="C1166B_ECT_TES__ActiveBackdrop" anclass="C1166B_ECT_TES__ActiveBackdrop" class="C1166B_ECT_TES__ActiveBackdrop ActiveBackdrop" id=":CTV:ECT:TES_0011_41" hv_id="OCC_CTVECTTES_0011" anpath=":CTV:ECT:TES_0011">

      
      <g transform="matrix(1.000000, 0.000000, 0.000000, 1.000000, 0.000000, 0.000000)"><polygon class="AnPolygon" points="1534,1984 1706,1984 1706,2066 1534,2066 1534,1984 " fill-rule="evenodd"/>

    
    </g></g>

  
  </g>

  
  <g class="AnLayer" id="Signalling_Track_Section">

    
    <g style="fill:#FF0000; " cmn_acla="C1166B_SIG_TACK_ActiveBackdrop" anclass="C1166B_SIG_TACK_ActiveBackdrop" class="C1166B_SIG_TACK_ActiveBackdrop ActiveBackdrop" id=":OCC:SIG:TACK0449_73" hv_id="OCC_OCCSIGTACK0449" anpath=":OCC:SIG:TACK0449">

      
      <g transform="matrix(1.000000, 0.000000, 0.000000, 1.000000, 0.000000, 0.000000)"><polygon class="AnPolygon" points="408,1111 748,1111 748,1127 408,1127 408,1111 " fill-rule="evenodd"/>

    
    </g></g>

    
    <g style="fill:#FF0000; " cmn_acla="C1166B_SIG_TACK_ActiveBackdrop" anclass="C1166B_SIG_TACK_ActiveBackdrop" class="C1166B_SIG_TACK_ActiveBackdrop ActiveBackdrop" id=":OCC:SIG:TACK0443_74" hv_id="OCC_OCCSIGTACK0443" anpath=":OCC:SIG:TACK0443">

      
      <g transform="matrix(1.000000, 0.000000, 0.000000, 1.000000, 0.000000, 0.000000)"><polygon class="AnPolygon" points="778,1111 938,1111 938,1127 778,1127 778,1111 " fill-rule="evenodd"/>

    
    </g></g>

    
    <g style="fill:#FF0000; " cmn_acla="C1166B_SIG_TACK_ActiveBackdrop" anclass="C1166B_SIG_TACK_ActiveBackdrop" class="C1166B_SIG_TACK_ActiveBackdrop ActiveBackdrop" id=":OCC:SIG:TACK0209_75" hv_id="OCC_OCCSIGTACK0209" anpath=":OCC:SIG:TACK0209">

      
      <g transform="matrix(1.000000, 0.000000, 0.000000, 1.000000, 0.000000, 0.000000)"><polygon class="AnPolygon" points="963,1111 1193,1111 1193,1127 963,1127 963,1111 " fill-rule="evenodd"/>

    
    </g></g>

    
    <g style="fill:#FF0000; " cmn_acla="C1166B_SIG_TACK_ActiveBackdrop" anclass="C1166B_SIG_TACK_ActiveBackdrop" class="C1166B_SIG_TACK_ActiveBackdrop ActiveBackdrop" id=":OCC:SIG:TACK0210_76" hv_id="OCC_OCCSIGTACK0210" anpath=":OCC:SIG:TACK0210">

      
      <g transform="matrix(1.000000, 0.000000, 0.000000, 1.000000, 0.000000, 0.000000)"><polygon class="AnPolygon" points="1218,1111 1558,1111 1558,1127 1218,1127 1218,1111 " fill-rule="evenodd"/>

    
    </g></g>

    
    <g style="fill:#FF0000; " cmn_acla="C1166B_SIG_TACK_ActiveBackdrop" anclass="C1166B_SIG_TACK_ActiveBackdrop" class="C1166B_SIG_TACK_ActiveBackdrop ActiveBackdrop" id=":OCC:SIG:TACK0211_77" hv_id="OCC_OCCSIGTACK0211" anpath=":OCC:SIG:TACK0211">

      
      <g transform="matrix(1.000000, 0.000000, 0.000000, 1.000000, 0.000000, 0.000000)"><polygon class="AnPolygon" points="1583,1111 1923,1111 1923,1127 1583,1127 1583,1111 " fill-rule="evenodd"/>

    
    </g></g>

    
    <g style="fill:#FF0000; " cmn_acla="C1166B_SIG_TACK_ActiveBackdrop" anclass="C1166B_SIG_TACK_ActiveBackdrop" class="C1166B_SIG_TACK_ActiveBackdrop ActiveBackdrop" id=":OCC:SIG:TACK0212_78" hv_id="OCC_OCCSIGTACK0212" anpath=":OCC:SIG:TACK0212">

      
      <g transform="matrix(1.000000, 0.000000, 0.000000, 1.000000, 0.000000, 0.000000)"><polygon class="AnPolygon" points="1948,1111 2288,1111 2288,1127 1948,1127 1948,1111 " fill-rule="evenodd"/>

    
    </g></g>

    
    <g style="fill:#FF0000; " cmn_acla="C1166B_SIG_TACK_ActiveBackdrop" anclass="C1166B_SIG_TACK_ActiveBackdrop" class="C1166B_SIG_TACK_ActiveBackdrop ActiveBackdrop" id=":OCC:SIG:TACK0213_79" hv_id="OCC_OCCSIGTACK0213" anpath=":OCC:SIG:TACK0213">

      
      <g transform="matrix(1.000000, 0.000000, 0.000000, 1.000000, 0.000000, 0.000000)"><polygon class="AnPolygon" points="2313,1111 2653,1111 2653,1127 2313,1127 2313,1111 " fill-rule="evenodd"/>

    
    </g></g>

    
    <g style="fill:#FF0000; " cmn_acla="C1166B_SIG_TACK_ActiveBackdrop" anclass="C1166B_SIG_TACK_ActiveBackdrop" class="C1166B_SIG_TACK_ActiveBackdrop ActiveBackdrop" id=":OCC:SIG:TACK0214_80" hv_id="OCC_OCCSIGTACK0214" anpath=":OCC:SIG:TACK0214">

      
      <g transform="matrix(1.000000, 0.000000, 0.000000, 1.000000, 0.000000, 0.000000)"><polygon class="AnPolygon" points="2678,1111 2963,1111 2963,1127 2678,1127 2678,1111 " fill-rule="evenodd"/>

    
    </g></g>

    
    <g style="fill:#FF0000; " cmn_acla="C1166B_SIG_TACK_ActiveBackdrop" anclass="C1166B_SIG_TACK_ActiveBackdrop" class="C1166B_SIG_TACK_ActiveBackdrop ActiveBackdrop" id=":OCC:SIG:TACK0215_81" hv_id="OCC_OCCSIGTACK0215" anpath=":OCC:SIG:TACK0215">

      
      <g transform="matrix(1.000000, 0.000000, 0.000000, 1.000000, 0.000000, 0.000000)"><polygon class="AnPolygon" points="2988,1111 3228,1111 3228,1127 2988,1127 2988,1111 " fill-rule="evenodd"/>

    
    </g></g>

    
    <g style="fill:#FF0000; " cmn_acla="C1166B_SIG_TACK_ActiveBackdrop" anclass="C1166B_SIG_TACK_ActiveBackdrop" class="C1166B_SIG_TACK_ActiveBackdrop ActiveBackdrop" id=":OCC:SIG:TACK0216_82" hv_id="OCC_OCCSIGTACK0216" anpath=":OCC:SIG:TACK0216">

      
      <g transform="matrix(1.000000, 0.000000, 0.000000, 1.000000, 0.000000, 0.000000)"><polygon class="AnPolygon" points="3253,1171 3473,1171 3473,1187 3253,1187 3253,1171 " fill-rule="evenodd"/>

    
    </g></g>

    
    <g style="fill:#FF0000; " cmn_acla="C1166B_SIG_TACK_ActiveBackdrop" anclass="C1166B_SIG_TACK_ActiveBackdrop" class="C1166B_SIG_TACK_ActiveBackdrop ActiveBackdrop" id=":OCC:SIG:TACK0217_83" hv_id="OCC_OCCSIGTACK0217" anpath=":OCC:SIG:TACK0217">

      
      <g transform="matrix(1.000000, 0.000000, 0.000000, 1.000000, 0.000000, 0.000000)"><polygon class="AnPolygon" points="3498,1231 3713,1231 3713,1247 3498,1247 3498,1231 " fill-rule="evenodd"/>

    
    </g></g>

    
    <g style="fill:#FF0000; " cmn_acla="C1166B_SIG_TACK_ActiveBackdrop" anclass="C1166B_SIG_TACK_ActiveBackdrop" class="C1166B_SIG_TACK_ActiveBackdrop ActiveBackdrop" id=":OCC:SIG:TACK0218_84" hv_id="OCC_OCCSIGTACK0218" anpath=":OCC:SIG:TACK0218">

      
      <g transform="matrix(1.000000, 0.000000, 0.000000, 1.000000, 0.000000, 0.000000)"><polygon class="AnPolygon" points="3743,1231 4078,1231 4078,1247 3743,1247 3743,1231 " fill-rule="evenodd"/>

    
    </g></g>

    
    <g style="fill:#FF0000; " cmn_acla="C1166B_SIG_TACK_ActiveBackdrop" anclass="C1166B_SIG_TACK_ActiveBackdrop" class="C1166B_SIG_TACK_ActiveBackdrop ActiveBackdrop" id=":OCC:SIG:TACK0229_85" hv_id="OCC_OCCSIGTACK0229" anpath=":OCC:SIG:TACK0229">

      
      <g transform="matrix(1.000000, 0.000000, 0.000000, 1.000000, 0.000000, 0.000000)"><polygon class="AnPolygon" points="3743,1436 4078,1436 4078,1452 3743,1452 3743,1436 " fill-rule="evenodd"/>

    
    </g></g>

    
    <g style="fill:#FF0000; " cmn_acla="C1166B_SIG_TACK_ActiveBackdrop" anclass="C1166B_SIG_TACK_ActiveBackdrop" class="C1166B_SIG_TACK_ActiveBackdrop ActiveBackdrop" id=":OCC:SIG:TACK0228_86" hv_id="OCC_OCCSIGTACK0228" anpath=":OCC:SIG:TACK0228">

      
      <g transform="matrix(1.000000, 0.000000, 0.000000, 1.000000, 0.000000, 0.000000)"><polygon class="AnPolygon" points="3498,1436 3713,1436 3713,1452 3498,1452 3498,1436 " fill-rule="evenodd"/>

    
    </g></g>

    
    <g style="fill:#FF0000; " cmn_acla="C1166B_SIG_TACK_ActiveBackdrop" anclass="C1166B_SIG_TACK_ActiveBackdrop" class="C1166B_SIG_TACK_ActiveBackdrop ActiveBackdrop" id=":OCC:SIG:TACK0227_87" hv_id="OCC_OCCSIGTACK0227" anpath=":OCC:SIG:TACK0227">

      
      <g transform="matrix(1.000000, 0.000000, 0.000000, 1.000000, 0.000000, 0.000000)"><polygon class="AnPolygon" points="3253,1491 3473,1491 3473,1507 3253,1507 3253,1491 " fill-rule="evenodd"/>

    
    </g></g>

    
    <g style="fill:#FF0000; " cmn_acla="C1166B_SIG_TACK_ActiveBackdrop" anclass="C1166B_SIG_TACK_ActiveBackdrop" class="C1166B_SIG_TACK_ActiveBackdrop ActiveBackdrop" id=":OCC:SIG:TACK0226_88" hv_id="OCC_OCCSIGTACK0226" anpath=":OCC:SIG:TACK0226">

      
      <g transform="matrix(1.000000, 0.000000, 0.000000, 1.000000, 0.000000, 0.000000)"><polygon class="AnPolygon" points="2988,1546 3228,1546 3228,1562 2988,1562 2988,1546 " fill-rule="evenodd"/>

    
    </g></g>

    
    <g style="fill:#FF0000; " cmn_acla="C1166B_SIG_TACK_ActiveBackdrop" anclass="C1166B_SIG_TACK_ActiveBackdrop" class="C1166B_SIG_TACK_ActiveBackdrop ActiveBackdrop" id=":OCC:SIG:TACK0225_89" hv_id="OCC_OCCSIGTACK0225" anpath=":OCC:SIG:TACK0225">

      
      <g transform="matrix(1.000000, 0.000000, 0.000000, 1.000000, 0.000000, 0.000000)"><polygon class="AnPolygon" points="2678,1546 2963,1546 2963,1562 2678,1562 2678,1546 " fill-rule="evenodd"/>

    
    </g></g>

    
    <g style="fill:#FF0000; " cmn_acla="C1166B_SIG_TACK_ActiveBackdrop" anclass="C1166B_SIG_TACK_ActiveBackdrop" class="C1166B_SIG_TACK_ActiveBackdrop ActiveBackdrop" id=":OCC:SIG:TACK0224_90" hv_id="OCC_OCCSIGTACK0224" anpath=":OCC:SIG:TACK0224">

      
      <g transform="matrix(1.000000, 0.000000, 0.000000, 1.000000, 0.000000, 0.000000)"><polygon class="AnPolygon" points="2313,1546 2653,1546 2653,1562 2313,1562 2313,1546 " fill-rule="evenodd"/>

    
    </g></g>

    
    <g style="fill:#FF0000; " cmn_acla="C1166B_SIG_TACK_ActiveBackdrop" anclass="C1166B_SIG_TACK_ActiveBackdrop" class="C1166B_SIG_TACK_ActiveBackdrop ActiveBackdrop" id=":OCC:SIG:TACK0223_91" hv_id="OCC_OCCSIGTACK0223" anpath=":OCC:SIG:TACK0223">

      
      <g transform="matrix(1.000000, 0.000000, 0.000000, 1.000000, 0.000000, 0.000000)"><polygon class="AnPolygon" points="1948,1546 2288,1546 2288,1562 1948,1562 1948,1546 " fill-rule="evenodd"/>

    
    </g></g>

    
    <g style="fill:#FF0000; " cmn_acla="C1166B_SIG_TACK_ActiveBackdrop" anclass="C1166B_SIG_TACK_ActiveBackdrop" class="C1166B_SIG_TACK_ActiveBackdrop ActiveBackdrop" id=":OCC:SIG:TACK0222_92" hv_id="OCC_OCCSIGTACK0222" anpath=":OCC:SIG:TACK0222">

      
      <g transform="matrix(1.000000, 0.000000, 0.000000, 1.000000, 0.000000, 0.000000)"><polygon class="AnPolygon" points="1583,1546 1923,1546 1923,1562 1583,1562 1583,1546 " fill-rule="evenodd"/>

    
    </g></g>

    
    <g style="fill:#FF0000; " cmn_acla="C1166B_SIG_TACK_ActiveBackdrop" anclass="C1166B_SIG_TACK_ActiveBackdrop" class="C1166B_SIG_TACK_ActiveBackdrop ActiveBackdrop" id=":OCC:SIG:TACK0221_93" hv_id="OCC_OCCSIGTACK0221" anpath=":OCC:SIG:TACK0221">

      
      <g transform="matrix(1.000000, 0.000000, 0.000000, 1.000000, 0.000000, 0.000000)"><polygon class="AnPolygon" points="1218,1546 1558,1546 1558,1562 1218,1562 1218,1546 " fill-rule="evenodd"/>

    
    </g></g>

    
    <g style="fill:#FF0000; " cmn_acla="C1166B_SIG_TACK_ActiveBackdrop" anclass="C1166B_SIG_TACK_ActiveBackdrop" class="C1166B_SIG_TACK_ActiveBackdrop ActiveBackdrop" id=":OCC:SIG:TACK0220_94" hv_id="OCC_OCCSIGTACK0220" anpath=":OCC:SIG:TACK0220">

      
      <g transform="matrix(1.000000, 0.000000, 0.000000, 1.000000, 0.000000, 0.000000)"><polygon class="AnPolygon" points="778,1546 1188,1546 1188,1562 778,1562 778,1546 " fill-rule="evenodd"/>

    
    </g></g>

    
    <g style="fill:#FF0000; " cmn_acla="C1166B_SIG_TACK_ActiveBackdrop" anclass="C1166B_SIG_TACK_ActiveBackdrop" class="C1166B_SIG_TACK_ActiveBackdrop ActiveBackdrop" id=":OCC:SIG:TACK0219_95" hv_id="OCC_OCCSIGTACK0219" anpath=":OCC:SIG:TACK0219">

      
      <g transform="matrix(1.000000, 0.000000, 0.000000, 1.000000, 0.000000, 0.000000)"><polygon class="AnPolygon" points="473,1426 693,1426 693,1442 473,1442 473,1426 " fill-rule="evenodd"/>

    
    </g></g>

    
    <g style="fill:#FF0000; " cmn_acla="C1166B_SIG_TACK_ActiveBackdrop" anclass="C1166B_SIG_TACK_ActiveBackdrop" class="C1166B_SIG_TACK_ActiveBackdrop ActiveBackdrop" id=":OCC:SIG:TACK0454_96" hv_id="OCC_OCCSIGTACK0454" anpath=":OCC:SIG:TACK0454">

      
      <g transform="matrix(1.000000, 0.000000, 0.000000, 1.000000, 0.000000, 0.000000)"><polygon class="AnPolygon" points="233,1426 448,1426 448,1442 233,1442 233,1426 " fill-rule="evenodd"/>

    
    </g></g>

  
  </g>

  
  </svg>