<svg contentScriptType="text/ecmascript" width="4786.0" xmlns:xlink="http://www.w3.org/1999/xlink" zoomAndPan="magnify" contentStyleType="text/css" viewBox="0.0 0.0 4786.0 2443.0" height="2443.0" preserveAspectRatio="xMinYMin meet" xmlns="http://www.w3.org/2000/svg" version="1.1">

  
  <g class="AnLayer" id="Equipement">

    
    <g style="fill:#00FF00; " cmn_acla="C1166B_ECT_TEMP_ActiveBackdrop" anclass="C1166B_ECT_TEMP_ActiveBackdrop" class="C1166B_ECT_TEMP_ActiveBackdrop ActiveBackdrop" id=":KOT:ECT:TEMP0001_32" hv_id="OCC_KOTECTTEMP0001" anpath=":KOT:ECT:TEMP0001">

      
      <g transform="matrix(1.000000, 0.000000, 0.000000, 1.000000, 0.000000, 0.000000)"><polygon class="AnPolygon" points="1202,2207 1395,2207 1395,2289 1202,2289 1202,2207 " fill-rule="evenodd"/>

    
    </g></g>

    
    <g style="fill:#00FF00; " cmn_acla="C1166B_ECT_TEMP_ActiveBackdrop" anclass="C1166B_ECT_TEMP_ActiveBackdrop" class="C1166B_ECT_TEMP_ActiveBackdrop ActiveBackdrop" id=":KOT:ECT:TEMP0002_33" hv_id="OCC_KOTECTTEMP0002" anpath=":KOT:ECT:TEMP0002">

      
      <g transform="matrix(1.000000, 0.000000, 0.000000, 1.000000, 0.000000, 0.000000)"><polygon class="AnPolygon" points="1395,2207 1588,2207 1588,2289 1395,2289 1395,2207 " fill-rule="evenodd"/>

    
    </g></g>

    
    <g style="fill:#00FF00; " cmn_acla="C1166B_ECT_TEMP_ActiveBackdrop" anclass="C1166B_ECT_TEMP_ActiveBackdrop" class="C1166B_ECT_TEMP_ActiveBackdrop ActiveBackdrop" id=":KOT:ECT:TEMP0003_34" hv_id="OCC_KOTECTTEMP0003" anpath=":KOT:ECT:TEMP0003">

      
      <g transform="matrix(1.000000, 0.000000, 0.000000, 1.000000, 0.000000, 0.000000)"><polygon class="AnPolygon" points="1588,2207 1781,2207 1781,2289 1588,2289 1588,2207 " fill-rule="evenodd"/>

    
    </g></g>

    
    <g style="fill:#00FF00; " cmn_acla="C1166B_ECT_TEMP_ActiveBackdrop" anclass="C1166B_ECT_TEMP_ActiveBackdrop" class="C1166B_ECT_TEMP_ActiveBackdrop ActiveBackdrop" id=":KOT:ECT:TEMP0004_35" hv_id="OCC_KOTECTTEMP0004" anpath=":KOT:ECT:TEMP0004">

      
      <g transform="matrix(1.000000, 0.000000, 0.000000, 1.000000, 0.000000, 0.000000)"><polygon class="AnPolygon" points="1781,2207 1974,2207 1974,2289 1781,2289 1781,2207 " fill-rule="evenodd"/>

    
    </g></g>

    
    <g style="fill:#00FF00; " cmn_acla="C1166B_ECT_TEMP_ActiveBackdrop" anclass="C1166B_ECT_TEMP_ActiveBackdrop" class="C1166B_ECT_TEMP_ActiveBackdrop ActiveBackdrop" id=":KOT:ECT:TEMP0005_36" hv_id="OCC_KOTECTTEMP0005" anpath=":KOT:ECT:TEMP0005">

      
      <g transform="matrix(1.000000, 0.000000, 0.000000, 1.000000, 0.000000, 0.000000)"><polygon class="AnPolygon" points="1974,2207 2167,2207 2167,2289 1974,2289 1974,2207 " fill-rule="evenodd"/>

    
    </g></g>

    
    <g style="fill:#00FF00; " cmn_acla="C1166B_ECT_TEMP_ActiveBackdrop" anclass="C1166B_ECT_TEMP_ActiveBackdrop" class="C1166B_ECT_TEMP_ActiveBackdrop ActiveBackdrop" id=":KOT:ECT:TEMP0006_37" hv_id="OCC_KOTECTTEMP0006" anpath=":KOT:ECT:TEMP0006">

      
      <g transform="matrix(1.000000, 0.000000, 0.000000, 1.000000, 0.000000, 0.000000)"><polygon class="AnPolygon" points="2167,2207 2360,2207 2360,2289 2167,2289 2167,2207 " fill-rule="evenodd"/>

    
    </g></g>

    
    <g style="fill:#00FF00; " cmn_acla="C1166B_ECT_TEMP_ActiveBackdrop" anclass="C1166B_ECT_TEMP_ActiveBackdrop" class="C1166B_ECT_TEMP_ActiveBackdrop ActiveBackdrop" id=":KOT:ECT:TEMP0007_38" hv_id="OCC_KOTECTTEMP0007" anpath=":KOT:ECT:TEMP0007">

      
      <g transform="matrix(1.000000, 0.000000, 0.000000, 1.000000, 0.000000, 0.000000)"><polygon class="AnPolygon" points="2360,2207 2553,2207 2553,2289 2360,2289 2360,2207 " fill-rule="evenodd"/>

    
    </g></g>

    
    <g style="fill:#00FF00; " cmn_acla="C1166B_ECT_TEMP_ActiveBackdrop" anclass="C1166B_ECT_TEMP_ActiveBackdrop" class="C1166B_ECT_TEMP_ActiveBackdrop ActiveBackdrop" id=":KOT:ECT:TEMP0008_39" hv_id="OCC_KOTECTTEMP0008" anpath=":KOT:ECT:TEMP0008">

      
      <g transform="matrix(1.000000, 0.000000, 0.000000, 1.000000, 0.000000, 0.000000)"><polygon class="AnPolygon" points="2553,2207 2746,2207 2746,2289 2553,2289 2553,2207 " fill-rule="evenodd"/>

    
    </g></g>

    
    <g style="fill:#00FF00; " cmn_acla="C1166B_ECT_TEMP_ActiveBackdrop" anclass="C1166B_ECT_TEMP_ActiveBackdrop" class="C1166B_ECT_TEMP_ActiveBackdrop ActiveBackdrop" id=":KOT:ECT:TEMP0009_40" hv_id="OCC_KOTECTTEMP0009" anpath=":KOT:ECT:TEMP0009">

      
      <g transform="matrix(1.000000, 0.000000, 0.000000, 1.000000, 0.000000, 0.000000)"><polygon class="AnPolygon" points="2746,2207 2939,2207 2939,2289 2746,2289 2746,2207 " fill-rule="evenodd"/>

    
    </g></g>

    
    <g style="fill:#00FF00; " cmn_acla="C1166B_ECT_TEMP_ActiveBackdrop" anclass="C1166B_ECT_TEMP_ActiveBackdrop" class="C1166B_ECT_TEMP_ActiveBackdrop ActiveBackdrop" id=":KOT:ECT:TEMP0010_41" hv_id="OCC_KOTECTTEMP0010" anpath=":KOT:ECT:TEMP0010">

      
      <g transform="matrix(1.000000, 0.000000, 0.000000, 1.000000, 0.000000, 0.000000)"><polygon class="AnPolygon" points="2939,2207 3132,2207 3132,2289 2939,2289 2939,2207 " fill-rule="evenodd"/>

    
    </g></g>

    
    <g style="fill:#00FF00; " cmn_acla="C1166B_ECT_TEMP_ActiveBackdrop" anclass="C1166B_ECT_TEMP_ActiveBackdrop" class="C1166B_ECT_TEMP_ActiveBackdrop ActiveBackdrop" id=":KOT:ECT:TEMP0011_42" hv_id="OCC_KOTECTTEMP0011" anpath=":KOT:ECT:TEMP0011">

      
      <g transform="matrix(1.000000, 0.000000, 0.000000, 1.000000, 0.000000, 0.000000)"><polygon class="AnPolygon" points="3132,2207 3325,2207 3325,2289 3132,2289 3132,2207 " fill-rule="evenodd"/>

    
    </g></g>

    
    <g style="fill:#00FF00; " cmn_acla="C1166B_ECT_TEMP_ActiveBackdrop" anclass="C1166B_ECT_TEMP_ActiveBackdrop" class="C1166B_ECT_TEMP_ActiveBackdrop ActiveBackdrop" id=":KOT:ECT:TEMP0012_43" hv_id="OCC_KOTECTTEMP0012" anpath=":KOT:ECT:TEMP0012">

      
      <g transform="matrix(1.000000, 0.000000, 0.000000, 1.000000, 0.000000, 0.000000)"><polygon class="AnPolygon" points="3325,2207 3518,2207 3518,2289 3325,2289 3325,2207 " fill-rule="evenodd"/>

    
    </g></g>

    
    </g>

  
  </svg>