#define loadfile_width 16
#define loadfile_height 16
static unsigned char loadfile_bits[] = {
   0x00, 0x3c, 0x00, 0x38, 0xfe, 0x3c, 0x0a, 0x2e, 0x0e, 0x07, 0x8a, 0x73,
   0x0e, 0x51, 0x0a, 0x70, 0xf6, 0x5f, 0xaa, 0x6a, 0xf6, 0x5f, 0x8a, 0x7f,
   0x8e, 0x5f, 0x8a, 0x7f, 0xfe, 0x7f, 0x00, 0x00};
