#define IJ_ANIMATORV_XBM_width 33
#define IJ_ANIMATORV_XBM_height 184
static char IJ_ANIMATORV_XBM_bits[] = {
   0x00, 0x00, 0x00, 0x00, 0x00, 0x00, 0x00, 0x00, 0x00, 0x00, 0x00, 0x80,
   0x02, 0x00, 0x00, 0x00, 0x00, 0x01, 0x00, 0x00, 0x00, 0x00, 0x02, 0x00,
   0x00, 0x00, 0x00, 0x05, 0x00, 0x00, 0x00, 0x00, 0x01, 0x00, 0x00, 0x00,
   0x00, 0x05, 0x00, 0x00, 0x00, 0x80, 0x04, 0x00, 0x00, 0x00, 0x00, 0x05,
   0x00, 0x00, 0x00, 0x00, 0x0a, 0x00, 0x00, 0x00, 0x00, 0x05, 0x00, 0x00,
   0x00, 0x00, 0x08, 0x00, 0x00, 0x00, 0x00, 0x0b, 0x00, 0x00, 0x00, 0x00,
   0x14, 0x00, 0x00, 0x00, 0x00, 0x2a, 0x00, 0x00, 0x00, 0x00, 0x50, 0x00,
   0x00, 0x00, 0x00, 0x48, 0x01, 0x00, 0x00, 0x00, 0xa0, 0x02, 0x00, 0x00,
   0x00, 0x00, 0x05, 0x00, 0x00, 0x00, 0x00, 0x00, 0x00, 0x00, 0x00, 0x00,
   0x00, 0x00, 0x00, 0x00, 0x00, 0x00, 0x00, 0x00, 0x00, 0x00, 0x00, 0x00,
   0x00, 0x00, 0x00, 0x00, 0x00, 0x00, 0x00, 0x00, 0x00, 0x00, 0x00, 0x00,
   0x10, 0x00, 0x00, 0x00, 0x00, 0x68, 0x00, 0x00, 0x00, 0x00, 0x96, 0x00,
   0x00, 0x00, 0x00, 0xa8, 0x00, 0x00, 0x00, 0x00, 0x4a, 0x01, 0x00, 0x00,
   0x00, 0x2a, 0x01, 0x00, 0x00, 0x00, 0x88, 0x02, 0x00, 0x00, 0x00, 0x8a,
   0x04, 0x00, 0x00, 0x00, 0x2a, 0x05, 0x00, 0x00, 0x00, 0x90, 0x0a, 0x00,
   0x00, 0x00, 0xa8, 0x04, 0x00, 0x00, 0x40, 0xa0, 0x0a, 0x00, 0x00, 0x80,
   0x00, 0x01, 0x00, 0x00, 0x40, 0x00, 0x00, 0x00, 0x00, 0x80, 0x00, 0x00,
   0x00, 0x00, 0x40, 0x01, 0x00, 0x00, 0x00, 0x40, 0x01, 0x00, 0x00, 0x00,
   0x00, 0x01, 0x00, 0x00, 0x00, 0x80, 0x02, 0x00, 0x00, 0x00, 0x80, 0x02,
   0x00, 0x00, 0x00, 0x09, 0x01, 0x00, 0x00, 0x80, 0x6a, 0x05, 0x00, 0x00,
   0x00, 0x28, 0x05, 0x00, 0x00, 0x00, 0xa0, 0x0a, 0x00, 0x00, 0x00, 0x80,
   0x12, 0x00, 0x00, 0x00, 0x00, 0x6a, 0x00, 0x00, 0x00, 0x00, 0x94, 0x0a,
   0x00, 0x00, 0x00, 0x40, 0x15, 0x00, 0x00, 0x00, 0x00, 0x00, 0x00, 0x00,
   0x00, 0x00, 0x00, 0x00, 0x00, 0x00, 0x00, 0x00, 0x00, 0x00, 0x00, 0x00,
   0x00, 0x00, 0x00, 0x00, 0x00, 0x00, 0x00, 0x00, 0x00, 0x00, 0x00, 0x00,
   0x00, 0x00, 0x00, 0x00, 0x00, 0x00, 0x00, 0x00, 0x00, 0x00, 0x00, 0x00,
   0x00, 0x00, 0x00, 0x00, 0x00, 0x00, 0x00, 0x00, 0x00, 0x00, 0x00, 0x00,
   0x00, 0x00, 0x00, 0x00, 0x02, 0x00, 0x00, 0x00, 0x80, 0x15, 0x00, 0x00,
   0x00, 0x30, 0x00, 0x00, 0x00, 0x00, 0x40, 0x00, 0x00, 0x00, 0x00, 0x50,
   0x00, 0x00, 0x00, 0x00, 0xa0, 0x01, 0x00, 0x00, 0x00, 0x20, 0x02, 0x00,
   0x00, 0x00, 0x80, 0x02, 0x00, 0x00, 0x00, 0x50, 0x0d, 0x00, 0x00, 0x00,
   0xa0, 0x02, 0x00, 0x00, 0x00, 0x50, 0x2d, 0x00, 0x00, 0x00, 0x40, 0x12,
   0x00, 0x00, 0x00, 0x80, 0x0a, 0x00, 0x00, 0x00, 0x00, 0x00, 0x00, 0x00,
   0x00, 0x00, 0x00, 0x00, 0x00, 0x00, 0x00, 0x00, 0x00, 0x00, 0x00, 0x00,
   0x00, 0x00, 0x00, 0x00, 0x00, 0x00, 0x00, 0x00, 0x00, 0x00, 0x00, 0x00,
   0x00, 0x00, 0x00, 0x00, 0x00, 0x00, 0x00, 0x00, 0x00, 0x00, 0x00, 0x00,
   0x40, 0x09, 0x00, 0x00, 0x00, 0xa0, 0x0a, 0x00, 0x00, 0x00, 0x50, 0x04,
   0x00, 0x00, 0x00, 0xa0, 0x00, 0x00, 0x00, 0x00, 0x50, 0x00, 0x00, 0x00,
   0x00, 0x40, 0x01, 0x00, 0x00, 0x00, 0x80, 0x02, 0x00, 0x00, 0x00, 0x80,
   0x0a, 0x00, 0x00, 0x00, 0x80, 0x0a, 0x00, 0x00, 0x00, 0x00, 0x15, 0x00,
   0x00, 0x00, 0xc0, 0x04, 0x00, 0x00, 0x00, 0x50, 0x00, 0x00, 0x00, 0x00,
   0x28, 0x00, 0x00, 0x00, 0x00, 0x50, 0x00, 0x00, 0x00, 0x00, 0xa0, 0x00,
   0x00, 0x00, 0x00, 0x40, 0x01, 0x00, 0x00, 0x00, 0x40, 0x05, 0x00, 0x00,
   0x00, 0x90, 0x0a, 0x00, 0x00, 0x00, 0xa8, 0x14, 0x00, 0x00, 0x00, 0x40,
   0x25, 0x00, 0x00, 0x00, 0x00, 0x15, 0x00, 0x00, 0x00, 0x00, 0x04, 0x00,
   0x00, 0x00, 0x00, 0x00, 0x00, 0x00, 0x00, 0x00, 0x00, 0x00, 0x00, 0x00,
   0x00, 0x00, 0x00, 0x00, 0x00, 0x00, 0x00, 0x00, 0x00, 0x20, 0x00, 0x00,
   0x00, 0x00, 0x28, 0x00, 0x00, 0x00, 0x00, 0x28, 0x00, 0x00, 0x00, 0x00,
   0x08, 0x00, 0x00, 0x00, 0x00, 0x00, 0x00, 0x00, 0x00, 0x00, 0x00, 0x00,
   0x00, 0x00, 0x00, 0x00, 0x50, 0x01, 0x00, 0x00, 0x00, 0xa8, 0x06, 0x00,
   0x00, 0x00, 0x00, 0x09, 0x00, 0x00, 0x00, 0x00, 0x0a, 0x00, 0x00, 0x00,
   0x00, 0x04, 0x00, 0x00, 0x00, 0x00, 0x04, 0x00, 0x00, 0x00, 0x00, 0x00,
   0x00, 0x00, 0x00, 0x00, 0x00, 0x00, 0x00, 0x00, 0x00, 0x00, 0x00, 0x00,
   0x00, 0x00, 0x00, 0x00, 0x00, 0x00, 0x00, 0x00, 0x00, 0x00, 0x00, 0x60,
   0x05, 0x00, 0x00, 0x00, 0x90, 0x0a, 0x00, 0x00, 0x00, 0x50, 0x04, 0x00,
   0x00, 0x00, 0xa8, 0x00, 0x00, 0x00, 0x00, 0xa0, 0x00, 0x00, 0x00, 0x00,
   0x90, 0x02, 0x00, 0x00, 0x00, 0x40, 0x05, 0x00, 0x00, 0x00, 0x40, 0x0a,
   0x00, 0x00, 0x00, 0x80, 0x0a, 0x00, 0x00, 0x00, 0x2c, 0x12, 0x00, 0x00,
   0x00, 0x50, 0x15, 0x00, 0x00, 0x00, 0x94, 0x2a, 0x00, 0x00, 0x00, 0x28,
   0x09, 0x00, 0x00, 0x00, 0x00, 0x02, 0x00, 0x00, 0x00, 0x00, 0x00, 0x00,
   0x00, 0x00, 0x00, 0x00, 0x00, 0x00, 0x00, 0x00, 0x00, 0x00, 0x00, 0x00,
   0x00, 0x00, 0x00, 0x00, 0x00, 0x00, 0x00, 0x00, 0x00, 0x00, 0x00, 0x00,
   0x00, 0x00, 0x00, 0x00, 0x00, 0x00, 0x50, 0x00, 0x00, 0x00, 0x00, 0x94,
   0x02, 0x00, 0x00, 0x00, 0xaa, 0x0a, 0x00, 0x00, 0x00, 0x44, 0x15, 0x00,
   0x00, 0x00, 0x0a, 0xd2, 0x00, 0x00, 0x00, 0x14, 0x28, 0x05, 0x00, 0x00,
   0x24, 0xa0, 0x0a, 0x00, 0x00, 0x28, 0x00, 0x15, 0x00, 0x00, 0x50, 0x00,
   0x69, 0x00, 0x00, 0x50, 0x00, 0x8a, 0x01, 0x00, 0x90, 0x00, 0x52, 0x05,
   0x00, 0xa0, 0x00, 0x41, 0x1a, 0x00, 0x80, 0x02, 0x05, 0x4a, 0x00, 0x00,
   0x05, 0x02, 0x28, 0x00, 0x80, 0x0a, 0x05, 0x20, 0x00, 0x00, 0x0a, 0x05,
   0x00, 0x00, 0x00, 0x28, 0x04, 0x00, 0x00, 0x00, 0x2a, 0x05, 0x00, 0x00,
   0x00, 0xa0, 0x02, 0x00, 0x00, 0x00, 0x50, 0x05, 0x00, 0x00, 0x00, 0x90,
   0x02, 0x00, 0x00, 0x00, 0x40, 0x02, 0x00, 0x00, 0x00, 0x40, 0x05, 0x00,
   0x00, 0x00, 0x80, 0x1a, 0x00, 0x00, 0x00, 0x00, 0x24, 0x00, 0x00, 0x00,
   0x00, 0x54, 0x00, 0x00, 0x00, 0x00, 0xa8, 0x00, 0x00, 0x00, 0x00, 0xa0,
   0x02, 0x00, 0x00, 0x00, 0x20, 0x05, 0x00, 0x00, 0x00, 0x80, 0x0a, 0x00,
   0x00, 0x00, 0x00, 0x29, 0x00, 0x00, 0x00, 0x00, 0x2a, 0x00, 0x00, 0x00,
   0x00, 0x08, 0x00, 0x00, 0x00, 0x00, 0x00, 0x00};
