<?xml version="1.0" encoding="UTF-8" standalone="no"?>
<!-- Created with Inkscape (http://www.inkscape.org/) -->

<svg
   xmlns:dc="http://purl.org/dc/elements/1.1/"
   xmlns:cc="http://creativecommons.org/ns#"
   xmlns:rdf="http://www.w3.org/1999/02/22-rdf-syntax-ns#"
   xmlns:svg="http://www.w3.org/2000/svg"
   xmlns="http://www.w3.org/2000/svg"
   xmlns:sodipodi="http://sodipodi.sourceforge.net/DTD/sodipodi-0.dtd"
   xmlns:inkscape="http://www.inkscape.org/namespaces/inkscape"
   width="160"
   height="80"
   viewBox="0 0 160 80.000002"
   id="svg2"
   version="1.1"
   inkscape:version="0.91 r13725"
   sodipodi:docname="chart_types.svg"
   inkscape:export-filename="A:\wip\ec3_kpi\kpi-layout.png"
   inkscape:export-xdpi="90"
   inkscape:export-ydpi="90">
  <defs
     id="defs4" />
  <sodipodi:namedview
     id="base"
     pagecolor="#373737"
     bordercolor="#666666"
     borderopacity="1.0"
     inkscape:pageopacity="1"
     inkscape:pageshadow="2"
     inkscape:zoom="0.98994949"
     inkscape:cx="205.59072"
     inkscape:cy="154.45483"
     inkscape:document-units="px"
     inkscape:current-layer="g4916"
     showgrid="true"
     units="px"
     inkscape:window-width="1920"
     inkscape:window-height="1178"
     inkscape:window-x="1912"
     inkscape:window-y="-8"
     inkscape:window-maximized="1"
     objecttolerance="10000"
     guidetolerance="10000"
     showguides="false">
    <inkscape:grid
       type="xygrid"
       id="grid4136"
       empspacing="20"
       spacingx="2"
       spacingy="2"
       color="#fff300"
       opacity="0.09411765"
       empcolor="#f3f100"
       empopacity="0.25098039" />
  </sodipodi:namedview>
  <metadata
     id="metadata7">
    <rdf:RDF>
      <cc:Work
         rdf:about="">
        <dc:format>image/svg+xml</dc:format>
        <dc:type
           rdf:resource="http://purl.org/dc/dcmitype/StillImage" />
        <dc:title />
      </cc:Work>
    </rdf:RDF>
  </metadata>
  <g
     inkscape:label="Layer 1"
     inkscape:groupmode="layer"
     id="layer1"
     transform="translate(0,-972.3622)">
    <g
       id="g4225">
      <path
         inkscape:connector-curvature="0"
         id="path4191"
         d="m 32,1004.3622 -24,0 0,-26"
         style="fill:none;fill-rule:evenodd;stroke:#ffffff;stroke-width:2;stroke-linecap:round;stroke-linejoin:miter;stroke-opacity:1;stroke-miterlimit:4;stroke-dasharray:none" />
      <path
         inkscape:connector-curvature="0"
         id="path4193"
         d="m 8,1004.3622 4,-8 8,4 4,-10 4,8 4,-10"
         style="fill:none;fill-rule:evenodd;stroke:#ffffff;stroke-width:1px;stroke-linecap:round;stroke-linejoin:miter;stroke-opacity:1" />
      <path
         sodipodi:nodetypes="cccccc"
         inkscape:connector-curvature="0"
         id="path4197"
         d="m 8,1004.3622 3.873731,-14.17132 6.484771,5.60089 5.515229,-12.25254 L 28,990.40281 32,978.3622"
         style="fill:none;fill-rule:evenodd;stroke:#ffffff;stroke-width:1px;stroke-linecap:butt;stroke-linejoin:miter;stroke-opacity:0.49803922" />
    </g>
    <g
       id="g4779">
      <path
         transform="translate(0,972.3622)"
         id="path4777"
         d="M 56.855469 6.375 A 14 14 0 0 0 46 20 A 14 14 0 0 0 60 34 A 14 14 0 0 0 72.732422 25.787109 L 60 20 L 56.855469 6.375 z "
         style="fill:#ffffff;fill-opacity:1;stroke:none;stroke-width:1;stroke-linecap:round;stroke-linejoin:round;stroke-miterlimit:4;stroke-dasharray:none;stroke-opacity:0.49803922" />
      <path
         transform="translate(0,972.3622)"
         id="path4737"
         d="M 56.855469 6.375 L 60 20 L 72.732422 25.787109 A 14 14 0 0 0 74 20 A 14 14 0 0 0 60 6 A 14 14 0 0 0 56.855469 6.375 z "
         style="fill:#ffffff;fill-opacity:0.49803922;stroke:none;stroke-width:1;stroke-linecap:round;stroke-linejoin:round;stroke-miterlimit:4;stroke-dasharray:none;stroke-opacity:0.49803922" />
    </g>
    <g
       id="g4847"
       transform="translate(-0.3928585,1.4285626)">
      <path
         sodipodi:nodetypes="csc"
         id="path4806-8"
         d="m 114.39286,998.93362 c 0,-7.73199 -6.26801,-14 -14,-14 -7.731989,0 -14.000003,6.26801 -14.000003,14"
         style="fill:none;fill-opacity:0.49803922;stroke:#ffffff;stroke-width:4;stroke-linecap:butt;stroke-linejoin:round;stroke-miterlimit:4;stroke-dasharray:none;stroke-opacity:0.49803922"
         inkscape:connector-curvature="0" />
      <path
         sodipodi:nodetypes="csc"
         id="path4806-8-2"
         d="m 86.39286,998.93362 c 0,-7.73199 6.268014,-14 14,-14 3.86599,0 7.36599,1.567 9.8995,4.1005 l -9.8995,9.89952"
         style="fill:none;fill-opacity:0.49803922;stroke:#ffffff;stroke-width:1.5;stroke-linecap:butt;stroke-linejoin:round;stroke-miterlimit:4;stroke-dasharray:none;stroke-opacity:1"
         inkscape:connector-curvature="0" />
    </g>
    <g
       transform="translate(1e-4,39.9999)"
       id="g4916">
      <path
         inkscape:connector-curvature="0"
         id="path4918"
         d="m 32,1004.3622 -24,0 0,-26"
         style="fill:none;fill-rule:evenodd;stroke:#00a2e4;stroke-width:2;stroke-linecap:round;stroke-linejoin:miter;stroke-miterlimit:4;stroke-dasharray:none;stroke-opacity:1" />
      <path
         inkscape:connector-curvature="0"
         id="path4920"
         d="m 8,1004.3622 4,-8 8,4 4,-10 4,8 4,-10"
         style="fill:none;fill-rule:evenodd;stroke:#00a2e4;stroke-width:1px;stroke-linecap:round;stroke-linejoin:miter;stroke-opacity:1" />
      <path
         sodipodi:nodetypes="cccccc"
         inkscape:connector-curvature="0"
         id="path4922"
         d="m 8,1004.3622 3.873731,-14.17132 6.484771,5.60089 5.515229,-12.25254 L 28,990.40281 32,978.3622"
         style="fill:none;fill-rule:evenodd;stroke:#00a2e4;stroke-width:1px;stroke-linecap:butt;stroke-linejoin:miter;stroke-opacity:0.49803922" />
    </g>
    <g
       id="g5060"
       transform="translate(10e-7,-39.999994)">
      <path
         inkscape:connector-curvature="0"
         style="fill:none;fill-opacity:0.49803922;stroke:#00a2e4;stroke-width:4;stroke-linecap:butt;stroke-linejoin:round;stroke-miterlimit:4;stroke-dasharray:none;stroke-opacity:0.49803922"
         d="m 114,1079.8854 c 0,-7.732 -6.26801,-14 -14,-14 -7.731988,0 -14.000002,6.268 -14.000002,14"
         id="path4855-6"
         sodipodi:nodetypes="csc" />
      <path
         inkscape:connector-curvature="0"
         style="fill:none;fill-opacity:0.49803922;stroke:#00a2e4;stroke-width:1.5;stroke-linecap:butt;stroke-linejoin:round;stroke-miterlimit:4;stroke-dasharray:none;stroke-opacity:1"
         d="m 86.000001,1079.8854 c 0,-7.732 6.268014,-14 13.999999,-14 3.86599,0 7.36599,1.567 9.8995,4.1005 L 100,1079.8854"
         id="path4857-9"
         sodipodi:nodetypes="csc" />
    </g>
    <text
       sodipodi:linespacing="125%"
       id="text5017"
       y="1002.245"
       x="125.1355"
       style="font-style:normal;font-variant:normal;font-weight:bold;font-stretch:normal;font-size:40px;line-height:125%;font-family:Arial;-inkscape-font-specification:'Arial Bold';letter-spacing:0px;word-spacing:0px;fill:#ffffff;fill-opacity:1;stroke:none;stroke-width:1px;stroke-linecap:butt;stroke-linejoin:miter;stroke-opacity:1"
       xml:space="preserve"><tspan
         style="font-style:normal;font-variant:normal;font-weight:bold;font-stretch:normal;font-size:27.5px;font-family:Arial;-inkscape-font-specification:'Arial Bold';fill:#ffffff;fill-opacity:1"
         y="1002.245"
         x="125.1355"
         id="tspan5019"
         sodipodi:role="line">42</tspan></text>
    <text
       sodipodi:linespacing="125%"
       id="text5017-1"
       y="1042.245"
       x="125.1355"
       style="font-style:normal;font-variant:normal;font-weight:bold;font-stretch:normal;font-size:40px;line-height:125%;font-family:Arial;-inkscape-font-specification:'Arial Bold';letter-spacing:0px;word-spacing:0px;fill:#00a2e4;fill-opacity:1;stroke:none;stroke-width:1px;stroke-linecap:butt;stroke-linejoin:miter;stroke-opacity:1"
       xml:space="preserve"><tspan
         style="font-style:normal;font-variant:normal;font-weight:bold;font-stretch:normal;font-size:27.5px;font-family:Arial;-inkscape-font-specification:'Arial Bold';fill:#00a2e4;fill-opacity:1"
         y="1042.245"
         x="125.1355"
         id="tspan5019-3"
         sodipodi:role="line">42</tspan></text>
    <g
       transform="translate(0,39.999983)"
       id="g4779-7-2">
      <path
         inkscape:connector-curvature="0"
         transform="translate(0,972.3622)"
         id="path4777-0-1"
         d="M 56.855469,6.375 A 14,14 0 0 0 46,20 14,14 0 0 0 60,34 14,14 0 0 0 72.732422,25.787109 L 60,20 56.855469,6.375 Z"
         style="fill:#00a2e4;fill-opacity:1;stroke:none;stroke-width:1;stroke-linecap:round;stroke-linejoin:round;stroke-miterlimit:4;stroke-dasharray:none;stroke-opacity:0.49803922" />
      <path
         inkscape:connector-curvature="0"
         transform="translate(0,972.3622)"
         id="path4737-1-9"
         d="M 56.855469,6.375 60,20 72.732422,25.787109 A 14,14 0 0 0 74,20 14,14 0 0 0 60,6 14,14 0 0 0 56.855469,6.375 Z"
         style="fill:#00a2e4;fill-opacity:0.49803922;stroke:none;stroke-width:1;stroke-linecap:round;stroke-linejoin:round;stroke-miterlimit:4;stroke-dasharray:none;stroke-opacity:0.49803922" />
    </g>
  </g>
</svg>
